G04 EAGLE Gerber RS-274X export*
G75*
%MOMM*%
%FSLAX34Y34*%
%LPD*%
%INBottom Copper*%
%IPPOS*%
%AMOC8*
5,1,8,0,0,1.08239X$1,22.5*%
G01*
%ADD10C,1.800000*%
%ADD11C,1.981200*%
%ADD12C,1.473200*%
%ADD13R,1.200000X1.800000*%
%ADD14R,1.600000X1.800000*%
%ADD15P,1.429621X8X112.500000*%
%ADD16C,1.650000*%
%ADD17R,1.270000X1.270000*%
%ADD18C,1.270000*%
%ADD19C,1.108000*%
%ADD20C,1.778000*%
%ADD21C,1.270000*%
%ADD22C,0.756400*%
%ADD23C,0.956400*%
%ADD24C,3.937000*%
%ADD25C,1.056400*%
%ADD26C,0.508000*%
%ADD27C,1.016000*%
%ADD28C,0.406400*%

G36*
X876335Y10164D02*
X876335Y10164D01*
X876369Y10162D01*
X876558Y10184D01*
X876749Y10201D01*
X876782Y10210D01*
X876816Y10214D01*
X876999Y10269D01*
X877183Y10319D01*
X877214Y10334D01*
X877247Y10344D01*
X877418Y10431D01*
X877590Y10513D01*
X877618Y10533D01*
X877649Y10548D01*
X877801Y10664D01*
X877956Y10775D01*
X877980Y10800D01*
X878007Y10820D01*
X878136Y10961D01*
X878270Y11097D01*
X878289Y11126D01*
X878313Y11152D01*
X878415Y11313D01*
X878522Y11470D01*
X878536Y11502D01*
X878554Y11531D01*
X878627Y11708D01*
X878704Y11882D01*
X878712Y11916D01*
X878725Y11948D01*
X878765Y12135D01*
X878811Y12320D01*
X878813Y12354D01*
X878820Y12388D01*
X878839Y12700D01*
X878839Y800100D01*
X878836Y800135D01*
X878838Y800169D01*
X878816Y800358D01*
X878799Y800549D01*
X878790Y800582D01*
X878786Y800616D01*
X878731Y800799D01*
X878681Y800983D01*
X878666Y801014D01*
X878656Y801047D01*
X878569Y801218D01*
X878487Y801390D01*
X878467Y801418D01*
X878452Y801449D01*
X878336Y801601D01*
X878225Y801756D01*
X878200Y801780D01*
X878180Y801807D01*
X878040Y801936D01*
X877903Y802070D01*
X877874Y802089D01*
X877848Y802113D01*
X877687Y802215D01*
X877530Y802322D01*
X877498Y802336D01*
X877469Y802354D01*
X877292Y802427D01*
X877118Y802504D01*
X877084Y802512D01*
X877052Y802525D01*
X876865Y802565D01*
X876680Y802611D01*
X876646Y802613D01*
X876612Y802620D01*
X876300Y802639D01*
X12700Y802639D01*
X12666Y802636D01*
X12631Y802638D01*
X12442Y802616D01*
X12252Y802599D01*
X12218Y802590D01*
X12184Y802586D01*
X12001Y802531D01*
X11817Y802481D01*
X11786Y802466D01*
X11753Y802456D01*
X11582Y802369D01*
X11411Y802287D01*
X11382Y802267D01*
X11351Y802252D01*
X11199Y802136D01*
X11044Y802025D01*
X11020Y802000D01*
X10993Y801980D01*
X10864Y801840D01*
X10730Y801703D01*
X10711Y801674D01*
X10688Y801648D01*
X10585Y801487D01*
X10478Y801330D01*
X10464Y801298D01*
X10446Y801269D01*
X10373Y801092D01*
X10296Y800918D01*
X10288Y800884D01*
X10275Y800852D01*
X10235Y800665D01*
X10189Y800480D01*
X10187Y800446D01*
X10180Y800412D01*
X10161Y800100D01*
X10161Y12700D01*
X10164Y12666D01*
X10162Y12631D01*
X10184Y12442D01*
X10201Y12252D01*
X10210Y12218D01*
X10214Y12184D01*
X10269Y12001D01*
X10319Y11817D01*
X10334Y11786D01*
X10344Y11753D01*
X10431Y11582D01*
X10513Y11411D01*
X10533Y11382D01*
X10548Y11351D01*
X10664Y11199D01*
X10775Y11044D01*
X10800Y11020D01*
X10820Y10993D01*
X10961Y10864D01*
X11097Y10730D01*
X11126Y10711D01*
X11152Y10688D01*
X11313Y10585D01*
X11470Y10478D01*
X11502Y10464D01*
X11531Y10446D01*
X11708Y10373D01*
X11882Y10296D01*
X11916Y10288D01*
X11948Y10275D01*
X12135Y10235D01*
X12320Y10189D01*
X12354Y10187D01*
X12388Y10180D01*
X12700Y10161D01*
X876300Y10161D01*
X876335Y10164D01*
G37*
%LPC*%
G36*
X787320Y142671D02*
X787320Y142671D01*
X787286Y142673D01*
X787252Y142680D01*
X786940Y142699D01*
X767240Y142699D01*
X767705Y144130D01*
X768529Y145749D01*
X769597Y147218D01*
X770882Y148503D01*
X772351Y149571D01*
X773970Y150395D01*
X774389Y150531D01*
X774393Y150533D01*
X774397Y150534D01*
X774595Y150619D01*
X774803Y150708D01*
X774807Y150710D01*
X774810Y150712D01*
X774993Y150832D01*
X775179Y150955D01*
X775182Y150958D01*
X775186Y150960D01*
X775346Y151113D01*
X775506Y151264D01*
X775509Y151268D01*
X775512Y151271D01*
X775642Y151448D01*
X775773Y151627D01*
X775775Y151631D01*
X775778Y151634D01*
X775873Y151829D01*
X775972Y152031D01*
X775974Y152035D01*
X775976Y152039D01*
X776035Y152250D01*
X776097Y152463D01*
X776097Y152468D01*
X776099Y152472D01*
X776121Y152695D01*
X776143Y152911D01*
X776143Y152915D01*
X776143Y152920D01*
X776125Y153145D01*
X776109Y153360D01*
X776108Y153364D01*
X776108Y153369D01*
X776053Y153578D01*
X775997Y153796D01*
X775995Y153800D01*
X775994Y153804D01*
X775902Y154002D01*
X775809Y154206D01*
X775807Y154209D01*
X775805Y154213D01*
X775678Y154394D01*
X775552Y154575D01*
X775549Y154578D01*
X775546Y154582D01*
X775388Y154740D01*
X775234Y154894D01*
X775230Y154896D01*
X775227Y154899D01*
X775042Y155027D01*
X774864Y155151D01*
X774860Y155153D01*
X774857Y155155D01*
X774576Y155292D01*
X772438Y156178D01*
X772134Y156482D01*
X772008Y156587D01*
X771887Y156699D01*
X771836Y156731D01*
X771789Y156770D01*
X771646Y156852D01*
X771507Y156940D01*
X771451Y156964D01*
X771398Y156994D01*
X771243Y157049D01*
X771091Y157111D01*
X771031Y157124D01*
X770974Y157145D01*
X770811Y157171D01*
X770651Y157206D01*
X770574Y157211D01*
X770529Y157218D01*
X770468Y157217D01*
X770339Y157225D01*
X763164Y157225D01*
X763129Y157222D01*
X763095Y157224D01*
X762906Y157202D01*
X762715Y157185D01*
X762682Y157176D01*
X762648Y157172D01*
X762465Y157117D01*
X762281Y157067D01*
X762250Y157052D01*
X762217Y157042D01*
X762046Y156955D01*
X761874Y156873D01*
X761846Y156853D01*
X761815Y156838D01*
X761663Y156722D01*
X761508Y156611D01*
X761484Y156586D01*
X761457Y156566D01*
X761328Y156426D01*
X761194Y156289D01*
X761175Y156260D01*
X761151Y156234D01*
X761049Y156073D01*
X760942Y155916D01*
X760928Y155884D01*
X760910Y155855D01*
X760839Y155683D01*
X759732Y154575D01*
X746468Y154575D01*
X745575Y155468D01*
X745575Y162184D01*
X745565Y162300D01*
X745565Y162417D01*
X745545Y162524D01*
X745535Y162632D01*
X745505Y162745D01*
X745484Y162860D01*
X745433Y163006D01*
X745417Y163066D01*
X745401Y163099D01*
X745382Y163155D01*
X745225Y163534D01*
X745225Y166666D01*
X745382Y167045D01*
X745417Y167156D01*
X745461Y167264D01*
X745484Y167371D01*
X745517Y167474D01*
X745531Y167590D01*
X745556Y167705D01*
X745566Y167858D01*
X745573Y167921D01*
X745572Y167957D01*
X745575Y168016D01*
X745575Y174732D01*
X746848Y176004D01*
X746870Y176031D01*
X746896Y176054D01*
X746961Y176136D01*
X746974Y176149D01*
X746987Y176168D01*
X747015Y176203D01*
X747137Y176350D01*
X747154Y176380D01*
X747176Y176407D01*
X747266Y176575D01*
X747360Y176741D01*
X747372Y176773D01*
X747388Y176804D01*
X747447Y176985D01*
X747511Y177165D01*
X747517Y177199D01*
X747528Y177232D01*
X747554Y177421D01*
X747585Y177609D01*
X747584Y177644D01*
X747589Y177678D01*
X747581Y177869D01*
X747579Y178060D01*
X747572Y178094D01*
X747571Y178128D01*
X747529Y178314D01*
X747493Y178502D01*
X747481Y178534D01*
X747473Y178568D01*
X747400Y178743D01*
X747331Y178922D01*
X747313Y178951D01*
X747299Y178983D01*
X747196Y179143D01*
X747097Y179306D01*
X747074Y179332D01*
X747055Y179361D01*
X746848Y179596D01*
X745575Y180868D01*
X745575Y187584D01*
X745565Y187700D01*
X745565Y187817D01*
X745545Y187924D01*
X745535Y188032D01*
X745505Y188145D01*
X745484Y188260D01*
X745433Y188406D01*
X745417Y188466D01*
X745401Y188499D01*
X745382Y188555D01*
X745225Y188934D01*
X745225Y192066D01*
X745382Y192445D01*
X745417Y192556D01*
X745461Y192664D01*
X745484Y192771D01*
X745517Y192874D01*
X745531Y192990D01*
X745556Y193105D01*
X745566Y193258D01*
X745573Y193321D01*
X745572Y193357D01*
X745575Y193416D01*
X745575Y200132D01*
X746848Y201404D01*
X746870Y201431D01*
X746896Y201454D01*
X746962Y201537D01*
X746966Y201541D01*
X746970Y201548D01*
X747014Y201603D01*
X747137Y201750D01*
X747154Y201780D01*
X747176Y201807D01*
X747266Y201975D01*
X747360Y202141D01*
X747372Y202173D01*
X747388Y202204D01*
X747447Y202385D01*
X747511Y202565D01*
X747517Y202599D01*
X747528Y202632D01*
X747554Y202821D01*
X747585Y203009D01*
X747584Y203044D01*
X747589Y203078D01*
X747581Y203269D01*
X747579Y203459D01*
X747572Y203494D01*
X747571Y203528D01*
X747529Y203714D01*
X747493Y203902D01*
X747481Y203934D01*
X747473Y203968D01*
X747399Y204144D01*
X747331Y204322D01*
X747313Y204351D01*
X747299Y204383D01*
X747196Y204544D01*
X747097Y204706D01*
X747074Y204732D01*
X747055Y204761D01*
X746848Y204996D01*
X745575Y206268D01*
X745575Y212984D01*
X745565Y213100D01*
X745565Y213217D01*
X745545Y213324D01*
X745535Y213432D01*
X745505Y213545D01*
X745484Y213660D01*
X745433Y213806D01*
X745417Y213866D01*
X745401Y213899D01*
X745382Y213955D01*
X745225Y214334D01*
X745225Y217466D01*
X745382Y217845D01*
X745417Y217956D01*
X745461Y218064D01*
X745484Y218171D01*
X745517Y218274D01*
X745531Y218390D01*
X745556Y218505D01*
X745566Y218658D01*
X745573Y218721D01*
X745572Y218757D01*
X745575Y218816D01*
X745575Y225532D01*
X746848Y226804D01*
X746870Y226831D01*
X746896Y226854D01*
X747015Y227003D01*
X747137Y227150D01*
X747154Y227180D01*
X747176Y227207D01*
X747266Y227375D01*
X747360Y227541D01*
X747372Y227573D01*
X747388Y227604D01*
X747447Y227785D01*
X747511Y227965D01*
X747517Y227999D01*
X747528Y228032D01*
X747554Y228221D01*
X747585Y228409D01*
X747584Y228444D01*
X747589Y228478D01*
X747581Y228669D01*
X747579Y228860D01*
X747572Y228894D01*
X747571Y228928D01*
X747529Y229114D01*
X747493Y229302D01*
X747481Y229334D01*
X747473Y229368D01*
X747400Y229543D01*
X747331Y229722D01*
X747313Y229751D01*
X747299Y229783D01*
X747196Y229943D01*
X747097Y230106D01*
X747074Y230132D01*
X747055Y230161D01*
X746848Y230396D01*
X745575Y231668D01*
X745575Y238384D01*
X745565Y238500D01*
X745565Y238617D01*
X745545Y238724D01*
X745535Y238832D01*
X745505Y238945D01*
X745484Y239060D01*
X745433Y239206D01*
X745417Y239266D01*
X745401Y239299D01*
X745382Y239355D01*
X745225Y239734D01*
X745225Y242866D01*
X745382Y243245D01*
X745417Y243356D01*
X745461Y243464D01*
X745484Y243571D01*
X745517Y243674D01*
X745531Y243790D01*
X745556Y243905D01*
X745565Y244058D01*
X745573Y244121D01*
X745572Y244157D01*
X745575Y244216D01*
X745575Y250932D01*
X746848Y252204D01*
X746870Y252231D01*
X746896Y252254D01*
X747015Y252403D01*
X747137Y252550D01*
X747154Y252580D01*
X747176Y252607D01*
X747266Y252775D01*
X747360Y252941D01*
X747372Y252973D01*
X747388Y253004D01*
X747447Y253185D01*
X747511Y253365D01*
X747517Y253399D01*
X747528Y253432D01*
X747554Y253621D01*
X747585Y253809D01*
X747584Y253844D01*
X747589Y253878D01*
X747581Y254069D01*
X747579Y254260D01*
X747572Y254294D01*
X747571Y254328D01*
X747529Y254514D01*
X747493Y254702D01*
X747481Y254734D01*
X747473Y254768D01*
X747400Y254943D01*
X747331Y255122D01*
X747313Y255151D01*
X747299Y255183D01*
X747196Y255343D01*
X747097Y255506D01*
X747074Y255532D01*
X747055Y255561D01*
X746848Y255796D01*
X745575Y257068D01*
X745575Y263784D01*
X745565Y263900D01*
X745565Y264017D01*
X745545Y264124D01*
X745535Y264232D01*
X745505Y264345D01*
X745484Y264460D01*
X745433Y264606D01*
X745417Y264666D01*
X745401Y264699D01*
X745382Y264755D01*
X745225Y265134D01*
X745225Y268266D01*
X745382Y268645D01*
X745417Y268756D01*
X745461Y268864D01*
X745484Y268971D01*
X745517Y269074D01*
X745531Y269190D01*
X745556Y269305D01*
X745566Y269458D01*
X745573Y269521D01*
X745572Y269557D01*
X745575Y269616D01*
X745575Y276332D01*
X746848Y277604D01*
X746870Y277631D01*
X746896Y277654D01*
X747014Y277803D01*
X747137Y277950D01*
X747154Y277980D01*
X747176Y278007D01*
X747266Y278175D01*
X747360Y278341D01*
X747372Y278373D01*
X747388Y278404D01*
X747447Y278585D01*
X747511Y278765D01*
X747517Y278799D01*
X747528Y278832D01*
X747554Y279021D01*
X747585Y279209D01*
X747584Y279244D01*
X747589Y279278D01*
X747581Y279469D01*
X747579Y279659D01*
X747572Y279694D01*
X747571Y279728D01*
X747529Y279914D01*
X747493Y280102D01*
X747481Y280134D01*
X747473Y280168D01*
X747399Y280344D01*
X747331Y280522D01*
X747313Y280551D01*
X747299Y280583D01*
X747196Y280744D01*
X747097Y280906D01*
X747074Y280932D01*
X747055Y280961D01*
X746848Y281196D01*
X745575Y282468D01*
X745575Y289184D01*
X745565Y289300D01*
X745565Y289417D01*
X745545Y289524D01*
X745535Y289632D01*
X745505Y289745D01*
X745484Y289860D01*
X745433Y290006D01*
X745417Y290066D01*
X745401Y290099D01*
X745382Y290155D01*
X745225Y290534D01*
X745225Y293666D01*
X745382Y294045D01*
X745417Y294156D01*
X745461Y294264D01*
X745484Y294371D01*
X745517Y294474D01*
X745531Y294590D01*
X745556Y294705D01*
X745566Y294858D01*
X745573Y294921D01*
X745572Y294957D01*
X745575Y295016D01*
X745575Y301732D01*
X746848Y303004D01*
X746870Y303031D01*
X746896Y303054D01*
X747014Y303203D01*
X747137Y303350D01*
X747154Y303380D01*
X747176Y303407D01*
X747266Y303575D01*
X747360Y303741D01*
X747372Y303773D01*
X747388Y303804D01*
X747447Y303985D01*
X747511Y304165D01*
X747517Y304199D01*
X747528Y304232D01*
X747554Y304421D01*
X747585Y304609D01*
X747584Y304644D01*
X747589Y304678D01*
X747581Y304869D01*
X747579Y305059D01*
X747572Y305094D01*
X747571Y305128D01*
X747529Y305314D01*
X747493Y305502D01*
X747481Y305534D01*
X747473Y305568D01*
X747399Y305744D01*
X747331Y305922D01*
X747313Y305951D01*
X747299Y305983D01*
X747196Y306144D01*
X747097Y306306D01*
X747074Y306332D01*
X747055Y306361D01*
X746848Y306596D01*
X745575Y307868D01*
X745575Y314584D01*
X745565Y314700D01*
X745565Y314817D01*
X745545Y314924D01*
X745535Y315032D01*
X745505Y315145D01*
X745484Y315260D01*
X745433Y315406D01*
X745417Y315466D01*
X745401Y315499D01*
X745382Y315555D01*
X745225Y315934D01*
X745225Y319066D01*
X745382Y319445D01*
X745417Y319556D01*
X745461Y319664D01*
X745484Y319771D01*
X745517Y319874D01*
X745531Y319990D01*
X745556Y320105D01*
X745566Y320258D01*
X745573Y320321D01*
X745572Y320357D01*
X745575Y320416D01*
X745575Y327132D01*
X746848Y328404D01*
X746870Y328431D01*
X746896Y328454D01*
X747015Y328603D01*
X747137Y328750D01*
X747154Y328780D01*
X747176Y328807D01*
X747266Y328975D01*
X747360Y329141D01*
X747372Y329173D01*
X747388Y329204D01*
X747447Y329385D01*
X747511Y329565D01*
X747517Y329599D01*
X747528Y329632D01*
X747554Y329821D01*
X747585Y330009D01*
X747584Y330044D01*
X747589Y330078D01*
X747581Y330269D01*
X747579Y330460D01*
X747572Y330494D01*
X747571Y330528D01*
X747529Y330714D01*
X747493Y330902D01*
X747481Y330934D01*
X747473Y330968D01*
X747400Y331143D01*
X747331Y331322D01*
X747313Y331351D01*
X747299Y331383D01*
X747196Y331543D01*
X747097Y331706D01*
X747074Y331732D01*
X747055Y331761D01*
X746848Y331996D01*
X745575Y333268D01*
X745575Y339984D01*
X745565Y340100D01*
X745565Y340217D01*
X745545Y340324D01*
X745535Y340432D01*
X745505Y340545D01*
X745484Y340660D01*
X745433Y340806D01*
X745417Y340866D01*
X745401Y340899D01*
X745382Y340955D01*
X745225Y341334D01*
X745225Y344466D01*
X745382Y344845D01*
X745417Y344956D01*
X745461Y345064D01*
X745484Y345171D01*
X745517Y345274D01*
X745531Y345390D01*
X745556Y345505D01*
X745566Y345658D01*
X745573Y345721D01*
X745572Y345757D01*
X745575Y345816D01*
X745575Y352532D01*
X746468Y353425D01*
X759732Y353425D01*
X760827Y352329D01*
X760895Y352196D01*
X760977Y352024D01*
X760997Y351996D01*
X761012Y351965D01*
X761128Y351813D01*
X761239Y351658D01*
X761264Y351634D01*
X761284Y351607D01*
X761424Y351478D01*
X761561Y351344D01*
X761590Y351325D01*
X761616Y351301D01*
X761777Y351199D01*
X761934Y351092D01*
X761966Y351078D01*
X761995Y351060D01*
X762172Y350987D01*
X762346Y350910D01*
X762380Y350902D01*
X762412Y350889D01*
X762599Y350849D01*
X762784Y350803D01*
X762818Y350801D01*
X762852Y350794D01*
X763164Y350775D01*
X770339Y350775D01*
X770503Y350789D01*
X770667Y350796D01*
X770726Y350809D01*
X770787Y350815D01*
X770946Y350858D01*
X771106Y350894D01*
X771163Y350917D01*
X771222Y350933D01*
X771370Y351004D01*
X771522Y351067D01*
X771573Y351100D01*
X771628Y351127D01*
X771762Y351222D01*
X771900Y351312D01*
X771958Y351363D01*
X771994Y351389D01*
X772037Y351432D01*
X772134Y351519D01*
X772438Y351822D01*
X776306Y353425D01*
X798494Y353425D01*
X802362Y351822D01*
X802666Y351518D01*
X802792Y351413D01*
X802913Y351301D01*
X802964Y351269D01*
X803011Y351230D01*
X803154Y351148D01*
X803293Y351060D01*
X803349Y351036D01*
X803402Y351006D01*
X803557Y350951D01*
X803709Y350889D01*
X803769Y350876D01*
X803826Y350855D01*
X803989Y350829D01*
X804149Y350794D01*
X804226Y350789D01*
X804271Y350782D01*
X804332Y350783D01*
X804461Y350775D01*
X812136Y350775D01*
X812171Y350778D01*
X812205Y350776D01*
X812394Y350798D01*
X812585Y350815D01*
X812618Y350824D01*
X812652Y350828D01*
X812835Y350883D01*
X813019Y350933D01*
X813050Y350948D01*
X813083Y350958D01*
X813254Y351045D01*
X813426Y351127D01*
X813454Y351147D01*
X813485Y351162D01*
X813637Y351278D01*
X813792Y351389D01*
X813816Y351414D01*
X813843Y351434D01*
X813972Y351574D01*
X814106Y351711D01*
X814125Y351740D01*
X814149Y351766D01*
X814251Y351927D01*
X814358Y352084D01*
X814372Y352116D01*
X814390Y352145D01*
X814461Y352317D01*
X815568Y353425D01*
X832832Y353425D01*
X833725Y352532D01*
X833725Y333268D01*
X832452Y331996D01*
X832430Y331969D01*
X832404Y331946D01*
X832286Y331797D01*
X832163Y331650D01*
X832146Y331620D01*
X832124Y331593D01*
X832034Y331425D01*
X831940Y331259D01*
X831928Y331227D01*
X831912Y331196D01*
X831853Y331015D01*
X831789Y330835D01*
X831783Y330801D01*
X831772Y330768D01*
X831746Y330579D01*
X831715Y330391D01*
X831716Y330356D01*
X831711Y330322D01*
X831719Y330131D01*
X831721Y329941D01*
X831728Y329906D01*
X831729Y329872D01*
X831771Y329686D01*
X831807Y329498D01*
X831819Y329466D01*
X831827Y329432D01*
X831901Y329256D01*
X831969Y329078D01*
X831987Y329049D01*
X832001Y329017D01*
X832104Y328856D01*
X832203Y328694D01*
X832226Y328668D01*
X832245Y328639D01*
X832452Y328404D01*
X833725Y327132D01*
X833725Y307868D01*
X832452Y306596D01*
X832430Y306569D01*
X832404Y306546D01*
X832285Y306397D01*
X832163Y306250D01*
X832146Y306220D01*
X832124Y306193D01*
X832034Y306025D01*
X831940Y305859D01*
X831928Y305827D01*
X831912Y305796D01*
X831853Y305615D01*
X831789Y305435D01*
X831783Y305401D01*
X831772Y305368D01*
X831746Y305179D01*
X831715Y304991D01*
X831716Y304956D01*
X831711Y304922D01*
X831719Y304731D01*
X831721Y304540D01*
X831728Y304506D01*
X831729Y304472D01*
X831771Y304286D01*
X831807Y304098D01*
X831819Y304066D01*
X831827Y304032D01*
X831900Y303857D01*
X831969Y303678D01*
X831987Y303649D01*
X832001Y303617D01*
X832104Y303457D01*
X832203Y303294D01*
X832226Y303268D01*
X832245Y303239D01*
X832452Y303004D01*
X833725Y301732D01*
X833725Y282468D01*
X832452Y281196D01*
X832430Y281169D01*
X832404Y281146D01*
X832286Y280997D01*
X832163Y280850D01*
X832146Y280820D01*
X832124Y280793D01*
X832034Y280625D01*
X831940Y280459D01*
X831928Y280427D01*
X831912Y280396D01*
X831853Y280215D01*
X831789Y280035D01*
X831783Y280001D01*
X831772Y279968D01*
X831746Y279779D01*
X831715Y279591D01*
X831716Y279556D01*
X831711Y279522D01*
X831719Y279331D01*
X831721Y279141D01*
X831728Y279106D01*
X831729Y279072D01*
X831771Y278886D01*
X831807Y278698D01*
X831819Y278666D01*
X831827Y278632D01*
X831901Y278456D01*
X831969Y278278D01*
X831987Y278249D01*
X832001Y278217D01*
X832104Y278056D01*
X832203Y277894D01*
X832226Y277868D01*
X832245Y277839D01*
X832452Y277604D01*
X833725Y276332D01*
X833725Y257068D01*
X832452Y255796D01*
X832430Y255769D01*
X832404Y255746D01*
X832285Y255597D01*
X832163Y255450D01*
X832146Y255420D01*
X832124Y255393D01*
X832034Y255224D01*
X831940Y255059D01*
X831928Y255027D01*
X831912Y254996D01*
X831853Y254815D01*
X831789Y254635D01*
X831783Y254601D01*
X831772Y254568D01*
X831746Y254379D01*
X831715Y254191D01*
X831716Y254156D01*
X831711Y254122D01*
X831719Y253931D01*
X831721Y253740D01*
X831728Y253706D01*
X831729Y253672D01*
X831771Y253486D01*
X831807Y253298D01*
X831819Y253266D01*
X831827Y253232D01*
X831900Y253057D01*
X831969Y252878D01*
X831987Y252849D01*
X832001Y252817D01*
X832104Y252657D01*
X832203Y252494D01*
X832226Y252468D01*
X832245Y252439D01*
X832452Y252204D01*
X833725Y250932D01*
X833725Y231668D01*
X832452Y230396D01*
X832430Y230369D01*
X832404Y230346D01*
X832285Y230197D01*
X832163Y230050D01*
X832146Y230020D01*
X832124Y229993D01*
X832034Y229825D01*
X831940Y229659D01*
X831928Y229627D01*
X831912Y229596D01*
X831853Y229415D01*
X831789Y229235D01*
X831783Y229201D01*
X831772Y229168D01*
X831746Y228979D01*
X831715Y228791D01*
X831716Y228756D01*
X831711Y228722D01*
X831719Y228531D01*
X831721Y228340D01*
X831728Y228306D01*
X831729Y228272D01*
X831771Y228086D01*
X831807Y227898D01*
X831819Y227866D01*
X831827Y227832D01*
X831900Y227657D01*
X831969Y227478D01*
X831987Y227449D01*
X832001Y227417D01*
X832104Y227257D01*
X832203Y227094D01*
X832226Y227068D01*
X832245Y227039D01*
X832452Y226804D01*
X833725Y225532D01*
X833725Y206268D01*
X832452Y204996D01*
X832430Y204969D01*
X832404Y204946D01*
X832285Y204797D01*
X832163Y204650D01*
X832146Y204620D01*
X832124Y204593D01*
X832034Y204425D01*
X831940Y204259D01*
X831928Y204227D01*
X831912Y204196D01*
X831853Y204015D01*
X831789Y203835D01*
X831783Y203801D01*
X831772Y203768D01*
X831746Y203579D01*
X831715Y203391D01*
X831716Y203356D01*
X831711Y203322D01*
X831719Y203131D01*
X831721Y202940D01*
X831728Y202906D01*
X831729Y202872D01*
X831771Y202686D01*
X831807Y202498D01*
X831819Y202466D01*
X831827Y202432D01*
X831900Y202257D01*
X831969Y202078D01*
X831987Y202049D01*
X832001Y202017D01*
X832104Y201857D01*
X832203Y201694D01*
X832226Y201668D01*
X832245Y201639D01*
X832452Y201404D01*
X833725Y200132D01*
X833725Y180868D01*
X832452Y179596D01*
X832430Y179569D01*
X832404Y179546D01*
X832286Y179397D01*
X832163Y179250D01*
X832146Y179220D01*
X832124Y179193D01*
X832034Y179025D01*
X831940Y178859D01*
X831928Y178827D01*
X831912Y178796D01*
X831853Y178615D01*
X831789Y178435D01*
X831783Y178401D01*
X831772Y178368D01*
X831746Y178179D01*
X831715Y177991D01*
X831716Y177956D01*
X831711Y177922D01*
X831719Y177731D01*
X831721Y177541D01*
X831728Y177506D01*
X831729Y177472D01*
X831771Y177286D01*
X831807Y177098D01*
X831819Y177066D01*
X831827Y177032D01*
X831901Y176856D01*
X831969Y176678D01*
X831987Y176649D01*
X832001Y176617D01*
X832104Y176456D01*
X832203Y176294D01*
X832226Y176268D01*
X832245Y176239D01*
X832414Y176047D01*
X832417Y176044D01*
X832419Y176042D01*
X832452Y176004D01*
X833725Y174732D01*
X833725Y155468D01*
X832832Y154575D01*
X815568Y154575D01*
X814473Y155671D01*
X814405Y155804D01*
X814323Y155976D01*
X814303Y156004D01*
X814288Y156035D01*
X814172Y156187D01*
X814061Y156342D01*
X814036Y156366D01*
X814016Y156393D01*
X813876Y156522D01*
X813739Y156656D01*
X813710Y156675D01*
X813684Y156699D01*
X813523Y156801D01*
X813366Y156908D01*
X813334Y156922D01*
X813305Y156940D01*
X813128Y157013D01*
X812954Y157090D01*
X812920Y157098D01*
X812888Y157111D01*
X812701Y157151D01*
X812516Y157197D01*
X812482Y157199D01*
X812448Y157206D01*
X812136Y157225D01*
X804461Y157225D01*
X804298Y157211D01*
X804133Y157204D01*
X804074Y157191D01*
X804013Y157185D01*
X803854Y157142D01*
X803694Y157106D01*
X803637Y157083D01*
X803578Y157067D01*
X803430Y156996D01*
X803278Y156933D01*
X803227Y156900D01*
X803172Y156873D01*
X803038Y156778D01*
X802900Y156688D01*
X802842Y156637D01*
X802806Y156611D01*
X802763Y156568D01*
X802666Y156482D01*
X802362Y156178D01*
X800224Y155292D01*
X800220Y155290D01*
X800216Y155289D01*
X800025Y155188D01*
X799825Y155084D01*
X799822Y155081D01*
X799818Y155079D01*
X799647Y154946D01*
X799469Y154808D01*
X799466Y154805D01*
X799463Y154802D01*
X799312Y154634D01*
X799168Y154474D01*
X799165Y154470D01*
X799162Y154467D01*
X799043Y154273D01*
X798930Y154091D01*
X798928Y154087D01*
X798926Y154084D01*
X798845Y153879D01*
X798763Y153673D01*
X798762Y153669D01*
X798761Y153665D01*
X798718Y153453D01*
X798673Y153232D01*
X798673Y153228D01*
X798672Y153223D01*
X798668Y153008D01*
X798662Y152782D01*
X798663Y152777D01*
X798663Y152773D01*
X798696Y152560D01*
X798731Y152337D01*
X798732Y152333D01*
X798733Y152329D01*
X798806Y152118D01*
X798877Y151911D01*
X798879Y151907D01*
X798881Y151903D01*
X798992Y151705D01*
X799097Y151518D01*
X799099Y151514D01*
X799101Y151511D01*
X799241Y151341D01*
X799382Y151169D01*
X799385Y151167D01*
X799388Y151163D01*
X799554Y151023D01*
X799724Y150877D01*
X799728Y150875D01*
X799731Y150872D01*
X799919Y150763D01*
X800113Y150650D01*
X800117Y150648D01*
X800121Y150646D01*
X800411Y150531D01*
X800830Y150395D01*
X802449Y149571D01*
X803918Y148503D01*
X805203Y147218D01*
X806271Y145749D01*
X807095Y144130D01*
X807560Y142699D01*
X787860Y142699D01*
X787826Y142696D01*
X787791Y142698D01*
X787602Y142676D01*
X787412Y142659D01*
X787390Y142654D01*
X787320Y142671D01*
G37*
%LPD*%
%LPC*%
G36*
X697444Y581843D02*
X697444Y581843D01*
X695494Y582651D01*
X694001Y584144D01*
X693193Y586094D01*
X693193Y588206D01*
X694001Y590156D01*
X694200Y590354D01*
X694305Y590481D01*
X694417Y590601D01*
X694449Y590653D01*
X694488Y590700D01*
X694570Y590842D01*
X694658Y590981D01*
X694682Y591038D01*
X694712Y591091D01*
X694767Y591246D01*
X694829Y591398D01*
X694842Y591457D01*
X694863Y591515D01*
X694889Y591677D01*
X694924Y591838D01*
X694929Y591915D01*
X694936Y591959D01*
X694935Y592020D01*
X694943Y592150D01*
X694943Y601476D01*
X694932Y601606D01*
X694930Y601736D01*
X694912Y601830D01*
X694903Y601925D01*
X694869Y602051D01*
X694844Y602178D01*
X694810Y602267D01*
X694785Y602359D01*
X694729Y602477D01*
X694682Y602598D01*
X694632Y602680D01*
X694591Y602766D01*
X694516Y602871D01*
X694448Y602983D01*
X694385Y603054D01*
X694329Y603132D01*
X694236Y603223D01*
X694150Y603320D01*
X694075Y603379D01*
X694007Y603446D01*
X693899Y603519D01*
X693797Y603600D01*
X693713Y603645D01*
X693634Y603698D01*
X693515Y603751D01*
X693400Y603812D01*
X693309Y603842D01*
X693222Y603880D01*
X693096Y603911D01*
X692972Y603951D01*
X692877Y603964D01*
X692784Y603987D01*
X692655Y603995D01*
X692526Y604013D01*
X692430Y604009D01*
X692335Y604015D01*
X692206Y604000D01*
X692076Y603994D01*
X691983Y603974D01*
X691888Y603963D01*
X691763Y603925D01*
X691636Y603897D01*
X691548Y603860D01*
X691457Y603832D01*
X691341Y603773D01*
X691221Y603723D01*
X691141Y603671D01*
X691055Y603628D01*
X690952Y603549D01*
X690843Y603479D01*
X690745Y603393D01*
X690697Y603356D01*
X690666Y603323D01*
X690608Y603272D01*
X690261Y602924D01*
X687366Y601725D01*
X684234Y601725D01*
X681339Y602924D01*
X679124Y605139D01*
X677925Y608034D01*
X677925Y611166D01*
X679124Y614061D01*
X681500Y616436D01*
X681605Y616562D01*
X681717Y616683D01*
X681749Y616735D01*
X681788Y616781D01*
X681870Y616924D01*
X681958Y617063D01*
X681982Y617120D01*
X682012Y617172D01*
X682067Y617327D01*
X682129Y617480D01*
X682142Y617539D01*
X682163Y617597D01*
X682189Y617759D01*
X682224Y617920D01*
X682229Y617997D01*
X682236Y618041D01*
X682235Y618102D01*
X682243Y618232D01*
X682243Y642700D01*
X682229Y642864D01*
X682222Y643028D01*
X682209Y643088D01*
X682203Y643149D01*
X682160Y643307D01*
X682124Y643468D01*
X682101Y643524D01*
X682085Y643583D01*
X682015Y643731D01*
X681951Y643883D01*
X681918Y643935D01*
X681891Y643990D01*
X681796Y644123D01*
X681706Y644261D01*
X681655Y644319D01*
X681629Y644356D01*
X681586Y644398D01*
X681500Y644496D01*
X681301Y644694D01*
X680493Y646644D01*
X680493Y648756D01*
X681301Y650706D01*
X682794Y652199D01*
X684744Y653007D01*
X686856Y653007D01*
X688806Y652199D01*
X690608Y650396D01*
X690708Y650313D01*
X690801Y650222D01*
X690881Y650169D01*
X690954Y650107D01*
X691067Y650043D01*
X691174Y649970D01*
X691262Y649931D01*
X691345Y649884D01*
X691467Y649841D01*
X691586Y649788D01*
X691679Y649765D01*
X691769Y649733D01*
X691897Y649712D01*
X692024Y649681D01*
X692119Y649675D01*
X692213Y649660D01*
X692343Y649662D01*
X692473Y649654D01*
X692568Y649665D01*
X692664Y649666D01*
X692791Y649691D01*
X692920Y649706D01*
X693012Y649733D01*
X693106Y649751D01*
X693227Y649798D01*
X693351Y649836D01*
X693437Y649879D01*
X693526Y649914D01*
X693637Y649981D01*
X693753Y650040D01*
X693829Y650098D01*
X693910Y650148D01*
X694008Y650234D01*
X694111Y650312D01*
X694176Y650383D01*
X694248Y650446D01*
X694328Y650548D01*
X694417Y650643D01*
X694468Y650724D01*
X694527Y650799D01*
X694589Y650914D01*
X694658Y651023D01*
X694695Y651112D01*
X694740Y651196D01*
X694780Y651320D01*
X694829Y651440D01*
X694849Y651533D01*
X694879Y651624D01*
X694897Y651753D01*
X694924Y651880D01*
X694932Y652010D01*
X694940Y652070D01*
X694939Y652115D01*
X694943Y652192D01*
X694943Y670575D01*
X694929Y670739D01*
X694922Y670903D01*
X694909Y670963D01*
X694903Y671023D01*
X694860Y671182D01*
X694824Y671343D01*
X694801Y671399D01*
X694785Y671458D01*
X694714Y671606D01*
X694651Y671758D01*
X694618Y671810D01*
X694591Y671864D01*
X694496Y671998D01*
X694406Y672136D01*
X694355Y672194D01*
X694329Y672231D01*
X694286Y672273D01*
X694200Y672370D01*
X689388Y677182D01*
X689262Y677287D01*
X689141Y677399D01*
X689090Y677431D01*
X689043Y677470D01*
X688900Y677552D01*
X688762Y677640D01*
X688705Y677664D01*
X688652Y677694D01*
X688497Y677749D01*
X688345Y677811D01*
X688285Y677824D01*
X688228Y677845D01*
X688066Y677871D01*
X687905Y677906D01*
X687828Y677911D01*
X687784Y677918D01*
X687723Y677917D01*
X687593Y677925D01*
X684234Y677925D01*
X681339Y679124D01*
X679124Y681339D01*
X677925Y684234D01*
X677925Y687366D01*
X679124Y690261D01*
X681339Y692476D01*
X684234Y693675D01*
X687366Y693675D01*
X690261Y692476D01*
X692476Y690261D01*
X693675Y687366D01*
X693675Y684007D01*
X693689Y683843D01*
X693696Y683679D01*
X693709Y683619D01*
X693715Y683559D01*
X693758Y683400D01*
X693794Y683239D01*
X693817Y683183D01*
X693833Y683124D01*
X693904Y682976D01*
X693967Y682824D01*
X694000Y682772D01*
X694027Y682718D01*
X694122Y682584D01*
X694212Y682446D01*
X694263Y682388D01*
X694289Y682351D01*
X694332Y682309D01*
X694418Y682212D01*
X701515Y675115D01*
X702057Y673807D01*
X702057Y664892D01*
X702068Y664762D01*
X702070Y664632D01*
X702088Y664539D01*
X702097Y664443D01*
X702131Y664318D01*
X702156Y664190D01*
X702190Y664101D01*
X702215Y664009D01*
X702271Y663892D01*
X702318Y663770D01*
X702368Y663688D01*
X702409Y663602D01*
X702484Y663497D01*
X702552Y663385D01*
X702615Y663314D01*
X702671Y663236D01*
X702764Y663146D01*
X702850Y663048D01*
X702925Y662989D01*
X702993Y662922D01*
X703101Y662849D01*
X703203Y662769D01*
X703287Y662724D01*
X703366Y662670D01*
X703485Y662618D01*
X703600Y662556D01*
X703691Y662527D01*
X703778Y662488D01*
X703905Y662457D01*
X704028Y662417D01*
X704123Y662404D01*
X704216Y662381D01*
X704345Y662373D01*
X704474Y662356D01*
X704570Y662359D01*
X704665Y662354D01*
X704794Y662369D01*
X704924Y662374D01*
X705017Y662395D01*
X705112Y662406D01*
X705237Y662443D01*
X705364Y662471D01*
X705452Y662508D01*
X705543Y662536D01*
X705659Y662595D01*
X705779Y662645D01*
X705859Y662697D01*
X705945Y662740D01*
X706048Y662819D01*
X706157Y662889D01*
X706255Y662976D01*
X706303Y663012D01*
X706334Y663045D01*
X706392Y663096D01*
X706900Y663604D01*
X707005Y663730D01*
X707117Y663851D01*
X707149Y663903D01*
X707188Y663950D01*
X707270Y664092D01*
X707358Y664231D01*
X707382Y664288D01*
X707412Y664341D01*
X707467Y664496D01*
X707529Y664648D01*
X707542Y664708D01*
X707563Y664765D01*
X707589Y664927D01*
X707624Y665088D01*
X707629Y665165D01*
X707636Y665209D01*
X707635Y665270D01*
X707643Y665400D01*
X707643Y677168D01*
X707629Y677332D01*
X707622Y677497D01*
X707609Y677556D01*
X707603Y677617D01*
X707560Y677776D01*
X707524Y677936D01*
X707501Y677992D01*
X707485Y678051D01*
X707414Y678199D01*
X707351Y678352D01*
X707318Y678403D01*
X707291Y678458D01*
X707196Y678591D01*
X707106Y678730D01*
X707055Y678788D01*
X707029Y678824D01*
X706986Y678866D01*
X706900Y678964D01*
X704524Y681339D01*
X703325Y684234D01*
X703325Y687366D01*
X704524Y690261D01*
X706739Y692476D01*
X709634Y693675D01*
X712766Y693675D01*
X715661Y692476D01*
X717876Y690261D01*
X719075Y687366D01*
X719075Y684234D01*
X717876Y681339D01*
X715500Y678964D01*
X715395Y678838D01*
X715283Y678717D01*
X715251Y678665D01*
X715212Y678619D01*
X715130Y678476D01*
X715042Y678337D01*
X715018Y678280D01*
X714988Y678228D01*
X714933Y678073D01*
X714871Y677920D01*
X714858Y677861D01*
X714837Y677803D01*
X714811Y677641D01*
X714776Y677480D01*
X714771Y677403D01*
X714764Y677359D01*
X714765Y677298D01*
X714757Y677168D01*
X714757Y665400D01*
X714771Y665236D01*
X714778Y665072D01*
X714791Y665012D01*
X714797Y664951D01*
X714840Y664793D01*
X714876Y664632D01*
X714899Y664576D01*
X714915Y664517D01*
X714986Y664369D01*
X715049Y664217D01*
X715082Y664165D01*
X715109Y664110D01*
X715204Y663977D01*
X715294Y663839D01*
X715345Y663781D01*
X715371Y663744D01*
X715414Y663702D01*
X715500Y663604D01*
X715699Y663406D01*
X716507Y661456D01*
X716507Y659344D01*
X715699Y657394D01*
X714150Y655846D01*
X714128Y655819D01*
X714102Y655796D01*
X713984Y655647D01*
X713861Y655500D01*
X713844Y655470D01*
X713823Y655443D01*
X713733Y655275D01*
X713638Y655109D01*
X713627Y655077D01*
X713610Y655046D01*
X713551Y654865D01*
X713487Y654685D01*
X713482Y654651D01*
X713471Y654618D01*
X713445Y654429D01*
X713414Y654241D01*
X713414Y654206D01*
X713410Y654172D01*
X713417Y653981D01*
X713420Y653791D01*
X713427Y653756D01*
X713428Y653722D01*
X713469Y653536D01*
X713505Y653348D01*
X713518Y653316D01*
X713525Y653282D01*
X713599Y653106D01*
X713668Y652928D01*
X713686Y652899D01*
X713699Y652867D01*
X713803Y652706D01*
X713902Y652544D01*
X713925Y652518D01*
X713943Y652489D01*
X714150Y652254D01*
X715699Y650706D01*
X716507Y648756D01*
X716507Y646644D01*
X715699Y644694D01*
X715500Y644496D01*
X715395Y644369D01*
X715283Y644249D01*
X715251Y644197D01*
X715212Y644150D01*
X715130Y644008D01*
X715042Y643869D01*
X715018Y643812D01*
X714988Y643759D01*
X714933Y643604D01*
X714871Y643452D01*
X714858Y643393D01*
X714837Y643335D01*
X714811Y643173D01*
X714776Y643012D01*
X714771Y642935D01*
X714764Y642891D01*
X714765Y642830D01*
X714757Y642700D01*
X714757Y618232D01*
X714771Y618068D01*
X714778Y617903D01*
X714791Y617844D01*
X714797Y617783D01*
X714840Y617624D01*
X714876Y617464D01*
X714899Y617408D01*
X714915Y617349D01*
X714986Y617201D01*
X715049Y617048D01*
X715082Y616997D01*
X715109Y616942D01*
X715204Y616809D01*
X715294Y616670D01*
X715345Y616612D01*
X715371Y616576D01*
X715414Y616534D01*
X715500Y616436D01*
X717876Y614061D01*
X719075Y611166D01*
X719075Y608034D01*
X717876Y605139D01*
X715661Y602924D01*
X712766Y601725D01*
X709634Y601725D01*
X706739Y602924D01*
X706392Y603272D01*
X706292Y603355D01*
X706199Y603446D01*
X706120Y603500D01*
X706046Y603561D01*
X705933Y603625D01*
X705826Y603698D01*
X705738Y603737D01*
X705655Y603784D01*
X705533Y603828D01*
X705414Y603880D01*
X705321Y603903D01*
X705231Y603935D01*
X705103Y603956D01*
X704976Y603987D01*
X704881Y603993D01*
X704787Y604009D01*
X704657Y604007D01*
X704527Y604015D01*
X704432Y604004D01*
X704337Y604002D01*
X704209Y603978D01*
X704080Y603963D01*
X703988Y603935D01*
X703894Y603917D01*
X703773Y603870D01*
X703649Y603832D01*
X703564Y603789D01*
X703474Y603755D01*
X703363Y603687D01*
X703247Y603628D01*
X703171Y603570D01*
X703090Y603521D01*
X702992Y603434D01*
X702889Y603356D01*
X702824Y603286D01*
X702752Y603223D01*
X702672Y603121D01*
X702583Y603025D01*
X702532Y602944D01*
X702473Y602869D01*
X702412Y602755D01*
X702342Y602645D01*
X702305Y602557D01*
X702260Y602473D01*
X702220Y602349D01*
X702171Y602229D01*
X702151Y602135D01*
X702121Y602044D01*
X702103Y601916D01*
X702076Y601788D01*
X702068Y601658D01*
X702060Y601598D01*
X702061Y601554D01*
X702057Y601476D01*
X702057Y592150D01*
X702071Y591986D01*
X702078Y591822D01*
X702091Y591762D01*
X702097Y591701D01*
X702140Y591543D01*
X702176Y591382D01*
X702199Y591326D01*
X702215Y591267D01*
X702286Y591119D01*
X702349Y590967D01*
X702382Y590915D01*
X702409Y590860D01*
X702504Y590727D01*
X702594Y590589D01*
X702645Y590531D01*
X702671Y590494D01*
X702714Y590452D01*
X702800Y590354D01*
X702999Y590156D01*
X703807Y588206D01*
X703807Y586094D01*
X702999Y584144D01*
X701506Y582651D01*
X699556Y581843D01*
X697444Y581843D01*
G37*
%LPD*%
%LPC*%
G36*
X633434Y601725D02*
X633434Y601725D01*
X630539Y602924D01*
X628324Y605139D01*
X627125Y608034D01*
X627125Y611166D01*
X628324Y614061D01*
X630700Y616436D01*
X630805Y616562D01*
X630917Y616683D01*
X630949Y616735D01*
X630988Y616781D01*
X631070Y616924D01*
X631158Y617063D01*
X631182Y617120D01*
X631212Y617172D01*
X631267Y617327D01*
X631329Y617480D01*
X631342Y617539D01*
X631363Y617597D01*
X631389Y617759D01*
X631424Y617920D01*
X631429Y617997D01*
X631436Y618041D01*
X631435Y618102D01*
X631443Y618232D01*
X631443Y623007D01*
X631985Y624315D01*
X643400Y635730D01*
X643505Y635856D01*
X643617Y635977D01*
X643649Y636028D01*
X643688Y636075D01*
X643770Y636218D01*
X643858Y636356D01*
X643882Y636413D01*
X643912Y636466D01*
X643967Y636621D01*
X644029Y636773D01*
X644042Y636833D01*
X644063Y636890D01*
X644089Y637052D01*
X644124Y637213D01*
X644129Y637290D01*
X644136Y637334D01*
X644135Y637395D01*
X644143Y637525D01*
X644143Y655400D01*
X644129Y655564D01*
X644122Y655728D01*
X644109Y655788D01*
X644103Y655849D01*
X644060Y656007D01*
X644024Y656168D01*
X644001Y656224D01*
X643985Y656283D01*
X643914Y656431D01*
X643851Y656583D01*
X643818Y656635D01*
X643791Y656690D01*
X643696Y656823D01*
X643607Y656961D01*
X643555Y657019D01*
X643529Y657056D01*
X643486Y657098D01*
X643400Y657195D01*
X643146Y657450D01*
X643119Y657472D01*
X643096Y657498D01*
X642947Y657616D01*
X642800Y657738D01*
X642770Y657756D01*
X642743Y657777D01*
X642575Y657867D01*
X642409Y657962D01*
X642377Y657973D01*
X642346Y657990D01*
X642165Y658049D01*
X641985Y658113D01*
X641951Y658118D01*
X641918Y658129D01*
X641729Y658155D01*
X641541Y658186D01*
X641506Y658186D01*
X641472Y658190D01*
X641281Y658183D01*
X641091Y658180D01*
X641057Y658173D01*
X641022Y658172D01*
X640836Y658131D01*
X640649Y658095D01*
X640616Y658082D01*
X640582Y658075D01*
X640406Y658001D01*
X640229Y657932D01*
X640199Y657914D01*
X640167Y657901D01*
X640006Y657797D01*
X639844Y657698D01*
X639818Y657675D01*
X639789Y657657D01*
X639554Y657450D01*
X638006Y655901D01*
X636056Y655093D01*
X633944Y655093D01*
X631994Y655901D01*
X630501Y657394D01*
X629693Y659344D01*
X629693Y661456D01*
X630501Y663406D01*
X630700Y663604D01*
X630805Y663731D01*
X630917Y663851D01*
X630949Y663903D01*
X630988Y663950D01*
X631070Y664092D01*
X631158Y664231D01*
X631182Y664288D01*
X631212Y664341D01*
X631267Y664496D01*
X631329Y664648D01*
X631342Y664707D01*
X631363Y664765D01*
X631389Y664927D01*
X631424Y665088D01*
X631429Y665165D01*
X631436Y665209D01*
X631435Y665270D01*
X631443Y665400D01*
X631443Y677168D01*
X631429Y677332D01*
X631422Y677497D01*
X631409Y677556D01*
X631403Y677617D01*
X631360Y677776D01*
X631324Y677936D01*
X631301Y677992D01*
X631285Y678051D01*
X631214Y678199D01*
X631151Y678352D01*
X631118Y678403D01*
X631091Y678458D01*
X630996Y678591D01*
X630906Y678730D01*
X630855Y678788D01*
X630829Y678824D01*
X630786Y678866D01*
X630700Y678964D01*
X628324Y681339D01*
X627125Y684234D01*
X627125Y687366D01*
X628324Y690261D01*
X630539Y692476D01*
X633434Y693675D01*
X636566Y693675D01*
X639461Y692476D01*
X641676Y690261D01*
X642875Y687366D01*
X642875Y684234D01*
X641676Y681339D01*
X639300Y678964D01*
X639195Y678838D01*
X639083Y678717D01*
X639051Y678665D01*
X639012Y678619D01*
X638930Y678476D01*
X638842Y678337D01*
X638818Y678280D01*
X638788Y678228D01*
X638733Y678073D01*
X638671Y677920D01*
X638658Y677861D01*
X638637Y677803D01*
X638611Y677641D01*
X638576Y677480D01*
X638571Y677403D01*
X638564Y677359D01*
X638565Y677298D01*
X638557Y677168D01*
X638557Y665400D01*
X638571Y665236D01*
X638578Y665072D01*
X638591Y665012D01*
X638597Y664951D01*
X638640Y664793D01*
X638676Y664632D01*
X638699Y664576D01*
X638715Y664517D01*
X638786Y664369D01*
X638849Y664217D01*
X638882Y664165D01*
X638909Y664110D01*
X639004Y663977D01*
X639094Y663839D01*
X639145Y663781D01*
X639171Y663744D01*
X639214Y663702D01*
X639300Y663604D01*
X639554Y663350D01*
X639581Y663328D01*
X639604Y663302D01*
X639753Y663184D01*
X639900Y663061D01*
X639930Y663044D01*
X639957Y663023D01*
X640126Y662932D01*
X640291Y662838D01*
X640323Y662827D01*
X640354Y662810D01*
X640535Y662751D01*
X640715Y662687D01*
X640749Y662682D01*
X640782Y662671D01*
X640971Y662645D01*
X641159Y662614D01*
X641194Y662614D01*
X641228Y662610D01*
X641419Y662617D01*
X641610Y662620D01*
X641644Y662627D01*
X641678Y662628D01*
X641864Y662669D01*
X642052Y662705D01*
X642084Y662718D01*
X642118Y662725D01*
X642293Y662799D01*
X642472Y662868D01*
X642501Y662886D01*
X642533Y662899D01*
X642693Y663003D01*
X642856Y663102D01*
X642882Y663125D01*
X642911Y663143D01*
X643146Y663350D01*
X644694Y664899D01*
X646644Y665707D01*
X648756Y665707D01*
X650706Y664899D01*
X652508Y663096D01*
X652608Y663013D01*
X652701Y662922D01*
X652781Y662869D01*
X652854Y662807D01*
X652967Y662743D01*
X653074Y662670D01*
X653162Y662631D01*
X653245Y662584D01*
X653367Y662541D01*
X653486Y662488D01*
X653579Y662465D01*
X653669Y662433D01*
X653797Y662412D01*
X653924Y662381D01*
X654019Y662375D01*
X654113Y662360D01*
X654243Y662362D01*
X654373Y662354D01*
X654468Y662365D01*
X654564Y662366D01*
X654691Y662391D01*
X654820Y662406D01*
X654912Y662433D01*
X655006Y662451D01*
X655127Y662498D01*
X655251Y662536D01*
X655337Y662579D01*
X655426Y662614D01*
X655537Y662681D01*
X655653Y662740D01*
X655729Y662798D01*
X655810Y662848D01*
X655908Y662934D01*
X656011Y663012D01*
X656076Y663083D01*
X656148Y663146D01*
X656228Y663248D01*
X656317Y663343D01*
X656368Y663424D01*
X656427Y663499D01*
X656489Y663614D01*
X656558Y663723D01*
X656595Y663812D01*
X656640Y663896D01*
X656680Y664020D01*
X656729Y664140D01*
X656749Y664233D01*
X656779Y664324D01*
X656797Y664453D01*
X656824Y664580D01*
X656832Y664710D01*
X656840Y664770D01*
X656839Y664815D01*
X656843Y664892D01*
X656843Y677168D01*
X656829Y677332D01*
X656822Y677497D01*
X656809Y677556D01*
X656803Y677617D01*
X656760Y677776D01*
X656724Y677936D01*
X656701Y677992D01*
X656685Y678051D01*
X656614Y678199D01*
X656551Y678352D01*
X656518Y678403D01*
X656491Y678458D01*
X656396Y678591D01*
X656306Y678730D01*
X656255Y678788D01*
X656229Y678824D01*
X656186Y678866D01*
X656100Y678964D01*
X653724Y681339D01*
X652525Y684234D01*
X652525Y687366D01*
X653724Y690261D01*
X655939Y692476D01*
X658834Y693675D01*
X661966Y693675D01*
X664861Y692476D01*
X667076Y690261D01*
X668275Y687366D01*
X668275Y684234D01*
X667076Y681339D01*
X664700Y678964D01*
X664595Y678838D01*
X664483Y678717D01*
X664451Y678665D01*
X664412Y678619D01*
X664330Y678476D01*
X664242Y678337D01*
X664218Y678280D01*
X664188Y678228D01*
X664133Y678073D01*
X664071Y677920D01*
X664058Y677861D01*
X664037Y677803D01*
X664011Y677641D01*
X663976Y677480D01*
X663971Y677403D01*
X663964Y677359D01*
X663965Y677298D01*
X663957Y677168D01*
X663957Y618232D01*
X663971Y618068D01*
X663978Y617903D01*
X663991Y617844D01*
X663997Y617783D01*
X664040Y617624D01*
X664076Y617464D01*
X664099Y617408D01*
X664115Y617349D01*
X664186Y617201D01*
X664249Y617048D01*
X664282Y616997D01*
X664309Y616942D01*
X664404Y616809D01*
X664494Y616670D01*
X664545Y616612D01*
X664571Y616576D01*
X664614Y616534D01*
X664700Y616436D01*
X667076Y614061D01*
X668275Y611166D01*
X668275Y608034D01*
X667076Y605139D01*
X664861Y602924D01*
X661966Y601725D01*
X658834Y601725D01*
X655939Y602924D01*
X653724Y605139D01*
X652525Y608034D01*
X652525Y611166D01*
X653724Y614061D01*
X656100Y616436D01*
X656205Y616562D01*
X656317Y616683D01*
X656349Y616735D01*
X656388Y616781D01*
X656470Y616924D01*
X656558Y617063D01*
X656582Y617120D01*
X656612Y617172D01*
X656667Y617327D01*
X656729Y617480D01*
X656742Y617539D01*
X656763Y617597D01*
X656789Y617759D01*
X656824Y617920D01*
X656829Y617997D01*
X656836Y618041D01*
X656835Y618102D01*
X656843Y618232D01*
X656843Y655908D01*
X656832Y656038D01*
X656830Y656168D01*
X656812Y656261D01*
X656803Y656357D01*
X656769Y656482D01*
X656744Y656610D01*
X656710Y656699D01*
X656685Y656791D01*
X656629Y656908D01*
X656582Y657030D01*
X656532Y657112D01*
X656491Y657198D01*
X656416Y657303D01*
X656348Y657415D01*
X656285Y657486D01*
X656229Y657564D01*
X656136Y657654D01*
X656050Y657752D01*
X655975Y657811D01*
X655907Y657878D01*
X655799Y657951D01*
X655697Y658031D01*
X655613Y658076D01*
X655534Y658130D01*
X655415Y658182D01*
X655300Y658244D01*
X655209Y658273D01*
X655122Y658312D01*
X654995Y658343D01*
X654872Y658383D01*
X654777Y658396D01*
X654684Y658419D01*
X654555Y658427D01*
X654426Y658444D01*
X654330Y658441D01*
X654235Y658446D01*
X654106Y658431D01*
X653976Y658426D01*
X653883Y658405D01*
X653788Y658394D01*
X653663Y658357D01*
X653536Y658329D01*
X653448Y658292D01*
X653357Y658264D01*
X653241Y658205D01*
X653121Y658155D01*
X653041Y658103D01*
X652955Y658060D01*
X652852Y657981D01*
X652743Y657911D01*
X652645Y657824D01*
X652597Y657788D01*
X652566Y657755D01*
X652508Y657704D01*
X652000Y657196D01*
X651895Y657070D01*
X651783Y656949D01*
X651751Y656897D01*
X651712Y656850D01*
X651630Y656708D01*
X651542Y656569D01*
X651518Y656512D01*
X651488Y656459D01*
X651433Y656304D01*
X651371Y656152D01*
X651358Y656092D01*
X651337Y656035D01*
X651311Y655873D01*
X651276Y655712D01*
X651271Y655635D01*
X651264Y655591D01*
X651265Y655530D01*
X651257Y655400D01*
X651257Y634293D01*
X650715Y632985D01*
X639300Y621570D01*
X639195Y621444D01*
X639083Y621323D01*
X639051Y621272D01*
X639012Y621225D01*
X638930Y621082D01*
X638842Y620944D01*
X638818Y620887D01*
X638788Y620834D01*
X638733Y620679D01*
X638671Y620527D01*
X638658Y620467D01*
X638637Y620410D01*
X638611Y620248D01*
X638576Y620087D01*
X638571Y620010D01*
X638564Y619966D01*
X638565Y619905D01*
X638557Y619775D01*
X638557Y618232D01*
X638571Y618068D01*
X638578Y617903D01*
X638591Y617844D01*
X638597Y617783D01*
X638640Y617624D01*
X638676Y617464D01*
X638699Y617408D01*
X638715Y617349D01*
X638786Y617201D01*
X638849Y617048D01*
X638882Y616997D01*
X638909Y616942D01*
X639004Y616809D01*
X639094Y616670D01*
X639145Y616612D01*
X639171Y616576D01*
X639214Y616534D01*
X639300Y616436D01*
X641676Y614061D01*
X642875Y611166D01*
X642875Y608034D01*
X641676Y605139D01*
X639461Y602924D01*
X636566Y601725D01*
X633434Y601725D01*
G37*
%LPD*%
%LPC*%
G36*
X787320Y409371D02*
X787320Y409371D01*
X787286Y409373D01*
X787252Y409380D01*
X786940Y409399D01*
X767240Y409399D01*
X767705Y410830D01*
X768529Y412449D01*
X769597Y413918D01*
X770882Y415203D01*
X772351Y416271D01*
X773970Y417095D01*
X774389Y417231D01*
X774393Y417233D01*
X774397Y417234D01*
X774595Y417319D01*
X774803Y417408D01*
X774807Y417410D01*
X774810Y417412D01*
X774993Y417532D01*
X775179Y417655D01*
X775182Y417658D01*
X775186Y417660D01*
X775346Y417813D01*
X775506Y417964D01*
X775509Y417968D01*
X775512Y417971D01*
X775642Y418148D01*
X775773Y418327D01*
X775775Y418331D01*
X775778Y418334D01*
X775873Y418529D01*
X775972Y418731D01*
X775974Y418735D01*
X775976Y418739D01*
X776036Y418953D01*
X776097Y419163D01*
X776097Y419168D01*
X776099Y419172D01*
X776121Y419395D01*
X776143Y419611D01*
X776143Y419615D01*
X776143Y419620D01*
X776125Y419845D01*
X776109Y420060D01*
X776108Y420064D01*
X776108Y420069D01*
X776052Y420281D01*
X775997Y420496D01*
X775995Y420500D01*
X775994Y420504D01*
X775903Y420701D01*
X775809Y420906D01*
X775807Y420909D01*
X775805Y420913D01*
X775678Y421094D01*
X775552Y421275D01*
X775549Y421278D01*
X775546Y421282D01*
X775387Y421440D01*
X775234Y421594D01*
X775230Y421596D01*
X775227Y421599D01*
X775042Y421727D01*
X774864Y421851D01*
X774860Y421853D01*
X774857Y421855D01*
X774576Y421992D01*
X772438Y422878D01*
X769478Y425838D01*
X767875Y429706D01*
X767875Y433894D01*
X769478Y437762D01*
X772438Y440722D01*
X776054Y442220D01*
X776185Y442288D01*
X776319Y442348D01*
X776384Y442393D01*
X776453Y442429D01*
X776570Y442519D01*
X776692Y442602D01*
X776747Y442657D01*
X776809Y442704D01*
X776908Y442814D01*
X777013Y442917D01*
X777059Y442981D01*
X777111Y443039D01*
X777189Y443164D01*
X777274Y443284D01*
X777307Y443355D01*
X777349Y443421D01*
X777403Y443558D01*
X777466Y443691D01*
X777486Y443767D01*
X777515Y443839D01*
X777545Y443984D01*
X777583Y444126D01*
X777595Y444227D01*
X777606Y444280D01*
X777607Y444335D01*
X777618Y444436D01*
X778405Y459801D01*
X778929Y460904D01*
X778992Y461075D01*
X779061Y461243D01*
X779071Y461285D01*
X779086Y461326D01*
X779118Y461505D01*
X779156Y461683D01*
X779159Y461737D01*
X779165Y461770D01*
X779165Y461832D01*
X779175Y461995D01*
X779175Y466832D01*
X780068Y467725D01*
X786775Y467725D01*
X786819Y467729D01*
X786882Y467725D01*
X797332Y467725D01*
X798225Y466832D01*
X798225Y461938D01*
X798229Y461886D01*
X798227Y461834D01*
X798249Y461662D01*
X798265Y461489D01*
X798278Y461439D01*
X798285Y461387D01*
X798371Y461087D01*
X799207Y458737D01*
X798461Y444166D01*
X798463Y444114D01*
X798458Y444063D01*
X798472Y443890D01*
X798478Y443716D01*
X798489Y443665D01*
X798493Y443614D01*
X798537Y443446D01*
X798574Y443276D01*
X798594Y443228D01*
X798607Y443178D01*
X798680Y443021D01*
X798747Y442860D01*
X798775Y442816D01*
X798796Y442769D01*
X798896Y442627D01*
X798990Y442481D01*
X799025Y442443D01*
X799055Y442401D01*
X799178Y442278D01*
X799296Y442151D01*
X799337Y442120D01*
X799374Y442083D01*
X799517Y441985D01*
X799656Y441880D01*
X799702Y441857D01*
X799745Y441827D01*
X800025Y441690D01*
X802362Y440722D01*
X805322Y437762D01*
X806925Y433894D01*
X806925Y429706D01*
X805322Y425838D01*
X802362Y422878D01*
X800224Y421992D01*
X800220Y421990D01*
X800216Y421989D01*
X800025Y421888D01*
X799825Y421784D01*
X799822Y421781D01*
X799818Y421779D01*
X799648Y421646D01*
X799469Y421508D01*
X799466Y421505D01*
X799463Y421502D01*
X799312Y421334D01*
X799168Y421174D01*
X799165Y421170D01*
X799162Y421167D01*
X799043Y420973D01*
X798930Y420791D01*
X798928Y420787D01*
X798926Y420784D01*
X798845Y420579D01*
X798763Y420373D01*
X798762Y420369D01*
X798761Y420365D01*
X798718Y420153D01*
X798673Y419932D01*
X798673Y419928D01*
X798672Y419923D01*
X798668Y419708D01*
X798662Y419482D01*
X798663Y419477D01*
X798663Y419473D01*
X798696Y419260D01*
X798731Y419037D01*
X798732Y419033D01*
X798733Y419029D01*
X798806Y418818D01*
X798877Y418611D01*
X798879Y418607D01*
X798881Y418603D01*
X798991Y418407D01*
X799097Y418218D01*
X799099Y418214D01*
X799101Y418211D01*
X799241Y418041D01*
X799382Y417869D01*
X799385Y417867D01*
X799388Y417863D01*
X799554Y417723D01*
X799724Y417577D01*
X799728Y417575D01*
X799731Y417572D01*
X799919Y417463D01*
X800113Y417350D01*
X800117Y417348D01*
X800121Y417346D01*
X800411Y417231D01*
X800830Y417095D01*
X802449Y416271D01*
X803918Y415203D01*
X805203Y413918D01*
X806271Y412449D01*
X807095Y410830D01*
X807560Y409399D01*
X787860Y409399D01*
X787826Y409396D01*
X787791Y409398D01*
X787602Y409376D01*
X787412Y409359D01*
X787390Y409354D01*
X787320Y409371D01*
G37*
%LPD*%
%LPC*%
G36*
X645628Y129285D02*
X645628Y129285D01*
X641801Y130871D01*
X638871Y133801D01*
X637285Y137628D01*
X637285Y192572D01*
X638871Y196399D01*
X641801Y199329D01*
X645628Y200915D01*
X649772Y200915D01*
X653599Y199329D01*
X656529Y196399D01*
X658115Y192572D01*
X658115Y137628D01*
X656529Y133801D01*
X653599Y130871D01*
X649772Y129285D01*
X645628Y129285D01*
G37*
%LPD*%
%LPC*%
G36*
X466610Y530859D02*
X466610Y530859D01*
X462409Y532600D01*
X459194Y535815D01*
X457453Y540016D01*
X457453Y544564D01*
X459194Y548765D01*
X462409Y551980D01*
X466610Y553721D01*
X490970Y553721D01*
X495171Y551980D01*
X498386Y548765D01*
X500127Y544564D01*
X500127Y540016D01*
X498386Y535815D01*
X495171Y532600D01*
X490970Y530859D01*
X466610Y530859D01*
G37*
%LPD*%
%LPC*%
G36*
X344690Y530859D02*
X344690Y530859D01*
X340489Y532600D01*
X337274Y535815D01*
X335533Y540016D01*
X335533Y544564D01*
X337274Y548765D01*
X340489Y551980D01*
X344690Y553721D01*
X369050Y553721D01*
X373251Y551980D01*
X376466Y548765D01*
X378207Y544564D01*
X378207Y540016D01*
X376466Y535815D01*
X373251Y532600D01*
X369050Y530859D01*
X344690Y530859D01*
G37*
%LPD*%
%LPC*%
G36*
X324370Y471169D02*
X324370Y471169D01*
X320169Y472910D01*
X316954Y476125D01*
X315213Y480326D01*
X315213Y484874D01*
X316954Y489075D01*
X320169Y492290D01*
X324370Y494031D01*
X348730Y494031D01*
X352931Y492290D01*
X356146Y489075D01*
X357887Y484874D01*
X357887Y480326D01*
X356146Y476125D01*
X352931Y472910D01*
X348730Y471169D01*
X324370Y471169D01*
G37*
%LPD*%
%LPC*%
G36*
X466610Y411479D02*
X466610Y411479D01*
X462409Y413220D01*
X459194Y416435D01*
X457453Y420636D01*
X457453Y425184D01*
X459194Y429385D01*
X462409Y432600D01*
X466610Y434341D01*
X490970Y434341D01*
X495171Y432600D01*
X498386Y429385D01*
X500127Y425184D01*
X500127Y420636D01*
X498386Y416435D01*
X495171Y413220D01*
X490970Y411479D01*
X466610Y411479D01*
G37*
%LPD*%
%LPC*%
G36*
X344690Y411479D02*
X344690Y411479D01*
X340489Y413220D01*
X337274Y416435D01*
X335533Y420636D01*
X335533Y425184D01*
X337274Y429385D01*
X340489Y432600D01*
X344690Y434341D01*
X369050Y434341D01*
X373251Y432600D01*
X376466Y429385D01*
X378207Y425184D01*
X378207Y420636D01*
X376466Y416435D01*
X373251Y413220D01*
X369050Y411479D01*
X344690Y411479D01*
G37*
%LPD*%
%LPC*%
G36*
X466610Y353059D02*
X466610Y353059D01*
X462409Y354800D01*
X459194Y358015D01*
X457453Y362216D01*
X457453Y366764D01*
X459194Y370965D01*
X462409Y374180D01*
X466610Y375921D01*
X490970Y375921D01*
X495171Y374180D01*
X498386Y370965D01*
X500127Y366764D01*
X500127Y362216D01*
X498386Y358015D01*
X495171Y354800D01*
X490970Y353059D01*
X466610Y353059D01*
G37*
%LPD*%
%LPC*%
G36*
X344690Y353059D02*
X344690Y353059D01*
X340489Y354800D01*
X337274Y358015D01*
X335533Y362216D01*
X335533Y366764D01*
X337274Y370965D01*
X340489Y374180D01*
X344690Y375921D01*
X369050Y375921D01*
X373251Y374180D01*
X376466Y370965D01*
X378207Y366764D01*
X378207Y362216D01*
X376466Y358015D01*
X373251Y354800D01*
X369050Y353059D01*
X344690Y353059D01*
G37*
%LPD*%
%LPC*%
G36*
X324370Y293369D02*
X324370Y293369D01*
X320169Y295110D01*
X316954Y298325D01*
X315213Y302526D01*
X315213Y307074D01*
X316954Y311275D01*
X320169Y314490D01*
X324370Y316231D01*
X348730Y316231D01*
X352931Y314490D01*
X356146Y311275D01*
X357887Y307074D01*
X357887Y302526D01*
X356146Y298325D01*
X352931Y295110D01*
X348730Y293369D01*
X324370Y293369D01*
G37*
%LPD*%
%LPC*%
G36*
X466610Y233679D02*
X466610Y233679D01*
X462409Y235420D01*
X459194Y238635D01*
X457453Y242836D01*
X457453Y247384D01*
X459194Y251585D01*
X462409Y254800D01*
X466610Y256541D01*
X490970Y256541D01*
X495171Y254800D01*
X498386Y251585D01*
X500127Y247384D01*
X500127Y242836D01*
X498386Y238635D01*
X495171Y235420D01*
X490970Y233679D01*
X466610Y233679D01*
G37*
%LPD*%
%LPC*%
G36*
X344690Y233679D02*
X344690Y233679D01*
X340489Y235420D01*
X337274Y238635D01*
X335533Y242836D01*
X335533Y247384D01*
X337274Y251585D01*
X340489Y254800D01*
X344690Y256541D01*
X369050Y256541D01*
X373251Y254800D01*
X376466Y251585D01*
X378207Y247384D01*
X378207Y242836D01*
X376466Y238635D01*
X373251Y235420D01*
X369050Y233679D01*
X344690Y233679D01*
G37*
%LPD*%
%LPC*%
G36*
X466610Y175259D02*
X466610Y175259D01*
X462409Y177000D01*
X459194Y180215D01*
X457453Y184416D01*
X457453Y188964D01*
X459194Y193165D01*
X462409Y196380D01*
X466610Y198121D01*
X490970Y198121D01*
X495171Y196380D01*
X498386Y193165D01*
X500127Y188964D01*
X500127Y184416D01*
X498386Y180215D01*
X495171Y177000D01*
X490970Y175259D01*
X466610Y175259D01*
G37*
%LPD*%
%LPC*%
G36*
X344690Y175259D02*
X344690Y175259D01*
X340489Y177000D01*
X337274Y180215D01*
X335533Y184416D01*
X335533Y188964D01*
X337274Y193165D01*
X340489Y196380D01*
X344690Y198121D01*
X369050Y198121D01*
X373251Y196380D01*
X376466Y193165D01*
X378207Y188964D01*
X378207Y184416D01*
X376466Y180215D01*
X373251Y177000D01*
X369050Y175259D01*
X344690Y175259D01*
G37*
%LPD*%
%LPC*%
G36*
X324370Y115569D02*
X324370Y115569D01*
X320169Y117310D01*
X316954Y120525D01*
X315213Y124726D01*
X315213Y129274D01*
X316954Y133475D01*
X320169Y136690D01*
X324370Y138431D01*
X348730Y138431D01*
X352931Y136690D01*
X356146Y133475D01*
X357887Y129274D01*
X357887Y124726D01*
X356146Y120525D01*
X352931Y117310D01*
X348730Y115569D01*
X324370Y115569D01*
G37*
%LPD*%
%LPC*%
G36*
X466610Y55879D02*
X466610Y55879D01*
X462409Y57620D01*
X459194Y60835D01*
X457453Y65036D01*
X457453Y69584D01*
X459194Y73785D01*
X462409Y77000D01*
X466610Y78741D01*
X490970Y78741D01*
X495171Y77000D01*
X498386Y73785D01*
X500127Y69584D01*
X500127Y65036D01*
X498386Y60835D01*
X495171Y57620D01*
X490970Y55879D01*
X466610Y55879D01*
G37*
%LPD*%
%LPC*%
G36*
X344690Y55879D02*
X344690Y55879D01*
X340489Y57620D01*
X337274Y60835D01*
X335533Y65036D01*
X335533Y69584D01*
X337274Y73785D01*
X340489Y77000D01*
X344690Y78741D01*
X369050Y78741D01*
X373251Y77000D01*
X376466Y73785D01*
X378207Y69584D01*
X378207Y65036D01*
X376466Y60835D01*
X373251Y57620D01*
X369050Y55879D01*
X344690Y55879D01*
G37*
%LPD*%
%LPC*%
G36*
X398696Y272593D02*
X398696Y272593D01*
X396194Y273630D01*
X394280Y275544D01*
X393243Y278046D01*
X393243Y280754D01*
X393252Y280775D01*
X393287Y280886D01*
X393331Y280995D01*
X393354Y281101D01*
X393387Y281205D01*
X393401Y281321D01*
X393426Y281435D01*
X393436Y281589D01*
X393443Y281651D01*
X393442Y281688D01*
X393445Y281747D01*
X393445Y327853D01*
X393435Y327970D01*
X393435Y328087D01*
X393415Y328193D01*
X393405Y328302D01*
X393375Y328415D01*
X393354Y328530D01*
X393303Y328675D01*
X393287Y328736D01*
X393271Y328769D01*
X393252Y328825D01*
X393243Y328846D01*
X393243Y331554D01*
X394280Y334056D01*
X396194Y335970D01*
X398696Y337007D01*
X401404Y337007D01*
X403906Y335970D01*
X405820Y334056D01*
X406857Y331554D01*
X406857Y328846D01*
X406848Y328825D01*
X406813Y328714D01*
X406769Y328605D01*
X406746Y328499D01*
X406713Y328395D01*
X406699Y328279D01*
X406674Y328165D01*
X406664Y328011D01*
X406657Y327949D01*
X406658Y327912D01*
X406655Y327853D01*
X406655Y281747D01*
X406665Y281630D01*
X406665Y281513D01*
X406685Y281407D01*
X406695Y281298D01*
X406725Y281185D01*
X406746Y281070D01*
X406797Y280925D01*
X406813Y280864D01*
X406829Y280831D01*
X406848Y280775D01*
X406857Y280754D01*
X406857Y278046D01*
X405820Y275544D01*
X403906Y273630D01*
X401404Y272593D01*
X398696Y272593D01*
G37*
%LPD*%
%LPC*%
G36*
X398696Y450393D02*
X398696Y450393D01*
X396194Y451430D01*
X394280Y453344D01*
X393243Y455846D01*
X393243Y458554D01*
X393252Y458575D01*
X393287Y458686D01*
X393331Y458795D01*
X393354Y458901D01*
X393387Y459005D01*
X393401Y459121D01*
X393426Y459235D01*
X393436Y459389D01*
X393443Y459451D01*
X393442Y459488D01*
X393445Y459547D01*
X393445Y505653D01*
X393435Y505770D01*
X393435Y505887D01*
X393415Y505993D01*
X393405Y506102D01*
X393375Y506215D01*
X393354Y506330D01*
X393303Y506475D01*
X393287Y506536D01*
X393271Y506569D01*
X393252Y506625D01*
X393243Y506646D01*
X393243Y509354D01*
X394280Y511856D01*
X396194Y513770D01*
X398696Y514807D01*
X401404Y514807D01*
X403906Y513770D01*
X405820Y511856D01*
X406857Y509354D01*
X406857Y506646D01*
X406848Y506625D01*
X406813Y506514D01*
X406769Y506405D01*
X406746Y506299D01*
X406713Y506195D01*
X406699Y506079D01*
X406674Y505965D01*
X406664Y505811D01*
X406657Y505749D01*
X406658Y505712D01*
X406655Y505653D01*
X406655Y459547D01*
X406665Y459430D01*
X406665Y459313D01*
X406685Y459207D01*
X406695Y459098D01*
X406725Y458985D01*
X406746Y458870D01*
X406797Y458725D01*
X406813Y458664D01*
X406829Y458631D01*
X406848Y458575D01*
X406857Y458554D01*
X406857Y455846D01*
X405820Y453344D01*
X403906Y451430D01*
X401404Y450393D01*
X398696Y450393D01*
G37*
%LPD*%
%LPC*%
G36*
X557446Y209093D02*
X557446Y209093D01*
X554944Y210130D01*
X553030Y212044D01*
X551993Y214546D01*
X551993Y217254D01*
X553030Y219756D01*
X553992Y220718D01*
X554097Y220844D01*
X554209Y220965D01*
X554241Y221016D01*
X554280Y221063D01*
X554362Y221206D01*
X554450Y221345D01*
X554474Y221401D01*
X554504Y221454D01*
X554559Y221609D01*
X554621Y221761D01*
X554634Y221821D01*
X554655Y221878D01*
X554681Y222041D01*
X554716Y222201D01*
X554721Y222278D01*
X554728Y222323D01*
X554727Y222384D01*
X554735Y222513D01*
X554735Y285487D01*
X554721Y285650D01*
X554714Y285815D01*
X554701Y285874D01*
X554695Y285935D01*
X554652Y286094D01*
X554616Y286254D01*
X554593Y286311D01*
X554577Y286370D01*
X554506Y286518D01*
X554443Y286670D01*
X554410Y286721D01*
X554383Y286776D01*
X554288Y286910D01*
X554198Y287048D01*
X554147Y287106D01*
X554121Y287142D01*
X554078Y287185D01*
X553992Y287282D01*
X553030Y288244D01*
X551993Y290746D01*
X551993Y293454D01*
X553030Y295956D01*
X554944Y297870D01*
X557446Y298907D01*
X560154Y298907D01*
X562656Y297870D01*
X564570Y295956D01*
X565607Y293454D01*
X565607Y290746D01*
X564570Y288244D01*
X563608Y287282D01*
X563503Y287156D01*
X563391Y287035D01*
X563359Y286984D01*
X563320Y286937D01*
X563238Y286794D01*
X563150Y286655D01*
X563126Y286599D01*
X563096Y286546D01*
X563041Y286391D01*
X562979Y286239D01*
X562966Y286179D01*
X562945Y286122D01*
X562919Y285959D01*
X562884Y285799D01*
X562879Y285722D01*
X562872Y285677D01*
X562873Y285616D01*
X562865Y285487D01*
X562865Y222513D01*
X562879Y222350D01*
X562886Y222185D01*
X562899Y222126D01*
X562905Y222065D01*
X562948Y221906D01*
X562984Y221746D01*
X563007Y221689D01*
X563023Y221630D01*
X563094Y221482D01*
X563157Y221330D01*
X563190Y221279D01*
X563217Y221224D01*
X563312Y221090D01*
X563402Y220952D01*
X563453Y220894D01*
X563479Y220858D01*
X563522Y220815D01*
X563608Y220718D01*
X564570Y219756D01*
X565607Y217254D01*
X565607Y214546D01*
X564570Y212044D01*
X562656Y210130D01*
X560154Y209093D01*
X557446Y209093D01*
G37*
%LPD*%
%LPC*%
G36*
X398736Y94995D02*
X398736Y94995D01*
X396309Y96001D01*
X394451Y97859D01*
X393445Y100286D01*
X393445Y153714D01*
X394451Y156141D01*
X396309Y157999D01*
X398736Y159005D01*
X401364Y159005D01*
X403791Y157999D01*
X405649Y156141D01*
X406655Y153714D01*
X406655Y100286D01*
X405649Y97859D01*
X403791Y96001D01*
X401364Y94995D01*
X398736Y94995D01*
G37*
%LPD*%
%LPC*%
G36*
X132294Y70893D02*
X132294Y70893D01*
X130344Y71701D01*
X128851Y73194D01*
X128043Y75144D01*
X128043Y77256D01*
X128851Y79206D01*
X130344Y80699D01*
X132294Y81507D01*
X134406Y81507D01*
X136593Y80601D01*
X136673Y80550D01*
X136730Y80526D01*
X136783Y80496D01*
X136938Y80441D01*
X137090Y80379D01*
X137149Y80366D01*
X137207Y80345D01*
X137369Y80319D01*
X137530Y80284D01*
X137607Y80279D01*
X137651Y80272D01*
X137712Y80273D01*
X137842Y80265D01*
X179658Y80265D01*
X179822Y80279D01*
X179986Y80286D01*
X180046Y80299D01*
X180107Y80305D01*
X180265Y80348D01*
X180426Y80384D01*
X180482Y80407D01*
X180541Y80423D01*
X180689Y80494D01*
X180841Y80557D01*
X180893Y80590D01*
X180948Y80617D01*
X180951Y80619D01*
X183094Y81507D01*
X185206Y81507D01*
X187156Y80699D01*
X188649Y79206D01*
X189457Y77256D01*
X189457Y75144D01*
X188649Y73194D01*
X187156Y71701D01*
X185206Y70893D01*
X183094Y70893D01*
X180907Y71799D01*
X180827Y71850D01*
X180770Y71874D01*
X180717Y71904D01*
X180562Y71959D01*
X180410Y72021D01*
X180351Y72034D01*
X180293Y72055D01*
X180131Y72081D01*
X179970Y72116D01*
X179893Y72121D01*
X179849Y72128D01*
X179788Y72127D01*
X179658Y72135D01*
X137842Y72135D01*
X137678Y72121D01*
X137514Y72114D01*
X137454Y72101D01*
X137393Y72095D01*
X137235Y72052D01*
X137074Y72016D01*
X137018Y71993D01*
X136959Y71977D01*
X136811Y71906D01*
X136659Y71843D01*
X136607Y71810D01*
X136552Y71783D01*
X136549Y71781D01*
X134406Y70893D01*
X132294Y70893D01*
G37*
%LPD*%
%LPC*%
G36*
X735034Y601725D02*
X735034Y601725D01*
X732139Y602924D01*
X729924Y605139D01*
X728725Y608034D01*
X728725Y611166D01*
X729924Y614061D01*
X732300Y616436D01*
X732405Y616562D01*
X732517Y616683D01*
X732549Y616735D01*
X732588Y616781D01*
X732670Y616924D01*
X732758Y617063D01*
X732782Y617120D01*
X732812Y617172D01*
X732867Y617327D01*
X732929Y617480D01*
X732942Y617539D01*
X732963Y617597D01*
X732989Y617759D01*
X733024Y617920D01*
X733029Y617997D01*
X733036Y618041D01*
X733035Y618102D01*
X733043Y618232D01*
X733043Y630000D01*
X733029Y630164D01*
X733022Y630328D01*
X733009Y630388D01*
X733003Y630449D01*
X732960Y630607D01*
X732924Y630768D01*
X732901Y630824D01*
X732885Y630883D01*
X732814Y631031D01*
X732751Y631183D01*
X732718Y631235D01*
X732691Y631290D01*
X732596Y631423D01*
X732506Y631561D01*
X732455Y631619D01*
X732429Y631656D01*
X732386Y631698D01*
X732300Y631796D01*
X732101Y631994D01*
X731293Y633944D01*
X731293Y636056D01*
X732101Y638006D01*
X733594Y639499D01*
X735544Y640307D01*
X737656Y640307D01*
X739606Y639499D01*
X741099Y638006D01*
X741907Y636056D01*
X741907Y633944D01*
X741099Y631994D01*
X740900Y631796D01*
X740795Y631669D01*
X740683Y631549D01*
X740651Y631497D01*
X740612Y631450D01*
X740530Y631308D01*
X740442Y631169D01*
X740418Y631112D01*
X740388Y631059D01*
X740333Y630904D01*
X740271Y630752D01*
X740258Y630693D01*
X740237Y630635D01*
X740211Y630473D01*
X740176Y630312D01*
X740171Y630235D01*
X740164Y630191D01*
X740165Y630130D01*
X740157Y630000D01*
X740157Y618232D01*
X740171Y618068D01*
X740178Y617903D01*
X740191Y617844D01*
X740197Y617783D01*
X740240Y617624D01*
X740276Y617464D01*
X740299Y617408D01*
X740315Y617349D01*
X740386Y617201D01*
X740449Y617048D01*
X740482Y616997D01*
X740509Y616942D01*
X740604Y616809D01*
X740694Y616670D01*
X740745Y616612D01*
X740771Y616576D01*
X740814Y616534D01*
X740900Y616436D01*
X743276Y614061D01*
X744475Y611166D01*
X744475Y608034D01*
X743276Y605139D01*
X741061Y602924D01*
X738166Y601725D01*
X735034Y601725D01*
G37*
%LPD*%
%LPC*%
G36*
X760434Y677925D02*
X760434Y677925D01*
X757539Y679124D01*
X755324Y681339D01*
X754125Y684234D01*
X754125Y687366D01*
X755324Y690261D01*
X757539Y692476D01*
X760434Y693675D01*
X763566Y693675D01*
X766461Y692476D01*
X768836Y690100D01*
X768962Y689995D01*
X769083Y689883D01*
X769135Y689851D01*
X769181Y689812D01*
X769324Y689730D01*
X769463Y689642D01*
X769520Y689618D01*
X769572Y689588D01*
X769727Y689533D01*
X769880Y689471D01*
X769939Y689458D01*
X769997Y689437D01*
X770159Y689411D01*
X770320Y689376D01*
X770397Y689371D01*
X770441Y689364D01*
X770502Y689365D01*
X770632Y689357D01*
X782400Y689357D01*
X782564Y689371D01*
X782728Y689378D01*
X782788Y689391D01*
X782849Y689397D01*
X783007Y689440D01*
X783168Y689476D01*
X783224Y689499D01*
X783283Y689515D01*
X783431Y689586D01*
X783583Y689649D01*
X783635Y689682D01*
X783690Y689709D01*
X783823Y689804D01*
X783961Y689894D01*
X784019Y689945D01*
X784056Y689971D01*
X784098Y690014D01*
X784196Y690100D01*
X784394Y690299D01*
X786344Y691107D01*
X788456Y691107D01*
X790406Y690299D01*
X791899Y688806D01*
X792707Y686856D01*
X792707Y684744D01*
X791899Y682794D01*
X790406Y681301D01*
X788456Y680493D01*
X786344Y680493D01*
X784394Y681301D01*
X784196Y681500D01*
X784069Y681605D01*
X783949Y681717D01*
X783897Y681749D01*
X783850Y681788D01*
X783708Y681870D01*
X783569Y681958D01*
X783512Y681982D01*
X783459Y682012D01*
X783304Y682067D01*
X783152Y682129D01*
X783093Y682142D01*
X783035Y682163D01*
X782873Y682189D01*
X782712Y682224D01*
X782635Y682229D01*
X782591Y682236D01*
X782530Y682235D01*
X782400Y682243D01*
X770632Y682243D01*
X770468Y682229D01*
X770303Y682222D01*
X770244Y682209D01*
X770183Y682203D01*
X770024Y682160D01*
X769864Y682124D01*
X769808Y682101D01*
X769749Y682085D01*
X769601Y682014D01*
X769448Y681951D01*
X769397Y681918D01*
X769342Y681891D01*
X769209Y681796D01*
X769070Y681706D01*
X769012Y681655D01*
X768976Y681629D01*
X768934Y681586D01*
X768836Y681500D01*
X766461Y679124D01*
X763566Y677925D01*
X760434Y677925D01*
G37*
%LPD*%
%LPC*%
G36*
X645756Y404275D02*
X645756Y404275D01*
X642163Y405763D01*
X639413Y408513D01*
X637925Y412106D01*
X637925Y415994D01*
X639413Y419587D01*
X642163Y422337D01*
X645756Y423825D01*
X649644Y423825D01*
X653237Y422337D01*
X655987Y419587D01*
X657475Y415994D01*
X657475Y412106D01*
X655987Y408513D01*
X653237Y405763D01*
X649644Y404275D01*
X645756Y404275D01*
G37*
%LPD*%
%LPC*%
G36*
X645756Y29275D02*
X645756Y29275D01*
X642163Y30763D01*
X639413Y33513D01*
X637925Y37106D01*
X637925Y40994D01*
X639413Y44587D01*
X642163Y47337D01*
X645756Y48825D01*
X649644Y48825D01*
X653237Y47337D01*
X655987Y44587D01*
X657475Y40994D01*
X657475Y37106D01*
X655987Y33513D01*
X653237Y30763D01*
X649644Y29275D01*
X645756Y29275D01*
G37*
%LPD*%
%LPC*%
G36*
X545044Y578893D02*
X545044Y578893D01*
X543094Y579701D01*
X541601Y581194D01*
X540793Y583144D01*
X540793Y585256D01*
X541601Y587206D01*
X541800Y587404D01*
X541905Y587531D01*
X542017Y587651D01*
X542049Y587703D01*
X542088Y587750D01*
X542170Y587892D01*
X542258Y588031D01*
X542282Y588088D01*
X542312Y588141D01*
X542367Y588296D01*
X542429Y588448D01*
X542442Y588507D01*
X542463Y588565D01*
X542489Y588727D01*
X542524Y588888D01*
X542529Y588965D01*
X542536Y589009D01*
X542535Y589070D01*
X542543Y589200D01*
X542543Y604600D01*
X542529Y604764D01*
X542522Y604928D01*
X542509Y604988D01*
X542503Y605049D01*
X542460Y605207D01*
X542424Y605368D01*
X542401Y605424D01*
X542385Y605483D01*
X542314Y605631D01*
X542251Y605783D01*
X542218Y605835D01*
X542191Y605890D01*
X542096Y606023D01*
X542006Y606161D01*
X541955Y606219D01*
X541929Y606256D01*
X541886Y606298D01*
X541800Y606396D01*
X541601Y606594D01*
X540793Y608544D01*
X540793Y610656D01*
X541601Y612606D01*
X543094Y614099D01*
X545044Y614907D01*
X547156Y614907D01*
X549106Y614099D01*
X550599Y612606D01*
X551407Y610656D01*
X551407Y608544D01*
X550599Y606594D01*
X550400Y606396D01*
X550295Y606269D01*
X550183Y606149D01*
X550151Y606097D01*
X550112Y606050D01*
X550030Y605908D01*
X549942Y605769D01*
X549918Y605712D01*
X549888Y605659D01*
X549833Y605504D01*
X549771Y605352D01*
X549758Y605293D01*
X549737Y605235D01*
X549711Y605073D01*
X549676Y604912D01*
X549671Y604835D01*
X549664Y604791D01*
X549665Y604730D01*
X549657Y604600D01*
X549657Y589200D01*
X549671Y589036D01*
X549678Y588872D01*
X549691Y588812D01*
X549697Y588751D01*
X549740Y588593D01*
X549776Y588432D01*
X549799Y588376D01*
X549815Y588317D01*
X549886Y588169D01*
X549949Y588017D01*
X549982Y587965D01*
X550009Y587910D01*
X550104Y587777D01*
X550194Y587639D01*
X550245Y587581D01*
X550271Y587544D01*
X550314Y587502D01*
X550400Y587404D01*
X550599Y587206D01*
X551407Y585256D01*
X551407Y583144D01*
X550599Y581194D01*
X549106Y579701D01*
X547156Y578893D01*
X545044Y578893D01*
G37*
%LPD*%
%LPC*%
G36*
X481544Y578893D02*
X481544Y578893D01*
X479594Y579701D01*
X478101Y581194D01*
X477293Y583144D01*
X477293Y585256D01*
X478101Y587206D01*
X478300Y587404D01*
X478405Y587531D01*
X478517Y587651D01*
X478549Y587703D01*
X478588Y587750D01*
X478670Y587892D01*
X478758Y588031D01*
X478782Y588088D01*
X478812Y588141D01*
X478867Y588296D01*
X478929Y588448D01*
X478942Y588507D01*
X478963Y588565D01*
X478989Y588727D01*
X479024Y588888D01*
X479029Y588965D01*
X479036Y589009D01*
X479035Y589070D01*
X479043Y589200D01*
X479043Y604600D01*
X479029Y604764D01*
X479022Y604928D01*
X479009Y604988D01*
X479003Y605049D01*
X478960Y605207D01*
X478924Y605368D01*
X478901Y605424D01*
X478885Y605483D01*
X478814Y605631D01*
X478751Y605783D01*
X478718Y605835D01*
X478691Y605890D01*
X478596Y606023D01*
X478506Y606161D01*
X478455Y606219D01*
X478429Y606256D01*
X478386Y606298D01*
X478300Y606396D01*
X478101Y606594D01*
X477293Y608544D01*
X477293Y610656D01*
X478101Y612606D01*
X479594Y614099D01*
X481544Y614907D01*
X483656Y614907D01*
X485606Y614099D01*
X487099Y612606D01*
X487907Y610656D01*
X487907Y608544D01*
X487099Y606594D01*
X486900Y606396D01*
X486795Y606269D01*
X486683Y606149D01*
X486651Y606097D01*
X486612Y606050D01*
X486530Y605908D01*
X486442Y605769D01*
X486418Y605712D01*
X486388Y605659D01*
X486333Y605504D01*
X486271Y605352D01*
X486258Y605293D01*
X486237Y605235D01*
X486211Y605073D01*
X486176Y604912D01*
X486171Y604835D01*
X486164Y604791D01*
X486165Y604730D01*
X486157Y604600D01*
X486157Y589200D01*
X486171Y589036D01*
X486178Y588872D01*
X486191Y588812D01*
X486197Y588751D01*
X486240Y588593D01*
X486276Y588432D01*
X486299Y588376D01*
X486315Y588317D01*
X486386Y588169D01*
X486449Y588017D01*
X486482Y587965D01*
X486509Y587910D01*
X486604Y587777D01*
X486694Y587639D01*
X486745Y587581D01*
X486771Y587544D01*
X486814Y587502D01*
X486900Y587404D01*
X487099Y587206D01*
X487907Y585256D01*
X487907Y583144D01*
X487099Y581194D01*
X485606Y579701D01*
X483656Y578893D01*
X481544Y578893D01*
G37*
%LPD*%
%LPC*%
G36*
X430744Y578893D02*
X430744Y578893D01*
X428794Y579701D01*
X427301Y581194D01*
X426493Y583144D01*
X426493Y585256D01*
X427301Y587206D01*
X427500Y587404D01*
X427605Y587531D01*
X427717Y587651D01*
X427749Y587703D01*
X427788Y587750D01*
X427870Y587892D01*
X427958Y588031D01*
X427982Y588088D01*
X428012Y588141D01*
X428067Y588296D01*
X428129Y588448D01*
X428142Y588507D01*
X428163Y588565D01*
X428189Y588727D01*
X428224Y588888D01*
X428229Y588965D01*
X428236Y589009D01*
X428235Y589070D01*
X428243Y589200D01*
X428243Y604600D01*
X428229Y604764D01*
X428222Y604928D01*
X428209Y604988D01*
X428203Y605049D01*
X428160Y605207D01*
X428124Y605368D01*
X428101Y605424D01*
X428085Y605483D01*
X428014Y605631D01*
X427951Y605783D01*
X427918Y605835D01*
X427891Y605890D01*
X427796Y606023D01*
X427706Y606162D01*
X427655Y606219D01*
X427629Y606256D01*
X427586Y606298D01*
X427499Y606396D01*
X427301Y606594D01*
X426493Y608544D01*
X426493Y610656D01*
X427301Y612606D01*
X428794Y614099D01*
X430744Y614907D01*
X432856Y614907D01*
X434806Y614099D01*
X436299Y612606D01*
X437107Y610656D01*
X437107Y608544D01*
X436299Y606594D01*
X436101Y606396D01*
X435995Y606270D01*
X435883Y606149D01*
X435851Y606097D01*
X435812Y606050D01*
X435730Y605908D01*
X435642Y605769D01*
X435618Y605712D01*
X435588Y605659D01*
X435533Y605505D01*
X435471Y605352D01*
X435458Y605293D01*
X435437Y605235D01*
X435411Y605073D01*
X435376Y604912D01*
X435371Y604835D01*
X435364Y604791D01*
X435365Y604730D01*
X435357Y604600D01*
X435357Y589200D01*
X435371Y589036D01*
X435378Y588872D01*
X435391Y588812D01*
X435397Y588751D01*
X435440Y588593D01*
X435476Y588432D01*
X435499Y588376D01*
X435515Y588317D01*
X435586Y588169D01*
X435649Y588017D01*
X435682Y587965D01*
X435709Y587910D01*
X435804Y587777D01*
X435894Y587639D01*
X435945Y587581D01*
X435971Y587544D01*
X436014Y587502D01*
X436100Y587404D01*
X436299Y587206D01*
X437107Y585256D01*
X437107Y583144D01*
X436299Y581194D01*
X434806Y579701D01*
X432856Y578893D01*
X430744Y578893D01*
G37*
%LPD*%
%LPC*%
G36*
X214132Y403859D02*
X214132Y403859D01*
X210864Y405213D01*
X208363Y407714D01*
X207009Y410982D01*
X207009Y414518D01*
X208363Y417786D01*
X210864Y420287D01*
X214132Y421641D01*
X217668Y421641D01*
X220936Y420287D01*
X223437Y417786D01*
X224791Y414518D01*
X224791Y410982D01*
X223437Y407714D01*
X220936Y405213D01*
X217668Y403859D01*
X214132Y403859D01*
G37*
%LPD*%
%LPC*%
G36*
X112532Y302259D02*
X112532Y302259D01*
X109264Y303613D01*
X106763Y306114D01*
X105409Y309382D01*
X105409Y312918D01*
X106763Y316186D01*
X109264Y318687D01*
X112532Y320041D01*
X116068Y320041D01*
X119336Y318687D01*
X121837Y316186D01*
X123191Y312918D01*
X123191Y309382D01*
X121837Y306114D01*
X119336Y303613D01*
X116068Y302259D01*
X112532Y302259D01*
G37*
%LPD*%
%LPC*%
G36*
X163332Y302259D02*
X163332Y302259D01*
X160064Y303613D01*
X157563Y306114D01*
X156209Y309382D01*
X156209Y312918D01*
X157563Y316186D01*
X160064Y318687D01*
X163332Y320041D01*
X166868Y320041D01*
X170136Y318687D01*
X172637Y316186D01*
X173991Y312918D01*
X173991Y309382D01*
X172637Y306114D01*
X170136Y303613D01*
X166868Y302259D01*
X163332Y302259D01*
G37*
%LPD*%
%LPC*%
G36*
X214132Y581659D02*
X214132Y581659D01*
X210864Y583013D01*
X208363Y585514D01*
X207009Y588782D01*
X207009Y592318D01*
X208363Y595586D01*
X210864Y598087D01*
X214132Y599441D01*
X217668Y599441D01*
X220936Y598087D01*
X223437Y595586D01*
X224791Y592318D01*
X224791Y588782D01*
X223437Y585514D01*
X220936Y583013D01*
X217668Y581659D01*
X214132Y581659D01*
G37*
%LPD*%
%LPC*%
G36*
X188732Y302259D02*
X188732Y302259D01*
X185464Y303613D01*
X182963Y306114D01*
X181609Y309382D01*
X181609Y312918D01*
X182963Y316186D01*
X185464Y318687D01*
X188732Y320041D01*
X192268Y320041D01*
X195536Y318687D01*
X198037Y316186D01*
X199391Y312918D01*
X199391Y309382D01*
X198037Y306114D01*
X195536Y303613D01*
X192268Y302259D01*
X188732Y302259D01*
G37*
%LPD*%
%LPC*%
G36*
X214132Y302259D02*
X214132Y302259D01*
X210864Y303613D01*
X208363Y306114D01*
X207009Y309382D01*
X207009Y312918D01*
X208363Y316186D01*
X210864Y318687D01*
X214132Y320041D01*
X217668Y320041D01*
X220936Y318687D01*
X223437Y316186D01*
X224791Y312918D01*
X224791Y309382D01*
X223437Y306114D01*
X220936Y303613D01*
X217668Y302259D01*
X214132Y302259D01*
G37*
%LPD*%
%LPC*%
G36*
X214132Y429259D02*
X214132Y429259D01*
X210864Y430613D01*
X208363Y433114D01*
X207009Y436382D01*
X207009Y439918D01*
X208363Y443186D01*
X210864Y445687D01*
X214132Y447041D01*
X217668Y447041D01*
X220936Y445687D01*
X223437Y443186D01*
X224791Y439918D01*
X224791Y436382D01*
X223437Y433114D01*
X220936Y430613D01*
X217668Y429259D01*
X214132Y429259D01*
G37*
%LPD*%
%LPC*%
G36*
X61732Y429259D02*
X61732Y429259D01*
X58464Y430613D01*
X55963Y433114D01*
X54609Y436382D01*
X54609Y439918D01*
X55963Y443186D01*
X58464Y445687D01*
X61732Y447041D01*
X65268Y447041D01*
X68536Y445687D01*
X71037Y443186D01*
X72391Y439918D01*
X72391Y436382D01*
X71037Y433114D01*
X68536Y430613D01*
X65268Y429259D01*
X61732Y429259D01*
G37*
%LPD*%
%LPC*%
G36*
X61732Y607059D02*
X61732Y607059D01*
X58464Y608413D01*
X55963Y610914D01*
X54609Y614182D01*
X54609Y617718D01*
X55963Y620986D01*
X58464Y623487D01*
X61732Y624841D01*
X65268Y624841D01*
X68536Y623487D01*
X71037Y620986D01*
X72391Y617718D01*
X72391Y614182D01*
X71037Y610914D01*
X68536Y608413D01*
X65268Y607059D01*
X61732Y607059D01*
G37*
%LPD*%
%LPC*%
G36*
X214132Y556259D02*
X214132Y556259D01*
X210864Y557613D01*
X208363Y560114D01*
X207009Y563382D01*
X207009Y566918D01*
X208363Y570186D01*
X210864Y572687D01*
X214132Y574041D01*
X217668Y574041D01*
X220936Y572687D01*
X223437Y570186D01*
X224791Y566918D01*
X224791Y563382D01*
X223437Y560114D01*
X220936Y557613D01*
X217668Y556259D01*
X214132Y556259D01*
G37*
%LPD*%
%LPC*%
G36*
X61732Y403859D02*
X61732Y403859D01*
X58464Y405213D01*
X55963Y407714D01*
X54609Y410982D01*
X54609Y414518D01*
X55963Y417786D01*
X58464Y420287D01*
X61732Y421641D01*
X65268Y421641D01*
X68536Y420287D01*
X71037Y417786D01*
X72391Y414518D01*
X72391Y410982D01*
X71037Y407714D01*
X68536Y405213D01*
X65268Y403859D01*
X61732Y403859D01*
G37*
%LPD*%
%LPC*%
G36*
X61732Y327659D02*
X61732Y327659D01*
X58464Y329013D01*
X55963Y331514D01*
X54609Y334782D01*
X54609Y338318D01*
X55963Y341586D01*
X58464Y344087D01*
X61732Y345441D01*
X65268Y345441D01*
X68536Y344087D01*
X71037Y341586D01*
X72391Y338318D01*
X72391Y334782D01*
X71037Y331514D01*
X68536Y329013D01*
X65268Y327659D01*
X61732Y327659D01*
G37*
%LPD*%
%LPC*%
G36*
X214132Y327659D02*
X214132Y327659D01*
X210864Y329013D01*
X208363Y331514D01*
X207009Y334782D01*
X207009Y338318D01*
X208363Y341586D01*
X210864Y344087D01*
X214132Y345441D01*
X217668Y345441D01*
X220936Y344087D01*
X223437Y341586D01*
X224791Y338318D01*
X224791Y334782D01*
X223437Y331514D01*
X220936Y329013D01*
X217668Y327659D01*
X214132Y327659D01*
G37*
%LPD*%
%LPC*%
G36*
X214132Y378459D02*
X214132Y378459D01*
X210864Y379813D01*
X208363Y382314D01*
X207009Y385582D01*
X207009Y389118D01*
X208363Y392386D01*
X210864Y394887D01*
X214132Y396241D01*
X217668Y396241D01*
X220936Y394887D01*
X223437Y392386D01*
X224791Y389118D01*
X224791Y385582D01*
X223437Y382314D01*
X220936Y379813D01*
X217668Y378459D01*
X214132Y378459D01*
G37*
%LPD*%
%LPC*%
G36*
X61732Y378459D02*
X61732Y378459D01*
X58464Y379813D01*
X55963Y382314D01*
X54609Y385582D01*
X54609Y389118D01*
X55963Y392386D01*
X58464Y394887D01*
X61732Y396241D01*
X65268Y396241D01*
X68536Y394887D01*
X71037Y392386D01*
X72391Y389118D01*
X72391Y385582D01*
X71037Y382314D01*
X68536Y379813D01*
X65268Y378459D01*
X61732Y378459D01*
G37*
%LPD*%
%LPC*%
G36*
X214132Y353059D02*
X214132Y353059D01*
X210864Y354413D01*
X208363Y356914D01*
X207009Y360182D01*
X207009Y363718D01*
X208363Y366986D01*
X210864Y369487D01*
X214132Y370841D01*
X217668Y370841D01*
X220936Y369487D01*
X223437Y366986D01*
X224791Y363718D01*
X224791Y360182D01*
X223437Y356914D01*
X220936Y354413D01*
X217668Y353059D01*
X214132Y353059D01*
G37*
%LPD*%
%LPC*%
G36*
X61732Y353059D02*
X61732Y353059D01*
X58464Y354413D01*
X55963Y356914D01*
X54609Y360182D01*
X54609Y363718D01*
X55963Y366986D01*
X58464Y369487D01*
X61732Y370841D01*
X65268Y370841D01*
X68536Y369487D01*
X71037Y366986D01*
X72391Y363718D01*
X72391Y360182D01*
X71037Y356914D01*
X68536Y354413D01*
X65268Y353059D01*
X61732Y353059D01*
G37*
%LPD*%
%LPC*%
G36*
X214132Y454659D02*
X214132Y454659D01*
X210864Y456013D01*
X208363Y458514D01*
X207009Y461782D01*
X207009Y465318D01*
X208363Y468586D01*
X210864Y471087D01*
X214132Y472441D01*
X217668Y472441D01*
X220936Y471087D01*
X223437Y468586D01*
X224791Y465318D01*
X224791Y461782D01*
X223437Y458514D01*
X220936Y456013D01*
X217668Y454659D01*
X214132Y454659D01*
G37*
%LPD*%
%LPC*%
G36*
X61732Y454659D02*
X61732Y454659D01*
X58464Y456013D01*
X55963Y458514D01*
X54609Y461782D01*
X54609Y465318D01*
X55963Y468586D01*
X58464Y471087D01*
X61732Y472441D01*
X65268Y472441D01*
X68536Y471087D01*
X71037Y468586D01*
X72391Y465318D01*
X72391Y461782D01*
X71037Y458514D01*
X68536Y456013D01*
X65268Y454659D01*
X61732Y454659D01*
G37*
%LPD*%
%LPC*%
G36*
X61732Y581659D02*
X61732Y581659D01*
X58464Y583013D01*
X55963Y585514D01*
X54609Y588782D01*
X54609Y592318D01*
X55963Y595586D01*
X58464Y598087D01*
X61732Y599441D01*
X65268Y599441D01*
X68536Y598087D01*
X71037Y595586D01*
X72391Y592318D01*
X72391Y588782D01*
X71037Y585514D01*
X68536Y583013D01*
X65268Y581659D01*
X61732Y581659D01*
G37*
%LPD*%
%LPC*%
G36*
X61732Y480059D02*
X61732Y480059D01*
X58464Y481413D01*
X55963Y483914D01*
X54609Y487182D01*
X54609Y490718D01*
X55963Y493986D01*
X58464Y496487D01*
X61732Y497841D01*
X65268Y497841D01*
X68536Y496487D01*
X71037Y493986D01*
X72391Y490718D01*
X72391Y487182D01*
X71037Y483914D01*
X68536Y481413D01*
X65268Y480059D01*
X61732Y480059D01*
G37*
%LPD*%
%LPC*%
G36*
X214132Y480059D02*
X214132Y480059D01*
X210864Y481413D01*
X208363Y483914D01*
X207009Y487182D01*
X207009Y490718D01*
X208363Y493986D01*
X210864Y496487D01*
X214132Y497841D01*
X217668Y497841D01*
X220936Y496487D01*
X223437Y493986D01*
X224791Y490718D01*
X224791Y487182D01*
X223437Y483914D01*
X220936Y481413D01*
X217668Y480059D01*
X214132Y480059D01*
G37*
%LPD*%
%LPC*%
G36*
X61732Y556259D02*
X61732Y556259D01*
X58464Y557613D01*
X55963Y560114D01*
X54609Y563382D01*
X54609Y566918D01*
X55963Y570186D01*
X58464Y572687D01*
X61732Y574041D01*
X65268Y574041D01*
X68536Y572687D01*
X71037Y570186D01*
X72391Y566918D01*
X72391Y563382D01*
X71037Y560114D01*
X68536Y557613D01*
X65268Y556259D01*
X61732Y556259D01*
G37*
%LPD*%
%LPC*%
G36*
X87132Y302259D02*
X87132Y302259D01*
X83864Y303613D01*
X81363Y306114D01*
X80009Y309382D01*
X80009Y312918D01*
X81363Y316186D01*
X83864Y318687D01*
X87132Y320041D01*
X90668Y320041D01*
X93936Y318687D01*
X96437Y316186D01*
X97791Y312918D01*
X97791Y309382D01*
X96437Y306114D01*
X93936Y303613D01*
X90668Y302259D01*
X87132Y302259D01*
G37*
%LPD*%
%LPC*%
G36*
X214132Y530859D02*
X214132Y530859D01*
X210864Y532213D01*
X208363Y534714D01*
X207009Y537982D01*
X207009Y541518D01*
X208363Y544786D01*
X210864Y547287D01*
X214132Y548641D01*
X217668Y548641D01*
X220936Y547287D01*
X223437Y544786D01*
X224791Y541518D01*
X224791Y537982D01*
X223437Y534714D01*
X220936Y532213D01*
X217668Y530859D01*
X214132Y530859D01*
G37*
%LPD*%
%LPC*%
G36*
X61732Y302259D02*
X61732Y302259D01*
X58464Y303613D01*
X55963Y306114D01*
X54609Y309382D01*
X54609Y312918D01*
X55963Y316186D01*
X58464Y318687D01*
X61732Y320041D01*
X65268Y320041D01*
X68536Y318687D01*
X71037Y316186D01*
X72391Y312918D01*
X72391Y309382D01*
X71037Y306114D01*
X68536Y303613D01*
X65268Y302259D01*
X61732Y302259D01*
G37*
%LPD*%
%LPC*%
G36*
X61732Y530859D02*
X61732Y530859D01*
X58464Y532213D01*
X55963Y534714D01*
X54609Y537982D01*
X54609Y541518D01*
X55963Y544786D01*
X58464Y547287D01*
X61732Y548641D01*
X65268Y548641D01*
X68536Y547287D01*
X71037Y544786D01*
X72391Y541518D01*
X72391Y537982D01*
X71037Y534714D01*
X68536Y532213D01*
X65268Y530859D01*
X61732Y530859D01*
G37*
%LPD*%
%LPC*%
G36*
X214132Y505459D02*
X214132Y505459D01*
X210864Y506813D01*
X208363Y509314D01*
X207009Y512582D01*
X207009Y516118D01*
X208363Y519386D01*
X210864Y521887D01*
X214132Y523241D01*
X217668Y523241D01*
X220936Y521887D01*
X223437Y519386D01*
X224791Y516118D01*
X224791Y512582D01*
X223437Y509314D01*
X220936Y506813D01*
X217668Y505459D01*
X214132Y505459D01*
G37*
%LPD*%
%LPC*%
G36*
X214132Y632459D02*
X214132Y632459D01*
X210864Y633813D01*
X208363Y636314D01*
X207009Y639582D01*
X207009Y643118D01*
X208363Y646386D01*
X210864Y648887D01*
X214132Y650241D01*
X217668Y650241D01*
X220936Y648887D01*
X223437Y646386D01*
X224791Y643118D01*
X224791Y639582D01*
X223437Y636314D01*
X220936Y633813D01*
X217668Y632459D01*
X214132Y632459D01*
G37*
%LPD*%
%LPC*%
G36*
X61732Y505459D02*
X61732Y505459D01*
X58464Y506813D01*
X55963Y509314D01*
X54609Y512582D01*
X54609Y516118D01*
X55963Y519386D01*
X58464Y521887D01*
X61732Y523241D01*
X65268Y523241D01*
X68536Y521887D01*
X71037Y519386D01*
X72391Y516118D01*
X72391Y512582D01*
X71037Y509314D01*
X68536Y506813D01*
X65268Y505459D01*
X61732Y505459D01*
G37*
%LPD*%
%LPC*%
G36*
X755018Y601725D02*
X755018Y601725D01*
X754125Y602618D01*
X754125Y616582D01*
X755018Y617475D01*
X768982Y617475D01*
X769875Y616582D01*
X769875Y602618D01*
X768982Y601725D01*
X755018Y601725D01*
G37*
%LPD*%
%LPC*%
G36*
X263333Y614171D02*
X263333Y614171D01*
X258571Y618933D01*
X258571Y625667D01*
X263333Y630429D01*
X270067Y630429D01*
X274829Y625667D01*
X274829Y618933D01*
X270067Y614171D01*
X263333Y614171D01*
G37*
%LPD*%
%LPC*%
G36*
X263333Y283971D02*
X263333Y283971D01*
X258571Y288733D01*
X258571Y295467D01*
X263333Y300229D01*
X270067Y300229D01*
X274829Y295467D01*
X274829Y288733D01*
X270067Y283971D01*
X263333Y283971D01*
G37*
%LPD*%
%LPC*%
G36*
X263333Y309371D02*
X263333Y309371D01*
X258571Y314133D01*
X258571Y320867D01*
X263333Y325629D01*
X270067Y325629D01*
X274829Y320867D01*
X274829Y314133D01*
X270067Y309371D01*
X263333Y309371D01*
G37*
%LPD*%
%LPC*%
G36*
X263333Y131571D02*
X263333Y131571D01*
X258571Y136333D01*
X258571Y143067D01*
X263333Y147829D01*
X270067Y147829D01*
X274829Y143067D01*
X274829Y136333D01*
X270067Y131571D01*
X263333Y131571D01*
G37*
%LPD*%
%LPC*%
G36*
X263333Y106171D02*
X263333Y106171D01*
X258571Y110933D01*
X258571Y117667D01*
X263333Y122429D01*
X270067Y122429D01*
X274829Y117667D01*
X274829Y110933D01*
X270067Y106171D01*
X263333Y106171D01*
G37*
%LPD*%
%LPC*%
G36*
X263333Y487171D02*
X263333Y487171D01*
X258571Y491933D01*
X258571Y498667D01*
X263333Y503429D01*
X270067Y503429D01*
X274829Y498667D01*
X274829Y491933D01*
X270067Y487171D01*
X263333Y487171D01*
G37*
%LPD*%
%LPC*%
G36*
X263333Y461771D02*
X263333Y461771D01*
X258571Y466533D01*
X258571Y473267D01*
X263333Y478029D01*
X270067Y478029D01*
X274829Y473267D01*
X274829Y466533D01*
X270067Y461771D01*
X263333Y461771D01*
G37*
%LPD*%
%LPC*%
G36*
X735034Y677925D02*
X735034Y677925D01*
X732139Y679124D01*
X729924Y681339D01*
X728725Y684234D01*
X728725Y687366D01*
X729924Y690261D01*
X732139Y692476D01*
X735034Y693675D01*
X738166Y693675D01*
X741061Y692476D01*
X743276Y690261D01*
X744475Y687366D01*
X744475Y684234D01*
X743276Y681339D01*
X741061Y679124D01*
X738166Y677925D01*
X735034Y677925D01*
G37*
%LPD*%
%LPC*%
G36*
X674595Y507785D02*
X674595Y507785D01*
X671998Y508861D01*
X670011Y510848D01*
X668935Y513445D01*
X668935Y516255D01*
X670011Y518852D01*
X671998Y520839D01*
X674595Y521915D01*
X677405Y521915D01*
X680002Y520839D01*
X681989Y518852D01*
X683065Y516255D01*
X683065Y513445D01*
X681989Y510848D01*
X680002Y508861D01*
X677405Y507785D01*
X674595Y507785D01*
G37*
%LPD*%
%LPC*%
G36*
X846595Y507785D02*
X846595Y507785D01*
X843998Y508861D01*
X842011Y510848D01*
X840935Y513445D01*
X840935Y516255D01*
X842011Y518852D01*
X843998Y520839D01*
X846595Y521915D01*
X849405Y521915D01*
X852002Y520839D01*
X853989Y518852D01*
X855065Y516255D01*
X855065Y513445D01*
X853989Y510848D01*
X852002Y508861D01*
X849405Y507785D01*
X846595Y507785D01*
G37*
%LPD*%
%LPC*%
G36*
X719595Y507785D02*
X719595Y507785D01*
X716998Y508861D01*
X715011Y510848D01*
X713935Y513445D01*
X713935Y516255D01*
X715011Y518852D01*
X716998Y520839D01*
X719595Y521915D01*
X722405Y521915D01*
X725002Y520839D01*
X726989Y518852D01*
X728065Y516255D01*
X728065Y513445D01*
X726989Y510848D01*
X725002Y508861D01*
X722405Y507785D01*
X719595Y507785D01*
G37*
%LPD*%
%LPC*%
G36*
X846595Y570285D02*
X846595Y570285D01*
X843998Y571361D01*
X842011Y573348D01*
X840935Y575945D01*
X840935Y578755D01*
X842011Y581352D01*
X843998Y583339D01*
X846595Y584415D01*
X849405Y584415D01*
X852002Y583339D01*
X853989Y581352D01*
X855065Y578755D01*
X855065Y575945D01*
X853989Y573348D01*
X852002Y571361D01*
X849405Y570285D01*
X846595Y570285D01*
G37*
%LPD*%
%LPC*%
G36*
X801595Y507785D02*
X801595Y507785D01*
X798998Y508861D01*
X797011Y510848D01*
X795935Y513445D01*
X795935Y516255D01*
X797011Y518852D01*
X798998Y520839D01*
X801595Y521915D01*
X804405Y521915D01*
X807002Y520839D01*
X808989Y518852D01*
X810065Y516255D01*
X810065Y513445D01*
X808989Y510848D01*
X807002Y508861D01*
X804405Y507785D01*
X801595Y507785D01*
G37*
%LPD*%
%LPC*%
G36*
X801595Y570285D02*
X801595Y570285D01*
X798998Y571361D01*
X797011Y573348D01*
X795935Y575945D01*
X795935Y578755D01*
X797011Y581352D01*
X798998Y583339D01*
X801595Y584415D01*
X804405Y584415D01*
X807002Y583339D01*
X808989Y581352D01*
X810065Y578755D01*
X810065Y575945D01*
X808989Y573348D01*
X807002Y571361D01*
X804405Y570285D01*
X801595Y570285D01*
G37*
%LPD*%
%LPC*%
G36*
X674595Y570285D02*
X674595Y570285D01*
X671998Y571361D01*
X670011Y573348D01*
X668935Y575945D01*
X668935Y578755D01*
X670011Y581352D01*
X671998Y583339D01*
X674595Y584415D01*
X677405Y584415D01*
X680002Y583339D01*
X681989Y581352D01*
X683065Y578755D01*
X683065Y575945D01*
X681989Y573348D01*
X680002Y571361D01*
X677405Y570285D01*
X674595Y570285D01*
G37*
%LPD*%
%LPC*%
G36*
X719595Y570285D02*
X719595Y570285D01*
X716998Y571361D01*
X715011Y573348D01*
X713935Y575945D01*
X713935Y578755D01*
X715011Y581352D01*
X716998Y583339D01*
X719595Y584415D01*
X722405Y584415D01*
X725002Y583339D01*
X726989Y581352D01*
X728065Y578755D01*
X728065Y575945D01*
X726989Y573348D01*
X725002Y571361D01*
X722405Y570285D01*
X719595Y570285D01*
G37*
%LPD*%
%LPC*%
G36*
X790399Y128159D02*
X790399Y128159D01*
X790399Y136701D01*
X807560Y136701D01*
X807095Y135270D01*
X806271Y133651D01*
X805203Y132182D01*
X803918Y130897D01*
X802449Y129829D01*
X800830Y129005D01*
X799103Y128443D01*
X797308Y128159D01*
X790399Y128159D01*
G37*
%LPD*%
%LPC*%
G36*
X790399Y394859D02*
X790399Y394859D01*
X790399Y403401D01*
X807560Y403401D01*
X807095Y401970D01*
X806271Y400351D01*
X805203Y398882D01*
X803918Y397597D01*
X802449Y396529D01*
X800830Y395705D01*
X799103Y395143D01*
X797308Y394859D01*
X790399Y394859D01*
G37*
%LPD*%
%LPC*%
G36*
X777492Y394859D02*
X777492Y394859D01*
X775697Y395143D01*
X773970Y395705D01*
X772351Y396529D01*
X770882Y397597D01*
X769597Y398882D01*
X768529Y400351D01*
X767705Y401970D01*
X767240Y403401D01*
X784401Y403401D01*
X784401Y394859D01*
X777492Y394859D01*
G37*
%LPD*%
%LPC*%
G36*
X777492Y128159D02*
X777492Y128159D01*
X775697Y128443D01*
X773970Y129005D01*
X772351Y129829D01*
X770882Y130897D01*
X769597Y132182D01*
X768529Y133651D01*
X767705Y135270D01*
X767240Y136701D01*
X784401Y136701D01*
X784401Y128159D01*
X777492Y128159D01*
G37*
%LPD*%
%LPC*%
G36*
X856199Y245299D02*
X856199Y245299D01*
X856199Y262701D01*
X862741Y262701D01*
X862741Y257365D01*
X862568Y256719D01*
X862233Y256140D01*
X861889Y255796D01*
X861866Y255769D01*
X861841Y255746D01*
X861722Y255597D01*
X861600Y255450D01*
X861583Y255420D01*
X861561Y255393D01*
X861471Y255225D01*
X861376Y255059D01*
X861365Y255027D01*
X861348Y254996D01*
X861289Y254814D01*
X861226Y254635D01*
X861220Y254601D01*
X861209Y254568D01*
X861183Y254379D01*
X861152Y254191D01*
X861153Y254156D01*
X861148Y254122D01*
X861156Y253931D01*
X861158Y253741D01*
X861165Y253707D01*
X861166Y253672D01*
X861207Y253486D01*
X861244Y253298D01*
X861256Y253266D01*
X861264Y253232D01*
X861337Y253057D01*
X861406Y252878D01*
X861424Y252849D01*
X861437Y252817D01*
X861541Y252657D01*
X861640Y252494D01*
X861663Y252468D01*
X861682Y252439D01*
X861889Y252204D01*
X862233Y251860D01*
X862568Y251281D01*
X862741Y250635D01*
X862741Y245299D01*
X856199Y245299D01*
G37*
%LPD*%
%LPC*%
G36*
X856199Y321499D02*
X856199Y321499D01*
X856199Y338901D01*
X862741Y338901D01*
X862741Y333565D01*
X862568Y332919D01*
X862233Y332340D01*
X861889Y331996D01*
X861866Y331969D01*
X861841Y331946D01*
X861722Y331797D01*
X861600Y331650D01*
X861583Y331620D01*
X861561Y331593D01*
X861471Y331425D01*
X861376Y331259D01*
X861365Y331227D01*
X861348Y331196D01*
X861289Y331014D01*
X861226Y330835D01*
X861220Y330801D01*
X861209Y330768D01*
X861183Y330579D01*
X861152Y330391D01*
X861153Y330356D01*
X861148Y330322D01*
X861156Y330131D01*
X861158Y329941D01*
X861165Y329907D01*
X861166Y329872D01*
X861207Y329686D01*
X861244Y329498D01*
X861256Y329466D01*
X861264Y329432D01*
X861337Y329257D01*
X861406Y329078D01*
X861424Y329049D01*
X861437Y329017D01*
X861541Y328857D01*
X861640Y328694D01*
X861663Y328668D01*
X861682Y328639D01*
X861889Y328404D01*
X862233Y328060D01*
X862568Y327481D01*
X862741Y326835D01*
X862741Y321499D01*
X856199Y321499D01*
G37*
%LPD*%
%LPC*%
G36*
X856199Y169099D02*
X856199Y169099D01*
X856199Y186501D01*
X862741Y186501D01*
X862741Y181165D01*
X862568Y180519D01*
X862233Y179940D01*
X861889Y179596D01*
X861866Y179569D01*
X861841Y179546D01*
X861722Y179397D01*
X861600Y179250D01*
X861583Y179220D01*
X861561Y179193D01*
X861471Y179025D01*
X861376Y178859D01*
X861365Y178827D01*
X861348Y178796D01*
X861289Y178614D01*
X861226Y178435D01*
X861220Y178401D01*
X861209Y178368D01*
X861183Y178179D01*
X861152Y177991D01*
X861153Y177956D01*
X861148Y177922D01*
X861156Y177731D01*
X861158Y177541D01*
X861165Y177507D01*
X861166Y177472D01*
X861207Y177286D01*
X861244Y177098D01*
X861256Y177066D01*
X861264Y177032D01*
X861337Y176857D01*
X861406Y176678D01*
X861424Y176649D01*
X861437Y176617D01*
X861541Y176457D01*
X861640Y176294D01*
X861663Y176268D01*
X861682Y176239D01*
X861851Y176047D01*
X861853Y176044D01*
X861856Y176042D01*
X861889Y176004D01*
X862233Y175660D01*
X862568Y175081D01*
X862741Y174435D01*
X862741Y169099D01*
X856199Y169099D01*
G37*
%LPD*%
%LPC*%
G36*
X856199Y270699D02*
X856199Y270699D01*
X856199Y288101D01*
X862741Y288101D01*
X862741Y282765D01*
X862568Y282119D01*
X862233Y281540D01*
X861889Y281196D01*
X861866Y281169D01*
X861840Y281146D01*
X861722Y280997D01*
X861600Y280850D01*
X861583Y280820D01*
X861561Y280793D01*
X861471Y280625D01*
X861376Y280459D01*
X861365Y280427D01*
X861348Y280396D01*
X861289Y280214D01*
X861226Y280035D01*
X861220Y280001D01*
X861209Y279968D01*
X861183Y279779D01*
X861152Y279591D01*
X861153Y279556D01*
X861148Y279522D01*
X861156Y279332D01*
X861158Y279140D01*
X861165Y279106D01*
X861166Y279072D01*
X861207Y278886D01*
X861244Y278698D01*
X861256Y278666D01*
X861264Y278632D01*
X861337Y278456D01*
X861406Y278278D01*
X861424Y278249D01*
X861437Y278217D01*
X861541Y278057D01*
X861640Y277894D01*
X861663Y277868D01*
X861682Y277839D01*
X861889Y277604D01*
X862233Y277260D01*
X862568Y276681D01*
X862741Y276035D01*
X862741Y270699D01*
X856199Y270699D01*
G37*
%LPD*%
%LPC*%
G36*
X856199Y219899D02*
X856199Y219899D01*
X856199Y237301D01*
X862741Y237301D01*
X862741Y231965D01*
X862568Y231319D01*
X862233Y230740D01*
X861889Y230396D01*
X861866Y230369D01*
X861840Y230346D01*
X861722Y230197D01*
X861600Y230050D01*
X861583Y230020D01*
X861561Y229993D01*
X861471Y229825D01*
X861376Y229659D01*
X861365Y229627D01*
X861348Y229596D01*
X861289Y229414D01*
X861226Y229235D01*
X861220Y229201D01*
X861209Y229168D01*
X861183Y228979D01*
X861152Y228791D01*
X861153Y228756D01*
X861148Y228722D01*
X861156Y228532D01*
X861158Y228340D01*
X861165Y228306D01*
X861166Y228272D01*
X861207Y228086D01*
X861244Y227898D01*
X861256Y227866D01*
X861264Y227832D01*
X861337Y227656D01*
X861406Y227478D01*
X861424Y227449D01*
X861437Y227417D01*
X861541Y227257D01*
X861640Y227094D01*
X861663Y227068D01*
X861682Y227039D01*
X861889Y226804D01*
X862233Y226460D01*
X862568Y225881D01*
X862741Y225235D01*
X862741Y219899D01*
X856199Y219899D01*
G37*
%LPD*%
%LPC*%
G36*
X856199Y296099D02*
X856199Y296099D01*
X856199Y313501D01*
X862741Y313501D01*
X862741Y308165D01*
X862568Y307519D01*
X862233Y306940D01*
X861889Y306596D01*
X861866Y306569D01*
X861840Y306546D01*
X861722Y306397D01*
X861600Y306250D01*
X861583Y306220D01*
X861561Y306193D01*
X861471Y306025D01*
X861376Y305859D01*
X861365Y305827D01*
X861348Y305796D01*
X861289Y305614D01*
X861226Y305435D01*
X861220Y305401D01*
X861209Y305368D01*
X861183Y305179D01*
X861152Y304991D01*
X861153Y304956D01*
X861148Y304922D01*
X861156Y304732D01*
X861158Y304540D01*
X861165Y304506D01*
X861166Y304472D01*
X861207Y304286D01*
X861244Y304098D01*
X861256Y304066D01*
X861264Y304032D01*
X861337Y303856D01*
X861406Y303678D01*
X861424Y303649D01*
X861437Y303617D01*
X861541Y303457D01*
X861640Y303294D01*
X861663Y303268D01*
X861682Y303239D01*
X861889Y303004D01*
X862233Y302660D01*
X862568Y302081D01*
X862741Y301435D01*
X862741Y296099D01*
X856199Y296099D01*
G37*
%LPD*%
%LPC*%
G36*
X856199Y194499D02*
X856199Y194499D01*
X856199Y211901D01*
X862741Y211901D01*
X862741Y206565D01*
X862568Y205919D01*
X862233Y205340D01*
X861889Y204996D01*
X861866Y204969D01*
X861840Y204946D01*
X861722Y204797D01*
X861600Y204650D01*
X861583Y204620D01*
X861561Y204593D01*
X861471Y204425D01*
X861376Y204259D01*
X861365Y204227D01*
X861348Y204196D01*
X861289Y204014D01*
X861226Y203835D01*
X861220Y203801D01*
X861209Y203768D01*
X861183Y203579D01*
X861152Y203391D01*
X861153Y203356D01*
X861148Y203322D01*
X861156Y203132D01*
X861158Y202940D01*
X861165Y202906D01*
X861166Y202872D01*
X861207Y202686D01*
X861244Y202498D01*
X861256Y202466D01*
X861264Y202432D01*
X861337Y202256D01*
X861406Y202078D01*
X861424Y202049D01*
X861437Y202017D01*
X861541Y201857D01*
X861640Y201694D01*
X861663Y201668D01*
X861682Y201639D01*
X861889Y201404D01*
X862233Y201060D01*
X862568Y200481D01*
X862741Y199835D01*
X862741Y194499D01*
X856199Y194499D01*
G37*
%LPD*%
%LPC*%
G36*
X841659Y296099D02*
X841659Y296099D01*
X841659Y301435D01*
X841832Y302081D01*
X842167Y302660D01*
X842511Y303004D01*
X842534Y303031D01*
X842559Y303054D01*
X842678Y303203D01*
X842800Y303350D01*
X842817Y303380D01*
X842839Y303407D01*
X842929Y303575D01*
X843024Y303741D01*
X843035Y303773D01*
X843052Y303804D01*
X843111Y303986D01*
X843174Y304165D01*
X843180Y304199D01*
X843191Y304232D01*
X843217Y304421D01*
X843248Y304609D01*
X843247Y304644D01*
X843252Y304678D01*
X843244Y304869D01*
X843242Y305059D01*
X843235Y305093D01*
X843234Y305128D01*
X843193Y305314D01*
X843156Y305502D01*
X843144Y305534D01*
X843136Y305568D01*
X843063Y305743D01*
X842994Y305922D01*
X842976Y305951D01*
X842963Y305983D01*
X842859Y306143D01*
X842760Y306306D01*
X842737Y306332D01*
X842718Y306361D01*
X842511Y306596D01*
X842167Y306940D01*
X841832Y307519D01*
X841659Y308165D01*
X841659Y313501D01*
X848201Y313501D01*
X848201Y296099D01*
X841659Y296099D01*
G37*
%LPD*%
%LPC*%
G36*
X841659Y245299D02*
X841659Y245299D01*
X841659Y250635D01*
X841832Y251281D01*
X842167Y251860D01*
X842511Y252204D01*
X842534Y252231D01*
X842559Y252254D01*
X842678Y252403D01*
X842800Y252550D01*
X842817Y252580D01*
X842839Y252607D01*
X842929Y252775D01*
X843024Y252941D01*
X843035Y252973D01*
X843052Y253004D01*
X843111Y253186D01*
X843174Y253365D01*
X843180Y253399D01*
X843191Y253432D01*
X843217Y253621D01*
X843248Y253809D01*
X843247Y253844D01*
X843252Y253878D01*
X843244Y254069D01*
X843242Y254259D01*
X843235Y254293D01*
X843234Y254328D01*
X843193Y254514D01*
X843156Y254702D01*
X843144Y254734D01*
X843136Y254768D01*
X843063Y254943D01*
X842994Y255122D01*
X842976Y255151D01*
X842963Y255183D01*
X842859Y255343D01*
X842760Y255506D01*
X842737Y255532D01*
X842718Y255561D01*
X842511Y255796D01*
X842167Y256140D01*
X841832Y256719D01*
X841659Y257365D01*
X841659Y262701D01*
X848201Y262701D01*
X848201Y245299D01*
X841659Y245299D01*
G37*
%LPD*%
%LPC*%
G36*
X841659Y270699D02*
X841659Y270699D01*
X841659Y276035D01*
X841832Y276681D01*
X842167Y277260D01*
X842511Y277604D01*
X842534Y277631D01*
X842559Y277654D01*
X842678Y277803D01*
X842800Y277950D01*
X842817Y277980D01*
X842839Y278007D01*
X842929Y278175D01*
X843024Y278341D01*
X843035Y278373D01*
X843052Y278404D01*
X843111Y278586D01*
X843174Y278765D01*
X843180Y278799D01*
X843191Y278832D01*
X843217Y279021D01*
X843248Y279209D01*
X843247Y279244D01*
X843252Y279278D01*
X843244Y279469D01*
X843242Y279659D01*
X843235Y279693D01*
X843234Y279728D01*
X843193Y279914D01*
X843156Y280102D01*
X843144Y280134D01*
X843136Y280168D01*
X843063Y280343D01*
X842994Y280522D01*
X842976Y280551D01*
X842963Y280583D01*
X842859Y280743D01*
X842760Y280906D01*
X842737Y280932D01*
X842718Y280961D01*
X842511Y281196D01*
X842167Y281540D01*
X841832Y282119D01*
X841659Y282765D01*
X841659Y288101D01*
X848201Y288101D01*
X848201Y270699D01*
X841659Y270699D01*
G37*
%LPD*%
%LPC*%
G36*
X841659Y219899D02*
X841659Y219899D01*
X841659Y225235D01*
X841832Y225881D01*
X842167Y226460D01*
X842511Y226804D01*
X842534Y226831D01*
X842559Y226854D01*
X842678Y227003D01*
X842800Y227150D01*
X842817Y227180D01*
X842839Y227207D01*
X842929Y227375D01*
X843024Y227541D01*
X843035Y227573D01*
X843052Y227604D01*
X843111Y227786D01*
X843174Y227965D01*
X843180Y227999D01*
X843191Y228032D01*
X843217Y228221D01*
X843248Y228409D01*
X843247Y228444D01*
X843252Y228478D01*
X843244Y228669D01*
X843242Y228859D01*
X843235Y228893D01*
X843234Y228928D01*
X843193Y229114D01*
X843156Y229302D01*
X843144Y229334D01*
X843136Y229368D01*
X843063Y229543D01*
X842994Y229722D01*
X842976Y229751D01*
X842963Y229783D01*
X842859Y229943D01*
X842760Y230106D01*
X842737Y230132D01*
X842718Y230161D01*
X842511Y230396D01*
X842167Y230740D01*
X841832Y231319D01*
X841659Y231965D01*
X841659Y237301D01*
X848201Y237301D01*
X848201Y219899D01*
X841659Y219899D01*
G37*
%LPD*%
%LPC*%
G36*
X841659Y194499D02*
X841659Y194499D01*
X841659Y199835D01*
X841832Y200481D01*
X842167Y201060D01*
X842511Y201404D01*
X842534Y201431D01*
X842559Y201454D01*
X842625Y201537D01*
X842629Y201541D01*
X842634Y201548D01*
X842678Y201603D01*
X842800Y201750D01*
X842817Y201780D01*
X842839Y201807D01*
X842929Y201975D01*
X843024Y202141D01*
X843035Y202173D01*
X843052Y202204D01*
X843111Y202386D01*
X843174Y202565D01*
X843180Y202599D01*
X843191Y202632D01*
X843217Y202821D01*
X843248Y203009D01*
X843247Y203044D01*
X843252Y203078D01*
X843244Y203269D01*
X843242Y203459D01*
X843235Y203493D01*
X843234Y203528D01*
X843193Y203714D01*
X843156Y203902D01*
X843144Y203934D01*
X843136Y203968D01*
X843063Y204143D01*
X842994Y204322D01*
X842976Y204351D01*
X842963Y204383D01*
X842859Y204543D01*
X842760Y204706D01*
X842737Y204732D01*
X842718Y204761D01*
X842511Y204996D01*
X842167Y205340D01*
X841832Y205919D01*
X841659Y206565D01*
X841659Y211901D01*
X848201Y211901D01*
X848201Y194499D01*
X841659Y194499D01*
G37*
%LPD*%
%LPC*%
G36*
X841659Y321499D02*
X841659Y321499D01*
X841659Y326835D01*
X841832Y327481D01*
X842167Y328060D01*
X842511Y328404D01*
X842534Y328431D01*
X842560Y328454D01*
X842678Y328603D01*
X842800Y328750D01*
X842817Y328780D01*
X842839Y328807D01*
X842929Y328975D01*
X843024Y329141D01*
X843035Y329173D01*
X843052Y329204D01*
X843111Y329386D01*
X843174Y329565D01*
X843180Y329599D01*
X843191Y329632D01*
X843217Y329821D01*
X843248Y330009D01*
X843247Y330044D01*
X843252Y330078D01*
X843244Y330268D01*
X843242Y330460D01*
X843235Y330494D01*
X843234Y330528D01*
X843193Y330714D01*
X843156Y330902D01*
X843144Y330934D01*
X843136Y330968D01*
X843063Y331144D01*
X842994Y331322D01*
X842976Y331351D01*
X842963Y331383D01*
X842859Y331543D01*
X842760Y331706D01*
X842737Y331732D01*
X842718Y331761D01*
X842511Y331996D01*
X842167Y332340D01*
X841832Y332919D01*
X841659Y333565D01*
X841659Y338901D01*
X848201Y338901D01*
X848201Y321499D01*
X841659Y321499D01*
G37*
%LPD*%
%LPC*%
G36*
X841659Y169099D02*
X841659Y169099D01*
X841659Y174435D01*
X841832Y175081D01*
X842167Y175660D01*
X842511Y176004D01*
X842534Y176031D01*
X842560Y176054D01*
X842624Y176136D01*
X842637Y176149D01*
X842650Y176168D01*
X842678Y176203D01*
X842800Y176350D01*
X842817Y176380D01*
X842839Y176407D01*
X842929Y176575D01*
X843024Y176741D01*
X843035Y176773D01*
X843052Y176804D01*
X843111Y176986D01*
X843174Y177165D01*
X843180Y177199D01*
X843191Y177232D01*
X843217Y177421D01*
X843248Y177609D01*
X843247Y177644D01*
X843252Y177678D01*
X843244Y177868D01*
X843242Y178060D01*
X843235Y178094D01*
X843234Y178128D01*
X843193Y178314D01*
X843156Y178502D01*
X843144Y178534D01*
X843136Y178568D01*
X843063Y178744D01*
X842994Y178922D01*
X842976Y178951D01*
X842963Y178983D01*
X842859Y179143D01*
X842760Y179306D01*
X842737Y179332D01*
X842718Y179361D01*
X842511Y179596D01*
X842167Y179940D01*
X841832Y180519D01*
X841659Y181165D01*
X841659Y186501D01*
X848201Y186501D01*
X848201Y169099D01*
X841659Y169099D01*
G37*
%LPD*%
%LPC*%
G36*
X723099Y244299D02*
X723099Y244299D01*
X723099Y263701D01*
X728641Y263701D01*
X728641Y257365D01*
X728468Y256719D01*
X728133Y256140D01*
X727789Y255796D01*
X727766Y255769D01*
X727741Y255746D01*
X727622Y255597D01*
X727500Y255450D01*
X727483Y255420D01*
X727461Y255393D01*
X727371Y255225D01*
X727276Y255059D01*
X727265Y255027D01*
X727248Y254996D01*
X727189Y254814D01*
X727126Y254635D01*
X727120Y254601D01*
X727109Y254568D01*
X727083Y254379D01*
X727052Y254191D01*
X727053Y254156D01*
X727048Y254122D01*
X727056Y253931D01*
X727058Y253741D01*
X727065Y253707D01*
X727066Y253672D01*
X727107Y253486D01*
X727144Y253298D01*
X727156Y253266D01*
X727164Y253232D01*
X727237Y253057D01*
X727306Y252878D01*
X727324Y252849D01*
X727337Y252817D01*
X727441Y252657D01*
X727540Y252494D01*
X727563Y252468D01*
X727582Y252439D01*
X727789Y252204D01*
X728133Y251860D01*
X728468Y251281D01*
X728641Y250635D01*
X728641Y244299D01*
X723099Y244299D01*
G37*
%LPD*%
%LPC*%
G36*
X723099Y218899D02*
X723099Y218899D01*
X723099Y238301D01*
X728641Y238301D01*
X728641Y231965D01*
X728468Y231319D01*
X728133Y230740D01*
X727789Y230396D01*
X727766Y230369D01*
X727741Y230346D01*
X727622Y230197D01*
X727500Y230050D01*
X727483Y230020D01*
X727461Y229993D01*
X727371Y229825D01*
X727276Y229659D01*
X727265Y229627D01*
X727248Y229596D01*
X727189Y229414D01*
X727126Y229235D01*
X727120Y229201D01*
X727109Y229168D01*
X727083Y228979D01*
X727052Y228791D01*
X727053Y228756D01*
X727048Y228722D01*
X727056Y228531D01*
X727058Y228341D01*
X727065Y228307D01*
X727066Y228272D01*
X727107Y228086D01*
X727144Y227898D01*
X727156Y227866D01*
X727164Y227832D01*
X727237Y227657D01*
X727306Y227478D01*
X727324Y227449D01*
X727337Y227417D01*
X727441Y227257D01*
X727540Y227094D01*
X727563Y227068D01*
X727582Y227039D01*
X727789Y226804D01*
X728133Y226460D01*
X728468Y225881D01*
X728641Y225235D01*
X728641Y218899D01*
X723099Y218899D01*
G37*
%LPD*%
%LPC*%
G36*
X723099Y320499D02*
X723099Y320499D01*
X723099Y339901D01*
X728641Y339901D01*
X728641Y333565D01*
X728468Y332919D01*
X728133Y332340D01*
X727789Y331996D01*
X727766Y331969D01*
X727741Y331946D01*
X727622Y331797D01*
X727500Y331650D01*
X727483Y331620D01*
X727461Y331593D01*
X727371Y331425D01*
X727276Y331259D01*
X727265Y331227D01*
X727248Y331196D01*
X727189Y331014D01*
X727126Y330835D01*
X727120Y330801D01*
X727109Y330768D01*
X727083Y330579D01*
X727052Y330391D01*
X727053Y330356D01*
X727048Y330322D01*
X727056Y330131D01*
X727058Y329941D01*
X727065Y329907D01*
X727066Y329872D01*
X727107Y329686D01*
X727144Y329498D01*
X727156Y329466D01*
X727164Y329432D01*
X727237Y329257D01*
X727306Y329078D01*
X727324Y329049D01*
X727337Y329017D01*
X727441Y328857D01*
X727540Y328694D01*
X727563Y328668D01*
X727582Y328639D01*
X727789Y328404D01*
X728133Y328060D01*
X728468Y327481D01*
X728641Y326835D01*
X728641Y320499D01*
X723099Y320499D01*
G37*
%LPD*%
%LPC*%
G36*
X723099Y168099D02*
X723099Y168099D01*
X723099Y187501D01*
X728641Y187501D01*
X728641Y181165D01*
X728468Y180519D01*
X728133Y179940D01*
X727789Y179596D01*
X727766Y179569D01*
X727741Y179546D01*
X727622Y179397D01*
X727500Y179250D01*
X727483Y179220D01*
X727461Y179193D01*
X727371Y179025D01*
X727276Y178859D01*
X727265Y178827D01*
X727248Y178796D01*
X727189Y178614D01*
X727126Y178435D01*
X727120Y178401D01*
X727109Y178368D01*
X727083Y178179D01*
X727052Y177991D01*
X727053Y177956D01*
X727048Y177922D01*
X727056Y177731D01*
X727058Y177541D01*
X727065Y177507D01*
X727066Y177472D01*
X727107Y177286D01*
X727144Y177098D01*
X727156Y177066D01*
X727164Y177032D01*
X727237Y176857D01*
X727306Y176678D01*
X727324Y176649D01*
X727337Y176617D01*
X727441Y176457D01*
X727540Y176294D01*
X727563Y176268D01*
X727582Y176239D01*
X727751Y176047D01*
X727753Y176044D01*
X727756Y176042D01*
X727789Y176004D01*
X728133Y175660D01*
X728468Y175081D01*
X728641Y174435D01*
X728641Y168099D01*
X723099Y168099D01*
G37*
%LPD*%
%LPC*%
G36*
X723099Y295099D02*
X723099Y295099D01*
X723099Y314501D01*
X728641Y314501D01*
X728641Y308165D01*
X728468Y307519D01*
X728133Y306940D01*
X727789Y306596D01*
X727766Y306569D01*
X727740Y306546D01*
X727622Y306397D01*
X727500Y306250D01*
X727483Y306220D01*
X727461Y306193D01*
X727371Y306025D01*
X727276Y305859D01*
X727265Y305827D01*
X727248Y305796D01*
X727189Y305614D01*
X727126Y305435D01*
X727120Y305401D01*
X727109Y305368D01*
X727083Y305179D01*
X727052Y304991D01*
X727053Y304956D01*
X727048Y304922D01*
X727056Y304732D01*
X727058Y304540D01*
X727065Y304506D01*
X727066Y304472D01*
X727107Y304286D01*
X727144Y304098D01*
X727156Y304066D01*
X727164Y304032D01*
X727237Y303856D01*
X727306Y303678D01*
X727324Y303649D01*
X727337Y303617D01*
X727441Y303457D01*
X727540Y303294D01*
X727563Y303268D01*
X727582Y303239D01*
X727789Y303004D01*
X728133Y302660D01*
X728468Y302081D01*
X728641Y301435D01*
X728641Y295099D01*
X723099Y295099D01*
G37*
%LPD*%
%LPC*%
G36*
X723099Y269699D02*
X723099Y269699D01*
X723099Y289101D01*
X728641Y289101D01*
X728641Y282765D01*
X728468Y282119D01*
X728133Y281540D01*
X727789Y281196D01*
X727766Y281169D01*
X727740Y281146D01*
X727622Y280997D01*
X727500Y280850D01*
X727483Y280820D01*
X727461Y280793D01*
X727371Y280625D01*
X727276Y280459D01*
X727265Y280427D01*
X727248Y280396D01*
X727189Y280214D01*
X727126Y280035D01*
X727120Y280001D01*
X727109Y279968D01*
X727083Y279779D01*
X727052Y279591D01*
X727053Y279556D01*
X727048Y279522D01*
X727056Y279332D01*
X727058Y279140D01*
X727065Y279106D01*
X727066Y279072D01*
X727107Y278886D01*
X727144Y278698D01*
X727156Y278666D01*
X727164Y278632D01*
X727237Y278456D01*
X727306Y278278D01*
X727324Y278249D01*
X727337Y278217D01*
X727441Y278057D01*
X727540Y277894D01*
X727563Y277868D01*
X727582Y277839D01*
X727789Y277604D01*
X728133Y277260D01*
X728468Y276681D01*
X728641Y276035D01*
X728641Y269699D01*
X723099Y269699D01*
G37*
%LPD*%
%LPC*%
G36*
X723099Y193499D02*
X723099Y193499D01*
X723099Y212901D01*
X728641Y212901D01*
X728641Y206565D01*
X728468Y205919D01*
X728133Y205340D01*
X727789Y204996D01*
X727766Y204969D01*
X727740Y204946D01*
X727622Y204797D01*
X727500Y204650D01*
X727483Y204620D01*
X727461Y204593D01*
X727371Y204425D01*
X727276Y204259D01*
X727265Y204227D01*
X727248Y204196D01*
X727189Y204014D01*
X727126Y203835D01*
X727120Y203801D01*
X727109Y203768D01*
X727083Y203579D01*
X727052Y203391D01*
X727053Y203356D01*
X727048Y203322D01*
X727056Y203132D01*
X727058Y202940D01*
X727065Y202906D01*
X727066Y202872D01*
X727107Y202686D01*
X727144Y202498D01*
X727156Y202466D01*
X727164Y202432D01*
X727237Y202256D01*
X727306Y202078D01*
X727324Y202049D01*
X727337Y202017D01*
X727441Y201857D01*
X727540Y201694D01*
X727563Y201668D01*
X727582Y201639D01*
X727789Y201404D01*
X728133Y201060D01*
X728468Y200481D01*
X728641Y199835D01*
X728641Y193499D01*
X723099Y193499D01*
G37*
%LPD*%
%LPC*%
G36*
X711559Y295099D02*
X711559Y295099D01*
X711559Y301435D01*
X711732Y302081D01*
X712067Y302660D01*
X712411Y303004D01*
X712434Y303031D01*
X712459Y303054D01*
X712578Y303203D01*
X712700Y303350D01*
X712717Y303380D01*
X712739Y303407D01*
X712829Y303575D01*
X712924Y303741D01*
X712935Y303773D01*
X712952Y303804D01*
X713011Y303986D01*
X713074Y304165D01*
X713080Y304199D01*
X713091Y304232D01*
X713117Y304421D01*
X713148Y304609D01*
X713147Y304644D01*
X713152Y304678D01*
X713144Y304869D01*
X713142Y305059D01*
X713135Y305093D01*
X713134Y305128D01*
X713093Y305314D01*
X713056Y305502D01*
X713044Y305534D01*
X713036Y305568D01*
X712963Y305743D01*
X712894Y305922D01*
X712876Y305951D01*
X712863Y305983D01*
X712759Y306143D01*
X712660Y306306D01*
X712637Y306332D01*
X712618Y306361D01*
X712411Y306596D01*
X712067Y306940D01*
X711732Y307519D01*
X711559Y308165D01*
X711559Y314501D01*
X717101Y314501D01*
X717101Y295099D01*
X711559Y295099D01*
G37*
%LPD*%
%LPC*%
G36*
X711559Y269699D02*
X711559Y269699D01*
X711559Y276035D01*
X711732Y276681D01*
X712067Y277260D01*
X712411Y277604D01*
X712434Y277631D01*
X712459Y277654D01*
X712578Y277803D01*
X712700Y277950D01*
X712717Y277980D01*
X712739Y278007D01*
X712829Y278175D01*
X712924Y278341D01*
X712935Y278373D01*
X712952Y278404D01*
X713011Y278586D01*
X713074Y278765D01*
X713080Y278799D01*
X713091Y278832D01*
X713117Y279021D01*
X713148Y279209D01*
X713147Y279244D01*
X713152Y279278D01*
X713144Y279469D01*
X713142Y279659D01*
X713135Y279693D01*
X713134Y279728D01*
X713093Y279914D01*
X713056Y280102D01*
X713044Y280134D01*
X713036Y280168D01*
X712963Y280343D01*
X712894Y280522D01*
X712876Y280551D01*
X712863Y280583D01*
X712759Y280743D01*
X712660Y280906D01*
X712637Y280932D01*
X712618Y280961D01*
X712411Y281196D01*
X712067Y281540D01*
X711732Y282119D01*
X711559Y282765D01*
X711559Y289101D01*
X717101Y289101D01*
X717101Y269699D01*
X711559Y269699D01*
G37*
%LPD*%
%LPC*%
G36*
X711559Y193499D02*
X711559Y193499D01*
X711559Y199835D01*
X711732Y200481D01*
X712067Y201060D01*
X712411Y201404D01*
X712434Y201431D01*
X712459Y201454D01*
X712525Y201537D01*
X712529Y201541D01*
X712534Y201548D01*
X712578Y201603D01*
X712700Y201750D01*
X712717Y201780D01*
X712739Y201807D01*
X712829Y201975D01*
X712924Y202141D01*
X712935Y202173D01*
X712952Y202204D01*
X713011Y202386D01*
X713074Y202565D01*
X713080Y202599D01*
X713091Y202632D01*
X713117Y202821D01*
X713148Y203009D01*
X713147Y203044D01*
X713152Y203078D01*
X713144Y203269D01*
X713142Y203459D01*
X713135Y203493D01*
X713134Y203528D01*
X713093Y203714D01*
X713056Y203902D01*
X713044Y203934D01*
X713036Y203968D01*
X712963Y204143D01*
X712894Y204322D01*
X712876Y204351D01*
X712863Y204383D01*
X712759Y204543D01*
X712660Y204706D01*
X712637Y204732D01*
X712618Y204761D01*
X712411Y204996D01*
X712067Y205340D01*
X711732Y205919D01*
X711559Y206565D01*
X711559Y212901D01*
X717101Y212901D01*
X717101Y193499D01*
X711559Y193499D01*
G37*
%LPD*%
%LPC*%
G36*
X711559Y244299D02*
X711559Y244299D01*
X711559Y250635D01*
X711732Y251281D01*
X712067Y251860D01*
X712411Y252204D01*
X712434Y252231D01*
X712460Y252254D01*
X712578Y252403D01*
X712700Y252550D01*
X712717Y252580D01*
X712739Y252607D01*
X712829Y252775D01*
X712924Y252941D01*
X712935Y252973D01*
X712952Y253004D01*
X713011Y253186D01*
X713074Y253365D01*
X713080Y253399D01*
X713091Y253432D01*
X713117Y253621D01*
X713148Y253809D01*
X713147Y253844D01*
X713152Y253878D01*
X713144Y254068D01*
X713142Y254260D01*
X713135Y254294D01*
X713134Y254328D01*
X713093Y254514D01*
X713056Y254702D01*
X713044Y254734D01*
X713036Y254768D01*
X712963Y254944D01*
X712894Y255122D01*
X712876Y255151D01*
X712863Y255183D01*
X712759Y255343D01*
X712660Y255506D01*
X712637Y255532D01*
X712618Y255561D01*
X712411Y255796D01*
X712067Y256140D01*
X711732Y256719D01*
X711559Y257365D01*
X711559Y263701D01*
X717101Y263701D01*
X717101Y244299D01*
X711559Y244299D01*
G37*
%LPD*%
%LPC*%
G36*
X711559Y218899D02*
X711559Y218899D01*
X711559Y225235D01*
X711732Y225881D01*
X712067Y226460D01*
X712411Y226804D01*
X712434Y226831D01*
X712460Y226854D01*
X712578Y227003D01*
X712700Y227150D01*
X712717Y227180D01*
X712739Y227207D01*
X712829Y227375D01*
X712924Y227541D01*
X712935Y227573D01*
X712952Y227604D01*
X713011Y227786D01*
X713074Y227965D01*
X713080Y227999D01*
X713091Y228032D01*
X713117Y228221D01*
X713148Y228409D01*
X713147Y228444D01*
X713152Y228478D01*
X713144Y228668D01*
X713142Y228860D01*
X713135Y228894D01*
X713134Y228928D01*
X713093Y229114D01*
X713056Y229302D01*
X713044Y229334D01*
X713036Y229368D01*
X712963Y229544D01*
X712894Y229722D01*
X712876Y229751D01*
X712863Y229783D01*
X712759Y229943D01*
X712660Y230106D01*
X712637Y230132D01*
X712618Y230161D01*
X712411Y230396D01*
X712067Y230740D01*
X711732Y231319D01*
X711559Y231965D01*
X711559Y238301D01*
X717101Y238301D01*
X717101Y218899D01*
X711559Y218899D01*
G37*
%LPD*%
%LPC*%
G36*
X711559Y320499D02*
X711559Y320499D01*
X711559Y326835D01*
X711732Y327481D01*
X712067Y328060D01*
X712411Y328404D01*
X712434Y328431D01*
X712460Y328454D01*
X712578Y328603D01*
X712700Y328750D01*
X712717Y328780D01*
X712739Y328807D01*
X712829Y328975D01*
X712924Y329141D01*
X712935Y329173D01*
X712952Y329204D01*
X713011Y329386D01*
X713074Y329565D01*
X713080Y329599D01*
X713091Y329632D01*
X713117Y329821D01*
X713148Y330009D01*
X713147Y330044D01*
X713152Y330078D01*
X713144Y330268D01*
X713142Y330460D01*
X713135Y330494D01*
X713134Y330528D01*
X713093Y330714D01*
X713056Y330902D01*
X713044Y330934D01*
X713036Y330968D01*
X712963Y331144D01*
X712894Y331322D01*
X712876Y331351D01*
X712863Y331383D01*
X712759Y331543D01*
X712660Y331706D01*
X712637Y331732D01*
X712618Y331761D01*
X712411Y331996D01*
X712067Y332340D01*
X711732Y332919D01*
X711559Y333565D01*
X711559Y339901D01*
X717101Y339901D01*
X717101Y320499D01*
X711559Y320499D01*
G37*
%LPD*%
%LPC*%
G36*
X711559Y168099D02*
X711559Y168099D01*
X711559Y174435D01*
X711732Y175081D01*
X712067Y175660D01*
X712411Y176004D01*
X712434Y176031D01*
X712459Y176054D01*
X712524Y176136D01*
X712537Y176149D01*
X712550Y176169D01*
X712578Y176203D01*
X712700Y176350D01*
X712717Y176380D01*
X712739Y176407D01*
X712829Y176575D01*
X712924Y176741D01*
X712935Y176773D01*
X712952Y176804D01*
X713011Y176986D01*
X713074Y177165D01*
X713080Y177199D01*
X713091Y177232D01*
X713117Y177421D01*
X713148Y177609D01*
X713147Y177644D01*
X713152Y177678D01*
X713144Y177869D01*
X713142Y178059D01*
X713135Y178093D01*
X713134Y178128D01*
X713093Y178314D01*
X713056Y178502D01*
X713044Y178534D01*
X713036Y178568D01*
X712963Y178743D01*
X712894Y178922D01*
X712876Y178951D01*
X712863Y178983D01*
X712759Y179143D01*
X712660Y179306D01*
X712637Y179332D01*
X712618Y179361D01*
X712411Y179596D01*
X712067Y179940D01*
X711732Y180519D01*
X711559Y181165D01*
X711559Y187501D01*
X717101Y187501D01*
X717101Y168099D01*
X711559Y168099D01*
G37*
%LPD*%
%LPC*%
G36*
X856199Y346899D02*
X856199Y346899D01*
X856199Y354441D01*
X860535Y354441D01*
X861181Y354268D01*
X861760Y353933D01*
X862233Y353460D01*
X862568Y352881D01*
X862741Y352235D01*
X862741Y346899D01*
X856199Y346899D01*
G37*
%LPD*%
%LPC*%
G36*
X764699Y461199D02*
X764699Y461199D01*
X764699Y468741D01*
X769035Y468741D01*
X769681Y468568D01*
X770260Y468233D01*
X770733Y467760D01*
X771068Y467181D01*
X771241Y466535D01*
X771241Y461199D01*
X764699Y461199D01*
G37*
%LPD*%
%LPC*%
G36*
X841659Y346899D02*
X841659Y346899D01*
X841659Y352235D01*
X841832Y352881D01*
X842167Y353460D01*
X842640Y353933D01*
X843219Y354268D01*
X843865Y354441D01*
X848201Y354441D01*
X848201Y346899D01*
X841659Y346899D01*
G37*
%LPD*%
%LPC*%
G36*
X750159Y461199D02*
X750159Y461199D01*
X750159Y466535D01*
X750332Y467181D01*
X750667Y467760D01*
X751140Y468233D01*
X751719Y468568D01*
X752365Y468741D01*
X756701Y468741D01*
X756701Y461199D01*
X750159Y461199D01*
G37*
%LPD*%
%LPC*%
G36*
X856199Y153559D02*
X856199Y153559D01*
X856199Y161101D01*
X862741Y161101D01*
X862741Y155765D01*
X862568Y155119D01*
X862233Y154540D01*
X861760Y154067D01*
X861181Y153732D01*
X860535Y153559D01*
X856199Y153559D01*
G37*
%LPD*%
%LPC*%
G36*
X764699Y445659D02*
X764699Y445659D01*
X764699Y453201D01*
X771241Y453201D01*
X771241Y447865D01*
X771068Y447219D01*
X770733Y446640D01*
X770260Y446167D01*
X769681Y445832D01*
X769035Y445659D01*
X764699Y445659D01*
G37*
%LPD*%
%LPC*%
G36*
X843865Y153559D02*
X843865Y153559D01*
X843219Y153732D01*
X842640Y154067D01*
X842167Y154540D01*
X841832Y155119D01*
X841659Y155765D01*
X841659Y161101D01*
X848201Y161101D01*
X848201Y153559D01*
X843865Y153559D01*
G37*
%LPD*%
%LPC*%
G36*
X752365Y445659D02*
X752365Y445659D01*
X751719Y445832D01*
X751140Y446167D01*
X750667Y446640D01*
X750332Y447219D01*
X750159Y447865D01*
X750159Y453201D01*
X756701Y453201D01*
X756701Y445659D01*
X752365Y445659D01*
G37*
%LPD*%
%LPC*%
G36*
X723099Y345899D02*
X723099Y345899D01*
X723099Y354441D01*
X726435Y354441D01*
X727081Y354268D01*
X727660Y353933D01*
X728133Y353460D01*
X728468Y352881D01*
X728641Y352235D01*
X728641Y345899D01*
X723099Y345899D01*
G37*
%LPD*%
%LPC*%
G36*
X723099Y153559D02*
X723099Y153559D01*
X723099Y162101D01*
X728641Y162101D01*
X728641Y155765D01*
X728468Y155119D01*
X728133Y154540D01*
X727660Y154067D01*
X727081Y153732D01*
X726435Y153559D01*
X723099Y153559D01*
G37*
%LPD*%
%LPC*%
G36*
X711559Y345899D02*
X711559Y345899D01*
X711559Y352235D01*
X711732Y352881D01*
X712067Y353460D01*
X712540Y353933D01*
X713119Y354268D01*
X713765Y354441D01*
X717101Y354441D01*
X717101Y345899D01*
X711559Y345899D01*
G37*
%LPD*%
%LPC*%
G36*
X713765Y153559D02*
X713765Y153559D01*
X713119Y153732D01*
X712540Y154067D01*
X712067Y154540D01*
X711732Y155119D01*
X711559Y155765D01*
X711559Y162101D01*
X717101Y162101D01*
X717101Y153559D01*
X713765Y153559D01*
G37*
%LPD*%
%LPC*%
G36*
X142239Y313689D02*
X142239Y313689D01*
X142239Y320741D01*
X143503Y320331D01*
X144892Y319623D01*
X146154Y318706D01*
X147256Y317604D01*
X148173Y316342D01*
X148881Y314953D01*
X149291Y313689D01*
X142239Y313689D01*
G37*
%LPD*%
%LPC*%
G36*
X66039Y643889D02*
X66039Y643889D01*
X66039Y650941D01*
X67303Y650531D01*
X68692Y649823D01*
X69954Y648906D01*
X71056Y647804D01*
X71973Y646542D01*
X72681Y645153D01*
X73091Y643889D01*
X66039Y643889D01*
G37*
%LPD*%
%LPC*%
G36*
X218439Y618489D02*
X218439Y618489D01*
X218439Y625541D01*
X219703Y625131D01*
X221092Y624423D01*
X222354Y623506D01*
X223456Y622404D01*
X224373Y621142D01*
X225081Y619753D01*
X225491Y618489D01*
X218439Y618489D01*
G37*
%LPD*%
%LPC*%
G36*
X66039Y638811D02*
X66039Y638811D01*
X73091Y638811D01*
X72681Y637547D01*
X71973Y636158D01*
X71056Y634896D01*
X69954Y633794D01*
X68692Y632877D01*
X67303Y632169D01*
X66039Y631759D01*
X66039Y638811D01*
G37*
%LPD*%
%LPC*%
G36*
X130109Y313689D02*
X130109Y313689D01*
X130519Y314953D01*
X131227Y316342D01*
X132144Y317604D01*
X133246Y318706D01*
X134508Y319623D01*
X135897Y320331D01*
X137161Y320741D01*
X137161Y313689D01*
X130109Y313689D01*
G37*
%LPD*%
%LPC*%
G36*
X206309Y618489D02*
X206309Y618489D01*
X206719Y619753D01*
X207427Y621142D01*
X208344Y622404D01*
X209446Y623506D01*
X210708Y624423D01*
X212097Y625131D01*
X213361Y625541D01*
X213361Y618489D01*
X206309Y618489D01*
G37*
%LPD*%
%LPC*%
G36*
X142239Y308611D02*
X142239Y308611D01*
X149291Y308611D01*
X148881Y307347D01*
X148173Y305958D01*
X147256Y304696D01*
X146154Y303594D01*
X144892Y302677D01*
X143503Y301969D01*
X142239Y301559D01*
X142239Y308611D01*
G37*
%LPD*%
%LPC*%
G36*
X53909Y643889D02*
X53909Y643889D01*
X54319Y645153D01*
X55027Y646542D01*
X55944Y647804D01*
X57046Y648906D01*
X58308Y649823D01*
X59697Y650531D01*
X60961Y650941D01*
X60961Y643889D01*
X53909Y643889D01*
G37*
%LPD*%
%LPC*%
G36*
X218439Y613411D02*
X218439Y613411D01*
X225491Y613411D01*
X225081Y612147D01*
X224373Y610758D01*
X223456Y609496D01*
X222354Y608394D01*
X221092Y607477D01*
X219703Y606769D01*
X218439Y606359D01*
X218439Y613411D01*
G37*
%LPD*%
%LPC*%
G36*
X212097Y606769D02*
X212097Y606769D01*
X210708Y607477D01*
X209446Y608394D01*
X208344Y609496D01*
X207427Y610758D01*
X206719Y612147D01*
X206309Y613411D01*
X213361Y613411D01*
X213361Y606359D01*
X212097Y606769D01*
G37*
%LPD*%
%LPC*%
G36*
X59697Y632169D02*
X59697Y632169D01*
X58308Y632877D01*
X57046Y633794D01*
X55944Y634896D01*
X55027Y636158D01*
X54319Y637547D01*
X53909Y638811D01*
X60961Y638811D01*
X60961Y631759D01*
X59697Y632169D01*
G37*
%LPD*%
%LPC*%
G36*
X135897Y301969D02*
X135897Y301969D01*
X134508Y302677D01*
X133246Y303594D01*
X132144Y304696D01*
X131227Y305958D01*
X130519Y307347D01*
X130109Y308611D01*
X137161Y308611D01*
X137161Y301559D01*
X135897Y301969D01*
G37*
%LPD*%
%LPC*%
G36*
X269239Y650239D02*
X269239Y650239D01*
X269239Y656845D01*
X270488Y656845D01*
X275845Y651488D01*
X275845Y650239D01*
X269239Y650239D01*
G37*
%LPD*%
%LPC*%
G36*
X257555Y650239D02*
X257555Y650239D01*
X257555Y651488D01*
X262912Y656845D01*
X264161Y656845D01*
X264161Y650239D01*
X257555Y650239D01*
G37*
%LPD*%
%LPC*%
G36*
X269239Y638555D02*
X269239Y638555D01*
X269239Y645161D01*
X275845Y645161D01*
X275845Y643912D01*
X270488Y638555D01*
X269239Y638555D01*
G37*
%LPD*%
%LPC*%
G36*
X262912Y638555D02*
X262912Y638555D01*
X257555Y643912D01*
X257555Y645161D01*
X264161Y645161D01*
X264161Y638555D01*
X262912Y638555D01*
G37*
%LPD*%
D10*
X796400Y139700D02*
X778400Y139700D01*
X778400Y165100D02*
X796400Y165100D01*
X796400Y190500D02*
X778400Y190500D01*
X778400Y215900D02*
X796400Y215900D01*
X796400Y241300D02*
X778400Y241300D01*
X778400Y266700D02*
X796400Y266700D01*
X796400Y292100D02*
X778400Y292100D01*
X778400Y317500D02*
X796400Y317500D01*
X796400Y342900D02*
X778400Y342900D01*
X778400Y431800D02*
X796400Y431800D01*
X796400Y406400D02*
X778400Y406400D01*
D11*
X346456Y482600D02*
X326644Y482600D01*
X346964Y422910D02*
X366776Y422910D01*
X366776Y542290D02*
X346964Y542290D01*
X468884Y542290D02*
X488696Y542290D01*
X488696Y422910D02*
X468884Y422910D01*
X346456Y304800D02*
X326644Y304800D01*
X346964Y245110D02*
X366776Y245110D01*
X366776Y364490D02*
X346964Y364490D01*
X468884Y364490D02*
X488696Y364490D01*
X488696Y245110D02*
X468884Y245110D01*
X346456Y127000D02*
X326644Y127000D01*
X346964Y67310D02*
X366776Y67310D01*
X366776Y186690D02*
X346964Y186690D01*
X468884Y186690D02*
X488696Y186690D01*
X488696Y67310D02*
X468884Y67310D01*
D12*
X63500Y590550D03*
X63500Y565150D03*
X63500Y539750D03*
X63500Y514350D03*
X63500Y488950D03*
X63500Y463550D03*
X63500Y438150D03*
X63500Y412750D03*
X63500Y387350D03*
X63500Y361950D03*
X63500Y336550D03*
X63500Y311150D03*
X215900Y311150D03*
X215900Y336550D03*
X215900Y361950D03*
X215900Y387350D03*
X215900Y412750D03*
X215900Y438150D03*
X215900Y463550D03*
X215900Y488950D03*
X215900Y514350D03*
X215900Y539750D03*
X215900Y565150D03*
X63500Y615950D03*
X215900Y590550D03*
X63500Y641350D03*
X215900Y641350D03*
X215900Y615950D03*
X190500Y311150D03*
X165100Y311150D03*
X139700Y311150D03*
X114300Y311150D03*
X88900Y311150D03*
D13*
X753100Y292100D03*
X720100Y292100D03*
X753100Y190500D03*
X720100Y190500D03*
X753100Y317500D03*
X720100Y317500D03*
X753100Y215900D03*
X720100Y215900D03*
X753100Y165100D03*
X720100Y165100D03*
X753100Y266700D03*
X720100Y266700D03*
X753100Y241300D03*
X720100Y241300D03*
X753100Y342900D03*
X720100Y342900D03*
D14*
X824200Y165100D03*
X852200Y165100D03*
X824200Y241300D03*
X852200Y241300D03*
X824200Y266700D03*
X852200Y266700D03*
X824200Y342900D03*
X852200Y342900D03*
X824200Y292100D03*
X852200Y292100D03*
X824200Y190500D03*
X852200Y190500D03*
X824200Y215900D03*
X852200Y215900D03*
X824200Y317500D03*
X852200Y317500D03*
D15*
X266700Y469900D03*
X266700Y495300D03*
X266700Y292100D03*
X266700Y317500D03*
X266700Y114300D03*
X266700Y139700D03*
D14*
X788700Y457200D03*
X760700Y457200D03*
D16*
X647700Y39050D03*
X647700Y414050D03*
D15*
X266700Y622300D03*
X266700Y647700D03*
D17*
X762000Y609600D03*
D18*
X736600Y609600D03*
X711200Y609600D03*
X685800Y609600D03*
X660400Y609600D03*
X635000Y609600D03*
X635000Y685800D03*
X660400Y685800D03*
X685800Y685800D03*
X711200Y685800D03*
X736600Y685800D03*
X762000Y685800D03*
D19*
X848000Y577350D03*
X803000Y514850D03*
X848000Y514850D03*
X803000Y577350D03*
X721000Y577350D03*
X676000Y514850D03*
X721000Y514850D03*
X676000Y577350D03*
D20*
X788700Y457200D02*
X787400Y431800D01*
D21*
X787400Y165100D02*
X824200Y165100D01*
X787400Y165100D02*
X753100Y165100D01*
X787400Y215900D02*
X824200Y215900D01*
X787400Y215900D02*
X753100Y215900D01*
D22*
X647700Y190500D03*
D20*
X647700Y139700D01*
D22*
X647700Y139700D03*
D21*
X787400Y241300D02*
X824200Y241300D01*
X787400Y241300D02*
X753100Y241300D01*
X787400Y266700D02*
X824200Y266700D01*
X787400Y266700D02*
X753100Y266700D01*
D23*
X120650Y120650D03*
X184150Y107950D03*
X266700Y177800D03*
X266700Y361950D03*
X266700Y539750D03*
D24*
X63500Y63500D03*
X825500Y63500D03*
X825500Y749300D03*
X63500Y749300D03*
D23*
X381000Y615950D03*
X76200Y228600D03*
X177800Y228600D03*
D21*
X753100Y190500D02*
X787400Y190500D01*
X824200Y190500D01*
X824200Y292100D02*
X787400Y292100D01*
X753100Y292100D01*
D25*
X558800Y292100D03*
X558800Y215900D03*
D26*
X558800Y292100D01*
D21*
X787400Y342900D02*
X824200Y342900D01*
X787400Y342900D02*
X753100Y342900D01*
D22*
X184150Y76200D03*
D26*
X133350Y76200D01*
D22*
X133350Y76200D03*
D21*
X753100Y317500D02*
X787400Y317500D01*
X824200Y317500D01*
D25*
X400050Y508000D03*
D27*
X400050Y457200D01*
D25*
X400050Y457200D03*
X400050Y279400D03*
D27*
X400050Y330200D01*
D25*
X400050Y330200D03*
D22*
X400050Y152400D03*
D27*
X400050Y101600D01*
D22*
X400050Y101600D03*
X431800Y609600D03*
D28*
X431800Y584200D01*
D22*
X431800Y584200D03*
D28*
X762000Y685800D02*
X787400Y685800D01*
D22*
X787400Y685800D03*
D28*
X660400Y685800D02*
X660400Y609600D01*
X711200Y660400D02*
X711200Y685800D01*
D22*
X711200Y660400D03*
X647700Y660400D03*
D28*
X647700Y635000D01*
X635000Y622300D01*
X635000Y609600D01*
D22*
X736600Y635000D03*
D28*
X736600Y609600D01*
D22*
X685800Y647700D03*
D28*
X685800Y609600D01*
D22*
X635000Y660400D03*
D28*
X635000Y685800D01*
X685800Y685800D02*
X698500Y673100D01*
X698500Y588800D01*
D26*
X698500Y587150D01*
D22*
X698500Y587150D03*
X711200Y647700D03*
D28*
X711200Y609600D01*
D22*
X482600Y609600D03*
D28*
X482600Y584200D01*
D22*
X482600Y584200D03*
X546100Y609600D03*
D28*
X546100Y584200D01*
D22*
X546100Y584200D03*
M02*
