G04 EAGLE Gerber RS-274X export*
G75*
%MOMM*%
%FSLAX34Y34*%
%LPD*%
%INSilkscreen Top*%
%IPPOS*%
%AMOC8*
5,1,8,0,0,1.08239X$1,22.5*%
G01*
%ADD10C,0.254000*%
%ADD11C,0.152400*%
%ADD12C,0.101600*%
%ADD13C,0.177800*%
%ADD14C,0.304800*%
%ADD15C,0.127000*%
%ADD16C,0.076200*%
%ADD17R,2.100000X0.300000*%
%ADD18C,0.200000*%
%ADD19R,0.300000X2.100000*%


D10*
X801900Y125700D02*
X801900Y356900D01*
X772900Y356900D01*
X772900Y125700D01*
X801900Y125700D01*
D11*
X776400Y126800D02*
X776400Y355800D01*
D12*
X786807Y118872D02*
X779018Y107188D01*
X786807Y107188D02*
X779018Y118872D01*
X791097Y116276D02*
X794343Y118872D01*
X794343Y107188D01*
X797588Y107188D02*
X791097Y107188D01*
D10*
X772900Y392400D02*
X772900Y445800D01*
X772900Y392400D02*
X801900Y392400D01*
X801900Y445800D01*
X772900Y445800D01*
D11*
X798400Y444700D02*
X798400Y393500D01*
D12*
X785001Y388112D02*
X777212Y376428D01*
X785001Y376428D02*
X777212Y388112D01*
X792861Y388112D02*
X792968Y388110D01*
X793074Y388104D01*
X793180Y388094D01*
X793286Y388081D01*
X793392Y388063D01*
X793496Y388042D01*
X793600Y388017D01*
X793703Y387988D01*
X793804Y387956D01*
X793904Y387919D01*
X794003Y387879D01*
X794101Y387836D01*
X794197Y387789D01*
X794291Y387738D01*
X794383Y387684D01*
X794473Y387627D01*
X794561Y387567D01*
X794646Y387503D01*
X794729Y387436D01*
X794810Y387366D01*
X794888Y387294D01*
X794964Y387218D01*
X795036Y387140D01*
X795106Y387059D01*
X795173Y386976D01*
X795237Y386891D01*
X795297Y386803D01*
X795354Y386713D01*
X795408Y386621D01*
X795459Y386527D01*
X795506Y386431D01*
X795549Y386333D01*
X795589Y386234D01*
X795626Y386134D01*
X795658Y386033D01*
X795687Y385930D01*
X795712Y385826D01*
X795733Y385722D01*
X795751Y385616D01*
X795764Y385510D01*
X795774Y385404D01*
X795780Y385298D01*
X795782Y385191D01*
X792861Y388112D02*
X792740Y388110D01*
X792619Y388104D01*
X792499Y388094D01*
X792378Y388081D01*
X792259Y388063D01*
X792139Y388042D01*
X792021Y388017D01*
X791904Y387988D01*
X791787Y387955D01*
X791672Y387919D01*
X791558Y387878D01*
X791445Y387835D01*
X791333Y387787D01*
X791224Y387736D01*
X791116Y387681D01*
X791009Y387623D01*
X790905Y387562D01*
X790803Y387497D01*
X790703Y387429D01*
X790605Y387358D01*
X790509Y387284D01*
X790416Y387207D01*
X790326Y387126D01*
X790238Y387043D01*
X790153Y386957D01*
X790070Y386868D01*
X789991Y386777D01*
X789914Y386683D01*
X789841Y386587D01*
X789771Y386489D01*
X789704Y386388D01*
X789640Y386285D01*
X789580Y386180D01*
X789523Y386073D01*
X789469Y385965D01*
X789419Y385855D01*
X789373Y385743D01*
X789330Y385630D01*
X789291Y385515D01*
X794809Y382919D02*
X794888Y382996D01*
X794964Y383077D01*
X795037Y383160D01*
X795107Y383245D01*
X795174Y383333D01*
X795238Y383423D01*
X795298Y383515D01*
X795355Y383610D01*
X795409Y383706D01*
X795460Y383804D01*
X795507Y383904D01*
X795551Y384006D01*
X795591Y384109D01*
X795627Y384213D01*
X795659Y384319D01*
X795688Y384425D01*
X795713Y384533D01*
X795735Y384641D01*
X795752Y384751D01*
X795766Y384860D01*
X795775Y384970D01*
X795781Y385081D01*
X795783Y385191D01*
X794808Y382919D02*
X789291Y376428D01*
X795782Y376428D01*
D11*
X537210Y565150D02*
X311150Y565150D01*
X537210Y565150D02*
X537210Y400050D01*
X311150Y400050D01*
X311150Y565150D01*
X381000Y542290D02*
X387350Y542290D01*
X387350Y488950D01*
D10*
X374650Y488950D01*
D11*
X374650Y476250D01*
D10*
X400050Y476250D02*
X400050Y488950D01*
X387350Y488950D01*
X387350Y476250D02*
X374650Y476250D01*
D11*
X387350Y476250D02*
X387350Y422910D01*
D10*
X387350Y476250D02*
X400050Y476250D01*
D11*
X387350Y422910D02*
X381000Y422910D01*
X374650Y476250D02*
X400050Y488950D01*
X406400Y482600D02*
X472440Y482600D01*
D10*
X478790Y488950D01*
D11*
X478790Y519938D01*
X478790Y476250D02*
X478790Y445008D01*
D10*
X478790Y488950D02*
X482092Y491998D01*
D11*
X368300Y482600D02*
X358140Y482600D01*
D13*
X540639Y475869D02*
X540639Y491871D01*
X549529Y491871D02*
X540639Y482092D01*
X544195Y485648D02*
X549529Y475869D01*
X564407Y487871D02*
X564405Y487997D01*
X564399Y488122D01*
X564389Y488248D01*
X564375Y488372D01*
X564358Y488497D01*
X564336Y488621D01*
X564311Y488744D01*
X564281Y488866D01*
X564248Y488987D01*
X564211Y489107D01*
X564170Y489226D01*
X564126Y489344D01*
X564078Y489460D01*
X564026Y489575D01*
X563971Y489687D01*
X563912Y489798D01*
X563850Y489908D01*
X563784Y490015D01*
X563715Y490120D01*
X563643Y490223D01*
X563567Y490323D01*
X563489Y490421D01*
X563407Y490517D01*
X563323Y490610D01*
X563235Y490700D01*
X563145Y490788D01*
X563052Y490872D01*
X562956Y490954D01*
X562858Y491032D01*
X562758Y491108D01*
X562655Y491180D01*
X562550Y491249D01*
X562443Y491315D01*
X562333Y491377D01*
X562222Y491436D01*
X562110Y491491D01*
X561995Y491543D01*
X561879Y491591D01*
X561761Y491635D01*
X561642Y491676D01*
X561522Y491713D01*
X561401Y491746D01*
X561279Y491776D01*
X561156Y491801D01*
X561032Y491823D01*
X560907Y491840D01*
X560783Y491854D01*
X560657Y491864D01*
X560532Y491870D01*
X560406Y491872D01*
X560406Y491871D02*
X560265Y491869D01*
X560125Y491863D01*
X559985Y491854D01*
X559845Y491840D01*
X559706Y491823D01*
X559567Y491802D01*
X559428Y491777D01*
X559291Y491749D01*
X559154Y491716D01*
X559018Y491680D01*
X558883Y491640D01*
X558750Y491597D01*
X558617Y491550D01*
X558486Y491499D01*
X558357Y491445D01*
X558229Y491387D01*
X558102Y491326D01*
X557977Y491261D01*
X557855Y491193D01*
X557734Y491122D01*
X557614Y491047D01*
X557498Y490969D01*
X557383Y490888D01*
X557270Y490804D01*
X557160Y490716D01*
X557052Y490626D01*
X556947Y490533D01*
X556845Y490437D01*
X556745Y490338D01*
X556647Y490237D01*
X556553Y490133D01*
X556461Y490026D01*
X556373Y489917D01*
X556287Y489806D01*
X556205Y489692D01*
X556125Y489576D01*
X556049Y489458D01*
X555976Y489338D01*
X555907Y489216D01*
X555840Y489092D01*
X555777Y488966D01*
X555718Y488839D01*
X555662Y488710D01*
X555610Y488580D01*
X555561Y488448D01*
X555516Y488315D01*
X563073Y484759D02*
X563165Y484850D01*
X563255Y484943D01*
X563341Y485038D01*
X563425Y485136D01*
X563505Y485237D01*
X563583Y485340D01*
X563657Y485445D01*
X563728Y485553D01*
X563796Y485662D01*
X563860Y485774D01*
X563922Y485887D01*
X563979Y486002D01*
X564034Y486119D01*
X564085Y486238D01*
X564132Y486358D01*
X564175Y486479D01*
X564215Y486601D01*
X564251Y486725D01*
X564284Y486850D01*
X564313Y486975D01*
X564338Y487102D01*
X564359Y487229D01*
X564376Y487357D01*
X564390Y487485D01*
X564399Y487613D01*
X564405Y487742D01*
X564407Y487871D01*
X563073Y484759D02*
X555517Y475869D01*
X564407Y475869D01*
D11*
X537210Y387350D02*
X311150Y387350D01*
X537210Y387350D02*
X537210Y222250D01*
X311150Y222250D01*
X311150Y387350D01*
X381000Y364490D02*
X387350Y364490D01*
X387350Y311150D01*
D10*
X374650Y311150D01*
D11*
X374650Y298450D01*
D10*
X400050Y298450D02*
X400050Y311150D01*
X387350Y311150D01*
X387350Y298450D02*
X374650Y298450D01*
D11*
X387350Y298450D02*
X387350Y245110D01*
D10*
X387350Y298450D02*
X400050Y298450D01*
D11*
X387350Y245110D02*
X381000Y245110D01*
X374650Y298450D02*
X400050Y311150D01*
X406400Y304800D02*
X472440Y304800D01*
D10*
X478790Y311150D01*
D11*
X478790Y342138D01*
X478790Y298450D02*
X478790Y267208D01*
D10*
X478790Y311150D02*
X482092Y314198D01*
D11*
X368300Y304800D02*
X358140Y304800D01*
D13*
X540639Y298069D02*
X540639Y314071D01*
X549529Y314071D02*
X540639Y304292D01*
X544195Y307848D02*
X549529Y298069D01*
X555517Y298069D02*
X559962Y298069D01*
X560094Y298071D01*
X560225Y298077D01*
X560357Y298087D01*
X560488Y298100D01*
X560618Y298118D01*
X560748Y298139D01*
X560878Y298164D01*
X561006Y298193D01*
X561134Y298226D01*
X561260Y298263D01*
X561386Y298303D01*
X561510Y298347D01*
X561633Y298395D01*
X561754Y298446D01*
X561874Y298501D01*
X561992Y298559D01*
X562108Y298621D01*
X562222Y298687D01*
X562335Y298755D01*
X562445Y298827D01*
X562553Y298902D01*
X562659Y298981D01*
X562763Y299062D01*
X562864Y299147D01*
X562962Y299234D01*
X563058Y299325D01*
X563151Y299418D01*
X563242Y299514D01*
X563329Y299612D01*
X563414Y299713D01*
X563495Y299817D01*
X563574Y299923D01*
X563649Y300031D01*
X563721Y300141D01*
X563789Y300254D01*
X563855Y300368D01*
X563917Y300484D01*
X563975Y300602D01*
X564030Y300722D01*
X564081Y300843D01*
X564129Y300966D01*
X564173Y301090D01*
X564213Y301216D01*
X564250Y301342D01*
X564283Y301470D01*
X564312Y301598D01*
X564337Y301728D01*
X564358Y301858D01*
X564376Y301988D01*
X564389Y302119D01*
X564399Y302251D01*
X564405Y302382D01*
X564407Y302514D01*
X564405Y302646D01*
X564399Y302777D01*
X564389Y302909D01*
X564376Y303040D01*
X564358Y303170D01*
X564337Y303300D01*
X564312Y303430D01*
X564283Y303558D01*
X564250Y303686D01*
X564213Y303812D01*
X564173Y303938D01*
X564129Y304062D01*
X564081Y304185D01*
X564030Y304306D01*
X563975Y304426D01*
X563917Y304544D01*
X563855Y304660D01*
X563789Y304774D01*
X563721Y304887D01*
X563649Y304997D01*
X563574Y305105D01*
X563495Y305211D01*
X563414Y305315D01*
X563329Y305416D01*
X563242Y305514D01*
X563151Y305610D01*
X563058Y305703D01*
X562962Y305794D01*
X562864Y305881D01*
X562763Y305966D01*
X562659Y306047D01*
X562553Y306126D01*
X562445Y306201D01*
X562335Y306273D01*
X562222Y306341D01*
X562108Y306407D01*
X561992Y306469D01*
X561874Y306527D01*
X561754Y306582D01*
X561633Y306633D01*
X561510Y306681D01*
X561386Y306725D01*
X561260Y306765D01*
X561134Y306802D01*
X561006Y306835D01*
X560878Y306864D01*
X560748Y306889D01*
X560618Y306910D01*
X560488Y306928D01*
X560357Y306941D01*
X560225Y306951D01*
X560094Y306957D01*
X559962Y306959D01*
X560851Y314071D02*
X555517Y314071D01*
X560851Y314071D02*
X560969Y314069D01*
X561086Y314063D01*
X561203Y314054D01*
X561320Y314040D01*
X561436Y314023D01*
X561552Y314001D01*
X561667Y313976D01*
X561781Y313947D01*
X561894Y313915D01*
X562006Y313878D01*
X562116Y313838D01*
X562225Y313795D01*
X562333Y313747D01*
X562439Y313697D01*
X562543Y313642D01*
X562646Y313585D01*
X562746Y313524D01*
X562845Y313459D01*
X562941Y313392D01*
X563035Y313321D01*
X563127Y313247D01*
X563216Y313171D01*
X563302Y313091D01*
X563386Y313009D01*
X563467Y312923D01*
X563545Y312836D01*
X563621Y312745D01*
X563693Y312652D01*
X563762Y312557D01*
X563828Y312460D01*
X563891Y312360D01*
X563950Y312259D01*
X564006Y312156D01*
X564058Y312050D01*
X564107Y311943D01*
X564153Y311835D01*
X564195Y311725D01*
X564233Y311614D01*
X564267Y311501D01*
X564298Y311388D01*
X564325Y311273D01*
X564348Y311158D01*
X564368Y311042D01*
X564383Y310926D01*
X564395Y310809D01*
X564403Y310691D01*
X564407Y310574D01*
X564407Y310456D01*
X564403Y310339D01*
X564395Y310221D01*
X564383Y310104D01*
X564368Y309988D01*
X564348Y309872D01*
X564325Y309757D01*
X564298Y309642D01*
X564267Y309529D01*
X564233Y309416D01*
X564195Y309305D01*
X564153Y309195D01*
X564107Y309087D01*
X564058Y308980D01*
X564006Y308874D01*
X563950Y308771D01*
X563891Y308670D01*
X563828Y308570D01*
X563762Y308473D01*
X563693Y308378D01*
X563621Y308285D01*
X563545Y308194D01*
X563467Y308107D01*
X563386Y308021D01*
X563302Y307939D01*
X563216Y307859D01*
X563127Y307783D01*
X563035Y307709D01*
X562941Y307638D01*
X562845Y307571D01*
X562746Y307506D01*
X562646Y307445D01*
X562543Y307388D01*
X562439Y307333D01*
X562333Y307283D01*
X562225Y307235D01*
X562116Y307192D01*
X562006Y307152D01*
X561894Y307115D01*
X561781Y307083D01*
X561667Y307054D01*
X561552Y307029D01*
X561436Y307007D01*
X561320Y306990D01*
X561203Y306976D01*
X561086Y306967D01*
X560969Y306961D01*
X560851Y306959D01*
X557295Y306959D01*
D11*
X537210Y209550D02*
X311150Y209550D01*
X537210Y209550D02*
X537210Y44450D01*
X311150Y44450D01*
X311150Y209550D01*
X381000Y186690D02*
X387350Y186690D01*
X387350Y133350D01*
D10*
X374650Y133350D01*
D11*
X374650Y120650D01*
D10*
X400050Y120650D02*
X400050Y133350D01*
X387350Y133350D01*
X387350Y120650D02*
X374650Y120650D01*
D11*
X387350Y120650D02*
X387350Y67310D01*
D10*
X387350Y120650D02*
X400050Y120650D01*
D11*
X387350Y67310D02*
X381000Y67310D01*
X374650Y120650D02*
X400050Y133350D01*
X406400Y127000D02*
X472440Y127000D01*
D10*
X478790Y133350D01*
D11*
X478790Y164338D01*
X478790Y120650D02*
X478790Y89408D01*
D10*
X478790Y133350D02*
X482092Y136398D01*
D11*
X368300Y127000D02*
X358140Y127000D01*
D13*
X540639Y132969D02*
X540639Y148971D01*
X549529Y148971D02*
X540639Y139192D01*
X544195Y142748D02*
X549529Y132969D01*
X555517Y145415D02*
X559962Y148971D01*
X559962Y132969D01*
X555517Y132969D02*
X564407Y132969D01*
D14*
X228600Y298450D02*
X228600Y654050D01*
X50800Y654050D02*
X50800Y298450D01*
X88900Y427990D02*
X88900Y524510D01*
X88902Y524610D01*
X88908Y524709D01*
X88918Y524809D01*
X88931Y524907D01*
X88949Y525006D01*
X88970Y525103D01*
X88995Y525199D01*
X89024Y525295D01*
X89057Y525389D01*
X89093Y525482D01*
X89133Y525573D01*
X89177Y525663D01*
X89224Y525751D01*
X89274Y525837D01*
X89328Y525921D01*
X89385Y526003D01*
X89445Y526082D01*
X89509Y526160D01*
X89575Y526234D01*
X89644Y526306D01*
X89716Y526375D01*
X89790Y526441D01*
X89868Y526505D01*
X89947Y526565D01*
X90029Y526622D01*
X90113Y526676D01*
X90199Y526726D01*
X90287Y526773D01*
X90377Y526817D01*
X90468Y526857D01*
X90561Y526893D01*
X90655Y526926D01*
X90751Y526955D01*
X90847Y526980D01*
X90944Y527001D01*
X91043Y527019D01*
X91141Y527032D01*
X91241Y527042D01*
X91340Y527048D01*
X91440Y527050D01*
X187960Y527050D01*
X188060Y527048D01*
X188159Y527042D01*
X188259Y527032D01*
X188357Y527019D01*
X188456Y527001D01*
X188553Y526980D01*
X188649Y526955D01*
X188745Y526926D01*
X188839Y526893D01*
X188932Y526857D01*
X189023Y526817D01*
X189113Y526773D01*
X189201Y526726D01*
X189287Y526676D01*
X189371Y526622D01*
X189453Y526565D01*
X189532Y526505D01*
X189610Y526441D01*
X189684Y526375D01*
X189756Y526306D01*
X189825Y526234D01*
X189891Y526160D01*
X189955Y526082D01*
X190015Y526003D01*
X190072Y525921D01*
X190126Y525837D01*
X190176Y525751D01*
X190223Y525663D01*
X190267Y525573D01*
X190307Y525482D01*
X190343Y525389D01*
X190376Y525295D01*
X190405Y525199D01*
X190430Y525103D01*
X190451Y525006D01*
X190469Y524907D01*
X190482Y524809D01*
X190492Y524709D01*
X190498Y524610D01*
X190500Y524510D01*
X190500Y427990D01*
X190498Y427890D01*
X190492Y427791D01*
X190482Y427691D01*
X190469Y427593D01*
X190451Y427494D01*
X190430Y427397D01*
X190405Y427301D01*
X190376Y427205D01*
X190343Y427111D01*
X190307Y427018D01*
X190267Y426927D01*
X190223Y426837D01*
X190176Y426749D01*
X190126Y426663D01*
X190072Y426579D01*
X190015Y426497D01*
X189955Y426418D01*
X189891Y426340D01*
X189825Y426266D01*
X189756Y426194D01*
X189684Y426125D01*
X189610Y426059D01*
X189532Y425995D01*
X189453Y425935D01*
X189371Y425878D01*
X189287Y425824D01*
X189201Y425774D01*
X189113Y425727D01*
X189023Y425683D01*
X188932Y425643D01*
X188839Y425607D01*
X188745Y425574D01*
X188649Y425545D01*
X188553Y425520D01*
X188456Y425499D01*
X188357Y425481D01*
X188259Y425468D01*
X188159Y425458D01*
X188060Y425452D01*
X187960Y425450D01*
X91440Y425450D01*
X91340Y425452D01*
X91241Y425458D01*
X91141Y425468D01*
X91043Y425481D01*
X90944Y425499D01*
X90847Y425520D01*
X90751Y425545D01*
X90655Y425574D01*
X90561Y425607D01*
X90468Y425643D01*
X90377Y425683D01*
X90287Y425727D01*
X90199Y425774D01*
X90113Y425824D01*
X90029Y425878D01*
X89947Y425935D01*
X89868Y425995D01*
X89790Y426059D01*
X89716Y426125D01*
X89644Y426194D01*
X89575Y426266D01*
X89509Y426340D01*
X89445Y426418D01*
X89385Y426497D01*
X89328Y426579D01*
X89274Y426663D01*
X89224Y426749D01*
X89177Y426837D01*
X89133Y426927D01*
X89093Y427018D01*
X89057Y427111D01*
X89024Y427205D01*
X88995Y427301D01*
X88970Y427397D01*
X88949Y427494D01*
X88931Y427593D01*
X88918Y427691D01*
X88908Y427791D01*
X88902Y427890D01*
X88900Y427990D01*
X50800Y298450D02*
X228600Y298450D01*
X177800Y615950D02*
X177800Y635000D01*
X177800Y647700D01*
X177800Y654050D01*
X177800Y666750D01*
X101600Y666750D01*
X101600Y654050D01*
X101600Y647700D01*
X101600Y635000D01*
X101600Y615950D01*
X107950Y615950D01*
X117475Y615950D01*
X120650Y615950D01*
X127000Y615950D01*
X133350Y615950D01*
X139700Y615950D01*
X146050Y615950D01*
X152400Y615950D01*
X158750Y615950D01*
X161925Y615950D01*
X171450Y615950D01*
X177800Y615950D01*
X177800Y654050D02*
X228600Y654050D01*
X101600Y654050D02*
X50800Y654050D01*
D15*
X124460Y323850D02*
X157480Y323850D01*
X157580Y323852D01*
X157679Y323858D01*
X157779Y323868D01*
X157877Y323881D01*
X157976Y323899D01*
X158073Y323920D01*
X158169Y323945D01*
X158265Y323974D01*
X158359Y324007D01*
X158452Y324043D01*
X158543Y324083D01*
X158633Y324127D01*
X158721Y324174D01*
X158807Y324224D01*
X158891Y324278D01*
X158973Y324335D01*
X159052Y324395D01*
X159130Y324459D01*
X159204Y324525D01*
X159276Y324594D01*
X159345Y324666D01*
X159411Y324740D01*
X159475Y324818D01*
X159535Y324897D01*
X159592Y324979D01*
X159646Y325063D01*
X159696Y325149D01*
X159743Y325237D01*
X159787Y325327D01*
X159827Y325418D01*
X159863Y325511D01*
X159896Y325605D01*
X159925Y325701D01*
X159950Y325797D01*
X159971Y325894D01*
X159989Y325993D01*
X160002Y326091D01*
X160012Y326191D01*
X160018Y326290D01*
X160020Y326390D01*
X160020Y372110D01*
X160018Y372210D01*
X160012Y372309D01*
X160002Y372409D01*
X159989Y372507D01*
X159971Y372606D01*
X159950Y372703D01*
X159925Y372799D01*
X159896Y372895D01*
X159863Y372989D01*
X159827Y373082D01*
X159787Y373173D01*
X159743Y373263D01*
X159696Y373351D01*
X159646Y373437D01*
X159592Y373521D01*
X159535Y373603D01*
X159475Y373682D01*
X159411Y373760D01*
X159345Y373834D01*
X159276Y373906D01*
X159204Y373975D01*
X159130Y374041D01*
X159052Y374105D01*
X158973Y374165D01*
X158891Y374222D01*
X158807Y374276D01*
X158721Y374326D01*
X158633Y374373D01*
X158543Y374417D01*
X158452Y374457D01*
X158359Y374493D01*
X158265Y374526D01*
X158169Y374555D01*
X158073Y374580D01*
X157976Y374601D01*
X157877Y374619D01*
X157779Y374632D01*
X157679Y374642D01*
X157580Y374648D01*
X157480Y374650D01*
X124460Y374650D01*
X124360Y374648D01*
X124261Y374642D01*
X124161Y374632D01*
X124063Y374619D01*
X123964Y374601D01*
X123867Y374580D01*
X123771Y374555D01*
X123675Y374526D01*
X123581Y374493D01*
X123488Y374457D01*
X123397Y374417D01*
X123307Y374373D01*
X123219Y374326D01*
X123133Y374276D01*
X123049Y374222D01*
X122967Y374165D01*
X122888Y374105D01*
X122810Y374041D01*
X122736Y373975D01*
X122664Y373906D01*
X122595Y373834D01*
X122529Y373760D01*
X122465Y373682D01*
X122405Y373603D01*
X122348Y373521D01*
X122294Y373437D01*
X122244Y373351D01*
X122197Y373263D01*
X122153Y373173D01*
X122113Y373082D01*
X122077Y372989D01*
X122044Y372895D01*
X122015Y372799D01*
X121990Y372703D01*
X121969Y372606D01*
X121951Y372507D01*
X121938Y372409D01*
X121928Y372309D01*
X121922Y372210D01*
X121920Y372110D01*
X121920Y326390D01*
X121922Y326290D01*
X121928Y326191D01*
X121938Y326091D01*
X121951Y325993D01*
X121969Y325894D01*
X121990Y325797D01*
X122015Y325701D01*
X122044Y325605D01*
X122077Y325511D01*
X122113Y325418D01*
X122153Y325327D01*
X122197Y325237D01*
X122244Y325149D01*
X122294Y325063D01*
X122348Y324979D01*
X122405Y324897D01*
X122465Y324818D01*
X122529Y324740D01*
X122595Y324666D01*
X122664Y324594D01*
X122736Y324525D01*
X122810Y324459D01*
X122888Y324395D01*
X122967Y324335D01*
X123049Y324278D01*
X123133Y324224D01*
X123219Y324174D01*
X123307Y324127D01*
X123397Y324083D01*
X123488Y324043D01*
X123581Y324007D01*
X123675Y323974D01*
X123771Y323945D01*
X123867Y323920D01*
X123964Y323899D01*
X124063Y323881D01*
X124161Y323868D01*
X124261Y323858D01*
X124360Y323852D01*
X124460Y323850D01*
D14*
X140970Y330200D02*
X140663Y330204D01*
X140356Y330215D01*
X140050Y330233D01*
X139744Y330259D01*
X139439Y330293D01*
X139135Y330333D01*
X138832Y330381D01*
X138530Y330437D01*
X138230Y330499D01*
X137931Y330569D01*
X137634Y330646D01*
X137338Y330730D01*
X137045Y330822D01*
X136755Y330920D01*
X136467Y331025D01*
X136181Y331138D01*
X135898Y331257D01*
X135618Y331383D01*
X135341Y331515D01*
X135068Y331655D01*
X134798Y331801D01*
X134532Y331953D01*
X134269Y332112D01*
X134010Y332277D01*
X133756Y332448D01*
X133505Y332625D01*
X133259Y332809D01*
X133017Y332998D01*
X132781Y333193D01*
X132548Y333394D01*
X132321Y333600D01*
X132099Y333812D01*
X131882Y334029D01*
X131670Y334251D01*
X131464Y334478D01*
X131263Y334711D01*
X131068Y334947D01*
X130879Y335189D01*
X130695Y335435D01*
X130518Y335686D01*
X130347Y335940D01*
X130182Y336199D01*
X130023Y336462D01*
X129871Y336728D01*
X129725Y336998D01*
X129585Y337271D01*
X129453Y337548D01*
X129327Y337828D01*
X129208Y338111D01*
X129095Y338397D01*
X128990Y338685D01*
X128892Y338975D01*
X128800Y339268D01*
X128716Y339564D01*
X128639Y339861D01*
X128569Y340160D01*
X128507Y340460D01*
X128451Y340762D01*
X128403Y341065D01*
X128363Y341369D01*
X128329Y341674D01*
X128303Y341980D01*
X128285Y342286D01*
X128274Y342593D01*
X128270Y342900D01*
X128270Y355600D01*
X128274Y355907D01*
X128285Y356214D01*
X128303Y356520D01*
X128329Y356826D01*
X128363Y357131D01*
X128403Y357435D01*
X128451Y357738D01*
X128507Y358040D01*
X128569Y358340D01*
X128639Y358639D01*
X128716Y358936D01*
X128800Y359232D01*
X128892Y359525D01*
X128990Y359815D01*
X129095Y360103D01*
X129208Y360389D01*
X129327Y360672D01*
X129453Y360952D01*
X129585Y361229D01*
X129725Y361502D01*
X129871Y361772D01*
X130023Y362038D01*
X130182Y362301D01*
X130347Y362560D01*
X130518Y362814D01*
X130695Y363065D01*
X130879Y363311D01*
X131068Y363553D01*
X131263Y363789D01*
X131464Y364022D01*
X131670Y364249D01*
X131882Y364471D01*
X132099Y364688D01*
X132321Y364900D01*
X132548Y365106D01*
X132781Y365307D01*
X133017Y365502D01*
X133259Y365691D01*
X133505Y365875D01*
X133756Y366052D01*
X134010Y366223D01*
X134269Y366388D01*
X134532Y366547D01*
X134798Y366699D01*
X135068Y366845D01*
X135341Y366985D01*
X135618Y367117D01*
X135898Y367243D01*
X136181Y367362D01*
X136467Y367475D01*
X136755Y367580D01*
X137045Y367678D01*
X137338Y367770D01*
X137634Y367854D01*
X137931Y367931D01*
X138230Y368001D01*
X138530Y368063D01*
X138832Y368119D01*
X139135Y368167D01*
X139439Y368207D01*
X139744Y368241D01*
X140050Y368267D01*
X140356Y368285D01*
X140663Y368296D01*
X140970Y368300D01*
X141277Y368296D01*
X141584Y368285D01*
X141890Y368267D01*
X142196Y368241D01*
X142501Y368207D01*
X142805Y368167D01*
X143108Y368119D01*
X143410Y368063D01*
X143710Y368001D01*
X144009Y367931D01*
X144306Y367854D01*
X144602Y367770D01*
X144895Y367678D01*
X145185Y367580D01*
X145473Y367475D01*
X145759Y367362D01*
X146042Y367243D01*
X146322Y367117D01*
X146599Y366985D01*
X146872Y366845D01*
X147142Y366699D01*
X147408Y366547D01*
X147671Y366388D01*
X147930Y366223D01*
X148184Y366052D01*
X148435Y365875D01*
X148681Y365691D01*
X148923Y365502D01*
X149159Y365307D01*
X149392Y365106D01*
X149619Y364900D01*
X149841Y364688D01*
X150058Y364471D01*
X150270Y364249D01*
X150476Y364022D01*
X150677Y363789D01*
X150872Y363553D01*
X151061Y363311D01*
X151245Y363065D01*
X151422Y362814D01*
X151593Y362560D01*
X151758Y362301D01*
X151917Y362038D01*
X152069Y361772D01*
X152215Y361502D01*
X152355Y361229D01*
X152487Y360952D01*
X152613Y360672D01*
X152732Y360389D01*
X152845Y360103D01*
X152950Y359815D01*
X153048Y359525D01*
X153140Y359232D01*
X153224Y358936D01*
X153301Y358639D01*
X153371Y358340D01*
X153433Y358040D01*
X153489Y357738D01*
X153537Y357435D01*
X153577Y357131D01*
X153611Y356826D01*
X153637Y356520D01*
X153655Y356214D01*
X153666Y355907D01*
X153670Y355600D01*
X153670Y342900D01*
X153666Y342593D01*
X153655Y342286D01*
X153637Y341980D01*
X153611Y341674D01*
X153577Y341369D01*
X153537Y341065D01*
X153489Y340762D01*
X153433Y340460D01*
X153371Y340160D01*
X153301Y339861D01*
X153224Y339564D01*
X153140Y339268D01*
X153048Y338975D01*
X152950Y338685D01*
X152845Y338397D01*
X152732Y338111D01*
X152613Y337828D01*
X152487Y337548D01*
X152355Y337271D01*
X152215Y336998D01*
X152069Y336728D01*
X151917Y336462D01*
X151758Y336199D01*
X151593Y335940D01*
X151422Y335686D01*
X151245Y335435D01*
X151061Y335189D01*
X150872Y334947D01*
X150677Y334711D01*
X150476Y334478D01*
X150270Y334251D01*
X150058Y334029D01*
X149841Y333812D01*
X149619Y333600D01*
X149392Y333394D01*
X149159Y333193D01*
X148923Y332998D01*
X148681Y332809D01*
X148435Y332625D01*
X148184Y332448D01*
X147930Y332277D01*
X147671Y332112D01*
X147408Y331953D01*
X147142Y331801D01*
X146872Y331655D01*
X146599Y331515D01*
X146322Y331383D01*
X146042Y331257D01*
X145759Y331138D01*
X145473Y331025D01*
X145185Y330920D01*
X144895Y330822D01*
X144602Y330730D01*
X144306Y330646D01*
X144009Y330569D01*
X143710Y330499D01*
X143410Y330437D01*
X143108Y330381D01*
X142805Y330333D01*
X142501Y330293D01*
X142196Y330259D01*
X141890Y330233D01*
X141584Y330215D01*
X141277Y330204D01*
X140970Y330200D01*
D15*
X139700Y603250D02*
X139700Y615950D01*
X146050Y615950D02*
X146050Y603250D01*
X152400Y603250D02*
X152400Y615950D01*
X133350Y615950D02*
X133350Y603250D01*
X127000Y603250D02*
X127000Y615950D01*
D13*
X131826Y443619D02*
X118364Y443619D01*
X118364Y447358D02*
X118364Y439879D01*
X131826Y453145D02*
X131826Y459128D01*
X131826Y453145D02*
X118364Y453145D01*
X118364Y459128D01*
X124347Y457632D02*
X124347Y453145D01*
X131826Y465008D02*
X131826Y470991D01*
X131826Y465008D02*
X118364Y465008D01*
X118364Y470991D01*
X124347Y469495D02*
X124347Y465008D01*
X118364Y476838D02*
X131826Y476838D01*
X131826Y484317D02*
X118364Y476838D01*
X118364Y484317D02*
X131826Y484317D01*
X131826Y495014D02*
X131824Y495121D01*
X131818Y495227D01*
X131809Y495334D01*
X131796Y495440D01*
X131778Y495545D01*
X131758Y495650D01*
X131733Y495754D01*
X131705Y495857D01*
X131673Y495959D01*
X131637Y496060D01*
X131598Y496159D01*
X131556Y496257D01*
X131510Y496353D01*
X131460Y496448D01*
X131407Y496541D01*
X131351Y496632D01*
X131292Y496720D01*
X131229Y496807D01*
X131164Y496891D01*
X131095Y496973D01*
X131024Y497053D01*
X130950Y497130D01*
X130873Y497204D01*
X130793Y497275D01*
X130711Y497344D01*
X130627Y497409D01*
X130540Y497472D01*
X130452Y497531D01*
X130361Y497587D01*
X130268Y497640D01*
X130173Y497690D01*
X130077Y497736D01*
X129979Y497778D01*
X129880Y497817D01*
X129779Y497853D01*
X129677Y497885D01*
X129574Y497913D01*
X129470Y497938D01*
X129365Y497958D01*
X129260Y497976D01*
X129154Y497989D01*
X129047Y497998D01*
X128941Y498004D01*
X128834Y498006D01*
X131826Y495014D02*
X131824Y494858D01*
X131818Y494702D01*
X131809Y494547D01*
X131795Y494391D01*
X131778Y494236D01*
X131757Y494082D01*
X131732Y493928D01*
X131703Y493775D01*
X131671Y493622D01*
X131635Y493470D01*
X131595Y493320D01*
X131551Y493170D01*
X131504Y493021D01*
X131453Y492874D01*
X131398Y492728D01*
X131340Y492583D01*
X131278Y492440D01*
X131213Y492298D01*
X131144Y492158D01*
X131072Y492020D01*
X130996Y491884D01*
X130917Y491749D01*
X130835Y491617D01*
X130750Y491486D01*
X130661Y491358D01*
X130569Y491232D01*
X130475Y491108D01*
X130377Y490987D01*
X130276Y490868D01*
X130172Y490751D01*
X130066Y490638D01*
X129956Y490526D01*
X121356Y490900D02*
X121249Y490902D01*
X121143Y490908D01*
X121036Y490917D01*
X120930Y490930D01*
X120825Y490948D01*
X120720Y490968D01*
X120616Y490993D01*
X120513Y491021D01*
X120411Y491053D01*
X120310Y491089D01*
X120211Y491128D01*
X120113Y491170D01*
X120017Y491216D01*
X119922Y491266D01*
X119829Y491319D01*
X119738Y491375D01*
X119650Y491434D01*
X119563Y491497D01*
X119479Y491562D01*
X119397Y491631D01*
X119317Y491702D01*
X119240Y491776D01*
X119166Y491853D01*
X119095Y491933D01*
X119026Y492015D01*
X118961Y492099D01*
X118898Y492186D01*
X118839Y492274D01*
X118783Y492365D01*
X118730Y492458D01*
X118680Y492553D01*
X118634Y492649D01*
X118592Y492747D01*
X118553Y492846D01*
X118517Y492947D01*
X118485Y493049D01*
X118457Y493152D01*
X118432Y493256D01*
X118412Y493361D01*
X118394Y493466D01*
X118381Y493572D01*
X118372Y493679D01*
X118366Y493785D01*
X118364Y493892D01*
X118366Y494036D01*
X118371Y494181D01*
X118381Y494325D01*
X118394Y494468D01*
X118410Y494612D01*
X118431Y494755D01*
X118455Y494897D01*
X118483Y495039D01*
X118514Y495180D01*
X118549Y495320D01*
X118587Y495459D01*
X118629Y495597D01*
X118675Y495734D01*
X118724Y495870D01*
X118777Y496004D01*
X118833Y496137D01*
X118892Y496269D01*
X118955Y496399D01*
X119022Y496527D01*
X119091Y496654D01*
X119164Y496778D01*
X119240Y496901D01*
X119319Y497022D01*
X119401Y497141D01*
X119486Y497257D01*
X123973Y492397D02*
X123916Y492304D01*
X123856Y492213D01*
X123793Y492125D01*
X123726Y492039D01*
X123657Y491955D01*
X123584Y491874D01*
X123509Y491796D01*
X123431Y491720D01*
X123350Y491647D01*
X123267Y491577D01*
X123181Y491510D01*
X123093Y491447D01*
X123003Y491386D01*
X122910Y491329D01*
X122816Y491275D01*
X122720Y491224D01*
X122621Y491177D01*
X122522Y491134D01*
X122421Y491094D01*
X122318Y491057D01*
X122214Y491025D01*
X122109Y490996D01*
X122004Y490971D01*
X121897Y490950D01*
X121790Y490932D01*
X121682Y490919D01*
X121573Y490909D01*
X121465Y490903D01*
X121356Y490901D01*
X126217Y496509D02*
X126274Y496602D01*
X126334Y496693D01*
X126397Y496781D01*
X126464Y496867D01*
X126533Y496951D01*
X126606Y497032D01*
X126681Y497110D01*
X126759Y497186D01*
X126840Y497259D01*
X126923Y497329D01*
X127009Y497396D01*
X127097Y497459D01*
X127187Y497520D01*
X127280Y497577D01*
X127374Y497631D01*
X127471Y497682D01*
X127569Y497729D01*
X127668Y497772D01*
X127769Y497812D01*
X127872Y497849D01*
X127976Y497881D01*
X128081Y497910D01*
X128186Y497935D01*
X128293Y497956D01*
X128400Y497974D01*
X128508Y497987D01*
X128617Y497997D01*
X128725Y498003D01*
X128834Y498005D01*
X126217Y496510D02*
X123973Y492396D01*
X118364Y503011D02*
X124721Y507498D01*
X118364Y511986D01*
X124721Y507498D02*
X131826Y507498D01*
X137414Y465603D02*
X147884Y462611D01*
X147884Y470090D01*
X144893Y467846D02*
X150876Y467846D01*
X150876Y475559D02*
X150128Y475559D01*
X150128Y476306D01*
X150876Y476306D01*
X150876Y475559D01*
X144145Y481775D02*
X143880Y481778D01*
X143616Y481788D01*
X143351Y481803D01*
X143087Y481826D01*
X142824Y481854D01*
X142561Y481889D01*
X142300Y481930D01*
X142039Y481977D01*
X141780Y482030D01*
X141522Y482090D01*
X141265Y482155D01*
X141010Y482227D01*
X140757Y482305D01*
X140506Y482389D01*
X140257Y482479D01*
X140010Y482575D01*
X139765Y482676D01*
X139523Y482784D01*
X139284Y482897D01*
X139186Y482932D01*
X139090Y482971D01*
X138995Y483014D01*
X138902Y483061D01*
X138810Y483110D01*
X138721Y483164D01*
X138634Y483220D01*
X138549Y483280D01*
X138466Y483343D01*
X138385Y483409D01*
X138308Y483478D01*
X138232Y483550D01*
X138160Y483624D01*
X138090Y483702D01*
X138024Y483781D01*
X137960Y483864D01*
X137900Y483948D01*
X137842Y484035D01*
X137788Y484124D01*
X137738Y484215D01*
X137691Y484308D01*
X137647Y484402D01*
X137607Y484498D01*
X137571Y484596D01*
X137538Y484694D01*
X137509Y484794D01*
X137484Y484895D01*
X137463Y484997D01*
X137445Y485100D01*
X137432Y485203D01*
X137422Y485306D01*
X137416Y485410D01*
X137414Y485514D01*
X137416Y485618D01*
X137422Y485722D01*
X137432Y485825D01*
X137445Y485928D01*
X137463Y486031D01*
X137484Y486133D01*
X137509Y486234D01*
X137538Y486334D01*
X137571Y486432D01*
X137607Y486530D01*
X137647Y486626D01*
X137691Y486720D01*
X137738Y486813D01*
X137788Y486904D01*
X137842Y486993D01*
X137900Y487080D01*
X137960Y487164D01*
X138024Y487247D01*
X138090Y487327D01*
X138160Y487404D01*
X138232Y487478D01*
X138308Y487550D01*
X138385Y487619D01*
X138466Y487685D01*
X138549Y487748D01*
X138634Y487808D01*
X138721Y487864D01*
X138810Y487918D01*
X138902Y487968D01*
X138995Y488014D01*
X139090Y488057D01*
X139186Y488096D01*
X139284Y488131D01*
X139284Y488132D02*
X139523Y488245D01*
X139765Y488353D01*
X140010Y488454D01*
X140257Y488550D01*
X140506Y488640D01*
X140757Y488724D01*
X141010Y488802D01*
X141265Y488874D01*
X141522Y488939D01*
X141780Y488999D01*
X142039Y489052D01*
X142300Y489099D01*
X142561Y489140D01*
X142824Y489175D01*
X143087Y489203D01*
X143351Y489226D01*
X143615Y489241D01*
X143880Y489251D01*
X144145Y489254D01*
X144145Y481775D02*
X144410Y481778D01*
X144674Y481788D01*
X144939Y481803D01*
X145203Y481826D01*
X145466Y481854D01*
X145729Y481889D01*
X145990Y481930D01*
X146251Y481977D01*
X146510Y482030D01*
X146768Y482090D01*
X147025Y482155D01*
X147280Y482227D01*
X147533Y482305D01*
X147784Y482389D01*
X148033Y482479D01*
X148280Y482575D01*
X148525Y482676D01*
X148767Y482784D01*
X149006Y482897D01*
X149104Y482932D01*
X149200Y482971D01*
X149295Y483014D01*
X149388Y483061D01*
X149480Y483110D01*
X149569Y483164D01*
X149656Y483220D01*
X149741Y483280D01*
X149824Y483343D01*
X149905Y483409D01*
X149983Y483478D01*
X150058Y483550D01*
X150130Y483624D01*
X150200Y483702D01*
X150266Y483781D01*
X150330Y483864D01*
X150390Y483948D01*
X150448Y484035D01*
X150502Y484124D01*
X150552Y484215D01*
X150599Y484308D01*
X150643Y484402D01*
X150683Y484498D01*
X150719Y484596D01*
X150752Y484694D01*
X150781Y484794D01*
X150806Y484895D01*
X150827Y484997D01*
X150845Y485100D01*
X150858Y485203D01*
X150868Y485306D01*
X150874Y485410D01*
X150876Y485514D01*
X149006Y488132D02*
X148767Y488245D01*
X148525Y488353D01*
X148280Y488454D01*
X148033Y488550D01*
X147784Y488640D01*
X147533Y488724D01*
X147280Y488802D01*
X147025Y488874D01*
X146768Y488939D01*
X146510Y488999D01*
X146251Y489052D01*
X145990Y489099D01*
X145729Y489140D01*
X145466Y489175D01*
X145203Y489203D01*
X144939Y489226D01*
X144675Y489241D01*
X144410Y489251D01*
X144145Y489254D01*
X149006Y488131D02*
X149104Y488096D01*
X149200Y488057D01*
X149295Y488014D01*
X149388Y487967D01*
X149480Y487918D01*
X149569Y487864D01*
X149656Y487808D01*
X149741Y487748D01*
X149824Y487685D01*
X149905Y487619D01*
X149982Y487550D01*
X150058Y487478D01*
X150130Y487404D01*
X150200Y487326D01*
X150266Y487247D01*
X150330Y487164D01*
X150390Y487080D01*
X150448Y486993D01*
X150502Y486904D01*
X150552Y486813D01*
X150599Y486720D01*
X150643Y486626D01*
X150683Y486530D01*
X150719Y486432D01*
X150752Y486334D01*
X150781Y486234D01*
X150806Y486133D01*
X150827Y486031D01*
X150845Y485928D01*
X150858Y485825D01*
X150868Y485722D01*
X150874Y485618D01*
X150876Y485514D01*
X147884Y482523D02*
X140406Y488506D01*
D15*
X158750Y603250D02*
X158750Y615950D01*
X158750Y603250D02*
X171450Y603250D01*
X171450Y615950D01*
X120650Y615950D02*
X120650Y603250D01*
X107950Y603250D01*
X107950Y615950D01*
X177800Y647700D02*
X190500Y647700D01*
X190500Y635000D01*
X177800Y635000D01*
X101600Y647700D02*
X88900Y647700D01*
X88900Y635000D01*
X101600Y635000D01*
X171450Y644525D02*
X171450Y660400D01*
X171450Y644525D02*
X171448Y644414D01*
X171442Y644304D01*
X171433Y644193D01*
X171419Y644083D01*
X171402Y643974D01*
X171381Y643865D01*
X171356Y643757D01*
X171327Y643650D01*
X171295Y643544D01*
X171259Y643439D01*
X171219Y643336D01*
X171176Y643234D01*
X171129Y643133D01*
X171078Y643034D01*
X171025Y642938D01*
X170968Y642843D01*
X170907Y642750D01*
X170844Y642659D01*
X170777Y642570D01*
X170707Y642484D01*
X170634Y642401D01*
X170559Y642319D01*
X170481Y642241D01*
X170399Y642166D01*
X170316Y642093D01*
X170230Y642023D01*
X170141Y641956D01*
X170050Y641893D01*
X169957Y641832D01*
X169862Y641775D01*
X169766Y641722D01*
X169667Y641671D01*
X169566Y641624D01*
X169464Y641581D01*
X169361Y641541D01*
X169256Y641505D01*
X169150Y641473D01*
X169043Y641444D01*
X168935Y641419D01*
X168826Y641398D01*
X168717Y641381D01*
X168607Y641367D01*
X168496Y641358D01*
X168386Y641352D01*
X168275Y641350D01*
X161925Y641350D01*
X161814Y641352D01*
X161704Y641358D01*
X161593Y641367D01*
X161483Y641381D01*
X161374Y641398D01*
X161265Y641419D01*
X161157Y641444D01*
X161050Y641473D01*
X160944Y641505D01*
X160839Y641541D01*
X160736Y641581D01*
X160634Y641624D01*
X160533Y641671D01*
X160434Y641722D01*
X160338Y641775D01*
X160243Y641832D01*
X160150Y641893D01*
X160059Y641956D01*
X159970Y642023D01*
X159884Y642093D01*
X159801Y642166D01*
X159719Y642241D01*
X159641Y642319D01*
X159566Y642401D01*
X159493Y642484D01*
X159423Y642570D01*
X159356Y642659D01*
X159293Y642750D01*
X159232Y642843D01*
X159175Y642938D01*
X159122Y643034D01*
X159071Y643133D01*
X159024Y643234D01*
X158981Y643336D01*
X158941Y643439D01*
X158905Y643544D01*
X158873Y643650D01*
X158844Y643757D01*
X158819Y643865D01*
X158798Y643974D01*
X158781Y644083D01*
X158767Y644193D01*
X158758Y644304D01*
X158752Y644414D01*
X158750Y644525D01*
X158750Y660400D01*
X107950Y660400D02*
X107950Y644525D01*
X107952Y644414D01*
X107958Y644304D01*
X107967Y644193D01*
X107981Y644083D01*
X107998Y643974D01*
X108019Y643865D01*
X108044Y643757D01*
X108073Y643650D01*
X108105Y643544D01*
X108141Y643439D01*
X108181Y643336D01*
X108224Y643234D01*
X108271Y643133D01*
X108322Y643034D01*
X108375Y642938D01*
X108432Y642843D01*
X108493Y642750D01*
X108556Y642659D01*
X108623Y642570D01*
X108693Y642484D01*
X108766Y642401D01*
X108841Y642319D01*
X108919Y642241D01*
X109001Y642166D01*
X109084Y642093D01*
X109170Y642023D01*
X109259Y641956D01*
X109350Y641893D01*
X109443Y641832D01*
X109538Y641775D01*
X109634Y641722D01*
X109733Y641671D01*
X109834Y641624D01*
X109936Y641581D01*
X110039Y641541D01*
X110144Y641505D01*
X110250Y641473D01*
X110357Y641444D01*
X110465Y641419D01*
X110574Y641398D01*
X110683Y641381D01*
X110793Y641367D01*
X110904Y641358D01*
X111014Y641352D01*
X111125Y641350D01*
X117475Y641350D01*
X117586Y641352D01*
X117696Y641358D01*
X117807Y641367D01*
X117917Y641381D01*
X118026Y641398D01*
X118135Y641419D01*
X118243Y641444D01*
X118350Y641473D01*
X118456Y641505D01*
X118561Y641541D01*
X118664Y641581D01*
X118766Y641624D01*
X118867Y641671D01*
X118966Y641722D01*
X119062Y641775D01*
X119157Y641832D01*
X119250Y641893D01*
X119341Y641956D01*
X119430Y642023D01*
X119516Y642093D01*
X119599Y642166D01*
X119681Y642241D01*
X119759Y642319D01*
X119834Y642401D01*
X119907Y642484D01*
X119977Y642570D01*
X120044Y642659D01*
X120107Y642750D01*
X120168Y642843D01*
X120225Y642938D01*
X120278Y643034D01*
X120329Y643133D01*
X120376Y643234D01*
X120419Y643336D01*
X120459Y643439D01*
X120495Y643544D01*
X120527Y643650D01*
X120556Y643757D01*
X120581Y643865D01*
X120602Y643974D01*
X120619Y644083D01*
X120633Y644193D01*
X120642Y644304D01*
X120648Y644414D01*
X120650Y644525D01*
X120650Y660400D01*
X158750Y660400D02*
X171450Y660400D01*
X120650Y660400D02*
X107950Y660400D01*
X158750Y558800D02*
X158750Y554990D01*
X158752Y554890D01*
X158758Y554791D01*
X158768Y554691D01*
X158781Y554593D01*
X158799Y554494D01*
X158820Y554397D01*
X158845Y554301D01*
X158874Y554205D01*
X158907Y554111D01*
X158943Y554018D01*
X158983Y553927D01*
X159027Y553837D01*
X159074Y553749D01*
X159124Y553663D01*
X159178Y553579D01*
X159235Y553497D01*
X159295Y553418D01*
X159359Y553340D01*
X159425Y553266D01*
X159494Y553194D01*
X159566Y553125D01*
X159640Y553059D01*
X159718Y552995D01*
X159797Y552935D01*
X159879Y552878D01*
X159963Y552824D01*
X160049Y552774D01*
X160137Y552727D01*
X160227Y552683D01*
X160318Y552643D01*
X160411Y552607D01*
X160505Y552574D01*
X160601Y552545D01*
X160697Y552520D01*
X160794Y552499D01*
X160893Y552481D01*
X160991Y552468D01*
X161091Y552458D01*
X161190Y552452D01*
X161290Y552450D01*
X165100Y552450D01*
X171450Y552450D01*
X177800Y552450D01*
X184150Y552450D01*
X187960Y552450D01*
X188060Y552452D01*
X188159Y552458D01*
X188259Y552468D01*
X188357Y552481D01*
X188456Y552499D01*
X188553Y552520D01*
X188649Y552545D01*
X188745Y552574D01*
X188839Y552607D01*
X188932Y552643D01*
X189023Y552683D01*
X189113Y552727D01*
X189201Y552774D01*
X189287Y552824D01*
X189371Y552878D01*
X189453Y552935D01*
X189532Y552995D01*
X189610Y553059D01*
X189684Y553125D01*
X189756Y553194D01*
X189825Y553266D01*
X189891Y553340D01*
X189955Y553418D01*
X190015Y553497D01*
X190072Y553579D01*
X190126Y553663D01*
X190176Y553749D01*
X190223Y553837D01*
X190267Y553927D01*
X190307Y554018D01*
X190343Y554111D01*
X190376Y554205D01*
X190405Y554301D01*
X190430Y554397D01*
X190451Y554494D01*
X190469Y554593D01*
X190482Y554691D01*
X190492Y554791D01*
X190498Y554890D01*
X190500Y554990D01*
X190500Y558800D01*
X190500Y565150D01*
X190500Y571500D01*
X190500Y577850D01*
X190500Y581660D01*
X190498Y581760D01*
X190492Y581859D01*
X190482Y581959D01*
X190469Y582057D01*
X190451Y582156D01*
X190430Y582253D01*
X190405Y582349D01*
X190376Y582445D01*
X190343Y582539D01*
X190307Y582632D01*
X190267Y582723D01*
X190223Y582813D01*
X190176Y582901D01*
X190126Y582987D01*
X190072Y583071D01*
X190015Y583153D01*
X189955Y583232D01*
X189891Y583310D01*
X189825Y583384D01*
X189756Y583456D01*
X189684Y583525D01*
X189610Y583591D01*
X189532Y583655D01*
X189453Y583715D01*
X189371Y583772D01*
X189287Y583826D01*
X189201Y583876D01*
X189113Y583923D01*
X189023Y583967D01*
X188932Y584007D01*
X188839Y584043D01*
X188745Y584076D01*
X188649Y584105D01*
X188553Y584130D01*
X188456Y584151D01*
X188357Y584169D01*
X188259Y584182D01*
X188159Y584192D01*
X188060Y584198D01*
X187960Y584200D01*
X184150Y584200D01*
X177800Y584200D01*
X171450Y584200D01*
X165100Y584200D01*
X161290Y584200D01*
X161190Y584198D01*
X161091Y584192D01*
X160991Y584182D01*
X160893Y584169D01*
X160794Y584151D01*
X160697Y584130D01*
X160601Y584105D01*
X160505Y584076D01*
X160411Y584043D01*
X160318Y584007D01*
X160227Y583967D01*
X160137Y583923D01*
X160049Y583876D01*
X159963Y583826D01*
X159879Y583772D01*
X159797Y583715D01*
X159718Y583655D01*
X159640Y583591D01*
X159566Y583525D01*
X159494Y583456D01*
X159425Y583384D01*
X159359Y583310D01*
X159295Y583232D01*
X159235Y583153D01*
X159178Y583071D01*
X159124Y582987D01*
X159074Y582901D01*
X159027Y582813D01*
X158983Y582723D01*
X158943Y582632D01*
X158907Y582539D01*
X158874Y582445D01*
X158845Y582349D01*
X158820Y582253D01*
X158799Y582156D01*
X158781Y582057D01*
X158768Y581959D01*
X158758Y581859D01*
X158752Y581760D01*
X158750Y581660D01*
X158750Y577850D01*
X158750Y571500D01*
X158750Y565150D01*
X158750Y558800D01*
X116840Y419100D02*
X91440Y419100D01*
X91340Y419098D01*
X91241Y419092D01*
X91141Y419082D01*
X91043Y419069D01*
X90944Y419051D01*
X90847Y419030D01*
X90751Y419005D01*
X90655Y418976D01*
X90561Y418943D01*
X90468Y418907D01*
X90377Y418867D01*
X90287Y418823D01*
X90199Y418776D01*
X90113Y418726D01*
X90029Y418672D01*
X89947Y418615D01*
X89868Y418555D01*
X89790Y418491D01*
X89716Y418425D01*
X89644Y418356D01*
X89575Y418284D01*
X89509Y418210D01*
X89445Y418132D01*
X89385Y418053D01*
X89328Y417971D01*
X89274Y417887D01*
X89224Y417801D01*
X89177Y417713D01*
X89133Y417623D01*
X89093Y417532D01*
X89057Y417439D01*
X89024Y417345D01*
X88995Y417249D01*
X88970Y417153D01*
X88949Y417056D01*
X88931Y416957D01*
X88918Y416859D01*
X88908Y416759D01*
X88902Y416660D01*
X88900Y416560D01*
X88900Y398780D01*
X88902Y398680D01*
X88908Y398581D01*
X88918Y398481D01*
X88931Y398383D01*
X88949Y398284D01*
X88970Y398187D01*
X88995Y398091D01*
X89024Y397995D01*
X89057Y397901D01*
X89093Y397808D01*
X89133Y397717D01*
X89177Y397627D01*
X89224Y397539D01*
X89274Y397453D01*
X89328Y397369D01*
X89385Y397287D01*
X89445Y397208D01*
X89509Y397130D01*
X89575Y397056D01*
X89644Y396984D01*
X89716Y396915D01*
X89790Y396849D01*
X89868Y396785D01*
X89947Y396725D01*
X90029Y396668D01*
X90113Y396614D01*
X90199Y396564D01*
X90287Y396517D01*
X90377Y396473D01*
X90468Y396433D01*
X90561Y396397D01*
X90655Y396364D01*
X90751Y396335D01*
X90847Y396310D01*
X90944Y396289D01*
X91043Y396271D01*
X91141Y396258D01*
X91241Y396248D01*
X91340Y396242D01*
X91440Y396240D01*
X116840Y396240D01*
X116940Y396242D01*
X117039Y396248D01*
X117139Y396258D01*
X117237Y396271D01*
X117336Y396289D01*
X117433Y396310D01*
X117529Y396335D01*
X117625Y396364D01*
X117719Y396397D01*
X117812Y396433D01*
X117903Y396473D01*
X117993Y396517D01*
X118081Y396564D01*
X118167Y396614D01*
X118251Y396668D01*
X118333Y396725D01*
X118412Y396785D01*
X118490Y396849D01*
X118564Y396915D01*
X118636Y396984D01*
X118705Y397056D01*
X118771Y397130D01*
X118835Y397208D01*
X118895Y397287D01*
X118952Y397369D01*
X119006Y397453D01*
X119056Y397539D01*
X119103Y397627D01*
X119147Y397717D01*
X119187Y397808D01*
X119223Y397901D01*
X119256Y397995D01*
X119285Y398091D01*
X119310Y398187D01*
X119331Y398284D01*
X119349Y398383D01*
X119362Y398481D01*
X119372Y398581D01*
X119378Y398680D01*
X119380Y398780D01*
X119380Y416560D01*
X119378Y416660D01*
X119372Y416759D01*
X119362Y416859D01*
X119349Y416957D01*
X119331Y417056D01*
X119310Y417153D01*
X119285Y417249D01*
X119256Y417345D01*
X119223Y417439D01*
X119187Y417532D01*
X119147Y417623D01*
X119103Y417713D01*
X119056Y417801D01*
X119006Y417887D01*
X118952Y417971D01*
X118895Y418053D01*
X118835Y418132D01*
X118771Y418210D01*
X118705Y418284D01*
X118636Y418356D01*
X118564Y418425D01*
X118490Y418491D01*
X118412Y418555D01*
X118333Y418615D01*
X118251Y418672D01*
X118167Y418726D01*
X118081Y418776D01*
X117993Y418823D01*
X117903Y418867D01*
X117812Y418907D01*
X117719Y418943D01*
X117625Y418976D01*
X117529Y419005D01*
X117433Y419030D01*
X117336Y419051D01*
X117237Y419069D01*
X117139Y419082D01*
X117039Y419092D01*
X116940Y419098D01*
X116840Y419100D01*
X177800Y549275D02*
X177800Y552450D01*
X171450Y552450D02*
X171450Y549275D01*
X165100Y549275D02*
X165100Y552450D01*
X184150Y552450D02*
X184150Y549275D01*
X190500Y558800D02*
X193675Y558800D01*
X193675Y565150D02*
X190500Y565150D01*
X190500Y571500D02*
X193675Y571500D01*
X193675Y577850D02*
X190500Y577850D01*
X184150Y584200D02*
X184150Y587375D01*
X177800Y587375D02*
X177800Y584200D01*
X171450Y584200D02*
X171450Y587375D01*
X165100Y587375D02*
X165100Y584200D01*
X158750Y558800D02*
X155575Y558800D01*
X155575Y565150D02*
X158750Y565150D01*
X158750Y571500D02*
X155575Y571500D01*
X155575Y577850D02*
X158750Y577850D01*
X152400Y615950D02*
X152400Y628650D01*
X171450Y628650D01*
X171450Y623999D01*
X171448Y623888D01*
X171442Y623776D01*
X171432Y623665D01*
X171419Y623555D01*
X171401Y623445D01*
X171380Y623335D01*
X171355Y623227D01*
X171326Y623119D01*
X171293Y623013D01*
X171256Y622907D01*
X171216Y622803D01*
X171173Y622701D01*
X171125Y622600D01*
X171074Y622501D01*
X171020Y622404D01*
X170962Y622308D01*
X170901Y622215D01*
X170837Y622124D01*
X170770Y622035D01*
X170699Y621949D01*
X170626Y621865D01*
X170550Y621784D01*
X170470Y621705D01*
X170389Y621630D01*
X170304Y621557D01*
X170217Y621487D01*
X170128Y621421D01*
X170036Y621357D01*
X161925Y615950D01*
X127000Y615950D02*
X127000Y628650D01*
X107950Y628650D01*
X107950Y623999D01*
X107952Y623888D01*
X107958Y623776D01*
X107968Y623665D01*
X107981Y623555D01*
X107999Y623445D01*
X108020Y623335D01*
X108045Y623227D01*
X108074Y623119D01*
X108107Y623013D01*
X108144Y622907D01*
X108184Y622803D01*
X108227Y622701D01*
X108275Y622600D01*
X108326Y622501D01*
X108380Y622404D01*
X108438Y622308D01*
X108499Y622215D01*
X108563Y622124D01*
X108630Y622035D01*
X108701Y621949D01*
X108774Y621865D01*
X108850Y621784D01*
X108930Y621705D01*
X109011Y621630D01*
X109096Y621557D01*
X109183Y621487D01*
X109272Y621421D01*
X109364Y621357D01*
X117475Y615950D01*
X168910Y414020D02*
X189230Y414020D01*
X168910Y414020D02*
X168810Y414018D01*
X168711Y414012D01*
X168611Y414002D01*
X168513Y413989D01*
X168414Y413971D01*
X168317Y413950D01*
X168221Y413925D01*
X168125Y413896D01*
X168031Y413863D01*
X167938Y413827D01*
X167847Y413787D01*
X167757Y413743D01*
X167669Y413696D01*
X167583Y413646D01*
X167499Y413592D01*
X167417Y413535D01*
X167338Y413475D01*
X167260Y413411D01*
X167186Y413345D01*
X167114Y413276D01*
X167045Y413204D01*
X166979Y413130D01*
X166915Y413052D01*
X166855Y412973D01*
X166798Y412891D01*
X166744Y412807D01*
X166694Y412721D01*
X166647Y412633D01*
X166603Y412543D01*
X166563Y412452D01*
X166527Y412359D01*
X166494Y412265D01*
X166465Y412169D01*
X166440Y412073D01*
X166419Y411976D01*
X166401Y411877D01*
X166388Y411779D01*
X166378Y411679D01*
X166372Y411580D01*
X166370Y411480D01*
X166370Y392430D01*
X166344Y392346D01*
X166322Y392262D01*
X166303Y392176D01*
X166289Y392090D01*
X166278Y392003D01*
X166271Y391915D01*
X166267Y391828D01*
X166268Y391740D01*
X166272Y391653D01*
X166280Y391565D01*
X166292Y391479D01*
X166308Y391392D01*
X166327Y391307D01*
X166350Y391223D01*
X166377Y391139D01*
X166408Y391057D01*
X166442Y390976D01*
X166479Y390897D01*
X166520Y390820D01*
X166564Y390744D01*
X166612Y390670D01*
X166662Y390599D01*
X166716Y390530D01*
X166773Y390463D01*
X166832Y390398D01*
X166894Y390337D01*
X166959Y390278D01*
X167027Y390222D01*
X167097Y390169D01*
X167169Y390119D01*
X167243Y390073D01*
X167319Y390029D01*
X167397Y389989D01*
X167476Y389953D01*
X167558Y389920D01*
X167640Y389890D01*
X187960Y389890D01*
X188071Y389870D01*
X188183Y389853D01*
X188295Y389841D01*
X188408Y389832D01*
X188521Y389828D01*
X188634Y389827D01*
X188747Y389831D01*
X188860Y389838D01*
X188972Y389849D01*
X189084Y389864D01*
X189196Y389883D01*
X189306Y389906D01*
X189416Y389933D01*
X189525Y389963D01*
X189633Y389998D01*
X189739Y390036D01*
X189844Y390078D01*
X189948Y390123D01*
X190049Y390172D01*
X190149Y390225D01*
X190248Y390281D01*
X190344Y390340D01*
X190438Y390403D01*
X190530Y390469D01*
X190619Y390538D01*
X190706Y390610D01*
X190790Y390685D01*
X190872Y390763D01*
X190951Y390844D01*
X191027Y390927D01*
X191100Y391014D01*
X191170Y391102D01*
X191237Y391193D01*
X191301Y391287D01*
X191361Y391382D01*
X191418Y391480D01*
X191472Y391579D01*
X191522Y391681D01*
X191569Y391784D01*
X191612Y391888D01*
X191651Y391994D01*
X191686Y392102D01*
X191718Y392210D01*
X191746Y392320D01*
X191770Y392430D01*
X191770Y411480D01*
X191768Y411580D01*
X191762Y411679D01*
X191752Y411779D01*
X191739Y411877D01*
X191721Y411976D01*
X191700Y412073D01*
X191675Y412169D01*
X191646Y412265D01*
X191613Y412359D01*
X191577Y412452D01*
X191537Y412543D01*
X191493Y412633D01*
X191446Y412721D01*
X191396Y412807D01*
X191342Y412891D01*
X191285Y412973D01*
X191225Y413052D01*
X191161Y413130D01*
X191095Y413204D01*
X191026Y413276D01*
X190954Y413345D01*
X190880Y413411D01*
X190802Y413475D01*
X190723Y413535D01*
X190641Y413592D01*
X190557Y413646D01*
X190471Y413696D01*
X190383Y413743D01*
X190293Y413787D01*
X190202Y413827D01*
X190109Y413863D01*
X190015Y413896D01*
X189919Y413925D01*
X189823Y413950D01*
X189726Y413971D01*
X189627Y413989D01*
X189529Y414002D01*
X189429Y414012D01*
X189330Y414018D01*
X189230Y414020D01*
X97790Y605790D02*
X85090Y605790D01*
X84990Y605788D01*
X84891Y605782D01*
X84791Y605772D01*
X84693Y605759D01*
X84594Y605741D01*
X84497Y605720D01*
X84401Y605695D01*
X84305Y605666D01*
X84211Y605633D01*
X84118Y605597D01*
X84027Y605557D01*
X83937Y605513D01*
X83849Y605466D01*
X83763Y605416D01*
X83679Y605362D01*
X83597Y605305D01*
X83518Y605245D01*
X83440Y605181D01*
X83366Y605115D01*
X83294Y605046D01*
X83225Y604974D01*
X83159Y604900D01*
X83095Y604822D01*
X83035Y604743D01*
X82978Y604661D01*
X82924Y604577D01*
X82874Y604491D01*
X82827Y604403D01*
X82783Y604313D01*
X82743Y604222D01*
X82707Y604129D01*
X82674Y604035D01*
X82645Y603939D01*
X82620Y603843D01*
X82599Y603746D01*
X82581Y603647D01*
X82568Y603549D01*
X82558Y603449D01*
X82552Y603350D01*
X82550Y603250D01*
X82550Y589280D01*
X82552Y589180D01*
X82558Y589081D01*
X82568Y588981D01*
X82581Y588883D01*
X82599Y588784D01*
X82620Y588687D01*
X82645Y588591D01*
X82674Y588495D01*
X82707Y588401D01*
X82743Y588308D01*
X82783Y588217D01*
X82827Y588127D01*
X82874Y588039D01*
X82924Y587953D01*
X82978Y587869D01*
X83035Y587787D01*
X83095Y587708D01*
X83159Y587630D01*
X83225Y587556D01*
X83294Y587484D01*
X83366Y587415D01*
X83440Y587349D01*
X83518Y587285D01*
X83597Y587225D01*
X83679Y587168D01*
X83763Y587114D01*
X83849Y587064D01*
X83937Y587017D01*
X84027Y586973D01*
X84118Y586933D01*
X84211Y586897D01*
X84305Y586864D01*
X84401Y586835D01*
X84497Y586810D01*
X84594Y586789D01*
X84693Y586771D01*
X84791Y586758D01*
X84891Y586748D01*
X84990Y586742D01*
X85090Y586740D01*
X97790Y586740D01*
X97890Y586742D01*
X97989Y586748D01*
X98089Y586758D01*
X98187Y586771D01*
X98286Y586789D01*
X98383Y586810D01*
X98479Y586835D01*
X98575Y586864D01*
X98669Y586897D01*
X98762Y586933D01*
X98853Y586973D01*
X98943Y587017D01*
X99031Y587064D01*
X99117Y587114D01*
X99201Y587168D01*
X99283Y587225D01*
X99362Y587285D01*
X99440Y587349D01*
X99514Y587415D01*
X99586Y587484D01*
X99655Y587556D01*
X99721Y587630D01*
X99785Y587708D01*
X99845Y587787D01*
X99902Y587869D01*
X99956Y587953D01*
X100006Y588039D01*
X100053Y588127D01*
X100097Y588217D01*
X100137Y588308D01*
X100173Y588401D01*
X100206Y588495D01*
X100235Y588591D01*
X100260Y588687D01*
X100281Y588784D01*
X100299Y588883D01*
X100312Y588981D01*
X100322Y589081D01*
X100328Y589180D01*
X100330Y589280D01*
X100330Y603250D01*
X100328Y603350D01*
X100322Y603449D01*
X100312Y603549D01*
X100299Y603647D01*
X100281Y603746D01*
X100260Y603843D01*
X100235Y603939D01*
X100206Y604035D01*
X100173Y604129D01*
X100137Y604222D01*
X100097Y604313D01*
X100053Y604403D01*
X100006Y604491D01*
X99956Y604577D01*
X99902Y604661D01*
X99845Y604743D01*
X99785Y604822D01*
X99721Y604900D01*
X99655Y604974D01*
X99586Y605046D01*
X99514Y605115D01*
X99440Y605181D01*
X99362Y605245D01*
X99283Y605305D01*
X99201Y605362D01*
X99117Y605416D01*
X99031Y605466D01*
X98943Y605513D01*
X98853Y605557D01*
X98762Y605597D01*
X98669Y605633D01*
X98575Y605666D01*
X98479Y605695D01*
X98383Y605720D01*
X98286Y605741D01*
X98187Y605759D01*
X98089Y605772D01*
X97989Y605782D01*
X97890Y605788D01*
X97790Y605790D01*
D16*
X83947Y333320D02*
X76581Y333320D01*
X76581Y335366D01*
X76583Y335455D01*
X76589Y335544D01*
X76599Y335633D01*
X76612Y335721D01*
X76629Y335809D01*
X76651Y335896D01*
X76676Y335981D01*
X76704Y336066D01*
X76737Y336149D01*
X76773Y336231D01*
X76812Y336311D01*
X76855Y336389D01*
X76901Y336465D01*
X76951Y336540D01*
X77004Y336612D01*
X77060Y336681D01*
X77119Y336748D01*
X77180Y336813D01*
X77245Y336874D01*
X77312Y336933D01*
X77381Y336989D01*
X77453Y337042D01*
X77528Y337092D01*
X77604Y337138D01*
X77682Y337181D01*
X77762Y337220D01*
X77844Y337256D01*
X77927Y337289D01*
X78012Y337317D01*
X78097Y337342D01*
X78184Y337364D01*
X78272Y337381D01*
X78360Y337394D01*
X78449Y337404D01*
X78538Y337410D01*
X78627Y337412D01*
X78716Y337410D01*
X78805Y337404D01*
X78894Y337394D01*
X78982Y337381D01*
X79070Y337364D01*
X79157Y337342D01*
X79242Y337317D01*
X79327Y337289D01*
X79410Y337256D01*
X79492Y337220D01*
X79572Y337181D01*
X79650Y337138D01*
X79726Y337092D01*
X79801Y337042D01*
X79873Y336989D01*
X79942Y336933D01*
X80009Y336874D01*
X80074Y336813D01*
X80135Y336748D01*
X80194Y336681D01*
X80250Y336612D01*
X80303Y336540D01*
X80353Y336465D01*
X80399Y336389D01*
X80442Y336311D01*
X80481Y336231D01*
X80517Y336149D01*
X80550Y336066D01*
X80578Y335981D01*
X80603Y335896D01*
X80625Y335809D01*
X80642Y335721D01*
X80655Y335633D01*
X80665Y335544D01*
X80671Y335455D01*
X80673Y335366D01*
X80673Y333320D01*
X82310Y341959D02*
X76581Y341959D01*
X82310Y341959D02*
X82388Y341957D01*
X82466Y341952D01*
X82543Y341942D01*
X82620Y341929D01*
X82696Y341913D01*
X82771Y341893D01*
X82845Y341869D01*
X82918Y341842D01*
X82990Y341811D01*
X83060Y341777D01*
X83129Y341740D01*
X83195Y341699D01*
X83260Y341655D01*
X83322Y341609D01*
X83382Y341559D01*
X83440Y341507D01*
X83495Y341452D01*
X83547Y341394D01*
X83597Y341334D01*
X83643Y341272D01*
X83687Y341207D01*
X83728Y341141D01*
X83765Y341072D01*
X83799Y341002D01*
X83830Y340930D01*
X83857Y340857D01*
X83881Y340783D01*
X83901Y340708D01*
X83917Y340632D01*
X83930Y340555D01*
X83940Y340478D01*
X83945Y340400D01*
X83947Y340322D01*
X83947Y339504D01*
X83947Y345689D02*
X76581Y345689D01*
X76581Y347735D01*
X76583Y347824D01*
X76589Y347913D01*
X76599Y348002D01*
X76612Y348090D01*
X76629Y348178D01*
X76651Y348265D01*
X76676Y348350D01*
X76704Y348435D01*
X76737Y348518D01*
X76773Y348600D01*
X76812Y348680D01*
X76855Y348758D01*
X76901Y348834D01*
X76951Y348909D01*
X77004Y348981D01*
X77060Y349050D01*
X77119Y349117D01*
X77180Y349182D01*
X77245Y349243D01*
X77312Y349302D01*
X77381Y349358D01*
X77453Y349411D01*
X77528Y349461D01*
X77604Y349507D01*
X77682Y349550D01*
X77762Y349589D01*
X77844Y349625D01*
X77927Y349658D01*
X78012Y349686D01*
X78097Y349711D01*
X78184Y349733D01*
X78272Y349750D01*
X78360Y349763D01*
X78449Y349773D01*
X78538Y349779D01*
X78627Y349781D01*
X78716Y349779D01*
X78805Y349773D01*
X78894Y349763D01*
X78982Y349750D01*
X79070Y349733D01*
X79157Y349711D01*
X79242Y349686D01*
X79327Y349658D01*
X79410Y349625D01*
X79492Y349589D01*
X79572Y349550D01*
X79650Y349507D01*
X79726Y349461D01*
X79801Y349411D01*
X79873Y349358D01*
X79942Y349302D01*
X80009Y349243D01*
X80074Y349182D01*
X80135Y349117D01*
X80194Y349050D01*
X80250Y348981D01*
X80303Y348909D01*
X80353Y348834D01*
X80399Y348758D01*
X80442Y348680D01*
X80481Y348600D01*
X80517Y348518D01*
X80550Y348435D01*
X80578Y348350D01*
X80603Y348265D01*
X80625Y348178D01*
X80642Y348090D01*
X80655Y348002D01*
X80665Y347913D01*
X80671Y347824D01*
X80673Y347735D01*
X80673Y345689D01*
X80673Y348144D02*
X83947Y349781D01*
X83947Y354567D02*
X83947Y356204D01*
X83947Y354567D02*
X83945Y354489D01*
X83940Y354411D01*
X83930Y354334D01*
X83917Y354257D01*
X83901Y354181D01*
X83881Y354106D01*
X83857Y354032D01*
X83830Y353959D01*
X83799Y353887D01*
X83765Y353817D01*
X83728Y353749D01*
X83687Y353682D01*
X83643Y353617D01*
X83597Y353555D01*
X83547Y353495D01*
X83495Y353437D01*
X83440Y353382D01*
X83382Y353330D01*
X83322Y353280D01*
X83260Y353234D01*
X83195Y353190D01*
X83129Y353149D01*
X83060Y353112D01*
X82990Y353078D01*
X82918Y353047D01*
X82845Y353020D01*
X82771Y352996D01*
X82696Y352976D01*
X82620Y352960D01*
X82543Y352947D01*
X82466Y352937D01*
X82388Y352932D01*
X82310Y352930D01*
X78218Y352930D01*
X78138Y352932D01*
X78058Y352938D01*
X77978Y352948D01*
X77899Y352961D01*
X77820Y352979D01*
X77743Y353000D01*
X77667Y353026D01*
X77592Y353055D01*
X77518Y353087D01*
X77446Y353123D01*
X77376Y353163D01*
X77309Y353206D01*
X77243Y353252D01*
X77180Y353302D01*
X77119Y353354D01*
X77060Y353409D01*
X77005Y353468D01*
X76953Y353528D01*
X76903Y353592D01*
X76857Y353657D01*
X76814Y353725D01*
X76774Y353795D01*
X76738Y353867D01*
X76706Y353941D01*
X76677Y354015D01*
X76652Y354092D01*
X76630Y354169D01*
X76612Y354248D01*
X76599Y354327D01*
X76589Y354406D01*
X76583Y354487D01*
X76581Y354567D01*
X76581Y356204D01*
X83538Y358696D02*
X83947Y358696D01*
X83538Y358696D02*
X83538Y359105D01*
X83947Y359105D01*
X83947Y358696D01*
X83947Y363589D02*
X83947Y365226D01*
X83947Y363589D02*
X83945Y363511D01*
X83940Y363433D01*
X83930Y363356D01*
X83917Y363279D01*
X83901Y363203D01*
X83881Y363128D01*
X83857Y363054D01*
X83830Y362981D01*
X83799Y362909D01*
X83765Y362839D01*
X83728Y362771D01*
X83687Y362704D01*
X83643Y362639D01*
X83597Y362577D01*
X83547Y362517D01*
X83495Y362459D01*
X83440Y362404D01*
X83382Y362352D01*
X83322Y362302D01*
X83260Y362256D01*
X83195Y362212D01*
X83129Y362171D01*
X83060Y362134D01*
X82990Y362100D01*
X82918Y362069D01*
X82845Y362042D01*
X82771Y362018D01*
X82696Y361998D01*
X82620Y361982D01*
X82543Y361969D01*
X82466Y361959D01*
X82388Y361954D01*
X82310Y361952D01*
X78218Y361952D01*
X78138Y361954D01*
X78058Y361960D01*
X77978Y361970D01*
X77899Y361983D01*
X77820Y362001D01*
X77743Y362022D01*
X77667Y362048D01*
X77592Y362077D01*
X77518Y362109D01*
X77446Y362145D01*
X77376Y362185D01*
X77309Y362228D01*
X77243Y362274D01*
X77180Y362324D01*
X77119Y362376D01*
X77060Y362431D01*
X77005Y362490D01*
X76953Y362550D01*
X76903Y362614D01*
X76857Y362679D01*
X76814Y362747D01*
X76774Y362817D01*
X76738Y362889D01*
X76706Y362963D01*
X76677Y363037D01*
X76652Y363114D01*
X76630Y363191D01*
X76612Y363270D01*
X76599Y363349D01*
X76589Y363428D01*
X76583Y363509D01*
X76581Y363589D01*
X76581Y365226D01*
X78627Y368071D02*
X81901Y368071D01*
X78627Y368071D02*
X78538Y368073D01*
X78449Y368079D01*
X78360Y368089D01*
X78272Y368102D01*
X78184Y368119D01*
X78097Y368141D01*
X78012Y368166D01*
X77927Y368194D01*
X77844Y368227D01*
X77762Y368263D01*
X77682Y368302D01*
X77604Y368345D01*
X77528Y368391D01*
X77453Y368441D01*
X77381Y368494D01*
X77312Y368550D01*
X77245Y368609D01*
X77180Y368670D01*
X77119Y368735D01*
X77060Y368802D01*
X77004Y368871D01*
X76951Y368943D01*
X76901Y369018D01*
X76855Y369094D01*
X76812Y369172D01*
X76773Y369252D01*
X76737Y369334D01*
X76704Y369417D01*
X76676Y369502D01*
X76651Y369587D01*
X76629Y369674D01*
X76612Y369762D01*
X76599Y369850D01*
X76589Y369939D01*
X76583Y370028D01*
X76581Y370117D01*
X76583Y370206D01*
X76589Y370295D01*
X76599Y370384D01*
X76612Y370472D01*
X76629Y370560D01*
X76651Y370647D01*
X76676Y370732D01*
X76704Y370817D01*
X76737Y370900D01*
X76773Y370982D01*
X76812Y371062D01*
X76855Y371140D01*
X76901Y371216D01*
X76951Y371291D01*
X77004Y371363D01*
X77060Y371432D01*
X77119Y371499D01*
X77180Y371564D01*
X77245Y371625D01*
X77312Y371684D01*
X77381Y371740D01*
X77453Y371793D01*
X77528Y371843D01*
X77604Y371889D01*
X77682Y371932D01*
X77762Y371971D01*
X77844Y372007D01*
X77927Y372040D01*
X78012Y372068D01*
X78097Y372093D01*
X78184Y372115D01*
X78272Y372132D01*
X78360Y372145D01*
X78449Y372155D01*
X78538Y372161D01*
X78627Y372163D01*
X81901Y372163D01*
X81990Y372161D01*
X82079Y372155D01*
X82168Y372145D01*
X82256Y372132D01*
X82344Y372115D01*
X82431Y372093D01*
X82516Y372068D01*
X82601Y372040D01*
X82684Y372007D01*
X82766Y371971D01*
X82846Y371932D01*
X82924Y371889D01*
X83000Y371843D01*
X83075Y371793D01*
X83147Y371740D01*
X83216Y371684D01*
X83283Y371625D01*
X83348Y371564D01*
X83409Y371499D01*
X83468Y371432D01*
X83524Y371363D01*
X83577Y371291D01*
X83627Y371216D01*
X83673Y371140D01*
X83716Y371062D01*
X83755Y370982D01*
X83791Y370900D01*
X83824Y370817D01*
X83852Y370732D01*
X83877Y370647D01*
X83899Y370560D01*
X83916Y370472D01*
X83929Y370384D01*
X83939Y370295D01*
X83945Y370206D01*
X83947Y370117D01*
X83945Y370028D01*
X83939Y369939D01*
X83929Y369850D01*
X83916Y369762D01*
X83899Y369674D01*
X83877Y369587D01*
X83852Y369502D01*
X83824Y369417D01*
X83791Y369334D01*
X83755Y369252D01*
X83716Y369172D01*
X83673Y369094D01*
X83627Y369018D01*
X83577Y368943D01*
X83524Y368871D01*
X83468Y368802D01*
X83409Y368735D01*
X83348Y368670D01*
X83283Y368609D01*
X83216Y368550D01*
X83147Y368494D01*
X83075Y368441D01*
X83000Y368391D01*
X82924Y368345D01*
X82846Y368302D01*
X82766Y368263D01*
X82684Y368227D01*
X82601Y368194D01*
X82516Y368166D01*
X82431Y368141D01*
X82344Y368119D01*
X82256Y368102D01*
X82168Y368089D01*
X82079Y368079D01*
X81990Y368073D01*
X81901Y368071D01*
X83947Y375708D02*
X76581Y375708D01*
X80673Y378164D01*
X76581Y380619D01*
X83947Y380619D01*
D12*
X140208Y37592D02*
X140208Y25908D01*
X140208Y37592D02*
X143454Y37592D01*
X143567Y37590D01*
X143680Y37584D01*
X143793Y37574D01*
X143906Y37560D01*
X144018Y37543D01*
X144129Y37521D01*
X144239Y37496D01*
X144349Y37466D01*
X144457Y37433D01*
X144564Y37396D01*
X144670Y37356D01*
X144774Y37311D01*
X144877Y37263D01*
X144978Y37212D01*
X145077Y37157D01*
X145174Y37099D01*
X145269Y37037D01*
X145362Y36972D01*
X145452Y36904D01*
X145540Y36833D01*
X145626Y36758D01*
X145709Y36681D01*
X145789Y36601D01*
X145866Y36518D01*
X145941Y36432D01*
X146012Y36344D01*
X146080Y36254D01*
X146145Y36161D01*
X146207Y36066D01*
X146265Y35969D01*
X146320Y35870D01*
X146371Y35769D01*
X146419Y35666D01*
X146464Y35562D01*
X146504Y35456D01*
X146541Y35349D01*
X146574Y35241D01*
X146604Y35131D01*
X146629Y35021D01*
X146651Y34910D01*
X146668Y34798D01*
X146682Y34685D01*
X146692Y34572D01*
X146698Y34459D01*
X146700Y34346D01*
X146698Y34233D01*
X146692Y34120D01*
X146682Y34007D01*
X146668Y33894D01*
X146651Y33782D01*
X146629Y33671D01*
X146604Y33561D01*
X146574Y33451D01*
X146541Y33343D01*
X146504Y33236D01*
X146464Y33130D01*
X146419Y33026D01*
X146371Y32923D01*
X146320Y32822D01*
X146265Y32723D01*
X146207Y32626D01*
X146145Y32531D01*
X146080Y32438D01*
X146012Y32348D01*
X145941Y32260D01*
X145866Y32174D01*
X145789Y32091D01*
X145709Y32011D01*
X145626Y31934D01*
X145540Y31859D01*
X145452Y31788D01*
X145362Y31720D01*
X145269Y31655D01*
X145174Y31593D01*
X145077Y31535D01*
X144978Y31480D01*
X144877Y31429D01*
X144774Y31381D01*
X144670Y31336D01*
X144564Y31296D01*
X144457Y31259D01*
X144349Y31226D01*
X144239Y31196D01*
X144129Y31171D01*
X144018Y31149D01*
X143906Y31132D01*
X143793Y31118D01*
X143680Y31108D01*
X143567Y31102D01*
X143454Y31100D01*
X143454Y31101D02*
X140208Y31101D01*
X144103Y31101D02*
X146699Y25908D01*
X151564Y34996D02*
X154810Y37592D01*
X154810Y25908D01*
X158055Y25908D02*
X151564Y25908D01*
X165591Y31101D02*
X169485Y31101D01*
X165591Y31101D02*
X165492Y31103D01*
X165392Y31109D01*
X165293Y31118D01*
X165195Y31131D01*
X165097Y31148D01*
X164999Y31169D01*
X164903Y31194D01*
X164808Y31222D01*
X164714Y31254D01*
X164621Y31289D01*
X164529Y31328D01*
X164439Y31371D01*
X164351Y31416D01*
X164264Y31466D01*
X164180Y31518D01*
X164097Y31574D01*
X164017Y31632D01*
X163939Y31694D01*
X163864Y31759D01*
X163791Y31827D01*
X163721Y31897D01*
X163653Y31970D01*
X163588Y32045D01*
X163526Y32123D01*
X163468Y32203D01*
X163412Y32286D01*
X163360Y32370D01*
X163310Y32457D01*
X163265Y32545D01*
X163222Y32635D01*
X163183Y32727D01*
X163148Y32820D01*
X163116Y32914D01*
X163088Y33009D01*
X163063Y33105D01*
X163042Y33203D01*
X163025Y33301D01*
X163012Y33399D01*
X163003Y33498D01*
X162997Y33598D01*
X162995Y33697D01*
X162994Y33697D02*
X162994Y34346D01*
X162996Y34459D01*
X163002Y34572D01*
X163012Y34685D01*
X163026Y34798D01*
X163043Y34910D01*
X163065Y35021D01*
X163090Y35131D01*
X163120Y35241D01*
X163153Y35349D01*
X163190Y35456D01*
X163230Y35562D01*
X163275Y35666D01*
X163323Y35769D01*
X163374Y35870D01*
X163429Y35969D01*
X163487Y36066D01*
X163549Y36161D01*
X163614Y36254D01*
X163682Y36344D01*
X163753Y36432D01*
X163828Y36518D01*
X163905Y36601D01*
X163985Y36681D01*
X164068Y36758D01*
X164154Y36833D01*
X164242Y36904D01*
X164332Y36972D01*
X164425Y37037D01*
X164520Y37099D01*
X164617Y37157D01*
X164716Y37212D01*
X164817Y37263D01*
X164920Y37311D01*
X165024Y37356D01*
X165130Y37396D01*
X165237Y37433D01*
X165345Y37466D01*
X165455Y37496D01*
X165565Y37521D01*
X165676Y37543D01*
X165788Y37560D01*
X165901Y37574D01*
X166014Y37584D01*
X166127Y37590D01*
X166240Y37592D01*
X166353Y37590D01*
X166466Y37584D01*
X166579Y37574D01*
X166692Y37560D01*
X166804Y37543D01*
X166915Y37521D01*
X167025Y37496D01*
X167135Y37466D01*
X167243Y37433D01*
X167350Y37396D01*
X167456Y37356D01*
X167560Y37311D01*
X167663Y37263D01*
X167764Y37212D01*
X167863Y37157D01*
X167960Y37099D01*
X168055Y37037D01*
X168148Y36972D01*
X168238Y36904D01*
X168326Y36833D01*
X168412Y36758D01*
X168495Y36681D01*
X168575Y36601D01*
X168652Y36518D01*
X168727Y36432D01*
X168798Y36344D01*
X168866Y36254D01*
X168931Y36161D01*
X168993Y36066D01*
X169051Y35969D01*
X169106Y35870D01*
X169157Y35769D01*
X169205Y35666D01*
X169250Y35562D01*
X169290Y35456D01*
X169327Y35349D01*
X169360Y35241D01*
X169390Y35131D01*
X169415Y35021D01*
X169437Y34910D01*
X169454Y34798D01*
X169468Y34685D01*
X169478Y34572D01*
X169484Y34459D01*
X169486Y34346D01*
X169485Y34346D02*
X169485Y31101D01*
X169486Y31101D02*
X169484Y30958D01*
X169478Y30815D01*
X169468Y30672D01*
X169454Y30530D01*
X169437Y30388D01*
X169415Y30246D01*
X169390Y30105D01*
X169360Y29965D01*
X169327Y29826D01*
X169290Y29688D01*
X169249Y29551D01*
X169205Y29415D01*
X169156Y29280D01*
X169104Y29147D01*
X169049Y29015D01*
X168989Y28885D01*
X168926Y28756D01*
X168860Y28629D01*
X168790Y28504D01*
X168717Y28382D01*
X168640Y28261D01*
X168560Y28142D01*
X168477Y28026D01*
X168391Y27911D01*
X168302Y27800D01*
X168209Y27690D01*
X168114Y27584D01*
X168015Y27480D01*
X167914Y27379D01*
X167810Y27280D01*
X167704Y27185D01*
X167594Y27092D01*
X167483Y27003D01*
X167368Y26917D01*
X167252Y26834D01*
X167133Y26754D01*
X167012Y26677D01*
X166889Y26604D01*
X166765Y26534D01*
X166638Y26468D01*
X166509Y26405D01*
X166379Y26345D01*
X166247Y26290D01*
X166114Y26238D01*
X165979Y26189D01*
X165843Y26145D01*
X165706Y26104D01*
X165568Y26067D01*
X165429Y26034D01*
X165289Y26004D01*
X165148Y25979D01*
X165006Y25957D01*
X164864Y25940D01*
X164722Y25926D01*
X164579Y25916D01*
X164436Y25910D01*
X164293Y25908D01*
X222758Y51308D02*
X222758Y62992D01*
X226004Y62992D01*
X226117Y62990D01*
X226230Y62984D01*
X226343Y62974D01*
X226456Y62960D01*
X226568Y62943D01*
X226679Y62921D01*
X226789Y62896D01*
X226899Y62866D01*
X227007Y62833D01*
X227114Y62796D01*
X227220Y62756D01*
X227324Y62711D01*
X227427Y62663D01*
X227528Y62612D01*
X227627Y62557D01*
X227724Y62499D01*
X227819Y62437D01*
X227912Y62372D01*
X228002Y62304D01*
X228090Y62233D01*
X228176Y62158D01*
X228259Y62081D01*
X228339Y62001D01*
X228416Y61918D01*
X228491Y61832D01*
X228562Y61744D01*
X228630Y61654D01*
X228695Y61561D01*
X228757Y61466D01*
X228815Y61369D01*
X228870Y61270D01*
X228921Y61169D01*
X228969Y61066D01*
X229014Y60962D01*
X229054Y60856D01*
X229091Y60749D01*
X229124Y60641D01*
X229154Y60531D01*
X229179Y60421D01*
X229201Y60310D01*
X229218Y60198D01*
X229232Y60085D01*
X229242Y59972D01*
X229248Y59859D01*
X229250Y59746D01*
X229248Y59633D01*
X229242Y59520D01*
X229232Y59407D01*
X229218Y59294D01*
X229201Y59182D01*
X229179Y59071D01*
X229154Y58961D01*
X229124Y58851D01*
X229091Y58743D01*
X229054Y58636D01*
X229014Y58530D01*
X228969Y58426D01*
X228921Y58323D01*
X228870Y58222D01*
X228815Y58123D01*
X228757Y58026D01*
X228695Y57931D01*
X228630Y57838D01*
X228562Y57748D01*
X228491Y57660D01*
X228416Y57574D01*
X228339Y57491D01*
X228259Y57411D01*
X228176Y57334D01*
X228090Y57259D01*
X228002Y57188D01*
X227912Y57120D01*
X227819Y57055D01*
X227724Y56993D01*
X227627Y56935D01*
X227528Y56880D01*
X227427Y56829D01*
X227324Y56781D01*
X227220Y56736D01*
X227114Y56696D01*
X227007Y56659D01*
X226899Y56626D01*
X226789Y56596D01*
X226679Y56571D01*
X226568Y56549D01*
X226456Y56532D01*
X226343Y56518D01*
X226230Y56508D01*
X226117Y56502D01*
X226004Y56500D01*
X226004Y56501D02*
X222758Y56501D01*
X226653Y56501D02*
X229249Y51308D01*
X240605Y60071D02*
X240603Y60178D01*
X240597Y60284D01*
X240587Y60390D01*
X240574Y60496D01*
X240556Y60602D01*
X240535Y60706D01*
X240510Y60810D01*
X240481Y60913D01*
X240449Y61014D01*
X240412Y61114D01*
X240372Y61213D01*
X240329Y61311D01*
X240282Y61407D01*
X240231Y61501D01*
X240177Y61593D01*
X240120Y61683D01*
X240060Y61771D01*
X239996Y61856D01*
X239929Y61939D01*
X239859Y62020D01*
X239787Y62098D01*
X239711Y62174D01*
X239633Y62246D01*
X239552Y62316D01*
X239469Y62383D01*
X239384Y62447D01*
X239296Y62507D01*
X239206Y62564D01*
X239114Y62618D01*
X239020Y62669D01*
X238924Y62716D01*
X238826Y62759D01*
X238727Y62799D01*
X238627Y62836D01*
X238526Y62868D01*
X238423Y62897D01*
X238319Y62922D01*
X238215Y62943D01*
X238109Y62961D01*
X238003Y62974D01*
X237897Y62984D01*
X237791Y62990D01*
X237684Y62992D01*
X237563Y62990D01*
X237442Y62984D01*
X237322Y62974D01*
X237201Y62961D01*
X237082Y62943D01*
X236962Y62922D01*
X236844Y62897D01*
X236727Y62868D01*
X236610Y62835D01*
X236495Y62799D01*
X236381Y62758D01*
X236268Y62715D01*
X236156Y62667D01*
X236047Y62616D01*
X235939Y62561D01*
X235832Y62503D01*
X235728Y62442D01*
X235626Y62377D01*
X235526Y62309D01*
X235428Y62238D01*
X235332Y62164D01*
X235239Y62087D01*
X235149Y62006D01*
X235061Y61923D01*
X234976Y61837D01*
X234893Y61748D01*
X234814Y61657D01*
X234737Y61563D01*
X234664Y61467D01*
X234594Y61369D01*
X234527Y61268D01*
X234463Y61165D01*
X234403Y61060D01*
X234346Y60953D01*
X234292Y60845D01*
X234242Y60735D01*
X234196Y60623D01*
X234153Y60510D01*
X234114Y60395D01*
X239632Y57799D02*
X239711Y57876D01*
X239787Y57957D01*
X239860Y58040D01*
X239930Y58125D01*
X239997Y58213D01*
X240061Y58303D01*
X240121Y58395D01*
X240178Y58490D01*
X240232Y58586D01*
X240283Y58684D01*
X240330Y58784D01*
X240374Y58886D01*
X240414Y58989D01*
X240450Y59093D01*
X240482Y59199D01*
X240511Y59305D01*
X240536Y59413D01*
X240558Y59521D01*
X240575Y59631D01*
X240589Y59740D01*
X240598Y59850D01*
X240604Y59961D01*
X240606Y60071D01*
X239632Y57799D02*
X234114Y51308D01*
X240605Y51308D01*
X245545Y57150D02*
X245548Y57380D01*
X245556Y57610D01*
X245570Y57839D01*
X245589Y58068D01*
X245614Y58297D01*
X245644Y58524D01*
X245679Y58752D01*
X245720Y58978D01*
X245766Y59203D01*
X245818Y59427D01*
X245875Y59649D01*
X245937Y59871D01*
X246005Y60090D01*
X246078Y60308D01*
X246156Y60525D01*
X246239Y60739D01*
X246327Y60951D01*
X246420Y61161D01*
X246519Y61369D01*
X246518Y61369D02*
X246551Y61459D01*
X246587Y61548D01*
X246627Y61636D01*
X246671Y61721D01*
X246718Y61805D01*
X246768Y61887D01*
X246822Y61967D01*
X246878Y62044D01*
X246938Y62120D01*
X247001Y62193D01*
X247066Y62263D01*
X247135Y62331D01*
X247206Y62395D01*
X247279Y62457D01*
X247355Y62516D01*
X247433Y62572D01*
X247514Y62625D01*
X247596Y62674D01*
X247680Y62720D01*
X247767Y62763D01*
X247854Y62802D01*
X247944Y62838D01*
X248034Y62870D01*
X248126Y62898D01*
X248219Y62923D01*
X248313Y62944D01*
X248407Y62961D01*
X248502Y62975D01*
X248598Y62984D01*
X248694Y62990D01*
X248790Y62992D01*
X248886Y62990D01*
X248982Y62984D01*
X249078Y62975D01*
X249173Y62961D01*
X249267Y62944D01*
X249361Y62923D01*
X249454Y62898D01*
X249546Y62870D01*
X249636Y62838D01*
X249726Y62802D01*
X249813Y62763D01*
X249900Y62720D01*
X249984Y62674D01*
X250066Y62625D01*
X250147Y62572D01*
X250225Y62516D01*
X250301Y62457D01*
X250374Y62395D01*
X250445Y62331D01*
X250514Y62263D01*
X250579Y62193D01*
X250642Y62120D01*
X250702Y62044D01*
X250758Y61967D01*
X250812Y61887D01*
X250862Y61805D01*
X250909Y61721D01*
X250953Y61636D01*
X250993Y61548D01*
X251029Y61459D01*
X251062Y61369D01*
X251161Y61162D01*
X251254Y60952D01*
X251342Y60739D01*
X251425Y60525D01*
X251503Y60309D01*
X251576Y60091D01*
X251644Y59871D01*
X251706Y59650D01*
X251763Y59427D01*
X251815Y59203D01*
X251861Y58978D01*
X251902Y58752D01*
X251937Y58525D01*
X251967Y58297D01*
X251992Y58068D01*
X252011Y57839D01*
X252025Y57610D01*
X252033Y57380D01*
X252036Y57150D01*
X245544Y57150D02*
X245547Y56920D01*
X245555Y56690D01*
X245569Y56461D01*
X245588Y56232D01*
X245613Y56003D01*
X245643Y55775D01*
X245678Y55548D01*
X245719Y55322D01*
X245765Y55097D01*
X245817Y54873D01*
X245874Y54650D01*
X245936Y54429D01*
X246004Y54209D01*
X246077Y53991D01*
X246155Y53775D01*
X246238Y53561D01*
X246326Y53349D01*
X246419Y53138D01*
X246518Y52931D01*
X246551Y52841D01*
X246587Y52752D01*
X246628Y52664D01*
X246671Y52579D01*
X246718Y52495D01*
X246768Y52413D01*
X246822Y52333D01*
X246878Y52256D01*
X246938Y52180D01*
X247001Y52107D01*
X247066Y52037D01*
X247135Y51969D01*
X247206Y51905D01*
X247279Y51843D01*
X247355Y51784D01*
X247433Y51728D01*
X247514Y51675D01*
X247596Y51626D01*
X247680Y51580D01*
X247767Y51537D01*
X247854Y51498D01*
X247944Y51462D01*
X248034Y51430D01*
X248126Y51402D01*
X248219Y51377D01*
X248313Y51356D01*
X248407Y51339D01*
X248502Y51325D01*
X248598Y51316D01*
X248694Y51310D01*
X248790Y51308D01*
X251062Y52931D02*
X251161Y53138D01*
X251254Y53349D01*
X251342Y53561D01*
X251425Y53775D01*
X251503Y53991D01*
X251576Y54209D01*
X251644Y54429D01*
X251706Y54650D01*
X251763Y54873D01*
X251815Y55097D01*
X251861Y55322D01*
X251902Y55548D01*
X251937Y55775D01*
X251967Y56003D01*
X251992Y56232D01*
X252011Y56461D01*
X252025Y56690D01*
X252033Y56920D01*
X252036Y57150D01*
X251062Y52931D02*
X251029Y52841D01*
X250993Y52752D01*
X250953Y52664D01*
X250909Y52579D01*
X250862Y52495D01*
X250812Y52413D01*
X250758Y52333D01*
X250702Y52256D01*
X250642Y52180D01*
X250579Y52107D01*
X250514Y52037D01*
X250445Y51969D01*
X250374Y51905D01*
X250301Y51843D01*
X250225Y51784D01*
X250147Y51728D01*
X250066Y51675D01*
X249984Y51626D01*
X249900Y51580D01*
X249813Y51537D01*
X249726Y51498D01*
X249636Y51462D01*
X249546Y51430D01*
X249454Y51402D01*
X249361Y51377D01*
X249267Y51356D01*
X249173Y51339D01*
X249078Y51325D01*
X248982Y51316D01*
X248886Y51310D01*
X248790Y51308D01*
X246193Y53904D02*
X251386Y60396D01*
D11*
X152654Y128524D02*
X144526Y128524D01*
X152654Y128524D02*
X152654Y122936D01*
X152654Y100076D02*
X144526Y100076D01*
X152654Y100076D02*
X152654Y105664D01*
D12*
X133858Y94742D02*
X133858Y83058D01*
X133858Y94742D02*
X137104Y94742D01*
X137217Y94740D01*
X137330Y94734D01*
X137443Y94724D01*
X137556Y94710D01*
X137668Y94693D01*
X137779Y94671D01*
X137889Y94646D01*
X137999Y94616D01*
X138107Y94583D01*
X138214Y94546D01*
X138320Y94506D01*
X138424Y94461D01*
X138527Y94413D01*
X138628Y94362D01*
X138727Y94307D01*
X138824Y94249D01*
X138919Y94187D01*
X139012Y94122D01*
X139102Y94054D01*
X139190Y93983D01*
X139276Y93908D01*
X139359Y93831D01*
X139439Y93751D01*
X139516Y93668D01*
X139591Y93582D01*
X139662Y93494D01*
X139730Y93404D01*
X139795Y93311D01*
X139857Y93216D01*
X139915Y93119D01*
X139970Y93020D01*
X140021Y92919D01*
X140069Y92816D01*
X140114Y92712D01*
X140154Y92606D01*
X140191Y92499D01*
X140224Y92391D01*
X140254Y92281D01*
X140279Y92171D01*
X140301Y92060D01*
X140318Y91948D01*
X140332Y91835D01*
X140342Y91722D01*
X140348Y91609D01*
X140350Y91496D01*
X140349Y91496D02*
X140349Y86304D01*
X140350Y86304D02*
X140348Y86191D01*
X140342Y86078D01*
X140332Y85965D01*
X140318Y85852D01*
X140301Y85740D01*
X140279Y85629D01*
X140254Y85519D01*
X140224Y85409D01*
X140191Y85301D01*
X140154Y85194D01*
X140114Y85088D01*
X140069Y84984D01*
X140021Y84881D01*
X139970Y84780D01*
X139915Y84681D01*
X139857Y84584D01*
X139795Y84489D01*
X139730Y84396D01*
X139662Y84306D01*
X139591Y84218D01*
X139516Y84132D01*
X139439Y84049D01*
X139359Y83969D01*
X139276Y83892D01*
X139190Y83817D01*
X139102Y83746D01*
X139012Y83678D01*
X138919Y83613D01*
X138824Y83551D01*
X138727Y83493D01*
X138628Y83438D01*
X138527Y83387D01*
X138424Y83339D01*
X138320Y83294D01*
X138214Y83254D01*
X138107Y83217D01*
X137999Y83184D01*
X137889Y83154D01*
X137779Y83129D01*
X137668Y83107D01*
X137556Y83090D01*
X137443Y83076D01*
X137330Y83066D01*
X137217Y83060D01*
X137104Y83058D01*
X133858Y83058D01*
X149239Y94742D02*
X149346Y94740D01*
X149452Y94734D01*
X149558Y94724D01*
X149664Y94711D01*
X149770Y94693D01*
X149874Y94672D01*
X149978Y94647D01*
X150081Y94618D01*
X150182Y94586D01*
X150282Y94549D01*
X150381Y94509D01*
X150479Y94466D01*
X150575Y94419D01*
X150669Y94368D01*
X150761Y94314D01*
X150851Y94257D01*
X150939Y94197D01*
X151024Y94133D01*
X151107Y94066D01*
X151188Y93996D01*
X151266Y93924D01*
X151342Y93848D01*
X151414Y93770D01*
X151484Y93689D01*
X151551Y93606D01*
X151615Y93521D01*
X151675Y93433D01*
X151732Y93343D01*
X151786Y93251D01*
X151837Y93157D01*
X151884Y93061D01*
X151927Y92963D01*
X151967Y92864D01*
X152004Y92764D01*
X152036Y92663D01*
X152065Y92560D01*
X152090Y92456D01*
X152111Y92352D01*
X152129Y92246D01*
X152142Y92140D01*
X152152Y92034D01*
X152158Y91928D01*
X152160Y91821D01*
X149239Y94742D02*
X149118Y94740D01*
X148997Y94734D01*
X148877Y94724D01*
X148756Y94711D01*
X148637Y94693D01*
X148517Y94672D01*
X148399Y94647D01*
X148282Y94618D01*
X148165Y94585D01*
X148050Y94549D01*
X147936Y94508D01*
X147823Y94465D01*
X147711Y94417D01*
X147602Y94366D01*
X147494Y94311D01*
X147387Y94253D01*
X147283Y94192D01*
X147181Y94127D01*
X147081Y94059D01*
X146983Y93988D01*
X146887Y93914D01*
X146794Y93837D01*
X146704Y93756D01*
X146616Y93673D01*
X146531Y93587D01*
X146448Y93498D01*
X146369Y93407D01*
X146292Y93313D01*
X146219Y93217D01*
X146149Y93119D01*
X146082Y93018D01*
X146018Y92915D01*
X145958Y92810D01*
X145901Y92703D01*
X145847Y92595D01*
X145797Y92485D01*
X145751Y92373D01*
X145708Y92260D01*
X145669Y92145D01*
X151187Y89549D02*
X151266Y89626D01*
X151342Y89707D01*
X151415Y89790D01*
X151485Y89875D01*
X151552Y89963D01*
X151616Y90053D01*
X151676Y90145D01*
X151733Y90240D01*
X151787Y90336D01*
X151838Y90434D01*
X151885Y90534D01*
X151929Y90636D01*
X151969Y90739D01*
X152005Y90843D01*
X152037Y90949D01*
X152066Y91055D01*
X152091Y91163D01*
X152113Y91271D01*
X152130Y91381D01*
X152144Y91490D01*
X152153Y91600D01*
X152159Y91711D01*
X152161Y91821D01*
X151186Y89549D02*
X145669Y83058D01*
X152160Y83058D01*
D11*
X208026Y115824D02*
X216154Y115824D01*
X216154Y110236D01*
X216154Y87376D02*
X208026Y87376D01*
X216154Y87376D02*
X216154Y92964D01*
D12*
X197358Y82042D02*
X197358Y70358D01*
X197358Y82042D02*
X200604Y82042D01*
X200717Y82040D01*
X200830Y82034D01*
X200943Y82024D01*
X201056Y82010D01*
X201168Y81993D01*
X201279Y81971D01*
X201389Y81946D01*
X201499Y81916D01*
X201607Y81883D01*
X201714Y81846D01*
X201820Y81806D01*
X201924Y81761D01*
X202027Y81713D01*
X202128Y81662D01*
X202227Y81607D01*
X202324Y81549D01*
X202419Y81487D01*
X202512Y81422D01*
X202602Y81354D01*
X202690Y81283D01*
X202776Y81208D01*
X202859Y81131D01*
X202939Y81051D01*
X203016Y80968D01*
X203091Y80882D01*
X203162Y80794D01*
X203230Y80704D01*
X203295Y80611D01*
X203357Y80516D01*
X203415Y80419D01*
X203470Y80320D01*
X203521Y80219D01*
X203569Y80116D01*
X203614Y80012D01*
X203654Y79906D01*
X203691Y79799D01*
X203724Y79691D01*
X203754Y79581D01*
X203779Y79471D01*
X203801Y79360D01*
X203818Y79248D01*
X203832Y79135D01*
X203842Y79022D01*
X203848Y78909D01*
X203850Y78796D01*
X203849Y78796D02*
X203849Y73604D01*
X203850Y73604D02*
X203848Y73491D01*
X203842Y73378D01*
X203832Y73265D01*
X203818Y73152D01*
X203801Y73040D01*
X203779Y72929D01*
X203754Y72819D01*
X203724Y72709D01*
X203691Y72601D01*
X203654Y72494D01*
X203614Y72388D01*
X203569Y72284D01*
X203521Y72181D01*
X203470Y72080D01*
X203415Y71981D01*
X203357Y71884D01*
X203295Y71789D01*
X203230Y71696D01*
X203162Y71606D01*
X203091Y71518D01*
X203016Y71432D01*
X202939Y71349D01*
X202859Y71269D01*
X202776Y71192D01*
X202690Y71117D01*
X202602Y71046D01*
X202512Y70978D01*
X202419Y70913D01*
X202324Y70851D01*
X202227Y70793D01*
X202128Y70738D01*
X202027Y70687D01*
X201924Y70639D01*
X201820Y70594D01*
X201714Y70554D01*
X201607Y70517D01*
X201499Y70484D01*
X201389Y70454D01*
X201279Y70429D01*
X201168Y70407D01*
X201056Y70390D01*
X200943Y70376D01*
X200830Y70366D01*
X200717Y70360D01*
X200604Y70358D01*
X197358Y70358D01*
X209169Y70358D02*
X212415Y70358D01*
X212528Y70360D01*
X212641Y70366D01*
X212754Y70376D01*
X212867Y70390D01*
X212979Y70407D01*
X213090Y70429D01*
X213200Y70454D01*
X213310Y70484D01*
X213418Y70517D01*
X213525Y70554D01*
X213631Y70594D01*
X213735Y70639D01*
X213838Y70687D01*
X213939Y70738D01*
X214038Y70793D01*
X214135Y70851D01*
X214230Y70913D01*
X214323Y70978D01*
X214413Y71046D01*
X214501Y71117D01*
X214587Y71192D01*
X214670Y71269D01*
X214750Y71349D01*
X214827Y71432D01*
X214902Y71518D01*
X214973Y71606D01*
X215041Y71696D01*
X215106Y71789D01*
X215168Y71884D01*
X215226Y71981D01*
X215281Y72080D01*
X215332Y72181D01*
X215380Y72284D01*
X215425Y72388D01*
X215465Y72494D01*
X215502Y72601D01*
X215535Y72709D01*
X215565Y72819D01*
X215590Y72929D01*
X215612Y73040D01*
X215629Y73152D01*
X215643Y73265D01*
X215653Y73378D01*
X215659Y73491D01*
X215661Y73604D01*
X215659Y73717D01*
X215653Y73830D01*
X215643Y73943D01*
X215629Y74056D01*
X215612Y74168D01*
X215590Y74279D01*
X215565Y74389D01*
X215535Y74499D01*
X215502Y74607D01*
X215465Y74714D01*
X215425Y74820D01*
X215380Y74924D01*
X215332Y75027D01*
X215281Y75128D01*
X215226Y75227D01*
X215168Y75324D01*
X215106Y75419D01*
X215041Y75512D01*
X214973Y75602D01*
X214902Y75690D01*
X214827Y75776D01*
X214750Y75859D01*
X214670Y75939D01*
X214587Y76016D01*
X214501Y76091D01*
X214413Y76162D01*
X214323Y76230D01*
X214230Y76295D01*
X214135Y76357D01*
X214038Y76415D01*
X213939Y76470D01*
X213838Y76521D01*
X213735Y76569D01*
X213631Y76614D01*
X213525Y76654D01*
X213418Y76691D01*
X213310Y76724D01*
X213200Y76754D01*
X213090Y76779D01*
X212979Y76801D01*
X212867Y76818D01*
X212754Y76832D01*
X212641Y76842D01*
X212528Y76848D01*
X212415Y76850D01*
X213064Y82042D02*
X209169Y82042D01*
X213064Y82042D02*
X213165Y82040D01*
X213265Y82034D01*
X213365Y82024D01*
X213465Y82011D01*
X213564Y81993D01*
X213663Y81972D01*
X213760Y81947D01*
X213857Y81918D01*
X213952Y81885D01*
X214046Y81849D01*
X214138Y81809D01*
X214229Y81766D01*
X214318Y81719D01*
X214405Y81669D01*
X214491Y81615D01*
X214574Y81558D01*
X214654Y81498D01*
X214733Y81435D01*
X214809Y81368D01*
X214882Y81299D01*
X214952Y81227D01*
X215020Y81153D01*
X215085Y81076D01*
X215146Y80996D01*
X215205Y80914D01*
X215260Y80830D01*
X215312Y80744D01*
X215361Y80656D01*
X215406Y80566D01*
X215448Y80474D01*
X215486Y80381D01*
X215520Y80286D01*
X215551Y80191D01*
X215578Y80094D01*
X215601Y79996D01*
X215621Y79897D01*
X215636Y79797D01*
X215648Y79697D01*
X215656Y79597D01*
X215660Y79496D01*
X215660Y79396D01*
X215656Y79295D01*
X215648Y79195D01*
X215636Y79095D01*
X215621Y78995D01*
X215601Y78896D01*
X215578Y78798D01*
X215551Y78701D01*
X215520Y78606D01*
X215486Y78511D01*
X215448Y78418D01*
X215406Y78326D01*
X215361Y78236D01*
X215312Y78148D01*
X215260Y78062D01*
X215205Y77978D01*
X215146Y77896D01*
X215085Y77816D01*
X215020Y77739D01*
X214952Y77665D01*
X214882Y77593D01*
X214809Y77524D01*
X214733Y77457D01*
X214654Y77394D01*
X214574Y77334D01*
X214491Y77277D01*
X214405Y77223D01*
X214318Y77173D01*
X214229Y77126D01*
X214138Y77083D01*
X214046Y77043D01*
X213952Y77007D01*
X213857Y76974D01*
X213760Y76945D01*
X213663Y76920D01*
X213564Y76899D01*
X213465Y76881D01*
X213365Y76868D01*
X213265Y76858D01*
X213165Y76852D01*
X213064Y76850D01*
X213064Y76849D02*
X210467Y76849D01*
X279908Y400558D02*
X279908Y412242D01*
X283154Y412242D01*
X283267Y412240D01*
X283380Y412234D01*
X283493Y412224D01*
X283606Y412210D01*
X283718Y412193D01*
X283829Y412171D01*
X283939Y412146D01*
X284049Y412116D01*
X284157Y412083D01*
X284264Y412046D01*
X284370Y412006D01*
X284474Y411961D01*
X284577Y411913D01*
X284678Y411862D01*
X284777Y411807D01*
X284874Y411749D01*
X284969Y411687D01*
X285062Y411622D01*
X285152Y411554D01*
X285240Y411483D01*
X285326Y411408D01*
X285409Y411331D01*
X285489Y411251D01*
X285566Y411168D01*
X285641Y411082D01*
X285712Y410994D01*
X285780Y410904D01*
X285845Y410811D01*
X285907Y410716D01*
X285965Y410619D01*
X286020Y410520D01*
X286071Y410419D01*
X286119Y410316D01*
X286164Y410212D01*
X286204Y410106D01*
X286241Y409999D01*
X286274Y409891D01*
X286304Y409781D01*
X286329Y409671D01*
X286351Y409560D01*
X286368Y409448D01*
X286382Y409335D01*
X286392Y409222D01*
X286398Y409109D01*
X286400Y408996D01*
X286398Y408883D01*
X286392Y408770D01*
X286382Y408657D01*
X286368Y408544D01*
X286351Y408432D01*
X286329Y408321D01*
X286304Y408211D01*
X286274Y408101D01*
X286241Y407993D01*
X286204Y407886D01*
X286164Y407780D01*
X286119Y407676D01*
X286071Y407573D01*
X286020Y407472D01*
X285965Y407373D01*
X285907Y407276D01*
X285845Y407181D01*
X285780Y407088D01*
X285712Y406998D01*
X285641Y406910D01*
X285566Y406824D01*
X285489Y406741D01*
X285409Y406661D01*
X285326Y406584D01*
X285240Y406509D01*
X285152Y406438D01*
X285062Y406370D01*
X284969Y406305D01*
X284874Y406243D01*
X284777Y406185D01*
X284678Y406130D01*
X284577Y406079D01*
X284474Y406031D01*
X284370Y405986D01*
X284264Y405946D01*
X284157Y405909D01*
X284049Y405876D01*
X283939Y405846D01*
X283829Y405821D01*
X283718Y405799D01*
X283606Y405782D01*
X283493Y405768D01*
X283380Y405758D01*
X283267Y405752D01*
X283154Y405750D01*
X283154Y405751D02*
X279908Y405751D01*
X283803Y405751D02*
X286399Y400558D01*
X291264Y409646D02*
X294510Y412242D01*
X294510Y400558D01*
X297755Y400558D02*
X291264Y400558D01*
X279908Y234442D02*
X279908Y222758D01*
X279908Y234442D02*
X283154Y234442D01*
X283267Y234440D01*
X283380Y234434D01*
X283493Y234424D01*
X283606Y234410D01*
X283718Y234393D01*
X283829Y234371D01*
X283939Y234346D01*
X284049Y234316D01*
X284157Y234283D01*
X284264Y234246D01*
X284370Y234206D01*
X284474Y234161D01*
X284577Y234113D01*
X284678Y234062D01*
X284777Y234007D01*
X284874Y233949D01*
X284969Y233887D01*
X285062Y233822D01*
X285152Y233754D01*
X285240Y233683D01*
X285326Y233608D01*
X285409Y233531D01*
X285489Y233451D01*
X285566Y233368D01*
X285641Y233282D01*
X285712Y233194D01*
X285780Y233104D01*
X285845Y233011D01*
X285907Y232916D01*
X285965Y232819D01*
X286020Y232720D01*
X286071Y232619D01*
X286119Y232516D01*
X286164Y232412D01*
X286204Y232306D01*
X286241Y232199D01*
X286274Y232091D01*
X286304Y231981D01*
X286329Y231871D01*
X286351Y231760D01*
X286368Y231648D01*
X286382Y231535D01*
X286392Y231422D01*
X286398Y231309D01*
X286400Y231196D01*
X286398Y231083D01*
X286392Y230970D01*
X286382Y230857D01*
X286368Y230744D01*
X286351Y230632D01*
X286329Y230521D01*
X286304Y230411D01*
X286274Y230301D01*
X286241Y230193D01*
X286204Y230086D01*
X286164Y229980D01*
X286119Y229876D01*
X286071Y229773D01*
X286020Y229672D01*
X285965Y229573D01*
X285907Y229476D01*
X285845Y229381D01*
X285780Y229288D01*
X285712Y229198D01*
X285641Y229110D01*
X285566Y229024D01*
X285489Y228941D01*
X285409Y228861D01*
X285326Y228784D01*
X285240Y228709D01*
X285152Y228638D01*
X285062Y228570D01*
X284969Y228505D01*
X284874Y228443D01*
X284777Y228385D01*
X284678Y228330D01*
X284577Y228279D01*
X284474Y228231D01*
X284370Y228186D01*
X284264Y228146D01*
X284157Y228109D01*
X284049Y228076D01*
X283939Y228046D01*
X283829Y228021D01*
X283718Y227999D01*
X283606Y227982D01*
X283493Y227968D01*
X283380Y227958D01*
X283267Y227952D01*
X283154Y227950D01*
X283154Y227951D02*
X279908Y227951D01*
X283803Y227951D02*
X286399Y222758D01*
X291264Y231846D02*
X294510Y234442D01*
X294510Y222758D01*
X297755Y222758D02*
X291264Y222758D01*
X302695Y228600D02*
X302698Y228830D01*
X302706Y229060D01*
X302720Y229289D01*
X302739Y229518D01*
X302764Y229747D01*
X302794Y229974D01*
X302829Y230202D01*
X302870Y230428D01*
X302916Y230653D01*
X302968Y230877D01*
X303025Y231099D01*
X303087Y231321D01*
X303155Y231540D01*
X303228Y231758D01*
X303306Y231975D01*
X303389Y232189D01*
X303477Y232401D01*
X303570Y232611D01*
X303669Y232819D01*
X303668Y232819D02*
X303701Y232909D01*
X303737Y232998D01*
X303777Y233086D01*
X303821Y233171D01*
X303868Y233255D01*
X303918Y233337D01*
X303972Y233417D01*
X304028Y233494D01*
X304088Y233570D01*
X304151Y233643D01*
X304216Y233713D01*
X304285Y233781D01*
X304356Y233845D01*
X304429Y233907D01*
X304505Y233966D01*
X304583Y234022D01*
X304664Y234075D01*
X304746Y234124D01*
X304830Y234170D01*
X304917Y234213D01*
X305004Y234252D01*
X305094Y234288D01*
X305184Y234320D01*
X305276Y234348D01*
X305369Y234373D01*
X305463Y234394D01*
X305557Y234411D01*
X305652Y234425D01*
X305748Y234434D01*
X305844Y234440D01*
X305940Y234442D01*
X306036Y234440D01*
X306132Y234434D01*
X306228Y234425D01*
X306323Y234411D01*
X306417Y234394D01*
X306511Y234373D01*
X306604Y234348D01*
X306696Y234320D01*
X306786Y234288D01*
X306876Y234252D01*
X306963Y234213D01*
X307050Y234170D01*
X307134Y234124D01*
X307216Y234075D01*
X307297Y234022D01*
X307375Y233966D01*
X307451Y233907D01*
X307524Y233845D01*
X307595Y233781D01*
X307664Y233713D01*
X307729Y233643D01*
X307792Y233570D01*
X307852Y233494D01*
X307908Y233417D01*
X307962Y233337D01*
X308012Y233255D01*
X308059Y233171D01*
X308103Y233086D01*
X308143Y232998D01*
X308179Y232909D01*
X308212Y232819D01*
X308311Y232612D01*
X308404Y232402D01*
X308492Y232189D01*
X308575Y231975D01*
X308653Y231759D01*
X308726Y231541D01*
X308794Y231321D01*
X308856Y231100D01*
X308913Y230877D01*
X308965Y230653D01*
X309011Y230428D01*
X309052Y230202D01*
X309087Y229975D01*
X309117Y229747D01*
X309142Y229518D01*
X309161Y229289D01*
X309175Y229060D01*
X309183Y228830D01*
X309186Y228600D01*
X302694Y228600D02*
X302697Y228370D01*
X302705Y228140D01*
X302719Y227911D01*
X302738Y227682D01*
X302763Y227453D01*
X302793Y227225D01*
X302828Y226998D01*
X302869Y226772D01*
X302915Y226547D01*
X302967Y226323D01*
X303024Y226100D01*
X303086Y225879D01*
X303154Y225659D01*
X303227Y225441D01*
X303305Y225225D01*
X303388Y225011D01*
X303476Y224799D01*
X303569Y224588D01*
X303668Y224381D01*
X303701Y224291D01*
X303737Y224202D01*
X303778Y224114D01*
X303821Y224029D01*
X303868Y223945D01*
X303918Y223863D01*
X303972Y223783D01*
X304028Y223706D01*
X304088Y223630D01*
X304151Y223557D01*
X304216Y223487D01*
X304285Y223419D01*
X304356Y223355D01*
X304429Y223293D01*
X304505Y223234D01*
X304583Y223178D01*
X304664Y223125D01*
X304746Y223076D01*
X304830Y223030D01*
X304917Y222987D01*
X305004Y222948D01*
X305094Y222912D01*
X305184Y222880D01*
X305276Y222852D01*
X305369Y222827D01*
X305463Y222806D01*
X305557Y222789D01*
X305652Y222775D01*
X305748Y222766D01*
X305844Y222760D01*
X305940Y222758D01*
X308212Y224381D02*
X308311Y224588D01*
X308404Y224799D01*
X308492Y225011D01*
X308575Y225225D01*
X308653Y225441D01*
X308726Y225659D01*
X308794Y225879D01*
X308856Y226100D01*
X308913Y226323D01*
X308965Y226547D01*
X309011Y226772D01*
X309052Y226998D01*
X309087Y227225D01*
X309117Y227453D01*
X309142Y227682D01*
X309161Y227911D01*
X309175Y228140D01*
X309183Y228370D01*
X309186Y228600D01*
X308212Y224381D02*
X308179Y224291D01*
X308143Y224202D01*
X308103Y224114D01*
X308059Y224029D01*
X308012Y223945D01*
X307962Y223863D01*
X307908Y223783D01*
X307852Y223706D01*
X307792Y223630D01*
X307729Y223557D01*
X307664Y223487D01*
X307595Y223419D01*
X307524Y223355D01*
X307451Y223293D01*
X307375Y223234D01*
X307297Y223178D01*
X307216Y223125D01*
X307134Y223076D01*
X307050Y223030D01*
X306963Y222987D01*
X306876Y222948D01*
X306786Y222912D01*
X306696Y222880D01*
X306604Y222852D01*
X306511Y222827D01*
X306417Y222806D01*
X306323Y222789D01*
X306228Y222775D01*
X306132Y222766D01*
X306036Y222760D01*
X305940Y222758D01*
X303343Y225354D02*
X308536Y231846D01*
X267208Y56642D02*
X267208Y44958D01*
X267208Y56642D02*
X270454Y56642D01*
X270567Y56640D01*
X270680Y56634D01*
X270793Y56624D01*
X270906Y56610D01*
X271018Y56593D01*
X271129Y56571D01*
X271239Y56546D01*
X271349Y56516D01*
X271457Y56483D01*
X271564Y56446D01*
X271670Y56406D01*
X271774Y56361D01*
X271877Y56313D01*
X271978Y56262D01*
X272077Y56207D01*
X272174Y56149D01*
X272269Y56087D01*
X272362Y56022D01*
X272452Y55954D01*
X272540Y55883D01*
X272626Y55808D01*
X272709Y55731D01*
X272789Y55651D01*
X272866Y55568D01*
X272941Y55482D01*
X273012Y55394D01*
X273080Y55304D01*
X273145Y55211D01*
X273207Y55116D01*
X273265Y55019D01*
X273320Y54920D01*
X273371Y54819D01*
X273419Y54716D01*
X273464Y54612D01*
X273504Y54506D01*
X273541Y54399D01*
X273574Y54291D01*
X273604Y54181D01*
X273629Y54071D01*
X273651Y53960D01*
X273668Y53848D01*
X273682Y53735D01*
X273692Y53622D01*
X273698Y53509D01*
X273700Y53396D01*
X273698Y53283D01*
X273692Y53170D01*
X273682Y53057D01*
X273668Y52944D01*
X273651Y52832D01*
X273629Y52721D01*
X273604Y52611D01*
X273574Y52501D01*
X273541Y52393D01*
X273504Y52286D01*
X273464Y52180D01*
X273419Y52076D01*
X273371Y51973D01*
X273320Y51872D01*
X273265Y51773D01*
X273207Y51676D01*
X273145Y51581D01*
X273080Y51488D01*
X273012Y51398D01*
X272941Y51310D01*
X272866Y51224D01*
X272789Y51141D01*
X272709Y51061D01*
X272626Y50984D01*
X272540Y50909D01*
X272452Y50838D01*
X272362Y50770D01*
X272269Y50705D01*
X272174Y50643D01*
X272077Y50585D01*
X271978Y50530D01*
X271877Y50479D01*
X271774Y50431D01*
X271670Y50386D01*
X271564Y50346D01*
X271457Y50309D01*
X271349Y50276D01*
X271239Y50246D01*
X271129Y50221D01*
X271018Y50199D01*
X270906Y50182D01*
X270793Y50168D01*
X270680Y50158D01*
X270567Y50152D01*
X270454Y50150D01*
X270454Y50151D02*
X267208Y50151D01*
X271103Y50151D02*
X273699Y44958D01*
X278564Y54046D02*
X281810Y56642D01*
X281810Y44958D01*
X285055Y44958D02*
X278564Y44958D01*
X289994Y54046D02*
X293240Y56642D01*
X293240Y44958D01*
X296485Y44958D02*
X289994Y44958D01*
X108458Y127508D02*
X108458Y139192D01*
X111704Y139192D01*
X111817Y139190D01*
X111930Y139184D01*
X112043Y139174D01*
X112156Y139160D01*
X112268Y139143D01*
X112379Y139121D01*
X112489Y139096D01*
X112599Y139066D01*
X112707Y139033D01*
X112814Y138996D01*
X112920Y138956D01*
X113024Y138911D01*
X113127Y138863D01*
X113228Y138812D01*
X113327Y138757D01*
X113424Y138699D01*
X113519Y138637D01*
X113612Y138572D01*
X113702Y138504D01*
X113790Y138433D01*
X113876Y138358D01*
X113959Y138281D01*
X114039Y138201D01*
X114116Y138118D01*
X114191Y138032D01*
X114262Y137944D01*
X114330Y137854D01*
X114395Y137761D01*
X114457Y137666D01*
X114515Y137569D01*
X114570Y137470D01*
X114621Y137369D01*
X114669Y137266D01*
X114714Y137162D01*
X114754Y137056D01*
X114791Y136949D01*
X114824Y136841D01*
X114854Y136731D01*
X114879Y136621D01*
X114901Y136510D01*
X114918Y136398D01*
X114932Y136285D01*
X114942Y136172D01*
X114948Y136059D01*
X114950Y135946D01*
X114948Y135833D01*
X114942Y135720D01*
X114932Y135607D01*
X114918Y135494D01*
X114901Y135382D01*
X114879Y135271D01*
X114854Y135161D01*
X114824Y135051D01*
X114791Y134943D01*
X114754Y134836D01*
X114714Y134730D01*
X114669Y134626D01*
X114621Y134523D01*
X114570Y134422D01*
X114515Y134323D01*
X114457Y134226D01*
X114395Y134131D01*
X114330Y134038D01*
X114262Y133948D01*
X114191Y133860D01*
X114116Y133774D01*
X114039Y133691D01*
X113959Y133611D01*
X113876Y133534D01*
X113790Y133459D01*
X113702Y133388D01*
X113612Y133320D01*
X113519Y133255D01*
X113424Y133193D01*
X113327Y133135D01*
X113228Y133080D01*
X113127Y133029D01*
X113024Y132981D01*
X112920Y132936D01*
X112814Y132896D01*
X112707Y132859D01*
X112599Y132826D01*
X112489Y132796D01*
X112379Y132771D01*
X112268Y132749D01*
X112156Y132732D01*
X112043Y132718D01*
X111930Y132708D01*
X111817Y132702D01*
X111704Y132700D01*
X111704Y132701D02*
X108458Y132701D01*
X112353Y132701D02*
X114949Y127508D01*
X119814Y136596D02*
X123060Y139192D01*
X123060Y127508D01*
X126305Y127508D02*
X119814Y127508D01*
X134814Y139192D02*
X134921Y139190D01*
X135027Y139184D01*
X135133Y139174D01*
X135239Y139161D01*
X135345Y139143D01*
X135449Y139122D01*
X135553Y139097D01*
X135656Y139068D01*
X135757Y139036D01*
X135857Y138999D01*
X135956Y138959D01*
X136054Y138916D01*
X136150Y138869D01*
X136244Y138818D01*
X136336Y138764D01*
X136426Y138707D01*
X136514Y138647D01*
X136599Y138583D01*
X136682Y138516D01*
X136763Y138446D01*
X136841Y138374D01*
X136917Y138298D01*
X136989Y138220D01*
X137059Y138139D01*
X137126Y138056D01*
X137190Y137971D01*
X137250Y137883D01*
X137307Y137793D01*
X137361Y137701D01*
X137412Y137607D01*
X137459Y137511D01*
X137502Y137413D01*
X137542Y137314D01*
X137579Y137214D01*
X137611Y137113D01*
X137640Y137010D01*
X137665Y136906D01*
X137686Y136802D01*
X137704Y136696D01*
X137717Y136590D01*
X137727Y136484D01*
X137733Y136378D01*
X137735Y136271D01*
X134814Y139192D02*
X134693Y139190D01*
X134572Y139184D01*
X134452Y139174D01*
X134331Y139161D01*
X134212Y139143D01*
X134092Y139122D01*
X133974Y139097D01*
X133857Y139068D01*
X133740Y139035D01*
X133625Y138999D01*
X133511Y138958D01*
X133398Y138915D01*
X133286Y138867D01*
X133177Y138816D01*
X133069Y138761D01*
X132962Y138703D01*
X132858Y138642D01*
X132756Y138577D01*
X132656Y138509D01*
X132558Y138438D01*
X132462Y138364D01*
X132369Y138287D01*
X132279Y138206D01*
X132191Y138123D01*
X132106Y138037D01*
X132023Y137948D01*
X131944Y137857D01*
X131867Y137763D01*
X131794Y137667D01*
X131724Y137569D01*
X131657Y137468D01*
X131593Y137365D01*
X131533Y137260D01*
X131476Y137153D01*
X131422Y137045D01*
X131372Y136935D01*
X131326Y136823D01*
X131283Y136710D01*
X131244Y136595D01*
X136762Y133999D02*
X136841Y134076D01*
X136917Y134157D01*
X136990Y134240D01*
X137060Y134325D01*
X137127Y134413D01*
X137191Y134503D01*
X137251Y134595D01*
X137308Y134690D01*
X137362Y134786D01*
X137413Y134884D01*
X137460Y134984D01*
X137504Y135086D01*
X137544Y135189D01*
X137580Y135293D01*
X137612Y135399D01*
X137641Y135505D01*
X137666Y135613D01*
X137688Y135721D01*
X137705Y135831D01*
X137719Y135940D01*
X137728Y136050D01*
X137734Y136161D01*
X137736Y136271D01*
X136762Y133999D02*
X131244Y127508D01*
X137735Y127508D01*
X108458Y241808D02*
X108458Y253492D01*
X111704Y253492D01*
X111817Y253490D01*
X111930Y253484D01*
X112043Y253474D01*
X112156Y253460D01*
X112268Y253443D01*
X112379Y253421D01*
X112489Y253396D01*
X112599Y253366D01*
X112707Y253333D01*
X112814Y253296D01*
X112920Y253256D01*
X113024Y253211D01*
X113127Y253163D01*
X113228Y253112D01*
X113327Y253057D01*
X113424Y252999D01*
X113519Y252937D01*
X113612Y252872D01*
X113702Y252804D01*
X113790Y252733D01*
X113876Y252658D01*
X113959Y252581D01*
X114039Y252501D01*
X114116Y252418D01*
X114191Y252332D01*
X114262Y252244D01*
X114330Y252154D01*
X114395Y252061D01*
X114457Y251966D01*
X114515Y251869D01*
X114570Y251770D01*
X114621Y251669D01*
X114669Y251566D01*
X114714Y251462D01*
X114754Y251356D01*
X114791Y251249D01*
X114824Y251141D01*
X114854Y251031D01*
X114879Y250921D01*
X114901Y250810D01*
X114918Y250698D01*
X114932Y250585D01*
X114942Y250472D01*
X114948Y250359D01*
X114950Y250246D01*
X114948Y250133D01*
X114942Y250020D01*
X114932Y249907D01*
X114918Y249794D01*
X114901Y249682D01*
X114879Y249571D01*
X114854Y249461D01*
X114824Y249351D01*
X114791Y249243D01*
X114754Y249136D01*
X114714Y249030D01*
X114669Y248926D01*
X114621Y248823D01*
X114570Y248722D01*
X114515Y248623D01*
X114457Y248526D01*
X114395Y248431D01*
X114330Y248338D01*
X114262Y248248D01*
X114191Y248160D01*
X114116Y248074D01*
X114039Y247991D01*
X113959Y247911D01*
X113876Y247834D01*
X113790Y247759D01*
X113702Y247688D01*
X113612Y247620D01*
X113519Y247555D01*
X113424Y247493D01*
X113327Y247435D01*
X113228Y247380D01*
X113127Y247329D01*
X113024Y247281D01*
X112920Y247236D01*
X112814Y247196D01*
X112707Y247159D01*
X112599Y247126D01*
X112489Y247096D01*
X112379Y247071D01*
X112268Y247049D01*
X112156Y247032D01*
X112043Y247018D01*
X111930Y247008D01*
X111817Y247002D01*
X111704Y247000D01*
X111704Y247001D02*
X108458Y247001D01*
X112353Y247001D02*
X114949Y241808D01*
X119814Y250896D02*
X123060Y253492D01*
X123060Y241808D01*
X126305Y241808D02*
X119814Y241808D01*
X131244Y241808D02*
X134490Y241808D01*
X134603Y241810D01*
X134716Y241816D01*
X134829Y241826D01*
X134942Y241840D01*
X135054Y241857D01*
X135165Y241879D01*
X135275Y241904D01*
X135385Y241934D01*
X135493Y241967D01*
X135600Y242004D01*
X135706Y242044D01*
X135810Y242089D01*
X135913Y242137D01*
X136014Y242188D01*
X136113Y242243D01*
X136210Y242301D01*
X136305Y242363D01*
X136398Y242428D01*
X136488Y242496D01*
X136576Y242567D01*
X136662Y242642D01*
X136745Y242719D01*
X136825Y242799D01*
X136902Y242882D01*
X136977Y242968D01*
X137048Y243056D01*
X137116Y243146D01*
X137181Y243239D01*
X137243Y243334D01*
X137301Y243431D01*
X137356Y243530D01*
X137407Y243631D01*
X137455Y243734D01*
X137500Y243838D01*
X137540Y243944D01*
X137577Y244051D01*
X137610Y244159D01*
X137640Y244269D01*
X137665Y244379D01*
X137687Y244490D01*
X137704Y244602D01*
X137718Y244715D01*
X137728Y244828D01*
X137734Y244941D01*
X137736Y245054D01*
X137734Y245167D01*
X137728Y245280D01*
X137718Y245393D01*
X137704Y245506D01*
X137687Y245618D01*
X137665Y245729D01*
X137640Y245839D01*
X137610Y245949D01*
X137577Y246057D01*
X137540Y246164D01*
X137500Y246270D01*
X137455Y246374D01*
X137407Y246477D01*
X137356Y246578D01*
X137301Y246677D01*
X137243Y246774D01*
X137181Y246869D01*
X137116Y246962D01*
X137048Y247052D01*
X136977Y247140D01*
X136902Y247226D01*
X136825Y247309D01*
X136745Y247389D01*
X136662Y247466D01*
X136576Y247541D01*
X136488Y247612D01*
X136398Y247680D01*
X136305Y247745D01*
X136210Y247807D01*
X136113Y247865D01*
X136014Y247920D01*
X135913Y247971D01*
X135810Y248019D01*
X135706Y248064D01*
X135600Y248104D01*
X135493Y248141D01*
X135385Y248174D01*
X135275Y248204D01*
X135165Y248229D01*
X135054Y248251D01*
X134942Y248268D01*
X134829Y248282D01*
X134716Y248292D01*
X134603Y248298D01*
X134490Y248300D01*
X135139Y253492D02*
X131244Y253492D01*
X135139Y253492D02*
X135240Y253490D01*
X135340Y253484D01*
X135440Y253474D01*
X135540Y253461D01*
X135639Y253443D01*
X135738Y253422D01*
X135835Y253397D01*
X135932Y253368D01*
X136027Y253335D01*
X136121Y253299D01*
X136213Y253259D01*
X136304Y253216D01*
X136393Y253169D01*
X136480Y253119D01*
X136566Y253065D01*
X136649Y253008D01*
X136729Y252948D01*
X136808Y252885D01*
X136884Y252818D01*
X136957Y252749D01*
X137027Y252677D01*
X137095Y252603D01*
X137160Y252526D01*
X137221Y252446D01*
X137280Y252364D01*
X137335Y252280D01*
X137387Y252194D01*
X137436Y252106D01*
X137481Y252016D01*
X137523Y251924D01*
X137561Y251831D01*
X137595Y251736D01*
X137626Y251641D01*
X137653Y251544D01*
X137676Y251446D01*
X137696Y251347D01*
X137711Y251247D01*
X137723Y251147D01*
X137731Y251047D01*
X137735Y250946D01*
X137735Y250846D01*
X137731Y250745D01*
X137723Y250645D01*
X137711Y250545D01*
X137696Y250445D01*
X137676Y250346D01*
X137653Y250248D01*
X137626Y250151D01*
X137595Y250056D01*
X137561Y249961D01*
X137523Y249868D01*
X137481Y249776D01*
X137436Y249686D01*
X137387Y249598D01*
X137335Y249512D01*
X137280Y249428D01*
X137221Y249346D01*
X137160Y249266D01*
X137095Y249189D01*
X137027Y249115D01*
X136957Y249043D01*
X136884Y248974D01*
X136808Y248907D01*
X136729Y248844D01*
X136649Y248784D01*
X136566Y248727D01*
X136480Y248673D01*
X136393Y248623D01*
X136304Y248576D01*
X136213Y248533D01*
X136121Y248493D01*
X136027Y248457D01*
X135932Y248424D01*
X135835Y248395D01*
X135738Y248370D01*
X135639Y248349D01*
X135540Y248331D01*
X135440Y248318D01*
X135340Y248308D01*
X135240Y248302D01*
X135139Y248300D01*
X135139Y248299D02*
X132543Y248299D01*
X51308Y177292D02*
X51308Y165608D01*
X51308Y177292D02*
X54554Y177292D01*
X54667Y177290D01*
X54780Y177284D01*
X54893Y177274D01*
X55006Y177260D01*
X55118Y177243D01*
X55229Y177221D01*
X55339Y177196D01*
X55449Y177166D01*
X55557Y177133D01*
X55664Y177096D01*
X55770Y177056D01*
X55874Y177011D01*
X55977Y176963D01*
X56078Y176912D01*
X56177Y176857D01*
X56274Y176799D01*
X56369Y176737D01*
X56462Y176672D01*
X56552Y176604D01*
X56640Y176533D01*
X56726Y176458D01*
X56809Y176381D01*
X56889Y176301D01*
X56966Y176218D01*
X57041Y176132D01*
X57112Y176044D01*
X57180Y175954D01*
X57245Y175861D01*
X57307Y175766D01*
X57365Y175669D01*
X57420Y175570D01*
X57471Y175469D01*
X57519Y175366D01*
X57564Y175262D01*
X57604Y175156D01*
X57641Y175049D01*
X57674Y174941D01*
X57704Y174831D01*
X57729Y174721D01*
X57751Y174610D01*
X57768Y174498D01*
X57782Y174385D01*
X57792Y174272D01*
X57798Y174159D01*
X57800Y174046D01*
X57798Y173933D01*
X57792Y173820D01*
X57782Y173707D01*
X57768Y173594D01*
X57751Y173482D01*
X57729Y173371D01*
X57704Y173261D01*
X57674Y173151D01*
X57641Y173043D01*
X57604Y172936D01*
X57564Y172830D01*
X57519Y172726D01*
X57471Y172623D01*
X57420Y172522D01*
X57365Y172423D01*
X57307Y172326D01*
X57245Y172231D01*
X57180Y172138D01*
X57112Y172048D01*
X57041Y171960D01*
X56966Y171874D01*
X56889Y171791D01*
X56809Y171711D01*
X56726Y171634D01*
X56640Y171559D01*
X56552Y171488D01*
X56462Y171420D01*
X56369Y171355D01*
X56274Y171293D01*
X56177Y171235D01*
X56078Y171180D01*
X55977Y171129D01*
X55874Y171081D01*
X55770Y171036D01*
X55664Y170996D01*
X55557Y170959D01*
X55449Y170926D01*
X55339Y170896D01*
X55229Y170871D01*
X55118Y170849D01*
X55006Y170832D01*
X54893Y170818D01*
X54780Y170808D01*
X54667Y170802D01*
X54554Y170800D01*
X54554Y170801D02*
X51308Y170801D01*
X55203Y170801D02*
X57799Y165608D01*
X62664Y174696D02*
X65910Y177292D01*
X65910Y165608D01*
X69155Y165608D02*
X62664Y165608D01*
X74094Y168204D02*
X76691Y177292D01*
X74094Y168204D02*
X80585Y168204D01*
X78638Y170801D02*
X78638Y165608D01*
X62851Y127508D02*
X60254Y127508D01*
X60155Y127510D01*
X60055Y127516D01*
X59956Y127525D01*
X59858Y127538D01*
X59760Y127555D01*
X59662Y127576D01*
X59566Y127601D01*
X59471Y127629D01*
X59377Y127661D01*
X59284Y127696D01*
X59192Y127735D01*
X59102Y127778D01*
X59014Y127823D01*
X58927Y127873D01*
X58843Y127925D01*
X58760Y127981D01*
X58680Y128039D01*
X58602Y128101D01*
X58527Y128166D01*
X58454Y128234D01*
X58384Y128304D01*
X58316Y128377D01*
X58251Y128452D01*
X58189Y128530D01*
X58131Y128610D01*
X58075Y128693D01*
X58023Y128777D01*
X57973Y128864D01*
X57928Y128952D01*
X57885Y129042D01*
X57846Y129134D01*
X57811Y129227D01*
X57779Y129321D01*
X57751Y129416D01*
X57726Y129512D01*
X57705Y129610D01*
X57688Y129708D01*
X57675Y129806D01*
X57666Y129905D01*
X57660Y130005D01*
X57658Y130104D01*
X57658Y136596D01*
X57660Y136695D01*
X57666Y136795D01*
X57675Y136894D01*
X57688Y136992D01*
X57705Y137090D01*
X57726Y137188D01*
X57751Y137284D01*
X57779Y137379D01*
X57811Y137473D01*
X57846Y137566D01*
X57885Y137658D01*
X57928Y137748D01*
X57973Y137836D01*
X58023Y137923D01*
X58075Y138007D01*
X58131Y138090D01*
X58189Y138170D01*
X58251Y138248D01*
X58316Y138323D01*
X58384Y138396D01*
X58454Y138466D01*
X58527Y138534D01*
X58602Y138599D01*
X58680Y138661D01*
X58760Y138719D01*
X58843Y138775D01*
X58927Y138827D01*
X59014Y138877D01*
X59102Y138922D01*
X59192Y138965D01*
X59284Y139004D01*
X59376Y139039D01*
X59471Y139071D01*
X59566Y139099D01*
X59662Y139124D01*
X59760Y139145D01*
X59858Y139162D01*
X59956Y139175D01*
X60055Y139184D01*
X60155Y139190D01*
X60254Y139192D01*
X62851Y139192D01*
X67216Y136596D02*
X70462Y139192D01*
X70462Y127508D01*
X73707Y127508D02*
X67216Y127508D01*
X78646Y130104D02*
X81243Y139192D01*
X78646Y130104D02*
X85137Y130104D01*
X83190Y132701D02*
X83190Y127508D01*
X69201Y241808D02*
X66604Y241808D01*
X66505Y241810D01*
X66405Y241816D01*
X66306Y241825D01*
X66208Y241838D01*
X66110Y241855D01*
X66012Y241876D01*
X65916Y241901D01*
X65821Y241929D01*
X65727Y241961D01*
X65634Y241996D01*
X65542Y242035D01*
X65452Y242078D01*
X65364Y242123D01*
X65277Y242173D01*
X65193Y242225D01*
X65110Y242281D01*
X65030Y242339D01*
X64952Y242401D01*
X64877Y242466D01*
X64804Y242534D01*
X64734Y242604D01*
X64666Y242677D01*
X64601Y242752D01*
X64539Y242830D01*
X64481Y242910D01*
X64425Y242993D01*
X64373Y243077D01*
X64323Y243164D01*
X64278Y243252D01*
X64235Y243342D01*
X64196Y243434D01*
X64161Y243527D01*
X64129Y243621D01*
X64101Y243716D01*
X64076Y243812D01*
X64055Y243910D01*
X64038Y244008D01*
X64025Y244106D01*
X64016Y244205D01*
X64010Y244305D01*
X64008Y244404D01*
X64008Y250896D01*
X64010Y250995D01*
X64016Y251095D01*
X64025Y251194D01*
X64038Y251292D01*
X64055Y251390D01*
X64076Y251488D01*
X64101Y251584D01*
X64129Y251679D01*
X64161Y251773D01*
X64196Y251866D01*
X64235Y251958D01*
X64278Y252048D01*
X64323Y252136D01*
X64373Y252223D01*
X64425Y252307D01*
X64481Y252390D01*
X64539Y252470D01*
X64601Y252548D01*
X64666Y252623D01*
X64734Y252696D01*
X64804Y252766D01*
X64877Y252834D01*
X64952Y252899D01*
X65030Y252961D01*
X65110Y253019D01*
X65193Y253075D01*
X65277Y253127D01*
X65364Y253177D01*
X65452Y253222D01*
X65542Y253265D01*
X65634Y253304D01*
X65726Y253339D01*
X65821Y253371D01*
X65916Y253399D01*
X66012Y253424D01*
X66110Y253445D01*
X66208Y253462D01*
X66306Y253475D01*
X66405Y253484D01*
X66505Y253490D01*
X66604Y253492D01*
X69201Y253492D01*
X73566Y250896D02*
X76812Y253492D01*
X76812Y241808D01*
X80057Y241808D02*
X73566Y241808D01*
X84996Y241808D02*
X88891Y241808D01*
X88990Y241810D01*
X89090Y241816D01*
X89189Y241825D01*
X89287Y241838D01*
X89385Y241855D01*
X89483Y241876D01*
X89579Y241901D01*
X89674Y241929D01*
X89768Y241961D01*
X89861Y241996D01*
X89953Y242035D01*
X90043Y242078D01*
X90131Y242123D01*
X90218Y242173D01*
X90302Y242225D01*
X90385Y242281D01*
X90465Y242339D01*
X90543Y242401D01*
X90618Y242466D01*
X90691Y242534D01*
X90761Y242604D01*
X90829Y242677D01*
X90894Y242752D01*
X90956Y242830D01*
X91014Y242910D01*
X91070Y242993D01*
X91122Y243077D01*
X91172Y243164D01*
X91217Y243252D01*
X91260Y243342D01*
X91299Y243434D01*
X91334Y243527D01*
X91366Y243621D01*
X91394Y243716D01*
X91419Y243812D01*
X91440Y243910D01*
X91457Y244008D01*
X91470Y244106D01*
X91479Y244205D01*
X91485Y244305D01*
X91487Y244404D01*
X91487Y245703D01*
X91485Y245802D01*
X91479Y245902D01*
X91470Y246001D01*
X91457Y246099D01*
X91440Y246197D01*
X91419Y246295D01*
X91394Y246391D01*
X91366Y246486D01*
X91334Y246580D01*
X91299Y246673D01*
X91260Y246765D01*
X91217Y246855D01*
X91172Y246943D01*
X91122Y247030D01*
X91070Y247114D01*
X91014Y247197D01*
X90956Y247277D01*
X90894Y247355D01*
X90829Y247430D01*
X90761Y247503D01*
X90691Y247573D01*
X90618Y247641D01*
X90543Y247706D01*
X90465Y247768D01*
X90385Y247826D01*
X90302Y247882D01*
X90218Y247934D01*
X90131Y247984D01*
X90043Y248029D01*
X89953Y248072D01*
X89861Y248111D01*
X89768Y248146D01*
X89674Y248178D01*
X89579Y248206D01*
X89483Y248231D01*
X89385Y248252D01*
X89287Y248269D01*
X89189Y248282D01*
X89090Y248291D01*
X88990Y248297D01*
X88891Y248299D01*
X84996Y248299D01*
X84996Y253492D01*
X91487Y253492D01*
X210058Y139192D02*
X210058Y127508D01*
X210058Y139192D02*
X213304Y139192D01*
X213417Y139190D01*
X213530Y139184D01*
X213643Y139174D01*
X213756Y139160D01*
X213868Y139143D01*
X213979Y139121D01*
X214089Y139096D01*
X214199Y139066D01*
X214307Y139033D01*
X214414Y138996D01*
X214520Y138956D01*
X214624Y138911D01*
X214727Y138863D01*
X214828Y138812D01*
X214927Y138757D01*
X215024Y138699D01*
X215119Y138637D01*
X215212Y138572D01*
X215302Y138504D01*
X215390Y138433D01*
X215476Y138358D01*
X215559Y138281D01*
X215639Y138201D01*
X215716Y138118D01*
X215791Y138032D01*
X215862Y137944D01*
X215930Y137854D01*
X215995Y137761D01*
X216057Y137666D01*
X216115Y137569D01*
X216170Y137470D01*
X216221Y137369D01*
X216269Y137266D01*
X216314Y137162D01*
X216354Y137056D01*
X216391Y136949D01*
X216424Y136841D01*
X216454Y136731D01*
X216479Y136621D01*
X216501Y136510D01*
X216518Y136398D01*
X216532Y136285D01*
X216542Y136172D01*
X216548Y136059D01*
X216550Y135946D01*
X216548Y135833D01*
X216542Y135720D01*
X216532Y135607D01*
X216518Y135494D01*
X216501Y135382D01*
X216479Y135271D01*
X216454Y135161D01*
X216424Y135051D01*
X216391Y134943D01*
X216354Y134836D01*
X216314Y134730D01*
X216269Y134626D01*
X216221Y134523D01*
X216170Y134422D01*
X216115Y134323D01*
X216057Y134226D01*
X215995Y134131D01*
X215930Y134038D01*
X215862Y133948D01*
X215791Y133860D01*
X215716Y133774D01*
X215639Y133691D01*
X215559Y133611D01*
X215476Y133534D01*
X215390Y133459D01*
X215302Y133388D01*
X215212Y133320D01*
X215119Y133255D01*
X215024Y133193D01*
X214927Y133135D01*
X214828Y133080D01*
X214727Y133029D01*
X214624Y132981D01*
X214520Y132936D01*
X214414Y132896D01*
X214307Y132859D01*
X214199Y132826D01*
X214089Y132796D01*
X213979Y132771D01*
X213868Y132749D01*
X213756Y132732D01*
X213643Y132718D01*
X213530Y132708D01*
X213417Y132702D01*
X213304Y132700D01*
X213304Y132701D02*
X210058Y132701D01*
X213953Y132701D02*
X216549Y127508D01*
X221414Y136596D02*
X224660Y139192D01*
X224660Y127508D01*
X227905Y127508D02*
X221414Y127508D01*
X232844Y127508D02*
X236739Y127508D01*
X236838Y127510D01*
X236938Y127516D01*
X237037Y127525D01*
X237135Y127538D01*
X237233Y127555D01*
X237331Y127576D01*
X237427Y127601D01*
X237522Y127629D01*
X237616Y127661D01*
X237709Y127696D01*
X237801Y127735D01*
X237891Y127778D01*
X237979Y127823D01*
X238066Y127873D01*
X238150Y127925D01*
X238233Y127981D01*
X238313Y128039D01*
X238391Y128101D01*
X238466Y128166D01*
X238539Y128234D01*
X238609Y128304D01*
X238677Y128377D01*
X238742Y128452D01*
X238804Y128530D01*
X238862Y128610D01*
X238918Y128693D01*
X238970Y128777D01*
X239020Y128864D01*
X239065Y128952D01*
X239108Y129042D01*
X239147Y129134D01*
X239182Y129227D01*
X239214Y129321D01*
X239242Y129416D01*
X239267Y129512D01*
X239288Y129610D01*
X239305Y129708D01*
X239318Y129806D01*
X239327Y129905D01*
X239333Y130005D01*
X239335Y130104D01*
X239335Y131403D01*
X239333Y131502D01*
X239327Y131602D01*
X239318Y131701D01*
X239305Y131799D01*
X239288Y131897D01*
X239267Y131995D01*
X239242Y132091D01*
X239214Y132186D01*
X239182Y132280D01*
X239147Y132373D01*
X239108Y132465D01*
X239065Y132555D01*
X239020Y132643D01*
X238970Y132730D01*
X238918Y132814D01*
X238862Y132897D01*
X238804Y132977D01*
X238742Y133055D01*
X238677Y133130D01*
X238609Y133203D01*
X238539Y133273D01*
X238466Y133341D01*
X238391Y133406D01*
X238313Y133468D01*
X238233Y133526D01*
X238150Y133582D01*
X238066Y133634D01*
X237979Y133684D01*
X237891Y133729D01*
X237801Y133772D01*
X237709Y133811D01*
X237616Y133846D01*
X237522Y133878D01*
X237427Y133906D01*
X237331Y133931D01*
X237233Y133952D01*
X237135Y133969D01*
X237037Y133982D01*
X236938Y133991D01*
X236838Y133997D01*
X236739Y133999D01*
X232844Y133999D01*
X232844Y139192D01*
X239335Y139192D01*
X210058Y241808D02*
X210058Y253492D01*
X213304Y253492D01*
X213417Y253490D01*
X213530Y253484D01*
X213643Y253474D01*
X213756Y253460D01*
X213868Y253443D01*
X213979Y253421D01*
X214089Y253396D01*
X214199Y253366D01*
X214307Y253333D01*
X214414Y253296D01*
X214520Y253256D01*
X214624Y253211D01*
X214727Y253163D01*
X214828Y253112D01*
X214927Y253057D01*
X215024Y252999D01*
X215119Y252937D01*
X215212Y252872D01*
X215302Y252804D01*
X215390Y252733D01*
X215476Y252658D01*
X215559Y252581D01*
X215639Y252501D01*
X215716Y252418D01*
X215791Y252332D01*
X215862Y252244D01*
X215930Y252154D01*
X215995Y252061D01*
X216057Y251966D01*
X216115Y251869D01*
X216170Y251770D01*
X216221Y251669D01*
X216269Y251566D01*
X216314Y251462D01*
X216354Y251356D01*
X216391Y251249D01*
X216424Y251141D01*
X216454Y251031D01*
X216479Y250921D01*
X216501Y250810D01*
X216518Y250698D01*
X216532Y250585D01*
X216542Y250472D01*
X216548Y250359D01*
X216550Y250246D01*
X216548Y250133D01*
X216542Y250020D01*
X216532Y249907D01*
X216518Y249794D01*
X216501Y249682D01*
X216479Y249571D01*
X216454Y249461D01*
X216424Y249351D01*
X216391Y249243D01*
X216354Y249136D01*
X216314Y249030D01*
X216269Y248926D01*
X216221Y248823D01*
X216170Y248722D01*
X216115Y248623D01*
X216057Y248526D01*
X215995Y248431D01*
X215930Y248338D01*
X215862Y248248D01*
X215791Y248160D01*
X215716Y248074D01*
X215639Y247991D01*
X215559Y247911D01*
X215476Y247834D01*
X215390Y247759D01*
X215302Y247688D01*
X215212Y247620D01*
X215119Y247555D01*
X215024Y247493D01*
X214927Y247435D01*
X214828Y247380D01*
X214727Y247329D01*
X214624Y247281D01*
X214520Y247236D01*
X214414Y247196D01*
X214307Y247159D01*
X214199Y247126D01*
X214089Y247096D01*
X213979Y247071D01*
X213868Y247049D01*
X213756Y247032D01*
X213643Y247018D01*
X213530Y247008D01*
X213417Y247002D01*
X213304Y247000D01*
X213304Y247001D02*
X210058Y247001D01*
X213953Y247001D02*
X216549Y241808D01*
X221414Y250896D02*
X224660Y253492D01*
X224660Y241808D01*
X227905Y241808D02*
X221414Y241808D01*
X232844Y248299D02*
X236739Y248299D01*
X236838Y248297D01*
X236938Y248291D01*
X237037Y248282D01*
X237135Y248269D01*
X237233Y248252D01*
X237331Y248231D01*
X237427Y248206D01*
X237522Y248178D01*
X237616Y248146D01*
X237709Y248111D01*
X237801Y248072D01*
X237891Y248029D01*
X237979Y247984D01*
X238066Y247934D01*
X238150Y247882D01*
X238233Y247826D01*
X238313Y247768D01*
X238391Y247706D01*
X238466Y247641D01*
X238539Y247573D01*
X238609Y247503D01*
X238677Y247430D01*
X238742Y247355D01*
X238804Y247277D01*
X238862Y247197D01*
X238918Y247114D01*
X238970Y247030D01*
X239020Y246943D01*
X239065Y246855D01*
X239108Y246765D01*
X239147Y246673D01*
X239182Y246580D01*
X239214Y246486D01*
X239242Y246391D01*
X239267Y246295D01*
X239288Y246197D01*
X239305Y246099D01*
X239318Y246001D01*
X239327Y245902D01*
X239333Y245802D01*
X239335Y245703D01*
X239335Y245054D01*
X239336Y245054D02*
X239334Y244941D01*
X239328Y244828D01*
X239318Y244715D01*
X239304Y244602D01*
X239287Y244490D01*
X239265Y244379D01*
X239240Y244269D01*
X239210Y244159D01*
X239177Y244051D01*
X239140Y243944D01*
X239100Y243838D01*
X239055Y243734D01*
X239007Y243631D01*
X238956Y243530D01*
X238901Y243431D01*
X238843Y243334D01*
X238781Y243239D01*
X238716Y243146D01*
X238648Y243056D01*
X238577Y242968D01*
X238502Y242882D01*
X238425Y242799D01*
X238345Y242719D01*
X238262Y242642D01*
X238176Y242567D01*
X238088Y242496D01*
X237998Y242428D01*
X237905Y242363D01*
X237810Y242301D01*
X237713Y242243D01*
X237614Y242188D01*
X237513Y242137D01*
X237410Y242089D01*
X237306Y242044D01*
X237200Y242004D01*
X237093Y241967D01*
X236985Y241934D01*
X236875Y241904D01*
X236765Y241879D01*
X236654Y241857D01*
X236542Y241840D01*
X236429Y241826D01*
X236316Y241816D01*
X236203Y241810D01*
X236090Y241808D01*
X235977Y241810D01*
X235864Y241816D01*
X235751Y241826D01*
X235638Y241840D01*
X235526Y241857D01*
X235415Y241879D01*
X235305Y241904D01*
X235195Y241934D01*
X235087Y241967D01*
X234980Y242004D01*
X234874Y242044D01*
X234770Y242089D01*
X234667Y242137D01*
X234566Y242188D01*
X234467Y242243D01*
X234370Y242301D01*
X234275Y242363D01*
X234182Y242428D01*
X234092Y242496D01*
X234004Y242567D01*
X233918Y242642D01*
X233835Y242719D01*
X233755Y242799D01*
X233678Y242882D01*
X233603Y242968D01*
X233532Y243056D01*
X233464Y243146D01*
X233399Y243239D01*
X233337Y243334D01*
X233279Y243431D01*
X233224Y243530D01*
X233173Y243631D01*
X233125Y243734D01*
X233080Y243838D01*
X233040Y243944D01*
X233003Y244051D01*
X232970Y244159D01*
X232940Y244269D01*
X232915Y244379D01*
X232893Y244490D01*
X232876Y244602D01*
X232862Y244715D01*
X232852Y244828D01*
X232846Y244941D01*
X232844Y245054D01*
X232844Y248299D01*
X232846Y248442D01*
X232852Y248585D01*
X232862Y248728D01*
X232876Y248870D01*
X232893Y249012D01*
X232915Y249154D01*
X232940Y249295D01*
X232970Y249435D01*
X233003Y249574D01*
X233040Y249712D01*
X233081Y249849D01*
X233125Y249985D01*
X233174Y250120D01*
X233226Y250253D01*
X233281Y250385D01*
X233341Y250515D01*
X233404Y250644D01*
X233470Y250771D01*
X233540Y250895D01*
X233613Y251018D01*
X233690Y251139D01*
X233770Y251258D01*
X233853Y251374D01*
X233939Y251489D01*
X234028Y251600D01*
X234121Y251710D01*
X234216Y251816D01*
X234315Y251920D01*
X234416Y252021D01*
X234520Y252120D01*
X234626Y252215D01*
X234736Y252308D01*
X234847Y252397D01*
X234962Y252483D01*
X235078Y252566D01*
X235197Y252646D01*
X235318Y252723D01*
X235440Y252796D01*
X235565Y252866D01*
X235692Y252932D01*
X235821Y252995D01*
X235951Y253055D01*
X236083Y253110D01*
X236216Y253162D01*
X236351Y253211D01*
X236487Y253255D01*
X236624Y253296D01*
X236762Y253333D01*
X236901Y253366D01*
X237041Y253396D01*
X237182Y253421D01*
X237324Y253443D01*
X237466Y253460D01*
X237608Y253474D01*
X237751Y253484D01*
X237894Y253490D01*
X238037Y253492D01*
X159258Y177292D02*
X159258Y165608D01*
X159258Y177292D02*
X162504Y177292D01*
X162617Y177290D01*
X162730Y177284D01*
X162843Y177274D01*
X162956Y177260D01*
X163068Y177243D01*
X163179Y177221D01*
X163289Y177196D01*
X163399Y177166D01*
X163507Y177133D01*
X163614Y177096D01*
X163720Y177056D01*
X163824Y177011D01*
X163927Y176963D01*
X164028Y176912D01*
X164127Y176857D01*
X164224Y176799D01*
X164319Y176737D01*
X164412Y176672D01*
X164502Y176604D01*
X164590Y176533D01*
X164676Y176458D01*
X164759Y176381D01*
X164839Y176301D01*
X164916Y176218D01*
X164991Y176132D01*
X165062Y176044D01*
X165130Y175954D01*
X165195Y175861D01*
X165257Y175766D01*
X165315Y175669D01*
X165370Y175570D01*
X165421Y175469D01*
X165469Y175366D01*
X165514Y175262D01*
X165554Y175156D01*
X165591Y175049D01*
X165624Y174941D01*
X165654Y174831D01*
X165679Y174721D01*
X165701Y174610D01*
X165718Y174498D01*
X165732Y174385D01*
X165742Y174272D01*
X165748Y174159D01*
X165750Y174046D01*
X165748Y173933D01*
X165742Y173820D01*
X165732Y173707D01*
X165718Y173594D01*
X165701Y173482D01*
X165679Y173371D01*
X165654Y173261D01*
X165624Y173151D01*
X165591Y173043D01*
X165554Y172936D01*
X165514Y172830D01*
X165469Y172726D01*
X165421Y172623D01*
X165370Y172522D01*
X165315Y172423D01*
X165257Y172326D01*
X165195Y172231D01*
X165130Y172138D01*
X165062Y172048D01*
X164991Y171960D01*
X164916Y171874D01*
X164839Y171791D01*
X164759Y171711D01*
X164676Y171634D01*
X164590Y171559D01*
X164502Y171488D01*
X164412Y171420D01*
X164319Y171355D01*
X164224Y171293D01*
X164127Y171235D01*
X164028Y171180D01*
X163927Y171129D01*
X163824Y171081D01*
X163720Y171036D01*
X163614Y170996D01*
X163507Y170959D01*
X163399Y170926D01*
X163289Y170896D01*
X163179Y170871D01*
X163068Y170849D01*
X162956Y170832D01*
X162843Y170818D01*
X162730Y170808D01*
X162617Y170802D01*
X162504Y170800D01*
X162504Y170801D02*
X159258Y170801D01*
X163153Y170801D02*
X165749Y165608D01*
X170614Y174696D02*
X173860Y177292D01*
X173860Y165608D01*
X177105Y165608D02*
X170614Y165608D01*
X182044Y175994D02*
X182044Y177292D01*
X188535Y177292D01*
X185290Y165608D01*
X164451Y127508D02*
X161854Y127508D01*
X161755Y127510D01*
X161655Y127516D01*
X161556Y127525D01*
X161458Y127538D01*
X161360Y127555D01*
X161262Y127576D01*
X161166Y127601D01*
X161071Y127629D01*
X160977Y127661D01*
X160884Y127696D01*
X160792Y127735D01*
X160702Y127778D01*
X160614Y127823D01*
X160527Y127873D01*
X160443Y127925D01*
X160360Y127981D01*
X160280Y128039D01*
X160202Y128101D01*
X160127Y128166D01*
X160054Y128234D01*
X159984Y128304D01*
X159916Y128377D01*
X159851Y128452D01*
X159789Y128530D01*
X159731Y128610D01*
X159675Y128693D01*
X159623Y128777D01*
X159573Y128864D01*
X159528Y128952D01*
X159485Y129042D01*
X159446Y129134D01*
X159411Y129227D01*
X159379Y129321D01*
X159351Y129416D01*
X159326Y129512D01*
X159305Y129610D01*
X159288Y129708D01*
X159275Y129806D01*
X159266Y129905D01*
X159260Y130005D01*
X159258Y130104D01*
X159258Y136596D01*
X159260Y136695D01*
X159266Y136795D01*
X159275Y136894D01*
X159288Y136992D01*
X159305Y137090D01*
X159326Y137188D01*
X159351Y137284D01*
X159379Y137379D01*
X159411Y137473D01*
X159446Y137566D01*
X159485Y137658D01*
X159528Y137748D01*
X159573Y137836D01*
X159623Y137923D01*
X159675Y138007D01*
X159731Y138090D01*
X159789Y138170D01*
X159851Y138248D01*
X159916Y138323D01*
X159984Y138396D01*
X160054Y138466D01*
X160127Y138534D01*
X160202Y138599D01*
X160280Y138661D01*
X160360Y138719D01*
X160443Y138775D01*
X160527Y138827D01*
X160614Y138877D01*
X160702Y138922D01*
X160792Y138965D01*
X160884Y139004D01*
X160976Y139039D01*
X161071Y139071D01*
X161166Y139099D01*
X161262Y139124D01*
X161360Y139145D01*
X161458Y139162D01*
X161556Y139175D01*
X161655Y139184D01*
X161755Y139190D01*
X161854Y139192D01*
X164451Y139192D01*
X168816Y136596D02*
X172062Y139192D01*
X172062Y127508D01*
X175307Y127508D02*
X168816Y127508D01*
X180246Y137894D02*
X180246Y139192D01*
X186737Y139192D01*
X183492Y127508D01*
X170801Y241808D02*
X168204Y241808D01*
X168105Y241810D01*
X168005Y241816D01*
X167906Y241825D01*
X167808Y241838D01*
X167710Y241855D01*
X167612Y241876D01*
X167516Y241901D01*
X167421Y241929D01*
X167327Y241961D01*
X167234Y241996D01*
X167142Y242035D01*
X167052Y242078D01*
X166964Y242123D01*
X166877Y242173D01*
X166793Y242225D01*
X166710Y242281D01*
X166630Y242339D01*
X166552Y242401D01*
X166477Y242466D01*
X166404Y242534D01*
X166334Y242604D01*
X166266Y242677D01*
X166201Y242752D01*
X166139Y242830D01*
X166081Y242910D01*
X166025Y242993D01*
X165973Y243077D01*
X165923Y243164D01*
X165878Y243252D01*
X165835Y243342D01*
X165796Y243434D01*
X165761Y243527D01*
X165729Y243621D01*
X165701Y243716D01*
X165676Y243812D01*
X165655Y243910D01*
X165638Y244008D01*
X165625Y244106D01*
X165616Y244205D01*
X165610Y244305D01*
X165608Y244404D01*
X165608Y250896D01*
X165610Y250995D01*
X165616Y251095D01*
X165625Y251194D01*
X165638Y251292D01*
X165655Y251390D01*
X165676Y251488D01*
X165701Y251584D01*
X165729Y251679D01*
X165761Y251773D01*
X165796Y251866D01*
X165835Y251958D01*
X165878Y252048D01*
X165923Y252136D01*
X165973Y252223D01*
X166025Y252307D01*
X166081Y252390D01*
X166139Y252470D01*
X166201Y252548D01*
X166266Y252623D01*
X166334Y252696D01*
X166404Y252766D01*
X166477Y252834D01*
X166552Y252899D01*
X166630Y252961D01*
X166710Y253019D01*
X166793Y253075D01*
X166877Y253127D01*
X166964Y253177D01*
X167052Y253222D01*
X167142Y253265D01*
X167234Y253304D01*
X167326Y253339D01*
X167421Y253371D01*
X167516Y253399D01*
X167612Y253424D01*
X167710Y253445D01*
X167808Y253462D01*
X167906Y253475D01*
X168005Y253484D01*
X168105Y253490D01*
X168204Y253492D01*
X170801Y253492D01*
X175166Y250896D02*
X178412Y253492D01*
X178412Y241808D01*
X181657Y241808D02*
X175166Y241808D01*
X186596Y245054D02*
X186598Y245167D01*
X186604Y245280D01*
X186614Y245393D01*
X186628Y245506D01*
X186645Y245618D01*
X186667Y245729D01*
X186692Y245839D01*
X186722Y245949D01*
X186755Y246057D01*
X186792Y246164D01*
X186832Y246270D01*
X186877Y246374D01*
X186925Y246477D01*
X186976Y246578D01*
X187031Y246677D01*
X187089Y246774D01*
X187151Y246869D01*
X187216Y246962D01*
X187284Y247052D01*
X187355Y247140D01*
X187430Y247226D01*
X187507Y247309D01*
X187587Y247389D01*
X187670Y247466D01*
X187756Y247541D01*
X187844Y247612D01*
X187934Y247680D01*
X188027Y247745D01*
X188122Y247807D01*
X188219Y247865D01*
X188318Y247920D01*
X188419Y247971D01*
X188522Y248019D01*
X188626Y248064D01*
X188732Y248104D01*
X188839Y248141D01*
X188947Y248174D01*
X189057Y248204D01*
X189167Y248229D01*
X189278Y248251D01*
X189390Y248268D01*
X189503Y248282D01*
X189616Y248292D01*
X189729Y248298D01*
X189842Y248300D01*
X189955Y248298D01*
X190068Y248292D01*
X190181Y248282D01*
X190294Y248268D01*
X190406Y248251D01*
X190517Y248229D01*
X190627Y248204D01*
X190737Y248174D01*
X190845Y248141D01*
X190952Y248104D01*
X191058Y248064D01*
X191162Y248019D01*
X191265Y247971D01*
X191366Y247920D01*
X191465Y247865D01*
X191562Y247807D01*
X191657Y247745D01*
X191750Y247680D01*
X191840Y247612D01*
X191928Y247541D01*
X192014Y247466D01*
X192097Y247389D01*
X192177Y247309D01*
X192254Y247226D01*
X192329Y247140D01*
X192400Y247052D01*
X192468Y246962D01*
X192533Y246869D01*
X192595Y246774D01*
X192653Y246677D01*
X192708Y246578D01*
X192759Y246477D01*
X192807Y246374D01*
X192852Y246270D01*
X192892Y246164D01*
X192929Y246057D01*
X192962Y245949D01*
X192992Y245839D01*
X193017Y245729D01*
X193039Y245618D01*
X193056Y245506D01*
X193070Y245393D01*
X193080Y245280D01*
X193086Y245167D01*
X193088Y245054D01*
X193086Y244941D01*
X193080Y244828D01*
X193070Y244715D01*
X193056Y244602D01*
X193039Y244490D01*
X193017Y244379D01*
X192992Y244269D01*
X192962Y244159D01*
X192929Y244051D01*
X192892Y243944D01*
X192852Y243838D01*
X192807Y243734D01*
X192759Y243631D01*
X192708Y243530D01*
X192653Y243431D01*
X192595Y243334D01*
X192533Y243239D01*
X192468Y243146D01*
X192400Y243056D01*
X192329Y242968D01*
X192254Y242882D01*
X192177Y242799D01*
X192097Y242719D01*
X192014Y242642D01*
X191928Y242567D01*
X191840Y242496D01*
X191750Y242428D01*
X191657Y242363D01*
X191562Y242301D01*
X191465Y242243D01*
X191366Y242188D01*
X191265Y242137D01*
X191162Y242089D01*
X191058Y242044D01*
X190952Y242004D01*
X190845Y241967D01*
X190737Y241934D01*
X190627Y241904D01*
X190517Y241879D01*
X190406Y241857D01*
X190294Y241840D01*
X190181Y241826D01*
X190068Y241816D01*
X189955Y241810D01*
X189842Y241808D01*
X189729Y241810D01*
X189616Y241816D01*
X189503Y241826D01*
X189390Y241840D01*
X189278Y241857D01*
X189167Y241879D01*
X189057Y241904D01*
X188947Y241934D01*
X188839Y241967D01*
X188732Y242004D01*
X188626Y242044D01*
X188522Y242089D01*
X188419Y242137D01*
X188318Y242188D01*
X188219Y242243D01*
X188122Y242301D01*
X188027Y242363D01*
X187934Y242428D01*
X187844Y242496D01*
X187756Y242567D01*
X187670Y242642D01*
X187587Y242719D01*
X187507Y242799D01*
X187430Y242882D01*
X187355Y242968D01*
X187284Y243056D01*
X187216Y243146D01*
X187151Y243239D01*
X187089Y243334D01*
X187031Y243431D01*
X186976Y243530D01*
X186925Y243631D01*
X186877Y243734D01*
X186832Y243838D01*
X186792Y243944D01*
X186755Y244051D01*
X186722Y244159D01*
X186692Y244269D01*
X186667Y244379D01*
X186645Y244490D01*
X186628Y244602D01*
X186614Y244715D01*
X186604Y244828D01*
X186598Y244941D01*
X186596Y245054D01*
X187246Y250896D02*
X187248Y250997D01*
X187254Y251097D01*
X187264Y251197D01*
X187277Y251297D01*
X187295Y251396D01*
X187316Y251495D01*
X187341Y251592D01*
X187370Y251689D01*
X187403Y251784D01*
X187439Y251878D01*
X187479Y251970D01*
X187522Y252061D01*
X187569Y252150D01*
X187619Y252237D01*
X187673Y252323D01*
X187730Y252406D01*
X187790Y252486D01*
X187853Y252565D01*
X187920Y252641D01*
X187989Y252714D01*
X188061Y252784D01*
X188135Y252852D01*
X188212Y252917D01*
X188292Y252978D01*
X188374Y253037D01*
X188458Y253092D01*
X188544Y253144D01*
X188632Y253193D01*
X188722Y253238D01*
X188814Y253280D01*
X188907Y253318D01*
X189002Y253352D01*
X189097Y253383D01*
X189194Y253410D01*
X189292Y253433D01*
X189391Y253453D01*
X189491Y253468D01*
X189591Y253480D01*
X189691Y253488D01*
X189792Y253492D01*
X189892Y253492D01*
X189993Y253488D01*
X190093Y253480D01*
X190193Y253468D01*
X190293Y253453D01*
X190392Y253433D01*
X190490Y253410D01*
X190587Y253383D01*
X190682Y253352D01*
X190777Y253318D01*
X190870Y253280D01*
X190962Y253238D01*
X191052Y253193D01*
X191140Y253144D01*
X191226Y253092D01*
X191310Y253037D01*
X191392Y252978D01*
X191472Y252917D01*
X191549Y252852D01*
X191623Y252784D01*
X191695Y252714D01*
X191764Y252641D01*
X191831Y252565D01*
X191894Y252486D01*
X191954Y252406D01*
X192011Y252323D01*
X192065Y252237D01*
X192115Y252150D01*
X192162Y252061D01*
X192205Y251970D01*
X192245Y251878D01*
X192281Y251784D01*
X192314Y251689D01*
X192343Y251592D01*
X192368Y251495D01*
X192389Y251396D01*
X192407Y251297D01*
X192420Y251197D01*
X192430Y251097D01*
X192436Y250997D01*
X192438Y250896D01*
X192436Y250795D01*
X192430Y250695D01*
X192420Y250595D01*
X192407Y250495D01*
X192389Y250396D01*
X192368Y250297D01*
X192343Y250200D01*
X192314Y250103D01*
X192281Y250008D01*
X192245Y249914D01*
X192205Y249822D01*
X192162Y249731D01*
X192115Y249642D01*
X192065Y249555D01*
X192011Y249469D01*
X191954Y249386D01*
X191894Y249306D01*
X191831Y249227D01*
X191764Y249151D01*
X191695Y249078D01*
X191623Y249008D01*
X191549Y248940D01*
X191472Y248875D01*
X191392Y248814D01*
X191310Y248755D01*
X191226Y248700D01*
X191140Y248648D01*
X191052Y248599D01*
X190962Y248554D01*
X190870Y248512D01*
X190777Y248474D01*
X190682Y248440D01*
X190587Y248409D01*
X190490Y248382D01*
X190392Y248359D01*
X190293Y248339D01*
X190193Y248324D01*
X190093Y248312D01*
X189993Y248304D01*
X189892Y248300D01*
X189792Y248300D01*
X189691Y248304D01*
X189591Y248312D01*
X189491Y248324D01*
X189391Y248339D01*
X189292Y248359D01*
X189194Y248382D01*
X189097Y248409D01*
X189002Y248440D01*
X188907Y248474D01*
X188814Y248512D01*
X188722Y248554D01*
X188632Y248599D01*
X188544Y248648D01*
X188458Y248700D01*
X188374Y248755D01*
X188292Y248814D01*
X188212Y248875D01*
X188135Y248940D01*
X188061Y249008D01*
X187989Y249078D01*
X187920Y249151D01*
X187853Y249227D01*
X187790Y249306D01*
X187730Y249386D01*
X187673Y249469D01*
X187619Y249555D01*
X187569Y249642D01*
X187522Y249731D01*
X187479Y249822D01*
X187439Y249914D01*
X187403Y250008D01*
X187370Y250103D01*
X187341Y250200D01*
X187316Y250297D01*
X187295Y250396D01*
X187277Y250495D01*
X187264Y250595D01*
X187254Y250695D01*
X187248Y250795D01*
X187246Y250896D01*
D10*
X298450Y474600D02*
X290950Y485100D01*
X305450Y485100D01*
X298450Y474600D01*
D17*
X298450Y474100D03*
D12*
X287958Y450182D02*
X287958Y438498D01*
X287958Y450182D02*
X291204Y450182D01*
X291317Y450180D01*
X291430Y450174D01*
X291543Y450164D01*
X291656Y450150D01*
X291768Y450133D01*
X291879Y450111D01*
X291989Y450086D01*
X292099Y450056D01*
X292207Y450023D01*
X292314Y449986D01*
X292420Y449946D01*
X292524Y449901D01*
X292627Y449853D01*
X292728Y449802D01*
X292827Y449747D01*
X292924Y449689D01*
X293019Y449627D01*
X293112Y449562D01*
X293202Y449494D01*
X293290Y449423D01*
X293376Y449348D01*
X293459Y449271D01*
X293539Y449191D01*
X293616Y449108D01*
X293691Y449022D01*
X293762Y448934D01*
X293830Y448844D01*
X293895Y448751D01*
X293957Y448656D01*
X294015Y448559D01*
X294070Y448460D01*
X294121Y448359D01*
X294169Y448256D01*
X294214Y448152D01*
X294254Y448046D01*
X294291Y447939D01*
X294324Y447831D01*
X294354Y447721D01*
X294379Y447611D01*
X294401Y447500D01*
X294418Y447388D01*
X294432Y447275D01*
X294442Y447162D01*
X294448Y447049D01*
X294450Y446936D01*
X294449Y446936D02*
X294449Y441744D01*
X294450Y441744D02*
X294448Y441631D01*
X294442Y441518D01*
X294432Y441405D01*
X294418Y441292D01*
X294401Y441180D01*
X294379Y441069D01*
X294354Y440959D01*
X294324Y440849D01*
X294291Y440741D01*
X294254Y440634D01*
X294214Y440528D01*
X294169Y440424D01*
X294121Y440321D01*
X294070Y440220D01*
X294015Y440121D01*
X293957Y440024D01*
X293895Y439929D01*
X293830Y439836D01*
X293762Y439746D01*
X293691Y439658D01*
X293616Y439572D01*
X293539Y439489D01*
X293459Y439409D01*
X293376Y439332D01*
X293290Y439257D01*
X293202Y439186D01*
X293112Y439118D01*
X293019Y439053D01*
X292924Y438991D01*
X292827Y438933D01*
X292728Y438878D01*
X292627Y438827D01*
X292524Y438779D01*
X292420Y438734D01*
X292314Y438694D01*
X292207Y438657D01*
X292099Y438624D01*
X291989Y438594D01*
X291879Y438569D01*
X291768Y438547D01*
X291656Y438530D01*
X291543Y438516D01*
X291430Y438506D01*
X291317Y438500D01*
X291204Y438498D01*
X287958Y438498D01*
X299769Y441094D02*
X302365Y450182D01*
X299769Y441094D02*
X306260Y441094D01*
X304313Y443691D02*
X304313Y438498D01*
D10*
X290950Y307300D02*
X298450Y296800D01*
X305450Y307300D02*
X290950Y307300D01*
X298450Y296800D02*
X305450Y307300D01*
D17*
X298450Y296300D03*
D12*
X286688Y272382D02*
X286688Y260698D01*
X286688Y272382D02*
X289934Y272382D01*
X290047Y272380D01*
X290160Y272374D01*
X290273Y272364D01*
X290386Y272350D01*
X290498Y272333D01*
X290609Y272311D01*
X290719Y272286D01*
X290829Y272256D01*
X290937Y272223D01*
X291044Y272186D01*
X291150Y272146D01*
X291254Y272101D01*
X291357Y272053D01*
X291458Y272002D01*
X291557Y271947D01*
X291654Y271889D01*
X291749Y271827D01*
X291842Y271762D01*
X291932Y271694D01*
X292020Y271623D01*
X292106Y271548D01*
X292189Y271471D01*
X292269Y271391D01*
X292346Y271308D01*
X292421Y271222D01*
X292492Y271134D01*
X292560Y271044D01*
X292625Y270951D01*
X292687Y270856D01*
X292745Y270759D01*
X292800Y270660D01*
X292851Y270559D01*
X292899Y270456D01*
X292944Y270352D01*
X292984Y270246D01*
X293021Y270139D01*
X293054Y270031D01*
X293084Y269921D01*
X293109Y269811D01*
X293131Y269700D01*
X293148Y269588D01*
X293162Y269475D01*
X293172Y269362D01*
X293178Y269249D01*
X293180Y269136D01*
X293179Y269136D02*
X293179Y263944D01*
X293180Y263944D02*
X293178Y263831D01*
X293172Y263718D01*
X293162Y263605D01*
X293148Y263492D01*
X293131Y263380D01*
X293109Y263269D01*
X293084Y263159D01*
X293054Y263049D01*
X293021Y262941D01*
X292984Y262834D01*
X292944Y262728D01*
X292899Y262624D01*
X292851Y262521D01*
X292800Y262420D01*
X292745Y262321D01*
X292687Y262224D01*
X292625Y262129D01*
X292560Y262036D01*
X292492Y261946D01*
X292421Y261858D01*
X292346Y261772D01*
X292269Y261689D01*
X292189Y261609D01*
X292106Y261532D01*
X292020Y261457D01*
X291932Y261386D01*
X291842Y261318D01*
X291749Y261253D01*
X291654Y261191D01*
X291557Y261133D01*
X291458Y261078D01*
X291357Y261027D01*
X291254Y260979D01*
X291150Y260934D01*
X291044Y260894D01*
X290937Y260857D01*
X290829Y260824D01*
X290719Y260794D01*
X290609Y260769D01*
X290498Y260747D01*
X290386Y260730D01*
X290273Y260716D01*
X290160Y260706D01*
X290047Y260700D01*
X289934Y260698D01*
X286688Y260698D01*
X298499Y260698D02*
X302394Y260698D01*
X302493Y260700D01*
X302593Y260706D01*
X302692Y260715D01*
X302790Y260728D01*
X302888Y260745D01*
X302986Y260766D01*
X303082Y260791D01*
X303177Y260819D01*
X303271Y260851D01*
X303364Y260886D01*
X303456Y260925D01*
X303546Y260968D01*
X303634Y261013D01*
X303721Y261063D01*
X303805Y261115D01*
X303888Y261171D01*
X303968Y261229D01*
X304046Y261291D01*
X304121Y261356D01*
X304194Y261424D01*
X304264Y261494D01*
X304332Y261567D01*
X304397Y261642D01*
X304459Y261720D01*
X304517Y261800D01*
X304573Y261883D01*
X304625Y261967D01*
X304675Y262054D01*
X304720Y262142D01*
X304763Y262232D01*
X304802Y262324D01*
X304837Y262417D01*
X304869Y262511D01*
X304897Y262606D01*
X304922Y262702D01*
X304943Y262800D01*
X304960Y262898D01*
X304973Y262996D01*
X304982Y263095D01*
X304988Y263195D01*
X304990Y263294D01*
X304990Y264593D01*
X304988Y264692D01*
X304982Y264792D01*
X304973Y264891D01*
X304960Y264989D01*
X304943Y265087D01*
X304922Y265185D01*
X304897Y265281D01*
X304869Y265376D01*
X304837Y265470D01*
X304802Y265563D01*
X304763Y265655D01*
X304720Y265745D01*
X304675Y265833D01*
X304625Y265920D01*
X304573Y266004D01*
X304517Y266087D01*
X304459Y266167D01*
X304397Y266245D01*
X304332Y266320D01*
X304264Y266393D01*
X304194Y266463D01*
X304121Y266531D01*
X304046Y266596D01*
X303968Y266658D01*
X303888Y266716D01*
X303805Y266772D01*
X303721Y266824D01*
X303634Y266874D01*
X303546Y266919D01*
X303456Y266962D01*
X303364Y267001D01*
X303271Y267036D01*
X303177Y267068D01*
X303082Y267096D01*
X302986Y267121D01*
X302888Y267142D01*
X302790Y267159D01*
X302692Y267172D01*
X302593Y267181D01*
X302493Y267187D01*
X302394Y267189D01*
X298499Y267189D01*
X298499Y272382D01*
X304990Y272382D01*
D10*
X290950Y129500D02*
X298450Y119000D01*
X305450Y129500D02*
X290950Y129500D01*
X298450Y119000D02*
X305450Y129500D01*
D17*
X298450Y118500D03*
D12*
X289228Y94582D02*
X289228Y82898D01*
X289228Y94582D02*
X292474Y94582D01*
X292587Y94580D01*
X292700Y94574D01*
X292813Y94564D01*
X292926Y94550D01*
X293038Y94533D01*
X293149Y94511D01*
X293259Y94486D01*
X293369Y94456D01*
X293477Y94423D01*
X293584Y94386D01*
X293690Y94346D01*
X293794Y94301D01*
X293897Y94253D01*
X293998Y94202D01*
X294097Y94147D01*
X294194Y94089D01*
X294289Y94027D01*
X294382Y93962D01*
X294472Y93894D01*
X294560Y93823D01*
X294646Y93748D01*
X294729Y93671D01*
X294809Y93591D01*
X294886Y93508D01*
X294961Y93422D01*
X295032Y93334D01*
X295100Y93244D01*
X295165Y93151D01*
X295227Y93056D01*
X295285Y92959D01*
X295340Y92860D01*
X295391Y92759D01*
X295439Y92656D01*
X295484Y92552D01*
X295524Y92446D01*
X295561Y92339D01*
X295594Y92231D01*
X295624Y92121D01*
X295649Y92011D01*
X295671Y91900D01*
X295688Y91788D01*
X295702Y91675D01*
X295712Y91562D01*
X295718Y91449D01*
X295720Y91336D01*
X295719Y91336D02*
X295719Y86144D01*
X295720Y86144D02*
X295718Y86031D01*
X295712Y85918D01*
X295702Y85805D01*
X295688Y85692D01*
X295671Y85580D01*
X295649Y85469D01*
X295624Y85359D01*
X295594Y85249D01*
X295561Y85141D01*
X295524Y85034D01*
X295484Y84928D01*
X295439Y84824D01*
X295391Y84721D01*
X295340Y84620D01*
X295285Y84521D01*
X295227Y84424D01*
X295165Y84329D01*
X295100Y84236D01*
X295032Y84146D01*
X294961Y84058D01*
X294886Y83972D01*
X294809Y83889D01*
X294729Y83809D01*
X294646Y83732D01*
X294560Y83657D01*
X294472Y83586D01*
X294382Y83518D01*
X294289Y83453D01*
X294194Y83391D01*
X294097Y83333D01*
X293998Y83278D01*
X293897Y83227D01*
X293794Y83179D01*
X293690Y83134D01*
X293584Y83094D01*
X293477Y83057D01*
X293369Y83024D01*
X293259Y82994D01*
X293149Y82969D01*
X293038Y82947D01*
X292926Y82930D01*
X292813Y82916D01*
X292700Y82906D01*
X292587Y82900D01*
X292474Y82898D01*
X289228Y82898D01*
X301039Y89389D02*
X304934Y89389D01*
X305033Y89387D01*
X305133Y89381D01*
X305232Y89372D01*
X305330Y89359D01*
X305428Y89342D01*
X305526Y89321D01*
X305622Y89296D01*
X305717Y89268D01*
X305811Y89236D01*
X305904Y89201D01*
X305996Y89162D01*
X306086Y89119D01*
X306174Y89074D01*
X306261Y89024D01*
X306345Y88972D01*
X306428Y88916D01*
X306508Y88858D01*
X306586Y88796D01*
X306661Y88731D01*
X306734Y88663D01*
X306804Y88593D01*
X306872Y88520D01*
X306937Y88445D01*
X306999Y88367D01*
X307057Y88287D01*
X307113Y88204D01*
X307165Y88120D01*
X307215Y88033D01*
X307260Y87945D01*
X307303Y87855D01*
X307342Y87763D01*
X307377Y87670D01*
X307409Y87576D01*
X307437Y87481D01*
X307462Y87385D01*
X307483Y87287D01*
X307500Y87189D01*
X307513Y87091D01*
X307522Y86992D01*
X307528Y86892D01*
X307530Y86793D01*
X307530Y86144D01*
X307531Y86144D02*
X307529Y86031D01*
X307523Y85918D01*
X307513Y85805D01*
X307499Y85692D01*
X307482Y85580D01*
X307460Y85469D01*
X307435Y85359D01*
X307405Y85249D01*
X307372Y85141D01*
X307335Y85034D01*
X307295Y84928D01*
X307250Y84824D01*
X307202Y84721D01*
X307151Y84620D01*
X307096Y84521D01*
X307038Y84424D01*
X306976Y84329D01*
X306911Y84236D01*
X306843Y84146D01*
X306772Y84058D01*
X306697Y83972D01*
X306620Y83889D01*
X306540Y83809D01*
X306457Y83732D01*
X306371Y83657D01*
X306283Y83586D01*
X306193Y83518D01*
X306100Y83453D01*
X306005Y83391D01*
X305908Y83333D01*
X305809Y83278D01*
X305708Y83227D01*
X305605Y83179D01*
X305501Y83134D01*
X305395Y83094D01*
X305288Y83057D01*
X305180Y83024D01*
X305070Y82994D01*
X304960Y82969D01*
X304849Y82947D01*
X304737Y82930D01*
X304624Y82916D01*
X304511Y82906D01*
X304398Y82900D01*
X304285Y82898D01*
X304172Y82900D01*
X304059Y82906D01*
X303946Y82916D01*
X303833Y82930D01*
X303721Y82947D01*
X303610Y82969D01*
X303500Y82994D01*
X303390Y83024D01*
X303282Y83057D01*
X303175Y83094D01*
X303069Y83134D01*
X302965Y83179D01*
X302862Y83227D01*
X302761Y83278D01*
X302662Y83333D01*
X302565Y83391D01*
X302470Y83453D01*
X302377Y83518D01*
X302287Y83586D01*
X302199Y83657D01*
X302113Y83732D01*
X302030Y83809D01*
X301950Y83889D01*
X301873Y83972D01*
X301798Y84058D01*
X301727Y84146D01*
X301659Y84236D01*
X301594Y84329D01*
X301532Y84424D01*
X301474Y84521D01*
X301419Y84620D01*
X301368Y84721D01*
X301320Y84824D01*
X301275Y84928D01*
X301235Y85034D01*
X301198Y85141D01*
X301165Y85249D01*
X301135Y85359D01*
X301110Y85469D01*
X301088Y85580D01*
X301071Y85692D01*
X301057Y85805D01*
X301047Y85918D01*
X301041Y86031D01*
X301039Y86144D01*
X301039Y89389D01*
X301041Y89532D01*
X301047Y89675D01*
X301057Y89818D01*
X301071Y89960D01*
X301088Y90102D01*
X301110Y90244D01*
X301135Y90385D01*
X301165Y90525D01*
X301198Y90664D01*
X301235Y90802D01*
X301276Y90939D01*
X301320Y91075D01*
X301369Y91210D01*
X301421Y91343D01*
X301476Y91475D01*
X301536Y91605D01*
X301599Y91734D01*
X301665Y91861D01*
X301735Y91985D01*
X301808Y92108D01*
X301885Y92229D01*
X301965Y92348D01*
X302048Y92464D01*
X302134Y92579D01*
X302223Y92690D01*
X302316Y92800D01*
X302411Y92906D01*
X302510Y93010D01*
X302611Y93111D01*
X302715Y93210D01*
X302821Y93305D01*
X302931Y93398D01*
X303042Y93487D01*
X303157Y93573D01*
X303273Y93656D01*
X303392Y93736D01*
X303513Y93813D01*
X303635Y93886D01*
X303760Y93956D01*
X303887Y94022D01*
X304016Y94085D01*
X304146Y94145D01*
X304278Y94200D01*
X304411Y94252D01*
X304546Y94301D01*
X304682Y94345D01*
X304819Y94386D01*
X304957Y94423D01*
X305096Y94456D01*
X305236Y94486D01*
X305377Y94511D01*
X305519Y94533D01*
X305661Y94550D01*
X305803Y94564D01*
X305946Y94574D01*
X306089Y94580D01*
X306232Y94582D01*
X269296Y527558D02*
X264104Y527558D01*
X263991Y527560D01*
X263878Y527566D01*
X263765Y527576D01*
X263652Y527590D01*
X263540Y527607D01*
X263429Y527629D01*
X263319Y527654D01*
X263209Y527684D01*
X263101Y527717D01*
X262994Y527754D01*
X262888Y527794D01*
X262784Y527839D01*
X262681Y527887D01*
X262580Y527938D01*
X262481Y527993D01*
X262384Y528051D01*
X262289Y528113D01*
X262196Y528178D01*
X262106Y528246D01*
X262018Y528317D01*
X261932Y528392D01*
X261849Y528469D01*
X261769Y528549D01*
X261692Y528632D01*
X261617Y528718D01*
X261546Y528806D01*
X261478Y528896D01*
X261413Y528989D01*
X261351Y529084D01*
X261293Y529181D01*
X261238Y529280D01*
X261187Y529381D01*
X261139Y529484D01*
X261094Y529588D01*
X261054Y529694D01*
X261017Y529801D01*
X260984Y529909D01*
X260954Y530019D01*
X260929Y530129D01*
X260907Y530240D01*
X260890Y530352D01*
X260876Y530465D01*
X260866Y530578D01*
X260860Y530691D01*
X260858Y530804D01*
X260860Y530917D01*
X260866Y531030D01*
X260876Y531143D01*
X260890Y531256D01*
X260907Y531368D01*
X260929Y531479D01*
X260954Y531589D01*
X260984Y531699D01*
X261017Y531807D01*
X261054Y531914D01*
X261094Y532020D01*
X261139Y532124D01*
X261187Y532227D01*
X261238Y532328D01*
X261293Y532427D01*
X261351Y532524D01*
X261413Y532619D01*
X261478Y532712D01*
X261546Y532802D01*
X261617Y532890D01*
X261692Y532976D01*
X261769Y533059D01*
X261849Y533139D01*
X261932Y533216D01*
X262018Y533291D01*
X262106Y533362D01*
X262196Y533430D01*
X262289Y533495D01*
X262384Y533557D01*
X262481Y533615D01*
X262580Y533670D01*
X262681Y533721D01*
X262784Y533769D01*
X262888Y533814D01*
X262994Y533854D01*
X263101Y533891D01*
X263209Y533924D01*
X263319Y533954D01*
X263429Y533979D01*
X263540Y534001D01*
X263652Y534018D01*
X263765Y534032D01*
X263878Y534042D01*
X263991Y534048D01*
X264104Y534050D01*
X264104Y534049D02*
X269296Y534049D01*
X269296Y534050D02*
X269409Y534048D01*
X269522Y534042D01*
X269635Y534032D01*
X269748Y534018D01*
X269860Y534001D01*
X269971Y533979D01*
X270081Y533954D01*
X270191Y533924D01*
X270299Y533891D01*
X270406Y533854D01*
X270512Y533814D01*
X270616Y533769D01*
X270719Y533721D01*
X270820Y533670D01*
X270919Y533615D01*
X271016Y533557D01*
X271111Y533495D01*
X271204Y533430D01*
X271294Y533362D01*
X271382Y533291D01*
X271468Y533216D01*
X271551Y533139D01*
X271631Y533059D01*
X271708Y532976D01*
X271783Y532890D01*
X271854Y532802D01*
X271922Y532712D01*
X271987Y532619D01*
X272049Y532524D01*
X272107Y532427D01*
X272162Y532328D01*
X272213Y532227D01*
X272261Y532124D01*
X272306Y532020D01*
X272346Y531914D01*
X272383Y531807D01*
X272416Y531699D01*
X272446Y531589D01*
X272471Y531479D01*
X272493Y531368D01*
X272510Y531256D01*
X272524Y531143D01*
X272534Y531030D01*
X272540Y530917D01*
X272542Y530804D01*
X272540Y530691D01*
X272534Y530578D01*
X272524Y530465D01*
X272510Y530352D01*
X272493Y530240D01*
X272471Y530129D01*
X272446Y530019D01*
X272416Y529909D01*
X272383Y529801D01*
X272346Y529694D01*
X272306Y529588D01*
X272261Y529484D01*
X272213Y529381D01*
X272162Y529280D01*
X272107Y529181D01*
X272049Y529084D01*
X271987Y528989D01*
X271922Y528896D01*
X271854Y528806D01*
X271783Y528718D01*
X271708Y528632D01*
X271631Y528549D01*
X271551Y528469D01*
X271468Y528392D01*
X271382Y528317D01*
X271294Y528246D01*
X271204Y528178D01*
X271111Y528113D01*
X271016Y528051D01*
X270919Y527993D01*
X270820Y527938D01*
X270719Y527887D01*
X270616Y527839D01*
X270512Y527794D01*
X270406Y527754D01*
X270299Y527717D01*
X270191Y527684D01*
X270081Y527654D01*
X269971Y527629D01*
X269860Y527607D01*
X269748Y527590D01*
X269635Y527576D01*
X269522Y527566D01*
X269409Y527560D01*
X269296Y527558D01*
X269946Y532751D02*
X272542Y535347D01*
X263454Y538702D02*
X260858Y541947D01*
X272542Y541947D01*
X272542Y538702D02*
X272542Y545193D01*
X314904Y362458D02*
X320096Y362458D01*
X314904Y362458D02*
X314791Y362460D01*
X314678Y362466D01*
X314565Y362476D01*
X314452Y362490D01*
X314340Y362507D01*
X314229Y362529D01*
X314119Y362554D01*
X314009Y362584D01*
X313901Y362617D01*
X313794Y362654D01*
X313688Y362694D01*
X313584Y362739D01*
X313481Y362787D01*
X313380Y362838D01*
X313281Y362893D01*
X313184Y362951D01*
X313089Y363013D01*
X312996Y363078D01*
X312906Y363146D01*
X312818Y363217D01*
X312732Y363292D01*
X312649Y363369D01*
X312569Y363449D01*
X312492Y363532D01*
X312417Y363618D01*
X312346Y363706D01*
X312278Y363796D01*
X312213Y363889D01*
X312151Y363984D01*
X312093Y364081D01*
X312038Y364180D01*
X311987Y364281D01*
X311939Y364384D01*
X311894Y364488D01*
X311854Y364594D01*
X311817Y364701D01*
X311784Y364809D01*
X311754Y364919D01*
X311729Y365029D01*
X311707Y365140D01*
X311690Y365252D01*
X311676Y365365D01*
X311666Y365478D01*
X311660Y365591D01*
X311658Y365704D01*
X311660Y365817D01*
X311666Y365930D01*
X311676Y366043D01*
X311690Y366156D01*
X311707Y366268D01*
X311729Y366379D01*
X311754Y366489D01*
X311784Y366599D01*
X311817Y366707D01*
X311854Y366814D01*
X311894Y366920D01*
X311939Y367024D01*
X311987Y367127D01*
X312038Y367228D01*
X312093Y367327D01*
X312151Y367424D01*
X312213Y367519D01*
X312278Y367612D01*
X312346Y367702D01*
X312417Y367790D01*
X312492Y367876D01*
X312569Y367959D01*
X312649Y368039D01*
X312732Y368116D01*
X312818Y368191D01*
X312906Y368262D01*
X312996Y368330D01*
X313089Y368395D01*
X313184Y368457D01*
X313281Y368515D01*
X313380Y368570D01*
X313481Y368621D01*
X313584Y368669D01*
X313688Y368714D01*
X313794Y368754D01*
X313901Y368791D01*
X314009Y368824D01*
X314119Y368854D01*
X314229Y368879D01*
X314340Y368901D01*
X314452Y368918D01*
X314565Y368932D01*
X314678Y368942D01*
X314791Y368948D01*
X314904Y368950D01*
X314904Y368949D02*
X320096Y368949D01*
X320096Y368950D02*
X320209Y368948D01*
X320322Y368942D01*
X320435Y368932D01*
X320548Y368918D01*
X320660Y368901D01*
X320771Y368879D01*
X320881Y368854D01*
X320991Y368824D01*
X321099Y368791D01*
X321206Y368754D01*
X321312Y368714D01*
X321416Y368669D01*
X321519Y368621D01*
X321620Y368570D01*
X321719Y368515D01*
X321816Y368457D01*
X321911Y368395D01*
X322004Y368330D01*
X322094Y368262D01*
X322182Y368191D01*
X322268Y368116D01*
X322351Y368039D01*
X322431Y367959D01*
X322508Y367876D01*
X322583Y367790D01*
X322654Y367702D01*
X322722Y367612D01*
X322787Y367519D01*
X322849Y367424D01*
X322907Y367327D01*
X322962Y367228D01*
X323013Y367127D01*
X323061Y367024D01*
X323106Y366920D01*
X323146Y366814D01*
X323183Y366707D01*
X323216Y366599D01*
X323246Y366489D01*
X323271Y366379D01*
X323293Y366268D01*
X323310Y366156D01*
X323324Y366043D01*
X323334Y365930D01*
X323340Y365817D01*
X323342Y365704D01*
X323340Y365591D01*
X323334Y365478D01*
X323324Y365365D01*
X323310Y365252D01*
X323293Y365140D01*
X323271Y365029D01*
X323246Y364919D01*
X323216Y364809D01*
X323183Y364701D01*
X323146Y364594D01*
X323106Y364488D01*
X323061Y364384D01*
X323013Y364281D01*
X322962Y364180D01*
X322907Y364081D01*
X322849Y363984D01*
X322787Y363889D01*
X322722Y363796D01*
X322654Y363706D01*
X322583Y363618D01*
X322508Y363532D01*
X322431Y363449D01*
X322351Y363369D01*
X322268Y363292D01*
X322182Y363217D01*
X322094Y363146D01*
X322004Y363078D01*
X321911Y363013D01*
X321816Y362951D01*
X321719Y362893D01*
X321620Y362838D01*
X321519Y362787D01*
X321416Y362739D01*
X321312Y362694D01*
X321206Y362654D01*
X321099Y362617D01*
X320991Y362584D01*
X320881Y362554D01*
X320771Y362529D01*
X320660Y362507D01*
X320548Y362490D01*
X320435Y362476D01*
X320322Y362466D01*
X320209Y362460D01*
X320096Y362458D01*
X320746Y367651D02*
X323342Y370247D01*
X314579Y380093D02*
X314472Y380091D01*
X314366Y380085D01*
X314260Y380075D01*
X314154Y380062D01*
X314048Y380044D01*
X313944Y380023D01*
X313840Y379998D01*
X313737Y379969D01*
X313636Y379937D01*
X313536Y379900D01*
X313437Y379860D01*
X313339Y379817D01*
X313243Y379770D01*
X313149Y379719D01*
X313057Y379665D01*
X312967Y379608D01*
X312879Y379548D01*
X312794Y379484D01*
X312711Y379417D01*
X312630Y379347D01*
X312552Y379275D01*
X312476Y379199D01*
X312404Y379121D01*
X312334Y379040D01*
X312267Y378957D01*
X312203Y378872D01*
X312143Y378784D01*
X312086Y378694D01*
X312032Y378602D01*
X311981Y378508D01*
X311934Y378412D01*
X311891Y378314D01*
X311851Y378215D01*
X311814Y378115D01*
X311782Y378014D01*
X311753Y377911D01*
X311728Y377807D01*
X311707Y377703D01*
X311689Y377597D01*
X311676Y377491D01*
X311666Y377385D01*
X311660Y377279D01*
X311658Y377172D01*
X311660Y377051D01*
X311666Y376930D01*
X311676Y376810D01*
X311689Y376689D01*
X311707Y376570D01*
X311728Y376450D01*
X311753Y376332D01*
X311782Y376215D01*
X311815Y376098D01*
X311851Y375983D01*
X311892Y375869D01*
X311935Y375756D01*
X311983Y375644D01*
X312034Y375535D01*
X312089Y375427D01*
X312147Y375320D01*
X312208Y375216D01*
X312273Y375114D01*
X312341Y375014D01*
X312412Y374916D01*
X312486Y374820D01*
X312563Y374727D01*
X312644Y374637D01*
X312727Y374549D01*
X312813Y374464D01*
X312902Y374381D01*
X312993Y374302D01*
X313087Y374225D01*
X313183Y374152D01*
X313281Y374082D01*
X313382Y374015D01*
X313485Y373951D01*
X313590Y373891D01*
X313697Y373833D01*
X313805Y373780D01*
X313915Y373730D01*
X314027Y373684D01*
X314140Y373641D01*
X314255Y373602D01*
X316851Y379119D02*
X316773Y379198D01*
X316693Y379274D01*
X316610Y379347D01*
X316524Y379417D01*
X316437Y379484D01*
X316346Y379548D01*
X316254Y379608D01*
X316160Y379666D01*
X316063Y379720D01*
X315965Y379770D01*
X315865Y379817D01*
X315764Y379861D01*
X315661Y379901D01*
X315556Y379937D01*
X315451Y379969D01*
X315344Y379998D01*
X315237Y380023D01*
X315128Y380045D01*
X315019Y380062D01*
X314910Y380076D01*
X314800Y380085D01*
X314689Y380091D01*
X314579Y380093D01*
X316851Y379119D02*
X323342Y373602D01*
X323342Y380093D01*
X320096Y184658D02*
X314904Y184658D01*
X314791Y184660D01*
X314678Y184666D01*
X314565Y184676D01*
X314452Y184690D01*
X314340Y184707D01*
X314229Y184729D01*
X314119Y184754D01*
X314009Y184784D01*
X313901Y184817D01*
X313794Y184854D01*
X313688Y184894D01*
X313584Y184939D01*
X313481Y184987D01*
X313380Y185038D01*
X313281Y185093D01*
X313184Y185151D01*
X313089Y185213D01*
X312996Y185278D01*
X312906Y185346D01*
X312818Y185417D01*
X312732Y185492D01*
X312649Y185569D01*
X312569Y185649D01*
X312492Y185732D01*
X312417Y185818D01*
X312346Y185906D01*
X312278Y185996D01*
X312213Y186089D01*
X312151Y186184D01*
X312093Y186281D01*
X312038Y186380D01*
X311987Y186481D01*
X311939Y186584D01*
X311894Y186688D01*
X311854Y186794D01*
X311817Y186901D01*
X311784Y187009D01*
X311754Y187119D01*
X311729Y187229D01*
X311707Y187340D01*
X311690Y187452D01*
X311676Y187565D01*
X311666Y187678D01*
X311660Y187791D01*
X311658Y187904D01*
X311660Y188017D01*
X311666Y188130D01*
X311676Y188243D01*
X311690Y188356D01*
X311707Y188468D01*
X311729Y188579D01*
X311754Y188689D01*
X311784Y188799D01*
X311817Y188907D01*
X311854Y189014D01*
X311894Y189120D01*
X311939Y189224D01*
X311987Y189327D01*
X312038Y189428D01*
X312093Y189527D01*
X312151Y189624D01*
X312213Y189719D01*
X312278Y189812D01*
X312346Y189902D01*
X312417Y189990D01*
X312492Y190076D01*
X312569Y190159D01*
X312649Y190239D01*
X312732Y190316D01*
X312818Y190391D01*
X312906Y190462D01*
X312996Y190530D01*
X313089Y190595D01*
X313184Y190657D01*
X313281Y190715D01*
X313380Y190770D01*
X313481Y190821D01*
X313584Y190869D01*
X313688Y190914D01*
X313794Y190954D01*
X313901Y190991D01*
X314009Y191024D01*
X314119Y191054D01*
X314229Y191079D01*
X314340Y191101D01*
X314452Y191118D01*
X314565Y191132D01*
X314678Y191142D01*
X314791Y191148D01*
X314904Y191150D01*
X314904Y191149D02*
X320096Y191149D01*
X320096Y191150D02*
X320209Y191148D01*
X320322Y191142D01*
X320435Y191132D01*
X320548Y191118D01*
X320660Y191101D01*
X320771Y191079D01*
X320881Y191054D01*
X320991Y191024D01*
X321099Y190991D01*
X321206Y190954D01*
X321312Y190914D01*
X321416Y190869D01*
X321519Y190821D01*
X321620Y190770D01*
X321719Y190715D01*
X321816Y190657D01*
X321911Y190595D01*
X322004Y190530D01*
X322094Y190462D01*
X322182Y190391D01*
X322268Y190316D01*
X322351Y190239D01*
X322431Y190159D01*
X322508Y190076D01*
X322583Y189990D01*
X322654Y189902D01*
X322722Y189812D01*
X322787Y189719D01*
X322849Y189624D01*
X322907Y189527D01*
X322962Y189428D01*
X323013Y189327D01*
X323061Y189224D01*
X323106Y189120D01*
X323146Y189014D01*
X323183Y188907D01*
X323216Y188799D01*
X323246Y188689D01*
X323271Y188579D01*
X323293Y188468D01*
X323310Y188356D01*
X323324Y188243D01*
X323334Y188130D01*
X323340Y188017D01*
X323342Y187904D01*
X323340Y187791D01*
X323334Y187678D01*
X323324Y187565D01*
X323310Y187452D01*
X323293Y187340D01*
X323271Y187229D01*
X323246Y187119D01*
X323216Y187009D01*
X323183Y186901D01*
X323146Y186794D01*
X323106Y186688D01*
X323061Y186584D01*
X323013Y186481D01*
X322962Y186380D01*
X322907Y186281D01*
X322849Y186184D01*
X322787Y186089D01*
X322722Y185996D01*
X322654Y185906D01*
X322583Y185818D01*
X322508Y185732D01*
X322431Y185649D01*
X322351Y185569D01*
X322268Y185492D01*
X322182Y185417D01*
X322094Y185346D01*
X322004Y185278D01*
X321911Y185213D01*
X321816Y185151D01*
X321719Y185093D01*
X321620Y185038D01*
X321519Y184987D01*
X321416Y184939D01*
X321312Y184894D01*
X321206Y184854D01*
X321099Y184817D01*
X320991Y184784D01*
X320881Y184754D01*
X320771Y184729D01*
X320660Y184707D01*
X320548Y184690D01*
X320435Y184676D01*
X320322Y184666D01*
X320209Y184660D01*
X320096Y184658D01*
X320746Y189851D02*
X323342Y192447D01*
X323342Y195802D02*
X323342Y199047D01*
X323340Y199160D01*
X323334Y199273D01*
X323324Y199386D01*
X323310Y199499D01*
X323293Y199611D01*
X323271Y199722D01*
X323246Y199832D01*
X323216Y199942D01*
X323183Y200050D01*
X323146Y200157D01*
X323106Y200263D01*
X323061Y200367D01*
X323013Y200470D01*
X322962Y200571D01*
X322907Y200670D01*
X322849Y200767D01*
X322787Y200862D01*
X322722Y200955D01*
X322654Y201045D01*
X322583Y201133D01*
X322508Y201219D01*
X322431Y201302D01*
X322351Y201382D01*
X322268Y201459D01*
X322182Y201534D01*
X322094Y201605D01*
X322004Y201673D01*
X321911Y201738D01*
X321816Y201800D01*
X321719Y201858D01*
X321620Y201913D01*
X321519Y201964D01*
X321416Y202012D01*
X321312Y202057D01*
X321206Y202097D01*
X321099Y202134D01*
X320991Y202167D01*
X320881Y202197D01*
X320771Y202222D01*
X320660Y202244D01*
X320548Y202261D01*
X320435Y202275D01*
X320322Y202285D01*
X320209Y202291D01*
X320096Y202293D01*
X319983Y202291D01*
X319870Y202285D01*
X319757Y202275D01*
X319644Y202261D01*
X319532Y202244D01*
X319421Y202222D01*
X319311Y202197D01*
X319201Y202167D01*
X319093Y202134D01*
X318986Y202097D01*
X318880Y202057D01*
X318776Y202012D01*
X318673Y201964D01*
X318572Y201913D01*
X318473Y201858D01*
X318376Y201800D01*
X318281Y201738D01*
X318188Y201673D01*
X318098Y201605D01*
X318010Y201534D01*
X317924Y201459D01*
X317841Y201382D01*
X317761Y201302D01*
X317684Y201219D01*
X317609Y201133D01*
X317538Y201045D01*
X317470Y200955D01*
X317405Y200862D01*
X317343Y200767D01*
X317285Y200670D01*
X317230Y200571D01*
X317179Y200470D01*
X317131Y200367D01*
X317086Y200263D01*
X317046Y200157D01*
X317009Y200050D01*
X316976Y199942D01*
X316946Y199832D01*
X316921Y199722D01*
X316899Y199611D01*
X316882Y199499D01*
X316868Y199386D01*
X316858Y199273D01*
X316852Y199160D01*
X316850Y199047D01*
X311658Y199697D02*
X311658Y195802D01*
X311658Y199697D02*
X311660Y199798D01*
X311666Y199898D01*
X311676Y199998D01*
X311689Y200098D01*
X311707Y200197D01*
X311728Y200296D01*
X311753Y200393D01*
X311782Y200490D01*
X311815Y200585D01*
X311851Y200679D01*
X311891Y200771D01*
X311934Y200862D01*
X311981Y200951D01*
X312031Y201038D01*
X312085Y201124D01*
X312142Y201207D01*
X312202Y201287D01*
X312265Y201366D01*
X312332Y201442D01*
X312401Y201515D01*
X312473Y201585D01*
X312547Y201653D01*
X312624Y201718D01*
X312704Y201779D01*
X312786Y201838D01*
X312870Y201893D01*
X312956Y201945D01*
X313044Y201994D01*
X313134Y202039D01*
X313226Y202081D01*
X313319Y202119D01*
X313414Y202153D01*
X313509Y202184D01*
X313606Y202211D01*
X313704Y202234D01*
X313803Y202254D01*
X313903Y202269D01*
X314003Y202281D01*
X314103Y202289D01*
X314204Y202293D01*
X314304Y202293D01*
X314405Y202289D01*
X314505Y202281D01*
X314605Y202269D01*
X314705Y202254D01*
X314804Y202234D01*
X314902Y202211D01*
X314999Y202184D01*
X315094Y202153D01*
X315189Y202119D01*
X315282Y202081D01*
X315374Y202039D01*
X315464Y201994D01*
X315552Y201945D01*
X315638Y201893D01*
X315722Y201838D01*
X315804Y201779D01*
X315884Y201718D01*
X315961Y201653D01*
X316035Y201585D01*
X316107Y201515D01*
X316176Y201442D01*
X316243Y201366D01*
X316306Y201287D01*
X316366Y201207D01*
X316423Y201124D01*
X316477Y201038D01*
X316527Y200951D01*
X316574Y200862D01*
X316617Y200771D01*
X316657Y200679D01*
X316693Y200585D01*
X316726Y200490D01*
X316755Y200393D01*
X316780Y200296D01*
X316801Y200197D01*
X316819Y200098D01*
X316832Y199998D01*
X316842Y199898D01*
X316848Y199798D01*
X316850Y199697D01*
X316851Y199697D02*
X316851Y197100D01*
D15*
X547700Y19050D02*
X747700Y19050D01*
X547700Y19050D02*
X547700Y434050D01*
X747700Y434050D01*
X747700Y19050D01*
D12*
X248158Y572008D02*
X248158Y583692D01*
X251404Y583692D01*
X251517Y583690D01*
X251630Y583684D01*
X251743Y583674D01*
X251856Y583660D01*
X251968Y583643D01*
X252079Y583621D01*
X252189Y583596D01*
X252299Y583566D01*
X252407Y583533D01*
X252514Y583496D01*
X252620Y583456D01*
X252724Y583411D01*
X252827Y583363D01*
X252928Y583312D01*
X253027Y583257D01*
X253124Y583199D01*
X253219Y583137D01*
X253312Y583072D01*
X253402Y583004D01*
X253490Y582933D01*
X253576Y582858D01*
X253659Y582781D01*
X253739Y582701D01*
X253816Y582618D01*
X253891Y582532D01*
X253962Y582444D01*
X254030Y582354D01*
X254095Y582261D01*
X254157Y582166D01*
X254215Y582069D01*
X254270Y581970D01*
X254321Y581869D01*
X254369Y581766D01*
X254414Y581662D01*
X254454Y581556D01*
X254491Y581449D01*
X254524Y581341D01*
X254554Y581231D01*
X254579Y581121D01*
X254601Y581010D01*
X254618Y580898D01*
X254632Y580785D01*
X254642Y580672D01*
X254648Y580559D01*
X254650Y580446D01*
X254648Y580333D01*
X254642Y580220D01*
X254632Y580107D01*
X254618Y579994D01*
X254601Y579882D01*
X254579Y579771D01*
X254554Y579661D01*
X254524Y579551D01*
X254491Y579443D01*
X254454Y579336D01*
X254414Y579230D01*
X254369Y579126D01*
X254321Y579023D01*
X254270Y578922D01*
X254215Y578823D01*
X254157Y578726D01*
X254095Y578631D01*
X254030Y578538D01*
X253962Y578448D01*
X253891Y578360D01*
X253816Y578274D01*
X253739Y578191D01*
X253659Y578111D01*
X253576Y578034D01*
X253490Y577959D01*
X253402Y577888D01*
X253312Y577820D01*
X253219Y577755D01*
X253124Y577693D01*
X253027Y577635D01*
X252928Y577580D01*
X252827Y577529D01*
X252724Y577481D01*
X252620Y577436D01*
X252514Y577396D01*
X252407Y577359D01*
X252299Y577326D01*
X252189Y577296D01*
X252079Y577271D01*
X251968Y577249D01*
X251856Y577232D01*
X251743Y577218D01*
X251630Y577208D01*
X251517Y577202D01*
X251404Y577200D01*
X251404Y577201D02*
X248158Y577201D01*
X252053Y577201D02*
X254649Y572008D01*
X259514Y581096D02*
X262760Y583692D01*
X262760Y572008D01*
X266005Y572008D02*
X259514Y572008D01*
X270944Y575254D02*
X270946Y575367D01*
X270952Y575480D01*
X270962Y575593D01*
X270976Y575706D01*
X270993Y575818D01*
X271015Y575929D01*
X271040Y576039D01*
X271070Y576149D01*
X271103Y576257D01*
X271140Y576364D01*
X271180Y576470D01*
X271225Y576574D01*
X271273Y576677D01*
X271324Y576778D01*
X271379Y576877D01*
X271437Y576974D01*
X271499Y577069D01*
X271564Y577162D01*
X271632Y577252D01*
X271703Y577340D01*
X271778Y577426D01*
X271855Y577509D01*
X271935Y577589D01*
X272018Y577666D01*
X272104Y577741D01*
X272192Y577812D01*
X272282Y577880D01*
X272375Y577945D01*
X272470Y578007D01*
X272567Y578065D01*
X272666Y578120D01*
X272767Y578171D01*
X272870Y578219D01*
X272974Y578264D01*
X273080Y578304D01*
X273187Y578341D01*
X273295Y578374D01*
X273405Y578404D01*
X273515Y578429D01*
X273626Y578451D01*
X273738Y578468D01*
X273851Y578482D01*
X273964Y578492D01*
X274077Y578498D01*
X274190Y578500D01*
X274303Y578498D01*
X274416Y578492D01*
X274529Y578482D01*
X274642Y578468D01*
X274754Y578451D01*
X274865Y578429D01*
X274975Y578404D01*
X275085Y578374D01*
X275193Y578341D01*
X275300Y578304D01*
X275406Y578264D01*
X275510Y578219D01*
X275613Y578171D01*
X275714Y578120D01*
X275813Y578065D01*
X275910Y578007D01*
X276005Y577945D01*
X276098Y577880D01*
X276188Y577812D01*
X276276Y577741D01*
X276362Y577666D01*
X276445Y577589D01*
X276525Y577509D01*
X276602Y577426D01*
X276677Y577340D01*
X276748Y577252D01*
X276816Y577162D01*
X276881Y577069D01*
X276943Y576974D01*
X277001Y576877D01*
X277056Y576778D01*
X277107Y576677D01*
X277155Y576574D01*
X277200Y576470D01*
X277240Y576364D01*
X277277Y576257D01*
X277310Y576149D01*
X277340Y576039D01*
X277365Y575929D01*
X277387Y575818D01*
X277404Y575706D01*
X277418Y575593D01*
X277428Y575480D01*
X277434Y575367D01*
X277436Y575254D01*
X277434Y575141D01*
X277428Y575028D01*
X277418Y574915D01*
X277404Y574802D01*
X277387Y574690D01*
X277365Y574579D01*
X277340Y574469D01*
X277310Y574359D01*
X277277Y574251D01*
X277240Y574144D01*
X277200Y574038D01*
X277155Y573934D01*
X277107Y573831D01*
X277056Y573730D01*
X277001Y573631D01*
X276943Y573534D01*
X276881Y573439D01*
X276816Y573346D01*
X276748Y573256D01*
X276677Y573168D01*
X276602Y573082D01*
X276525Y572999D01*
X276445Y572919D01*
X276362Y572842D01*
X276276Y572767D01*
X276188Y572696D01*
X276098Y572628D01*
X276005Y572563D01*
X275910Y572501D01*
X275813Y572443D01*
X275714Y572388D01*
X275613Y572337D01*
X275510Y572289D01*
X275406Y572244D01*
X275300Y572204D01*
X275193Y572167D01*
X275085Y572134D01*
X274975Y572104D01*
X274865Y572079D01*
X274754Y572057D01*
X274642Y572040D01*
X274529Y572026D01*
X274416Y572016D01*
X274303Y572010D01*
X274190Y572008D01*
X274077Y572010D01*
X273964Y572016D01*
X273851Y572026D01*
X273738Y572040D01*
X273626Y572057D01*
X273515Y572079D01*
X273405Y572104D01*
X273295Y572134D01*
X273187Y572167D01*
X273080Y572204D01*
X272974Y572244D01*
X272870Y572289D01*
X272767Y572337D01*
X272666Y572388D01*
X272567Y572443D01*
X272470Y572501D01*
X272375Y572563D01*
X272282Y572628D01*
X272192Y572696D01*
X272104Y572767D01*
X272018Y572842D01*
X271935Y572919D01*
X271855Y572999D01*
X271778Y573082D01*
X271703Y573168D01*
X271632Y573256D01*
X271564Y573346D01*
X271499Y573439D01*
X271437Y573534D01*
X271379Y573631D01*
X271324Y573730D01*
X271273Y573831D01*
X271225Y573934D01*
X271180Y574038D01*
X271140Y574144D01*
X271103Y574251D01*
X271070Y574359D01*
X271040Y574469D01*
X271015Y574579D01*
X270993Y574690D01*
X270976Y574802D01*
X270962Y574915D01*
X270952Y575028D01*
X270946Y575141D01*
X270944Y575254D01*
X271594Y581096D02*
X271596Y581197D01*
X271602Y581297D01*
X271612Y581397D01*
X271625Y581497D01*
X271643Y581596D01*
X271664Y581695D01*
X271689Y581792D01*
X271718Y581889D01*
X271751Y581984D01*
X271787Y582078D01*
X271827Y582170D01*
X271870Y582261D01*
X271917Y582350D01*
X271967Y582437D01*
X272021Y582523D01*
X272078Y582606D01*
X272138Y582686D01*
X272201Y582765D01*
X272268Y582841D01*
X272337Y582914D01*
X272409Y582984D01*
X272483Y583052D01*
X272560Y583117D01*
X272640Y583178D01*
X272722Y583237D01*
X272806Y583292D01*
X272892Y583344D01*
X272980Y583393D01*
X273070Y583438D01*
X273162Y583480D01*
X273255Y583518D01*
X273350Y583552D01*
X273445Y583583D01*
X273542Y583610D01*
X273640Y583633D01*
X273739Y583653D01*
X273839Y583668D01*
X273939Y583680D01*
X274039Y583688D01*
X274140Y583692D01*
X274240Y583692D01*
X274341Y583688D01*
X274441Y583680D01*
X274541Y583668D01*
X274641Y583653D01*
X274740Y583633D01*
X274838Y583610D01*
X274935Y583583D01*
X275030Y583552D01*
X275125Y583518D01*
X275218Y583480D01*
X275310Y583438D01*
X275400Y583393D01*
X275488Y583344D01*
X275574Y583292D01*
X275658Y583237D01*
X275740Y583178D01*
X275820Y583117D01*
X275897Y583052D01*
X275971Y582984D01*
X276043Y582914D01*
X276112Y582841D01*
X276179Y582765D01*
X276242Y582686D01*
X276302Y582606D01*
X276359Y582523D01*
X276413Y582437D01*
X276463Y582350D01*
X276510Y582261D01*
X276553Y582170D01*
X276593Y582078D01*
X276629Y581984D01*
X276662Y581889D01*
X276691Y581792D01*
X276716Y581695D01*
X276737Y581596D01*
X276755Y581497D01*
X276768Y581397D01*
X276778Y581297D01*
X276784Y581197D01*
X276786Y581096D01*
X276784Y580995D01*
X276778Y580895D01*
X276768Y580795D01*
X276755Y580695D01*
X276737Y580596D01*
X276716Y580497D01*
X276691Y580400D01*
X276662Y580303D01*
X276629Y580208D01*
X276593Y580114D01*
X276553Y580022D01*
X276510Y579931D01*
X276463Y579842D01*
X276413Y579755D01*
X276359Y579669D01*
X276302Y579586D01*
X276242Y579506D01*
X276179Y579427D01*
X276112Y579351D01*
X276043Y579278D01*
X275971Y579208D01*
X275897Y579140D01*
X275820Y579075D01*
X275740Y579014D01*
X275658Y578955D01*
X275574Y578900D01*
X275488Y578848D01*
X275400Y578799D01*
X275310Y578754D01*
X275218Y578712D01*
X275125Y578674D01*
X275030Y578640D01*
X274935Y578609D01*
X274838Y578582D01*
X274740Y578559D01*
X274641Y578539D01*
X274541Y578524D01*
X274441Y578512D01*
X274341Y578504D01*
X274240Y578500D01*
X274140Y578500D01*
X274039Y578504D01*
X273939Y578512D01*
X273839Y578524D01*
X273739Y578539D01*
X273640Y578559D01*
X273542Y578582D01*
X273445Y578609D01*
X273350Y578640D01*
X273255Y578674D01*
X273162Y578712D01*
X273070Y578754D01*
X272980Y578799D01*
X272892Y578848D01*
X272806Y578900D01*
X272722Y578955D01*
X272640Y579014D01*
X272560Y579075D01*
X272483Y579140D01*
X272409Y579208D01*
X272337Y579278D01*
X272268Y579351D01*
X272201Y579427D01*
X272138Y579506D01*
X272078Y579586D01*
X272021Y579669D01*
X271967Y579755D01*
X271917Y579842D01*
X271870Y579931D01*
X271827Y580022D01*
X271787Y580114D01*
X271751Y580208D01*
X271718Y580303D01*
X271689Y580400D01*
X271664Y580497D01*
X271643Y580596D01*
X271625Y580695D01*
X271612Y580795D01*
X271602Y580895D01*
X271596Y580995D01*
X271594Y581096D01*
D18*
X375350Y674025D02*
X375352Y674088D01*
X375358Y674150D01*
X375368Y674212D01*
X375381Y674274D01*
X375399Y674334D01*
X375420Y674393D01*
X375445Y674451D01*
X375474Y674507D01*
X375506Y674561D01*
X375541Y674613D01*
X375579Y674662D01*
X375621Y674710D01*
X375665Y674754D01*
X375713Y674796D01*
X375762Y674834D01*
X375814Y674869D01*
X375868Y674901D01*
X375924Y674930D01*
X375982Y674955D01*
X376041Y674976D01*
X376101Y674994D01*
X376163Y675007D01*
X376225Y675017D01*
X376287Y675023D01*
X376350Y675025D01*
X376413Y675023D01*
X376475Y675017D01*
X376537Y675007D01*
X376599Y674994D01*
X376659Y674976D01*
X376718Y674955D01*
X376776Y674930D01*
X376832Y674901D01*
X376886Y674869D01*
X376938Y674834D01*
X376987Y674796D01*
X377035Y674754D01*
X377079Y674710D01*
X377121Y674662D01*
X377159Y674613D01*
X377194Y674561D01*
X377226Y674507D01*
X377255Y674451D01*
X377280Y674393D01*
X377301Y674334D01*
X377319Y674274D01*
X377332Y674212D01*
X377342Y674150D01*
X377348Y674088D01*
X377350Y674025D01*
X377348Y673962D01*
X377342Y673900D01*
X377332Y673838D01*
X377319Y673776D01*
X377301Y673716D01*
X377280Y673657D01*
X377255Y673599D01*
X377226Y673543D01*
X377194Y673489D01*
X377159Y673437D01*
X377121Y673388D01*
X377079Y673340D01*
X377035Y673296D01*
X376987Y673254D01*
X376938Y673216D01*
X376886Y673181D01*
X376832Y673149D01*
X376776Y673120D01*
X376718Y673095D01*
X376659Y673074D01*
X376599Y673056D01*
X376537Y673043D01*
X376475Y673033D01*
X376413Y673027D01*
X376350Y673025D01*
X376287Y673027D01*
X376225Y673033D01*
X376163Y673043D01*
X376101Y673056D01*
X376041Y673074D01*
X375982Y673095D01*
X375924Y673120D01*
X375868Y673149D01*
X375814Y673181D01*
X375762Y673216D01*
X375713Y673254D01*
X375665Y673296D01*
X375621Y673340D01*
X375579Y673388D01*
X375541Y673437D01*
X375506Y673489D01*
X375474Y673543D01*
X375445Y673599D01*
X375420Y673657D01*
X375399Y673716D01*
X375381Y673776D01*
X375368Y673838D01*
X375358Y673900D01*
X375352Y673962D01*
X375350Y674025D01*
D15*
X399150Y675175D02*
X439050Y675175D01*
X439050Y620225D02*
X399150Y620225D01*
D12*
X383258Y680699D02*
X383258Y689137D01*
X383258Y680699D02*
X383260Y680586D01*
X383266Y680473D01*
X383276Y680360D01*
X383290Y680247D01*
X383307Y680135D01*
X383329Y680024D01*
X383354Y679914D01*
X383384Y679804D01*
X383417Y679696D01*
X383454Y679589D01*
X383494Y679483D01*
X383539Y679379D01*
X383587Y679276D01*
X383638Y679175D01*
X383693Y679076D01*
X383751Y678979D01*
X383813Y678884D01*
X383878Y678791D01*
X383946Y678701D01*
X384017Y678613D01*
X384092Y678527D01*
X384169Y678444D01*
X384249Y678364D01*
X384332Y678287D01*
X384418Y678212D01*
X384506Y678141D01*
X384596Y678073D01*
X384689Y678008D01*
X384784Y677946D01*
X384881Y677888D01*
X384980Y677833D01*
X385081Y677782D01*
X385184Y677734D01*
X385288Y677689D01*
X385394Y677649D01*
X385501Y677612D01*
X385609Y677579D01*
X385719Y677549D01*
X385829Y677524D01*
X385940Y677502D01*
X386052Y677485D01*
X386165Y677471D01*
X386278Y677461D01*
X386391Y677455D01*
X386504Y677453D01*
X386617Y677455D01*
X386730Y677461D01*
X386843Y677471D01*
X386956Y677485D01*
X387068Y677502D01*
X387179Y677524D01*
X387289Y677549D01*
X387399Y677579D01*
X387507Y677612D01*
X387614Y677649D01*
X387720Y677689D01*
X387824Y677734D01*
X387927Y677782D01*
X388028Y677833D01*
X388127Y677888D01*
X388224Y677946D01*
X388319Y678008D01*
X388412Y678073D01*
X388502Y678141D01*
X388590Y678212D01*
X388676Y678287D01*
X388759Y678364D01*
X388839Y678444D01*
X388916Y678527D01*
X388991Y678613D01*
X389062Y678701D01*
X389130Y678791D01*
X389195Y678884D01*
X389257Y678979D01*
X389315Y679076D01*
X389370Y679175D01*
X389421Y679276D01*
X389469Y679379D01*
X389514Y679483D01*
X389554Y679589D01*
X389591Y679696D01*
X389624Y679804D01*
X389654Y679914D01*
X389679Y680024D01*
X389701Y680135D01*
X389718Y680247D01*
X389732Y680360D01*
X389742Y680473D01*
X389748Y680586D01*
X389750Y680699D01*
X389749Y680699D02*
X389749Y689137D01*
X398639Y689137D02*
X398746Y689135D01*
X398852Y689129D01*
X398958Y689119D01*
X399064Y689106D01*
X399170Y689088D01*
X399274Y689067D01*
X399378Y689042D01*
X399481Y689013D01*
X399582Y688981D01*
X399682Y688944D01*
X399781Y688904D01*
X399879Y688861D01*
X399975Y688814D01*
X400069Y688763D01*
X400161Y688709D01*
X400251Y688652D01*
X400339Y688592D01*
X400424Y688528D01*
X400507Y688461D01*
X400588Y688391D01*
X400666Y688319D01*
X400742Y688243D01*
X400814Y688165D01*
X400884Y688084D01*
X400951Y688001D01*
X401015Y687916D01*
X401075Y687828D01*
X401132Y687738D01*
X401186Y687646D01*
X401237Y687552D01*
X401284Y687456D01*
X401327Y687358D01*
X401367Y687259D01*
X401404Y687159D01*
X401436Y687058D01*
X401465Y686955D01*
X401490Y686851D01*
X401511Y686747D01*
X401529Y686641D01*
X401542Y686535D01*
X401552Y686429D01*
X401558Y686323D01*
X401560Y686216D01*
X398639Y689137D02*
X398518Y689135D01*
X398397Y689129D01*
X398277Y689119D01*
X398156Y689106D01*
X398037Y689088D01*
X397917Y689067D01*
X397799Y689042D01*
X397682Y689013D01*
X397565Y688980D01*
X397450Y688944D01*
X397336Y688903D01*
X397223Y688860D01*
X397111Y688812D01*
X397002Y688761D01*
X396894Y688706D01*
X396787Y688648D01*
X396683Y688587D01*
X396581Y688522D01*
X396481Y688454D01*
X396383Y688383D01*
X396287Y688309D01*
X396194Y688232D01*
X396104Y688151D01*
X396016Y688068D01*
X395931Y687982D01*
X395848Y687893D01*
X395769Y687802D01*
X395692Y687708D01*
X395619Y687612D01*
X395549Y687514D01*
X395482Y687413D01*
X395418Y687310D01*
X395358Y687205D01*
X395301Y687098D01*
X395247Y686990D01*
X395197Y686880D01*
X395151Y686768D01*
X395108Y686655D01*
X395069Y686540D01*
X400587Y683944D02*
X400666Y684021D01*
X400742Y684102D01*
X400815Y684185D01*
X400885Y684270D01*
X400952Y684358D01*
X401016Y684448D01*
X401076Y684540D01*
X401133Y684635D01*
X401187Y684731D01*
X401238Y684829D01*
X401285Y684929D01*
X401329Y685031D01*
X401369Y685134D01*
X401405Y685238D01*
X401437Y685344D01*
X401466Y685450D01*
X401491Y685558D01*
X401513Y685666D01*
X401530Y685776D01*
X401544Y685885D01*
X401553Y685995D01*
X401559Y686106D01*
X401561Y686216D01*
X400586Y683944D02*
X395069Y677453D01*
X401560Y677453D01*
X552958Y520192D02*
X552958Y508508D01*
X552958Y520192D02*
X556204Y520192D01*
X556317Y520190D01*
X556430Y520184D01*
X556543Y520174D01*
X556656Y520160D01*
X556768Y520143D01*
X556879Y520121D01*
X556989Y520096D01*
X557099Y520066D01*
X557207Y520033D01*
X557314Y519996D01*
X557420Y519956D01*
X557524Y519911D01*
X557627Y519863D01*
X557728Y519812D01*
X557827Y519757D01*
X557924Y519699D01*
X558019Y519637D01*
X558112Y519572D01*
X558202Y519504D01*
X558290Y519433D01*
X558376Y519358D01*
X558459Y519281D01*
X558539Y519201D01*
X558616Y519118D01*
X558691Y519032D01*
X558762Y518944D01*
X558830Y518854D01*
X558895Y518761D01*
X558957Y518666D01*
X559015Y518569D01*
X559070Y518470D01*
X559121Y518369D01*
X559169Y518266D01*
X559214Y518162D01*
X559254Y518056D01*
X559291Y517949D01*
X559324Y517841D01*
X559354Y517731D01*
X559379Y517621D01*
X559401Y517510D01*
X559418Y517398D01*
X559432Y517285D01*
X559442Y517172D01*
X559448Y517059D01*
X559450Y516946D01*
X559448Y516833D01*
X559442Y516720D01*
X559432Y516607D01*
X559418Y516494D01*
X559401Y516382D01*
X559379Y516271D01*
X559354Y516161D01*
X559324Y516051D01*
X559291Y515943D01*
X559254Y515836D01*
X559214Y515730D01*
X559169Y515626D01*
X559121Y515523D01*
X559070Y515422D01*
X559015Y515323D01*
X558957Y515226D01*
X558895Y515131D01*
X558830Y515038D01*
X558762Y514948D01*
X558691Y514860D01*
X558616Y514774D01*
X558539Y514691D01*
X558459Y514611D01*
X558376Y514534D01*
X558290Y514459D01*
X558202Y514388D01*
X558112Y514320D01*
X558019Y514255D01*
X557924Y514193D01*
X557827Y514135D01*
X557728Y514080D01*
X557627Y514029D01*
X557524Y513981D01*
X557420Y513936D01*
X557314Y513896D01*
X557207Y513859D01*
X557099Y513826D01*
X556989Y513796D01*
X556879Y513771D01*
X556768Y513749D01*
X556656Y513732D01*
X556543Y513718D01*
X556430Y513708D01*
X556317Y513702D01*
X556204Y513700D01*
X556204Y513701D02*
X552958Y513701D01*
X556853Y513701D02*
X559449Y508508D01*
X570805Y517271D02*
X570803Y517378D01*
X570797Y517484D01*
X570787Y517590D01*
X570774Y517696D01*
X570756Y517802D01*
X570735Y517906D01*
X570710Y518010D01*
X570681Y518113D01*
X570649Y518214D01*
X570612Y518314D01*
X570572Y518413D01*
X570529Y518511D01*
X570482Y518607D01*
X570431Y518701D01*
X570377Y518793D01*
X570320Y518883D01*
X570260Y518971D01*
X570196Y519056D01*
X570129Y519139D01*
X570059Y519220D01*
X569987Y519298D01*
X569911Y519374D01*
X569833Y519446D01*
X569752Y519516D01*
X569669Y519583D01*
X569584Y519647D01*
X569496Y519707D01*
X569406Y519764D01*
X569314Y519818D01*
X569220Y519869D01*
X569124Y519916D01*
X569026Y519959D01*
X568927Y519999D01*
X568827Y520036D01*
X568726Y520068D01*
X568623Y520097D01*
X568519Y520122D01*
X568415Y520143D01*
X568309Y520161D01*
X568203Y520174D01*
X568097Y520184D01*
X567991Y520190D01*
X567884Y520192D01*
X567763Y520190D01*
X567642Y520184D01*
X567522Y520174D01*
X567401Y520161D01*
X567282Y520143D01*
X567162Y520122D01*
X567044Y520097D01*
X566927Y520068D01*
X566810Y520035D01*
X566695Y519999D01*
X566581Y519958D01*
X566468Y519915D01*
X566356Y519867D01*
X566247Y519816D01*
X566139Y519761D01*
X566032Y519703D01*
X565928Y519642D01*
X565826Y519577D01*
X565726Y519509D01*
X565628Y519438D01*
X565532Y519364D01*
X565439Y519287D01*
X565349Y519206D01*
X565261Y519123D01*
X565176Y519037D01*
X565093Y518948D01*
X565014Y518857D01*
X564937Y518763D01*
X564864Y518667D01*
X564794Y518569D01*
X564727Y518468D01*
X564663Y518365D01*
X564603Y518260D01*
X564546Y518153D01*
X564492Y518045D01*
X564442Y517935D01*
X564396Y517823D01*
X564353Y517710D01*
X564314Y517595D01*
X569832Y514999D02*
X569911Y515076D01*
X569987Y515157D01*
X570060Y515240D01*
X570130Y515325D01*
X570197Y515413D01*
X570261Y515503D01*
X570321Y515595D01*
X570378Y515690D01*
X570432Y515786D01*
X570483Y515884D01*
X570530Y515984D01*
X570574Y516086D01*
X570614Y516189D01*
X570650Y516293D01*
X570682Y516399D01*
X570711Y516505D01*
X570736Y516613D01*
X570758Y516721D01*
X570775Y516831D01*
X570789Y516940D01*
X570798Y517050D01*
X570804Y517161D01*
X570806Y517271D01*
X569832Y514999D02*
X564314Y508508D01*
X570805Y508508D01*
X575744Y517596D02*
X578990Y520192D01*
X578990Y508508D01*
X582235Y508508D02*
X575744Y508508D01*
X552958Y546608D02*
X552958Y558292D01*
X556204Y558292D01*
X556317Y558290D01*
X556430Y558284D01*
X556543Y558274D01*
X556656Y558260D01*
X556768Y558243D01*
X556879Y558221D01*
X556989Y558196D01*
X557099Y558166D01*
X557207Y558133D01*
X557314Y558096D01*
X557420Y558056D01*
X557524Y558011D01*
X557627Y557963D01*
X557728Y557912D01*
X557827Y557857D01*
X557924Y557799D01*
X558019Y557737D01*
X558112Y557672D01*
X558202Y557604D01*
X558290Y557533D01*
X558376Y557458D01*
X558459Y557381D01*
X558539Y557301D01*
X558616Y557218D01*
X558691Y557132D01*
X558762Y557044D01*
X558830Y556954D01*
X558895Y556861D01*
X558957Y556766D01*
X559015Y556669D01*
X559070Y556570D01*
X559121Y556469D01*
X559169Y556366D01*
X559214Y556262D01*
X559254Y556156D01*
X559291Y556049D01*
X559324Y555941D01*
X559354Y555831D01*
X559379Y555721D01*
X559401Y555610D01*
X559418Y555498D01*
X559432Y555385D01*
X559442Y555272D01*
X559448Y555159D01*
X559450Y555046D01*
X559448Y554933D01*
X559442Y554820D01*
X559432Y554707D01*
X559418Y554594D01*
X559401Y554482D01*
X559379Y554371D01*
X559354Y554261D01*
X559324Y554151D01*
X559291Y554043D01*
X559254Y553936D01*
X559214Y553830D01*
X559169Y553726D01*
X559121Y553623D01*
X559070Y553522D01*
X559015Y553423D01*
X558957Y553326D01*
X558895Y553231D01*
X558830Y553138D01*
X558762Y553048D01*
X558691Y552960D01*
X558616Y552874D01*
X558539Y552791D01*
X558459Y552711D01*
X558376Y552634D01*
X558290Y552559D01*
X558202Y552488D01*
X558112Y552420D01*
X558019Y552355D01*
X557924Y552293D01*
X557827Y552235D01*
X557728Y552180D01*
X557627Y552129D01*
X557524Y552081D01*
X557420Y552036D01*
X557314Y551996D01*
X557207Y551959D01*
X557099Y551926D01*
X556989Y551896D01*
X556879Y551871D01*
X556768Y551849D01*
X556656Y551832D01*
X556543Y551818D01*
X556430Y551808D01*
X556317Y551802D01*
X556204Y551800D01*
X556204Y551801D02*
X552958Y551801D01*
X556853Y551801D02*
X559449Y546608D01*
X570805Y555371D02*
X570803Y555478D01*
X570797Y555584D01*
X570787Y555690D01*
X570774Y555796D01*
X570756Y555902D01*
X570735Y556006D01*
X570710Y556110D01*
X570681Y556213D01*
X570649Y556314D01*
X570612Y556414D01*
X570572Y556513D01*
X570529Y556611D01*
X570482Y556707D01*
X570431Y556801D01*
X570377Y556893D01*
X570320Y556983D01*
X570260Y557071D01*
X570196Y557156D01*
X570129Y557239D01*
X570059Y557320D01*
X569987Y557398D01*
X569911Y557474D01*
X569833Y557546D01*
X569752Y557616D01*
X569669Y557683D01*
X569584Y557747D01*
X569496Y557807D01*
X569406Y557864D01*
X569314Y557918D01*
X569220Y557969D01*
X569124Y558016D01*
X569026Y558059D01*
X568927Y558099D01*
X568827Y558136D01*
X568726Y558168D01*
X568623Y558197D01*
X568519Y558222D01*
X568415Y558243D01*
X568309Y558261D01*
X568203Y558274D01*
X568097Y558284D01*
X567991Y558290D01*
X567884Y558292D01*
X567763Y558290D01*
X567642Y558284D01*
X567522Y558274D01*
X567401Y558261D01*
X567282Y558243D01*
X567162Y558222D01*
X567044Y558197D01*
X566927Y558168D01*
X566810Y558135D01*
X566695Y558099D01*
X566581Y558058D01*
X566468Y558015D01*
X566356Y557967D01*
X566247Y557916D01*
X566139Y557861D01*
X566032Y557803D01*
X565928Y557742D01*
X565826Y557677D01*
X565726Y557609D01*
X565628Y557538D01*
X565532Y557464D01*
X565439Y557387D01*
X565349Y557306D01*
X565261Y557223D01*
X565176Y557137D01*
X565093Y557048D01*
X565014Y556957D01*
X564937Y556863D01*
X564864Y556767D01*
X564794Y556669D01*
X564727Y556568D01*
X564663Y556465D01*
X564603Y556360D01*
X564546Y556253D01*
X564492Y556145D01*
X564442Y556035D01*
X564396Y555923D01*
X564353Y555810D01*
X564314Y555695D01*
X569832Y553099D02*
X569911Y553176D01*
X569987Y553257D01*
X570060Y553340D01*
X570130Y553425D01*
X570197Y553513D01*
X570261Y553603D01*
X570321Y553695D01*
X570378Y553790D01*
X570432Y553886D01*
X570483Y553984D01*
X570530Y554084D01*
X570574Y554186D01*
X570614Y554289D01*
X570650Y554393D01*
X570682Y554499D01*
X570711Y554605D01*
X570736Y554713D01*
X570758Y554821D01*
X570775Y554931D01*
X570789Y555040D01*
X570798Y555150D01*
X570804Y555261D01*
X570806Y555371D01*
X569832Y553099D02*
X564314Y546608D01*
X570805Y546608D01*
X582235Y555371D02*
X582233Y555478D01*
X582227Y555584D01*
X582217Y555690D01*
X582204Y555796D01*
X582186Y555902D01*
X582165Y556006D01*
X582140Y556110D01*
X582111Y556213D01*
X582079Y556314D01*
X582042Y556414D01*
X582002Y556513D01*
X581959Y556611D01*
X581912Y556707D01*
X581861Y556801D01*
X581807Y556893D01*
X581750Y556983D01*
X581690Y557071D01*
X581626Y557156D01*
X581559Y557239D01*
X581489Y557320D01*
X581417Y557398D01*
X581341Y557474D01*
X581263Y557546D01*
X581182Y557616D01*
X581099Y557683D01*
X581014Y557747D01*
X580926Y557807D01*
X580836Y557864D01*
X580744Y557918D01*
X580650Y557969D01*
X580554Y558016D01*
X580456Y558059D01*
X580357Y558099D01*
X580257Y558136D01*
X580156Y558168D01*
X580053Y558197D01*
X579949Y558222D01*
X579845Y558243D01*
X579739Y558261D01*
X579633Y558274D01*
X579527Y558284D01*
X579421Y558290D01*
X579314Y558292D01*
X579193Y558290D01*
X579072Y558284D01*
X578952Y558274D01*
X578831Y558261D01*
X578712Y558243D01*
X578592Y558222D01*
X578474Y558197D01*
X578357Y558168D01*
X578240Y558135D01*
X578125Y558099D01*
X578011Y558058D01*
X577898Y558015D01*
X577786Y557967D01*
X577677Y557916D01*
X577569Y557861D01*
X577462Y557803D01*
X577358Y557742D01*
X577256Y557677D01*
X577156Y557609D01*
X577058Y557538D01*
X576962Y557464D01*
X576869Y557387D01*
X576779Y557306D01*
X576691Y557223D01*
X576606Y557137D01*
X576523Y557048D01*
X576444Y556957D01*
X576367Y556863D01*
X576294Y556767D01*
X576224Y556669D01*
X576157Y556568D01*
X576093Y556465D01*
X576033Y556360D01*
X575976Y556253D01*
X575922Y556145D01*
X575872Y556035D01*
X575826Y555923D01*
X575783Y555810D01*
X575744Y555695D01*
X581262Y553099D02*
X581341Y553176D01*
X581417Y553257D01*
X581490Y553340D01*
X581560Y553425D01*
X581627Y553513D01*
X581691Y553603D01*
X581751Y553695D01*
X581808Y553790D01*
X581862Y553886D01*
X581913Y553984D01*
X581960Y554084D01*
X582004Y554186D01*
X582044Y554289D01*
X582080Y554393D01*
X582112Y554499D01*
X582141Y554605D01*
X582166Y554713D01*
X582188Y554821D01*
X582205Y554931D01*
X582219Y555040D01*
X582228Y555150D01*
X582234Y555261D01*
X582236Y555371D01*
X581262Y553099D02*
X575744Y546608D01*
X582235Y546608D01*
D10*
X632500Y564000D02*
X643000Y571500D01*
X632500Y578500D02*
X632500Y564000D01*
X643000Y571500D02*
X632500Y578500D01*
D19*
X643500Y571500D03*
D15*
X609235Y558325D02*
X609235Y546895D01*
X609235Y558325D02*
X612410Y558325D01*
X612521Y558323D01*
X612631Y558317D01*
X612742Y558308D01*
X612852Y558294D01*
X612961Y558277D01*
X613070Y558256D01*
X613178Y558231D01*
X613285Y558202D01*
X613391Y558170D01*
X613496Y558134D01*
X613599Y558094D01*
X613701Y558051D01*
X613802Y558004D01*
X613901Y557953D01*
X613998Y557900D01*
X614092Y557843D01*
X614185Y557782D01*
X614276Y557719D01*
X614365Y557652D01*
X614451Y557582D01*
X614534Y557509D01*
X614616Y557434D01*
X614694Y557356D01*
X614769Y557274D01*
X614842Y557191D01*
X614912Y557105D01*
X614979Y557016D01*
X615042Y556925D01*
X615103Y556832D01*
X615160Y556738D01*
X615213Y556641D01*
X615264Y556542D01*
X615311Y556441D01*
X615354Y556339D01*
X615394Y556236D01*
X615430Y556131D01*
X615462Y556025D01*
X615491Y555918D01*
X615516Y555810D01*
X615537Y555701D01*
X615554Y555592D01*
X615568Y555482D01*
X615577Y555371D01*
X615583Y555261D01*
X615585Y555150D01*
X615585Y550070D01*
X615583Y549959D01*
X615577Y549849D01*
X615568Y549738D01*
X615554Y549628D01*
X615537Y549519D01*
X615516Y549410D01*
X615491Y549302D01*
X615462Y549195D01*
X615430Y549089D01*
X615394Y548984D01*
X615354Y548881D01*
X615311Y548779D01*
X615264Y548678D01*
X615213Y548579D01*
X615160Y548483D01*
X615103Y548388D01*
X615042Y548295D01*
X614979Y548204D01*
X614912Y548115D01*
X614842Y548029D01*
X614769Y547946D01*
X614694Y547864D01*
X614616Y547786D01*
X614534Y547711D01*
X614451Y547638D01*
X614365Y547568D01*
X614276Y547501D01*
X614185Y547438D01*
X614092Y547377D01*
X613998Y547320D01*
X613901Y547267D01*
X613802Y547216D01*
X613701Y547169D01*
X613599Y547126D01*
X613496Y547086D01*
X613391Y547050D01*
X613285Y547018D01*
X613178Y546989D01*
X613070Y546964D01*
X612961Y546943D01*
X612852Y546926D01*
X612742Y546912D01*
X612631Y546903D01*
X612521Y546897D01*
X612410Y546895D01*
X609235Y546895D01*
X621046Y555785D02*
X624221Y558325D01*
X624221Y546895D01*
X621046Y546895D02*
X627396Y546895D01*
D10*
X643000Y533400D02*
X632500Y525900D01*
X632500Y540400D01*
X643000Y533400D01*
D19*
X643500Y533400D03*
D15*
X609235Y520225D02*
X609235Y508795D01*
X609235Y520225D02*
X612410Y520225D01*
X612521Y520223D01*
X612631Y520217D01*
X612742Y520208D01*
X612852Y520194D01*
X612961Y520177D01*
X613070Y520156D01*
X613178Y520131D01*
X613285Y520102D01*
X613391Y520070D01*
X613496Y520034D01*
X613599Y519994D01*
X613701Y519951D01*
X613802Y519904D01*
X613901Y519853D01*
X613998Y519800D01*
X614092Y519743D01*
X614185Y519682D01*
X614276Y519619D01*
X614365Y519552D01*
X614451Y519482D01*
X614534Y519409D01*
X614616Y519334D01*
X614694Y519256D01*
X614769Y519174D01*
X614842Y519091D01*
X614912Y519005D01*
X614979Y518916D01*
X615042Y518825D01*
X615103Y518732D01*
X615160Y518638D01*
X615213Y518541D01*
X615264Y518442D01*
X615311Y518341D01*
X615354Y518239D01*
X615394Y518136D01*
X615430Y518031D01*
X615462Y517925D01*
X615491Y517818D01*
X615516Y517710D01*
X615537Y517601D01*
X615554Y517492D01*
X615568Y517382D01*
X615577Y517271D01*
X615583Y517161D01*
X615585Y517050D01*
X615585Y511970D01*
X615583Y511859D01*
X615577Y511749D01*
X615568Y511638D01*
X615554Y511528D01*
X615537Y511419D01*
X615516Y511310D01*
X615491Y511202D01*
X615462Y511095D01*
X615430Y510989D01*
X615394Y510884D01*
X615354Y510781D01*
X615311Y510679D01*
X615264Y510578D01*
X615213Y510479D01*
X615160Y510382D01*
X615103Y510288D01*
X615042Y510195D01*
X614979Y510104D01*
X614912Y510015D01*
X614842Y509929D01*
X614769Y509846D01*
X614694Y509764D01*
X614616Y509686D01*
X614534Y509611D01*
X614451Y509538D01*
X614365Y509468D01*
X614276Y509401D01*
X614185Y509338D01*
X614092Y509277D01*
X613998Y509220D01*
X613901Y509167D01*
X613802Y509116D01*
X613701Y509069D01*
X613599Y509026D01*
X613496Y508986D01*
X613391Y508950D01*
X613285Y508918D01*
X613178Y508889D01*
X613070Y508864D01*
X612961Y508843D01*
X612852Y508826D01*
X612742Y508812D01*
X612631Y508803D01*
X612521Y508797D01*
X612410Y508795D01*
X609235Y508795D01*
X621046Y518955D02*
X621046Y520225D01*
X627396Y520225D01*
X624221Y508795D01*
D12*
X107301Y165608D02*
X104704Y165608D01*
X104605Y165610D01*
X104505Y165616D01*
X104406Y165625D01*
X104308Y165638D01*
X104210Y165655D01*
X104112Y165676D01*
X104016Y165701D01*
X103921Y165729D01*
X103827Y165761D01*
X103734Y165796D01*
X103642Y165835D01*
X103552Y165878D01*
X103464Y165923D01*
X103377Y165973D01*
X103293Y166025D01*
X103210Y166081D01*
X103130Y166139D01*
X103052Y166201D01*
X102977Y166266D01*
X102904Y166334D01*
X102834Y166404D01*
X102766Y166477D01*
X102701Y166552D01*
X102639Y166630D01*
X102581Y166710D01*
X102525Y166793D01*
X102473Y166877D01*
X102423Y166964D01*
X102378Y167052D01*
X102335Y167142D01*
X102296Y167234D01*
X102261Y167327D01*
X102229Y167421D01*
X102201Y167516D01*
X102176Y167612D01*
X102155Y167710D01*
X102138Y167808D01*
X102125Y167906D01*
X102116Y168005D01*
X102110Y168105D01*
X102108Y168204D01*
X102108Y174696D01*
X102110Y174795D01*
X102116Y174895D01*
X102125Y174994D01*
X102138Y175092D01*
X102155Y175190D01*
X102176Y175288D01*
X102201Y175384D01*
X102229Y175479D01*
X102261Y175573D01*
X102296Y175666D01*
X102335Y175758D01*
X102378Y175848D01*
X102423Y175936D01*
X102473Y176023D01*
X102525Y176107D01*
X102581Y176190D01*
X102639Y176270D01*
X102701Y176348D01*
X102766Y176423D01*
X102834Y176496D01*
X102904Y176566D01*
X102977Y176634D01*
X103052Y176699D01*
X103130Y176761D01*
X103210Y176819D01*
X103293Y176875D01*
X103377Y176927D01*
X103464Y176977D01*
X103552Y177022D01*
X103642Y177065D01*
X103734Y177104D01*
X103826Y177139D01*
X103921Y177171D01*
X104016Y177199D01*
X104112Y177224D01*
X104210Y177245D01*
X104308Y177262D01*
X104406Y177275D01*
X104505Y177284D01*
X104605Y177290D01*
X104704Y177292D01*
X107301Y177292D01*
X115236Y177292D02*
X115343Y177290D01*
X115449Y177284D01*
X115555Y177274D01*
X115661Y177261D01*
X115767Y177243D01*
X115871Y177222D01*
X115975Y177197D01*
X116078Y177168D01*
X116179Y177136D01*
X116279Y177099D01*
X116378Y177059D01*
X116476Y177016D01*
X116572Y176969D01*
X116666Y176918D01*
X116758Y176864D01*
X116848Y176807D01*
X116936Y176747D01*
X117021Y176683D01*
X117104Y176616D01*
X117185Y176546D01*
X117263Y176474D01*
X117339Y176398D01*
X117411Y176320D01*
X117481Y176239D01*
X117548Y176156D01*
X117612Y176071D01*
X117672Y175983D01*
X117729Y175893D01*
X117783Y175801D01*
X117834Y175707D01*
X117881Y175611D01*
X117924Y175513D01*
X117964Y175414D01*
X118001Y175314D01*
X118033Y175213D01*
X118062Y175110D01*
X118087Y175006D01*
X118108Y174902D01*
X118126Y174796D01*
X118139Y174690D01*
X118149Y174584D01*
X118155Y174478D01*
X118157Y174371D01*
X115236Y177292D02*
X115115Y177290D01*
X114994Y177284D01*
X114874Y177274D01*
X114753Y177261D01*
X114634Y177243D01*
X114514Y177222D01*
X114396Y177197D01*
X114279Y177168D01*
X114162Y177135D01*
X114047Y177099D01*
X113933Y177058D01*
X113820Y177015D01*
X113708Y176967D01*
X113599Y176916D01*
X113491Y176861D01*
X113384Y176803D01*
X113280Y176742D01*
X113178Y176677D01*
X113078Y176609D01*
X112980Y176538D01*
X112884Y176464D01*
X112791Y176387D01*
X112701Y176306D01*
X112613Y176223D01*
X112528Y176137D01*
X112445Y176048D01*
X112366Y175957D01*
X112289Y175863D01*
X112216Y175767D01*
X112146Y175669D01*
X112079Y175568D01*
X112015Y175465D01*
X111955Y175360D01*
X111898Y175253D01*
X111844Y175145D01*
X111794Y175035D01*
X111748Y174923D01*
X111705Y174810D01*
X111666Y174695D01*
X117184Y172099D02*
X117263Y172176D01*
X117339Y172257D01*
X117412Y172340D01*
X117482Y172425D01*
X117549Y172513D01*
X117613Y172603D01*
X117673Y172695D01*
X117730Y172790D01*
X117784Y172886D01*
X117835Y172984D01*
X117882Y173084D01*
X117926Y173186D01*
X117966Y173289D01*
X118002Y173393D01*
X118034Y173499D01*
X118063Y173605D01*
X118088Y173713D01*
X118110Y173821D01*
X118127Y173931D01*
X118141Y174040D01*
X118150Y174150D01*
X118156Y174261D01*
X118158Y174371D01*
X117184Y172099D02*
X111666Y165608D01*
X118157Y165608D01*
X104206Y203708D02*
X101609Y203708D01*
X101510Y203710D01*
X101410Y203716D01*
X101311Y203725D01*
X101213Y203738D01*
X101115Y203755D01*
X101017Y203776D01*
X100921Y203801D01*
X100826Y203829D01*
X100732Y203861D01*
X100639Y203896D01*
X100547Y203935D01*
X100457Y203978D01*
X100369Y204023D01*
X100282Y204073D01*
X100198Y204125D01*
X100115Y204181D01*
X100035Y204239D01*
X99957Y204301D01*
X99882Y204366D01*
X99809Y204434D01*
X99739Y204504D01*
X99671Y204577D01*
X99606Y204652D01*
X99544Y204730D01*
X99486Y204810D01*
X99430Y204893D01*
X99378Y204977D01*
X99328Y205064D01*
X99283Y205152D01*
X99240Y205242D01*
X99201Y205334D01*
X99166Y205427D01*
X99134Y205521D01*
X99106Y205616D01*
X99081Y205712D01*
X99060Y205810D01*
X99043Y205908D01*
X99030Y206006D01*
X99021Y206105D01*
X99015Y206205D01*
X99013Y206304D01*
X99013Y212796D01*
X99015Y212895D01*
X99021Y212995D01*
X99030Y213094D01*
X99043Y213192D01*
X99060Y213290D01*
X99081Y213388D01*
X99106Y213484D01*
X99134Y213579D01*
X99166Y213673D01*
X99201Y213766D01*
X99240Y213858D01*
X99283Y213948D01*
X99328Y214036D01*
X99378Y214123D01*
X99430Y214207D01*
X99486Y214290D01*
X99544Y214370D01*
X99606Y214448D01*
X99671Y214523D01*
X99739Y214596D01*
X99809Y214666D01*
X99882Y214734D01*
X99957Y214799D01*
X100035Y214861D01*
X100115Y214919D01*
X100198Y214975D01*
X100282Y215027D01*
X100369Y215077D01*
X100457Y215122D01*
X100547Y215165D01*
X100639Y215204D01*
X100731Y215239D01*
X100826Y215271D01*
X100921Y215299D01*
X101017Y215324D01*
X101115Y215345D01*
X101213Y215362D01*
X101311Y215375D01*
X101410Y215384D01*
X101510Y215390D01*
X101609Y215392D01*
X104206Y215392D01*
X108571Y212796D02*
X111816Y215392D01*
X111816Y203708D01*
X108571Y203708D02*
X115062Y203708D01*
X120001Y212796D02*
X123246Y215392D01*
X123246Y203708D01*
X120001Y203708D02*
X126492Y203708D01*
X206304Y165608D02*
X208901Y165608D01*
X206304Y165608D02*
X206205Y165610D01*
X206105Y165616D01*
X206006Y165625D01*
X205908Y165638D01*
X205810Y165655D01*
X205712Y165676D01*
X205616Y165701D01*
X205521Y165729D01*
X205427Y165761D01*
X205334Y165796D01*
X205242Y165835D01*
X205152Y165878D01*
X205064Y165923D01*
X204977Y165973D01*
X204893Y166025D01*
X204810Y166081D01*
X204730Y166139D01*
X204652Y166201D01*
X204577Y166266D01*
X204504Y166334D01*
X204434Y166404D01*
X204366Y166477D01*
X204301Y166552D01*
X204239Y166630D01*
X204181Y166710D01*
X204125Y166793D01*
X204073Y166877D01*
X204023Y166964D01*
X203978Y167052D01*
X203935Y167142D01*
X203896Y167234D01*
X203861Y167327D01*
X203829Y167421D01*
X203801Y167516D01*
X203776Y167612D01*
X203755Y167710D01*
X203738Y167808D01*
X203725Y167906D01*
X203716Y168005D01*
X203710Y168105D01*
X203708Y168204D01*
X203708Y174696D01*
X203710Y174795D01*
X203716Y174895D01*
X203725Y174994D01*
X203738Y175092D01*
X203755Y175190D01*
X203776Y175288D01*
X203801Y175384D01*
X203829Y175479D01*
X203861Y175573D01*
X203896Y175666D01*
X203935Y175758D01*
X203978Y175848D01*
X204023Y175936D01*
X204073Y176023D01*
X204125Y176107D01*
X204181Y176190D01*
X204239Y176270D01*
X204301Y176348D01*
X204366Y176423D01*
X204434Y176496D01*
X204504Y176566D01*
X204577Y176634D01*
X204652Y176699D01*
X204730Y176761D01*
X204810Y176819D01*
X204893Y176875D01*
X204977Y176927D01*
X205064Y176977D01*
X205152Y177022D01*
X205242Y177065D01*
X205334Y177104D01*
X205426Y177139D01*
X205521Y177171D01*
X205616Y177199D01*
X205712Y177224D01*
X205810Y177245D01*
X205908Y177262D01*
X206006Y177275D01*
X206105Y177284D01*
X206205Y177290D01*
X206304Y177292D01*
X208901Y177292D01*
X213266Y174696D02*
X216512Y177292D01*
X216512Y165608D01*
X219757Y165608D02*
X213266Y165608D01*
X228266Y177292D02*
X228373Y177290D01*
X228479Y177284D01*
X228585Y177274D01*
X228691Y177261D01*
X228797Y177243D01*
X228901Y177222D01*
X229005Y177197D01*
X229108Y177168D01*
X229209Y177136D01*
X229309Y177099D01*
X229408Y177059D01*
X229506Y177016D01*
X229602Y176969D01*
X229696Y176918D01*
X229788Y176864D01*
X229878Y176807D01*
X229966Y176747D01*
X230051Y176683D01*
X230134Y176616D01*
X230215Y176546D01*
X230293Y176474D01*
X230369Y176398D01*
X230441Y176320D01*
X230511Y176239D01*
X230578Y176156D01*
X230642Y176071D01*
X230702Y175983D01*
X230759Y175893D01*
X230813Y175801D01*
X230864Y175707D01*
X230911Y175611D01*
X230954Y175513D01*
X230994Y175414D01*
X231031Y175314D01*
X231063Y175213D01*
X231092Y175110D01*
X231117Y175006D01*
X231138Y174902D01*
X231156Y174796D01*
X231169Y174690D01*
X231179Y174584D01*
X231185Y174478D01*
X231187Y174371D01*
X228266Y177292D02*
X228145Y177290D01*
X228024Y177284D01*
X227904Y177274D01*
X227783Y177261D01*
X227664Y177243D01*
X227544Y177222D01*
X227426Y177197D01*
X227309Y177168D01*
X227192Y177135D01*
X227077Y177099D01*
X226963Y177058D01*
X226850Y177015D01*
X226738Y176967D01*
X226629Y176916D01*
X226521Y176861D01*
X226414Y176803D01*
X226310Y176742D01*
X226208Y176677D01*
X226108Y176609D01*
X226010Y176538D01*
X225914Y176464D01*
X225821Y176387D01*
X225731Y176306D01*
X225643Y176223D01*
X225558Y176137D01*
X225475Y176048D01*
X225396Y175957D01*
X225319Y175863D01*
X225246Y175767D01*
X225176Y175669D01*
X225109Y175568D01*
X225045Y175465D01*
X224985Y175360D01*
X224928Y175253D01*
X224874Y175145D01*
X224824Y175035D01*
X224778Y174923D01*
X224735Y174810D01*
X224696Y174695D01*
X230214Y172099D02*
X230293Y172176D01*
X230369Y172257D01*
X230442Y172340D01*
X230512Y172425D01*
X230579Y172513D01*
X230643Y172603D01*
X230703Y172695D01*
X230760Y172790D01*
X230814Y172886D01*
X230865Y172984D01*
X230912Y173084D01*
X230956Y173186D01*
X230996Y173289D01*
X231032Y173393D01*
X231064Y173499D01*
X231093Y173605D01*
X231118Y173713D01*
X231140Y173821D01*
X231157Y173931D01*
X231171Y174040D01*
X231180Y174150D01*
X231186Y174261D01*
X231188Y174371D01*
X230214Y172099D02*
X224696Y165608D01*
X231187Y165608D01*
X208901Y203708D02*
X206304Y203708D01*
X206205Y203710D01*
X206105Y203716D01*
X206006Y203725D01*
X205908Y203738D01*
X205810Y203755D01*
X205712Y203776D01*
X205616Y203801D01*
X205521Y203829D01*
X205427Y203861D01*
X205334Y203896D01*
X205242Y203935D01*
X205152Y203978D01*
X205064Y204023D01*
X204977Y204073D01*
X204893Y204125D01*
X204810Y204181D01*
X204730Y204239D01*
X204652Y204301D01*
X204577Y204366D01*
X204504Y204434D01*
X204434Y204504D01*
X204366Y204577D01*
X204301Y204652D01*
X204239Y204730D01*
X204181Y204810D01*
X204125Y204893D01*
X204073Y204977D01*
X204023Y205064D01*
X203978Y205152D01*
X203935Y205242D01*
X203896Y205334D01*
X203861Y205427D01*
X203829Y205521D01*
X203801Y205616D01*
X203776Y205712D01*
X203755Y205810D01*
X203738Y205908D01*
X203725Y206006D01*
X203716Y206105D01*
X203710Y206205D01*
X203708Y206304D01*
X203708Y212796D01*
X203710Y212895D01*
X203716Y212995D01*
X203725Y213094D01*
X203738Y213192D01*
X203755Y213290D01*
X203776Y213388D01*
X203801Y213484D01*
X203829Y213579D01*
X203861Y213673D01*
X203896Y213766D01*
X203935Y213858D01*
X203978Y213948D01*
X204023Y214036D01*
X204073Y214123D01*
X204125Y214207D01*
X204181Y214290D01*
X204239Y214370D01*
X204301Y214448D01*
X204366Y214523D01*
X204434Y214596D01*
X204504Y214666D01*
X204577Y214734D01*
X204652Y214799D01*
X204730Y214861D01*
X204810Y214919D01*
X204893Y214975D01*
X204977Y215027D01*
X205064Y215077D01*
X205152Y215122D01*
X205242Y215165D01*
X205334Y215204D01*
X205426Y215239D01*
X205521Y215271D01*
X205616Y215299D01*
X205712Y215324D01*
X205810Y215345D01*
X205908Y215362D01*
X206006Y215375D01*
X206105Y215384D01*
X206205Y215390D01*
X206304Y215392D01*
X208901Y215392D01*
X213266Y212796D02*
X216512Y215392D01*
X216512Y203708D01*
X219757Y203708D02*
X213266Y203708D01*
X224696Y203708D02*
X227942Y203708D01*
X228055Y203710D01*
X228168Y203716D01*
X228281Y203726D01*
X228394Y203740D01*
X228506Y203757D01*
X228617Y203779D01*
X228727Y203804D01*
X228837Y203834D01*
X228945Y203867D01*
X229052Y203904D01*
X229158Y203944D01*
X229262Y203989D01*
X229365Y204037D01*
X229466Y204088D01*
X229565Y204143D01*
X229662Y204201D01*
X229757Y204263D01*
X229850Y204328D01*
X229940Y204396D01*
X230028Y204467D01*
X230114Y204542D01*
X230197Y204619D01*
X230277Y204699D01*
X230354Y204782D01*
X230429Y204868D01*
X230500Y204956D01*
X230568Y205046D01*
X230633Y205139D01*
X230695Y205234D01*
X230753Y205331D01*
X230808Y205430D01*
X230859Y205531D01*
X230907Y205634D01*
X230952Y205738D01*
X230992Y205844D01*
X231029Y205951D01*
X231062Y206059D01*
X231092Y206169D01*
X231117Y206279D01*
X231139Y206390D01*
X231156Y206502D01*
X231170Y206615D01*
X231180Y206728D01*
X231186Y206841D01*
X231188Y206954D01*
X231186Y207067D01*
X231180Y207180D01*
X231170Y207293D01*
X231156Y207406D01*
X231139Y207518D01*
X231117Y207629D01*
X231092Y207739D01*
X231062Y207849D01*
X231029Y207957D01*
X230992Y208064D01*
X230952Y208170D01*
X230907Y208274D01*
X230859Y208377D01*
X230808Y208478D01*
X230753Y208577D01*
X230695Y208674D01*
X230633Y208769D01*
X230568Y208862D01*
X230500Y208952D01*
X230429Y209040D01*
X230354Y209126D01*
X230277Y209209D01*
X230197Y209289D01*
X230114Y209366D01*
X230028Y209441D01*
X229940Y209512D01*
X229850Y209580D01*
X229757Y209645D01*
X229662Y209707D01*
X229565Y209765D01*
X229466Y209820D01*
X229365Y209871D01*
X229262Y209919D01*
X229158Y209964D01*
X229052Y210004D01*
X228945Y210041D01*
X228837Y210074D01*
X228727Y210104D01*
X228617Y210129D01*
X228506Y210151D01*
X228394Y210168D01*
X228281Y210182D01*
X228168Y210192D01*
X228055Y210198D01*
X227942Y210200D01*
X228591Y215392D02*
X224696Y215392D01*
X228591Y215392D02*
X228692Y215390D01*
X228792Y215384D01*
X228892Y215374D01*
X228992Y215361D01*
X229091Y215343D01*
X229190Y215322D01*
X229287Y215297D01*
X229384Y215268D01*
X229479Y215235D01*
X229573Y215199D01*
X229665Y215159D01*
X229756Y215116D01*
X229845Y215069D01*
X229932Y215019D01*
X230018Y214965D01*
X230101Y214908D01*
X230181Y214848D01*
X230260Y214785D01*
X230336Y214718D01*
X230409Y214649D01*
X230479Y214577D01*
X230547Y214503D01*
X230612Y214426D01*
X230673Y214346D01*
X230732Y214264D01*
X230787Y214180D01*
X230839Y214094D01*
X230888Y214006D01*
X230933Y213916D01*
X230975Y213824D01*
X231013Y213731D01*
X231047Y213636D01*
X231078Y213541D01*
X231105Y213444D01*
X231128Y213346D01*
X231148Y213247D01*
X231163Y213147D01*
X231175Y213047D01*
X231183Y212947D01*
X231187Y212846D01*
X231187Y212746D01*
X231183Y212645D01*
X231175Y212545D01*
X231163Y212445D01*
X231148Y212345D01*
X231128Y212246D01*
X231105Y212148D01*
X231078Y212051D01*
X231047Y211956D01*
X231013Y211861D01*
X230975Y211768D01*
X230933Y211676D01*
X230888Y211586D01*
X230839Y211498D01*
X230787Y211412D01*
X230732Y211328D01*
X230673Y211246D01*
X230612Y211166D01*
X230547Y211089D01*
X230479Y211015D01*
X230409Y210943D01*
X230336Y210874D01*
X230260Y210807D01*
X230181Y210744D01*
X230101Y210684D01*
X230018Y210627D01*
X229932Y210573D01*
X229845Y210523D01*
X229756Y210476D01*
X229665Y210433D01*
X229573Y210393D01*
X229479Y210357D01*
X229384Y210324D01*
X229287Y210295D01*
X229190Y210270D01*
X229091Y210249D01*
X228992Y210231D01*
X228892Y210218D01*
X228792Y210208D01*
X228692Y210202D01*
X228591Y210200D01*
X228591Y210199D02*
X225994Y210199D01*
M02*
