G04 EAGLE Gerber RS-274X export*
G75*
%MOMM*%
%FSLAX34Y34*%
%LPD*%
%INSoldermask Bottom*%
%IPPOS*%
%AMOC8*
5,1,8,0,0,1.08239X$1,22.5*%
G01*
%ADD10C,2.003200*%
%ADD11C,2.184400*%
%ADD12C,1.676400*%
%ADD13R,1.403200X2.003200*%
%ADD14R,1.803200X2.003200*%
%ADD15P,1.649562X8X112.500000*%
%ADD16C,1.853200*%
%ADD17R,1.473200X1.473200*%
%ADD18C,1.473200*%
%ADD19C,1.311200*%
%ADD20C,0.959600*%
%ADD21C,1.159600*%
%ADD22C,4.140200*%
%ADD23C,1.259600*%


D10*
X796400Y139700D02*
X778400Y139700D01*
X778400Y165100D02*
X796400Y165100D01*
X796400Y190500D02*
X778400Y190500D01*
X778400Y215900D02*
X796400Y215900D01*
X796400Y241300D02*
X778400Y241300D01*
X778400Y266700D02*
X796400Y266700D01*
X796400Y292100D02*
X778400Y292100D01*
X778400Y317500D02*
X796400Y317500D01*
X796400Y342900D02*
X778400Y342900D01*
X778400Y431800D02*
X796400Y431800D01*
X796400Y406400D02*
X778400Y406400D01*
D11*
X346456Y482600D02*
X326644Y482600D01*
X346964Y422910D02*
X366776Y422910D01*
X366776Y542290D02*
X346964Y542290D01*
X468884Y542290D02*
X488696Y542290D01*
X488696Y422910D02*
X468884Y422910D01*
X346456Y304800D02*
X326644Y304800D01*
X346964Y245110D02*
X366776Y245110D01*
X366776Y364490D02*
X346964Y364490D01*
X468884Y364490D02*
X488696Y364490D01*
X488696Y245110D02*
X468884Y245110D01*
X346456Y127000D02*
X326644Y127000D01*
X346964Y67310D02*
X366776Y67310D01*
X366776Y186690D02*
X346964Y186690D01*
X468884Y186690D02*
X488696Y186690D01*
X488696Y67310D02*
X468884Y67310D01*
D12*
X63500Y590550D03*
X63500Y565150D03*
X63500Y539750D03*
X63500Y514350D03*
X63500Y488950D03*
X63500Y463550D03*
X63500Y438150D03*
X63500Y412750D03*
X63500Y387350D03*
X63500Y361950D03*
X63500Y336550D03*
X63500Y311150D03*
X215900Y311150D03*
X215900Y336550D03*
X215900Y361950D03*
X215900Y387350D03*
X215900Y412750D03*
X215900Y438150D03*
X215900Y463550D03*
X215900Y488950D03*
X215900Y514350D03*
X215900Y539750D03*
X215900Y565150D03*
X63500Y615950D03*
X215900Y590550D03*
X63500Y641350D03*
X215900Y641350D03*
X215900Y615950D03*
X190500Y311150D03*
X165100Y311150D03*
X139700Y311150D03*
X114300Y311150D03*
X88900Y311150D03*
D13*
X753100Y292100D03*
X720100Y292100D03*
X753100Y190500D03*
X720100Y190500D03*
X753100Y317500D03*
X720100Y317500D03*
X753100Y215900D03*
X720100Y215900D03*
X753100Y165100D03*
X720100Y165100D03*
X753100Y266700D03*
X720100Y266700D03*
X753100Y241300D03*
X720100Y241300D03*
X753100Y342900D03*
X720100Y342900D03*
D14*
X824200Y165100D03*
X852200Y165100D03*
X824200Y241300D03*
X852200Y241300D03*
X824200Y266700D03*
X852200Y266700D03*
X824200Y342900D03*
X852200Y342900D03*
X824200Y292100D03*
X852200Y292100D03*
X824200Y190500D03*
X852200Y190500D03*
X824200Y215900D03*
X852200Y215900D03*
X824200Y317500D03*
X852200Y317500D03*
D15*
X266700Y469900D03*
X266700Y495300D03*
X266700Y292100D03*
X266700Y317500D03*
X266700Y114300D03*
X266700Y139700D03*
D14*
X788700Y457200D03*
X760700Y457200D03*
D16*
X647700Y39050D03*
X647700Y414050D03*
D15*
X266700Y622300D03*
X266700Y647700D03*
D17*
X762000Y609600D03*
D18*
X736600Y609600D03*
X711200Y609600D03*
X685800Y609600D03*
X660400Y609600D03*
X635000Y609600D03*
X635000Y685800D03*
X660400Y685800D03*
X685800Y685800D03*
X711200Y685800D03*
X736600Y685800D03*
X762000Y685800D03*
D19*
X848000Y577350D03*
X803000Y514850D03*
X848000Y514850D03*
X803000Y577350D03*
X721000Y577350D03*
X676000Y514850D03*
X721000Y514850D03*
X676000Y577350D03*
D20*
X647700Y190500D03*
X647700Y139700D03*
D21*
X120650Y120650D03*
X184150Y107950D03*
X266700Y177800D03*
X266700Y361950D03*
X266700Y539750D03*
D22*
X63500Y63500D03*
X825500Y63500D03*
X825500Y749300D03*
X63500Y749300D03*
D21*
X381000Y615950D03*
X76200Y228600D03*
X177800Y228600D03*
D23*
X558800Y292100D03*
X558800Y215900D03*
D20*
X184150Y76200D03*
X133350Y76200D03*
D23*
X400050Y508000D03*
X400050Y457200D03*
X400050Y279400D03*
X400050Y330200D03*
D20*
X400050Y152400D03*
X400050Y101600D03*
X431800Y609600D03*
X431800Y584200D03*
X787400Y685800D03*
X711200Y660400D03*
X647700Y660400D03*
X736600Y635000D03*
X685800Y647700D03*
X635000Y660400D03*
X698500Y587150D03*
X711200Y647700D03*
X482600Y609600D03*
X482600Y584200D03*
X546100Y609600D03*
X546100Y584200D03*
M02*
