G04 EAGLE Gerber RS-274X export*
G75*
%MOMM*%
%FSLAX34Y34*%
%LPD*%
%INSoldermask Top*%
%IPPOS*%
%AMOC8*
5,1,8,0,0,1.08239X$1,22.5*%
G01*
%ADD10C,2.003200*%
%ADD11C,2.184400*%
%ADD12C,1.676400*%
%ADD13R,1.703200X1.503200*%
%ADD14R,1.603200X1.203200*%
%ADD15P,1.649562X8X112.500000*%
%ADD16R,1.503200X1.703200*%
%ADD17R,1.803200X2.003200*%
%ADD18R,1.903200X2.003200*%
%ADD19C,1.853200*%
%ADD20C,0.306600*%
%ADD21R,2.003200X1.903200*%
%ADD22R,1.473200X1.473200*%
%ADD23C,1.473200*%
%ADD24C,1.311200*%
%ADD25C,0.959600*%
%ADD26C,1.159600*%
%ADD27C,4.140200*%
%ADD28C,1.259600*%


D10*
X796400Y139700D02*
X778400Y139700D01*
X778400Y165100D02*
X796400Y165100D01*
X796400Y190500D02*
X778400Y190500D01*
X778400Y215900D02*
X796400Y215900D01*
X796400Y241300D02*
X778400Y241300D01*
X778400Y266700D02*
X796400Y266700D01*
X796400Y292100D02*
X778400Y292100D01*
X778400Y317500D02*
X796400Y317500D01*
X796400Y342900D02*
X778400Y342900D01*
X778400Y431800D02*
X796400Y431800D01*
X796400Y406400D02*
X778400Y406400D01*
D11*
X346456Y482600D02*
X326644Y482600D01*
X346964Y422910D02*
X366776Y422910D01*
X366776Y542290D02*
X346964Y542290D01*
X468884Y542290D02*
X488696Y542290D01*
X488696Y422910D02*
X468884Y422910D01*
X346456Y304800D02*
X326644Y304800D01*
X346964Y245110D02*
X366776Y245110D01*
X366776Y364490D02*
X346964Y364490D01*
X468884Y364490D02*
X488696Y364490D01*
X488696Y245110D02*
X468884Y245110D01*
X346456Y127000D02*
X326644Y127000D01*
X346964Y67310D02*
X366776Y67310D01*
X366776Y186690D02*
X346964Y186690D01*
X468884Y186690D02*
X488696Y186690D01*
X488696Y67310D02*
X468884Y67310D01*
D12*
X63500Y590550D03*
X63500Y565150D03*
X63500Y539750D03*
X63500Y514350D03*
X63500Y488950D03*
X63500Y463550D03*
X63500Y438150D03*
X63500Y412750D03*
X63500Y387350D03*
X63500Y361950D03*
X63500Y336550D03*
X63500Y311150D03*
X215900Y311150D03*
X215900Y336550D03*
X215900Y361950D03*
X215900Y387350D03*
X215900Y412750D03*
X215900Y438150D03*
X215900Y463550D03*
X215900Y488950D03*
X215900Y514350D03*
X215900Y539750D03*
X215900Y565150D03*
X63500Y615950D03*
X215900Y590550D03*
X63500Y641350D03*
X215900Y641350D03*
X215900Y615950D03*
X190500Y311150D03*
X165100Y311150D03*
X139700Y311150D03*
X114300Y311150D03*
X88900Y311150D03*
D13*
X158750Y54000D03*
X158750Y73000D03*
X241300Y79400D03*
X241300Y98400D03*
D14*
X157050Y114300D03*
X135050Y104800D03*
X135050Y123800D03*
X220550Y101600D03*
X198550Y92100D03*
X198550Y111100D03*
D15*
X266700Y469900D03*
X266700Y495300D03*
X266700Y292100D03*
X266700Y317500D03*
X266700Y114300D03*
X266700Y139700D03*
D16*
X276250Y425450D03*
X295250Y425450D03*
X276250Y247650D03*
X295250Y247650D03*
X276250Y69850D03*
X295250Y69850D03*
X117500Y152400D03*
X136500Y152400D03*
X136500Y266700D03*
X117500Y266700D03*
X54000Y190500D03*
X73000Y190500D03*
D17*
X62200Y152400D03*
X90200Y152400D03*
X90200Y266700D03*
X62200Y266700D03*
D16*
X219100Y152400D03*
X238100Y152400D03*
X238100Y266700D03*
X219100Y266700D03*
X155600Y190500D03*
X174600Y190500D03*
D17*
X163800Y152400D03*
X191800Y152400D03*
X191800Y266700D03*
X163800Y266700D03*
D18*
X298450Y462100D03*
X298450Y503100D03*
X298450Y284300D03*
X298450Y325300D03*
X298450Y106500D03*
X298450Y147500D03*
D14*
X303100Y546100D03*
X281100Y536600D03*
X281100Y555600D03*
X303100Y368300D03*
X281100Y358800D03*
X281100Y377800D03*
X303100Y190500D03*
X281100Y181000D03*
X281100Y200000D03*
D19*
X647700Y39050D03*
X647700Y414050D03*
D15*
X266700Y622300D03*
X266700Y647700D03*
D16*
X276200Y596900D03*
X257200Y596900D03*
D20*
X385067Y668392D02*
X400433Y668392D01*
X385067Y668392D02*
X385067Y671458D01*
X400433Y671458D01*
X400433Y668392D01*
X400433Y671305D02*
X385067Y671305D01*
X385067Y662042D02*
X400433Y662042D01*
X385067Y662042D02*
X385067Y665108D01*
X400433Y665108D01*
X400433Y662042D01*
X400433Y664955D02*
X385067Y664955D01*
X385067Y655692D02*
X400433Y655692D01*
X385067Y655692D02*
X385067Y658758D01*
X400433Y658758D01*
X400433Y655692D01*
X400433Y658605D02*
X385067Y658605D01*
X385067Y649342D02*
X400433Y649342D01*
X385067Y649342D02*
X385067Y652408D01*
X400433Y652408D01*
X400433Y649342D01*
X400433Y652255D02*
X385067Y652255D01*
X385067Y642992D02*
X400433Y642992D01*
X385067Y642992D02*
X385067Y646058D01*
X400433Y646058D01*
X400433Y642992D01*
X400433Y645905D02*
X385067Y645905D01*
X385067Y636642D02*
X400433Y636642D01*
X385067Y636642D02*
X385067Y639708D01*
X400433Y639708D01*
X400433Y636642D01*
X400433Y639555D02*
X385067Y639555D01*
X385067Y630292D02*
X400433Y630292D01*
X385067Y630292D02*
X385067Y633358D01*
X400433Y633358D01*
X400433Y630292D01*
X400433Y633205D02*
X385067Y633205D01*
X385067Y623942D02*
X400433Y623942D01*
X385067Y623942D02*
X385067Y627008D01*
X400433Y627008D01*
X400433Y623942D01*
X400433Y626855D02*
X385067Y626855D01*
X437767Y623942D02*
X453133Y623942D01*
X437767Y623942D02*
X437767Y627008D01*
X453133Y627008D01*
X453133Y623942D01*
X453133Y626855D02*
X437767Y626855D01*
X437767Y630292D02*
X453133Y630292D01*
X437767Y630292D02*
X437767Y633358D01*
X453133Y633358D01*
X453133Y630292D01*
X453133Y633205D02*
X437767Y633205D01*
X437767Y636642D02*
X453133Y636642D01*
X437767Y636642D02*
X437767Y639708D01*
X453133Y639708D01*
X453133Y636642D01*
X453133Y639555D02*
X437767Y639555D01*
X437767Y642992D02*
X453133Y642992D01*
X437767Y642992D02*
X437767Y646058D01*
X453133Y646058D01*
X453133Y642992D01*
X453133Y645905D02*
X437767Y645905D01*
X437767Y649342D02*
X453133Y649342D01*
X437767Y649342D02*
X437767Y652408D01*
X453133Y652408D01*
X453133Y649342D01*
X453133Y652255D02*
X437767Y652255D01*
X437767Y655692D02*
X453133Y655692D01*
X437767Y655692D02*
X437767Y658758D01*
X453133Y658758D01*
X453133Y655692D01*
X453133Y658605D02*
X437767Y658605D01*
X437767Y662042D02*
X453133Y662042D01*
X437767Y662042D02*
X437767Y665108D01*
X453133Y665108D01*
X453133Y662042D01*
X453133Y664955D02*
X437767Y664955D01*
X437767Y668392D02*
X453133Y668392D01*
X437767Y668392D02*
X437767Y671458D01*
X453133Y671458D01*
X453133Y668392D01*
X453133Y671305D02*
X437767Y671305D01*
D16*
X562000Y533400D03*
X581000Y533400D03*
X562000Y571500D03*
X581000Y571500D03*
D21*
X655500Y571500D03*
X614500Y571500D03*
X655500Y533400D03*
X614500Y533400D03*
D22*
X762000Y609600D03*
D23*
X736600Y609600D03*
X711200Y609600D03*
X685800Y609600D03*
X660400Y609600D03*
X635000Y609600D03*
X635000Y685800D03*
X660400Y685800D03*
X685800Y685800D03*
X711200Y685800D03*
X736600Y685800D03*
X762000Y685800D03*
D17*
X128300Y190500D03*
X100300Y190500D03*
X128300Y228600D03*
X100300Y228600D03*
X229900Y190500D03*
X201900Y190500D03*
X229900Y228600D03*
X201900Y228600D03*
D24*
X848000Y577350D03*
X803000Y514850D03*
X848000Y514850D03*
X803000Y577350D03*
X721000Y577350D03*
X676000Y514850D03*
X721000Y514850D03*
X676000Y577350D03*
D25*
X647700Y190500D03*
X647700Y139700D03*
D26*
X120650Y120650D03*
X184150Y107950D03*
X266700Y177800D03*
X266700Y361950D03*
X266700Y539750D03*
D27*
X63500Y63500D03*
X825500Y63500D03*
X825500Y749300D03*
X63500Y749300D03*
D26*
X381000Y615950D03*
X76200Y228600D03*
X177800Y228600D03*
D28*
X558800Y292100D03*
X558800Y215900D03*
D25*
X184150Y76200D03*
X133350Y76200D03*
D28*
X400050Y508000D03*
X400050Y457200D03*
X400050Y279400D03*
X400050Y330200D03*
D25*
X400050Y152400D03*
X400050Y101600D03*
X431800Y609600D03*
X431800Y584200D03*
X787400Y685800D03*
X711200Y660400D03*
X647700Y660400D03*
X736600Y635000D03*
X685800Y647700D03*
X635000Y660400D03*
X698500Y587150D03*
X711200Y647700D03*
X482600Y609600D03*
X482600Y584200D03*
X546100Y609600D03*
X546100Y584200D03*
M02*
