G04 EAGLE Gerber RS-274X export*
G75*
%MOMM*%
%FSLAX34Y34*%
%LPD*%
%INSolderpaste Top*%
%IPPOS*%
%AMOC8*
5,1,8,0,0,1.08239X$1,22.5*%
G01*
%ADD10R,1.500000X1.300000*%
%ADD11R,1.400000X1.000000*%
%ADD12R,1.300000X1.500000*%
%ADD13R,1.600000X1.800000*%
%ADD14R,1.700000X1.800000*%
%ADD15C,0.102500*%
%ADD16R,1.800000X1.700000*%


D10*
X158750Y54000D03*
X158750Y73000D03*
X241300Y79400D03*
X241300Y98400D03*
D11*
X157050Y114300D03*
X135050Y104800D03*
X135050Y123800D03*
X220550Y101600D03*
X198550Y92100D03*
X198550Y111100D03*
D12*
X276250Y425450D03*
X295250Y425450D03*
X276250Y247650D03*
X295250Y247650D03*
X276250Y69850D03*
X295250Y69850D03*
X117500Y152400D03*
X136500Y152400D03*
X136500Y266700D03*
X117500Y266700D03*
X54000Y190500D03*
X73000Y190500D03*
D13*
X62200Y152400D03*
X90200Y152400D03*
X90200Y266700D03*
X62200Y266700D03*
D12*
X219100Y152400D03*
X238100Y152400D03*
X238100Y266700D03*
X219100Y266700D03*
X155600Y190500D03*
X174600Y190500D03*
D13*
X163800Y152400D03*
X191800Y152400D03*
X191800Y266700D03*
X163800Y266700D03*
D14*
X298450Y462100D03*
X298450Y503100D03*
X298450Y284300D03*
X298450Y325300D03*
X298450Y106500D03*
X298450Y147500D03*
D11*
X303100Y546100D03*
X281100Y536600D03*
X281100Y555600D03*
X303100Y368300D03*
X281100Y358800D03*
X281100Y377800D03*
X303100Y190500D03*
X281100Y181000D03*
X281100Y200000D03*
D12*
X276200Y596900D03*
X257200Y596900D03*
D15*
X385062Y668387D02*
X400438Y668387D01*
X385062Y668387D02*
X385062Y671463D01*
X400438Y671463D01*
X400438Y668387D01*
X400438Y669361D02*
X385062Y669361D01*
X385062Y670335D02*
X400438Y670335D01*
X400438Y671309D02*
X385062Y671309D01*
X385062Y662037D02*
X400438Y662037D01*
X385062Y662037D02*
X385062Y665113D01*
X400438Y665113D01*
X400438Y662037D01*
X400438Y663011D02*
X385062Y663011D01*
X385062Y663985D02*
X400438Y663985D01*
X400438Y664959D02*
X385062Y664959D01*
X385062Y655687D02*
X400438Y655687D01*
X385062Y655687D02*
X385062Y658763D01*
X400438Y658763D01*
X400438Y655687D01*
X400438Y656661D02*
X385062Y656661D01*
X385062Y657635D02*
X400438Y657635D01*
X400438Y658609D02*
X385062Y658609D01*
X385062Y649337D02*
X400438Y649337D01*
X385062Y649337D02*
X385062Y652413D01*
X400438Y652413D01*
X400438Y649337D01*
X400438Y650311D02*
X385062Y650311D01*
X385062Y651285D02*
X400438Y651285D01*
X400438Y652259D02*
X385062Y652259D01*
X385062Y642987D02*
X400438Y642987D01*
X385062Y642987D02*
X385062Y646063D01*
X400438Y646063D01*
X400438Y642987D01*
X400438Y643961D02*
X385062Y643961D01*
X385062Y644935D02*
X400438Y644935D01*
X400438Y645909D02*
X385062Y645909D01*
X385062Y636637D02*
X400438Y636637D01*
X385062Y636637D02*
X385062Y639713D01*
X400438Y639713D01*
X400438Y636637D01*
X400438Y637611D02*
X385062Y637611D01*
X385062Y638585D02*
X400438Y638585D01*
X400438Y639559D02*
X385062Y639559D01*
X385062Y630287D02*
X400438Y630287D01*
X385062Y630287D02*
X385062Y633363D01*
X400438Y633363D01*
X400438Y630287D01*
X400438Y631261D02*
X385062Y631261D01*
X385062Y632235D02*
X400438Y632235D01*
X400438Y633209D02*
X385062Y633209D01*
X385062Y623937D02*
X400438Y623937D01*
X385062Y623937D02*
X385062Y627013D01*
X400438Y627013D01*
X400438Y623937D01*
X400438Y624911D02*
X385062Y624911D01*
X385062Y625885D02*
X400438Y625885D01*
X400438Y626859D02*
X385062Y626859D01*
X437762Y623937D02*
X453138Y623937D01*
X437762Y623937D02*
X437762Y627013D01*
X453138Y627013D01*
X453138Y623937D01*
X453138Y624911D02*
X437762Y624911D01*
X437762Y625885D02*
X453138Y625885D01*
X453138Y626859D02*
X437762Y626859D01*
X437762Y630287D02*
X453138Y630287D01*
X437762Y630287D02*
X437762Y633363D01*
X453138Y633363D01*
X453138Y630287D01*
X453138Y631261D02*
X437762Y631261D01*
X437762Y632235D02*
X453138Y632235D01*
X453138Y633209D02*
X437762Y633209D01*
X437762Y636637D02*
X453138Y636637D01*
X437762Y636637D02*
X437762Y639713D01*
X453138Y639713D01*
X453138Y636637D01*
X453138Y637611D02*
X437762Y637611D01*
X437762Y638585D02*
X453138Y638585D01*
X453138Y639559D02*
X437762Y639559D01*
X437762Y642987D02*
X453138Y642987D01*
X437762Y642987D02*
X437762Y646063D01*
X453138Y646063D01*
X453138Y642987D01*
X453138Y643961D02*
X437762Y643961D01*
X437762Y644935D02*
X453138Y644935D01*
X453138Y645909D02*
X437762Y645909D01*
X437762Y649337D02*
X453138Y649337D01*
X437762Y649337D02*
X437762Y652413D01*
X453138Y652413D01*
X453138Y649337D01*
X453138Y650311D02*
X437762Y650311D01*
X437762Y651285D02*
X453138Y651285D01*
X453138Y652259D02*
X437762Y652259D01*
X437762Y655687D02*
X453138Y655687D01*
X437762Y655687D02*
X437762Y658763D01*
X453138Y658763D01*
X453138Y655687D01*
X453138Y656661D02*
X437762Y656661D01*
X437762Y657635D02*
X453138Y657635D01*
X453138Y658609D02*
X437762Y658609D01*
X437762Y662037D02*
X453138Y662037D01*
X437762Y662037D02*
X437762Y665113D01*
X453138Y665113D01*
X453138Y662037D01*
X453138Y663011D02*
X437762Y663011D01*
X437762Y663985D02*
X453138Y663985D01*
X453138Y664959D02*
X437762Y664959D01*
X437762Y668387D02*
X453138Y668387D01*
X437762Y668387D02*
X437762Y671463D01*
X453138Y671463D01*
X453138Y668387D01*
X453138Y669361D02*
X437762Y669361D01*
X437762Y670335D02*
X453138Y670335D01*
X453138Y671309D02*
X437762Y671309D01*
D12*
X562000Y533400D03*
X581000Y533400D03*
X562000Y571500D03*
X581000Y571500D03*
D16*
X655500Y571500D03*
X614500Y571500D03*
X655500Y533400D03*
X614500Y533400D03*
D13*
X128300Y190500D03*
X100300Y190500D03*
X128300Y228600D03*
X100300Y228600D03*
X229900Y190500D03*
X201900Y190500D03*
X229900Y228600D03*
X201900Y228600D03*
M02*
