M48
;GenerationSoftware,Autodesk,EAGLE,9.6.2*%
;CreationDate,2022-03-14T12:09:33Z*%
FMAT,2
ICI,OFF
METRIC,TZ,000.000
T12C0.350
T11C0.550
T10C0.600
T9C0.650
T8C0.762
T7C0.813
T6C0.965
T5C1.100
T4C1.200
T3C1.321
T2C2.921
%
G90
M71
T2
X6350Y6350
X82550Y6350
X82550Y74930
X6350Y74930
T3
X33655Y12700
X33655Y48260
X35687Y42291
X35687Y54229
X47879Y54229
X47879Y42291
X33655Y30480
X35687Y24511
X35687Y36449
X47879Y36449
X47879Y24511
X35687Y6731
X35687Y18669
X47879Y18669
X47879Y6731
T4
X78740Y29210
X78740Y26670
X78740Y16510
X78740Y24130
X78740Y21590
X78740Y19050
X78740Y31750
X78740Y34290
X78740Y43180
X78740Y40640
X78740Y13970
T5
X64770Y41405
X64770Y3905
T6
X6350Y53975
X6350Y51435
X6350Y59055
X6350Y56515
X6350Y46355
X8890Y31115
X11430Y31115
X13970Y31115
X16510Y31115
X19050Y31115
X21590Y61595
X21590Y64135
X6350Y64135
X21590Y59055
X6350Y61595
X21590Y56515
X21590Y53975
X21590Y51435
X21590Y48895
X21590Y46355
X21590Y43815
X21590Y41275
X21590Y38735
X21590Y36195
X21590Y33655
X21590Y31115
X6350Y31115
X6350Y33655
X6350Y36195
X6350Y38735
X6350Y41275
X6350Y43815
X6350Y48895
T7
X26670Y46990
X26670Y49530
X26670Y31750
X26670Y11430
X26670Y13970
X26670Y62230
X26670Y64770
X26670Y29210
T8
X71120Y68580
X68580Y68580
X73660Y68580
X76200Y68580
X66040Y68580
X63500Y68580
X63500Y60960
X66040Y60960
X68580Y60960
X71120Y60960
X73660Y60960
X76200Y60960
T9
X55880Y29210
X40005Y45720
X55880Y21590
X40005Y50800
X40005Y27940
X40005Y33020
T10
X84800Y57735
X80300Y51485
X84800Y51485
X80300Y57735
X72100Y57735
X67600Y51485
X72100Y51485
X67600Y57735
T11
X12065Y12065
X18415Y10795
X26670Y17780
X26670Y36195
X26670Y53975
X38100Y61595
X7620Y22860
X17780Y22860
T12
X40005Y10160
X64770Y19050
X64770Y13970
X18415Y7620
X13335Y7620
X40005Y15240
X54610Y58420
X43180Y60960
X43180Y58420
X78740Y68580
X71120Y66040
X64770Y66040
X73660Y63500
X68580Y64770
X63500Y66040
X69850Y58715
X71120Y64770
X48260Y60960
X48260Y58420
X54610Y60960
M30